####
#
# OBJ File Generated by Meshlab
#
####
# Object star_arm_link_5_collision_mesh.obj
#
# Vertices: 831
# Faces: 1658
#
####
vn 0.000000 0.000000 0.000000
v -0.011621 -0.020778 0.031000
vn 0.000000 0.000000 0.000000
v -0.000010 -0.029000 0.313922
vn 0.000000 0.000000 0.000000
v 0.003127 0.037387 0.277043
vn 0.000000 0.000000 0.000000
v 0.033500 -0.022606 0.096733
vn 0.000000 0.000000 0.000000
v -0.036866 0.017000 0.279037
vn 0.000000 0.000000 0.000000
v 0.000050 -0.049500 0.277043
vn 0.000000 0.000000 0.000000
v 0.036688 0.017000 0.281155
vn 0.000000 0.000000 0.000000
v 0.008280 0.018118 0.046100
vn 0.000000 0.000000 0.000000
v -0.008752 0.017000 0.312870
vn 0.000000 0.000000 0.000000
v 0.009508 -0.039103 0.089422
vn 0.000000 0.000000 0.000000
v -0.036920 -0.029000 0.276607
vn 0.000000 0.000000 0.000000
v 0.036688 -0.029000 0.281155
vn 0.000000 0.000000 0.000000
v 0.018609 -0.008675 0.031000
vn 0.000000 0.000000 0.000000
v -0.023753 0.023949 0.100131
vn 0.000000 0.000000 0.000000
v 0.033500 0.013579 0.103990
vn 0.000000 0.000000 0.000000
v -0.016593 0.032033 0.290054
vn 0.000000 0.000000 0.000000
v 0.017460 0.024840 0.302225
vn 0.000000 0.000000 0.000000
v -0.019660 -0.040727 0.294315
vn 0.000000 0.000000 0.000000
v -0.023293 -0.036142 0.099498
vn 0.000000 0.000000 0.000000
v -0.028397 -0.029000 0.300597
vn 0.000000 0.000000 0.000000
v 0.036920 -0.029000 0.276607
vn 0.000000 0.000000 0.000000
v 0.015147 -0.040719 0.298387
vn 0.000000 0.000000 0.000000
v -0.006987 0.011453 0.031000
vn 0.000000 0.000000 0.000000
v 0.008280 -0.030118 0.046100
vn 0.000000 0.000000 0.000000
v 0.002430 0.033500 0.112630
vn 0.000000 0.000000 0.000000
v -0.033500 -0.006018 0.087722
vn 0.000000 0.000000 0.000000
v 0.021348 0.007947 0.046100
vn 0.000000 0.000000 0.000000
v -0.028397 0.017000 0.300597
vn 0.000000 0.000000 0.000000
v -0.025177 0.029471 0.276607
vn 0.000000 0.000000 0.000000
v 0.021333 0.031682 0.281151
vn 0.000000 0.000000 0.000000
v 0.013114 0.017000 0.311515
vn 0.000000 0.000000 0.000000
v 0.000015 0.029439 0.302225
vn 0.000000 0.000000 0.000000
v -0.025207 -0.041450 0.276607
vn 0.000000 0.000000 0.000000
v -0.009519 -0.044000 0.167004
vn 0.000000 0.000000 0.000000
v -0.034536 -0.029000 0.290057
vn 0.000000 0.000000 0.000000
v -0.014498 -0.031609 0.309035
vn 0.000000 0.000000 0.000000
v 0.036866 -0.029000 0.279037
vn 0.000000 0.000000 0.000000
v 0.025802 -0.034910 0.103499
vn 0.000000 0.000000 0.000000
v 0.036920 0.017000 0.276607
vn 0.000000 0.000000 0.000000
v -0.002093 -0.045500 0.295100
vn 0.000000 0.000000 0.000000
v 0.005297 -0.024038 0.031000
vn 0.000000 0.000000 0.000000
v 0.021348 -0.019947 0.046100
vn 0.000000 0.000000 0.000000
v -0.008280 -0.030118 0.046100
vn 0.000000 0.000000 0.000000
v 0.021961 0.024641 0.097844
vn 0.000000 0.000000 0.000000
v -0.004197 0.019152 0.046100
vn 0.000000 0.000000 0.000000
v -0.036920 0.017000 0.276607
vn 0.000000 0.000000 0.000000
v -0.033500 -0.025754 0.105008
vn 0.000000 0.000000 0.000000
v -0.025413 -0.003894 0.046100
vn 0.000000 0.000000 0.000000
v 0.025413 -0.003894 0.046100
vn 0.000000 0.000000 0.000000
v 0.010164 0.009816 0.031000
vn 0.000000 0.000000 0.000000
v -0.017434 0.024854 0.302225
vn 0.000000 0.000000 0.000000
v -0.019562 -0.029000 0.308314
vn 0.000000 0.000000 0.000000
v -0.004978 0.033500 0.116530
vn 0.000000 0.000000 0.000000
v -0.027368 0.025190 0.290054
vn 0.000000 0.000000 0.000000
v 0.027394 0.025168 0.290054
vn 0.000000 0.000000 0.000000
v 0.012490 0.035668 0.277043
vn 0.000000 0.000000 0.000000
v 0.002392 0.017000 0.313845
vn 0.000000 0.000000 0.000000
v 0.024288 -0.029000 0.304809
vn 0.000000 0.000000 0.000000
v -0.003088 0.035515 0.289619
vn 0.000000 0.000000 0.000000
v 0.009925 0.025065 0.305788
vn 0.000000 0.000000 0.000000
v -0.012354 -0.047215 0.283400
vn 0.000000 0.000000 0.000000
v -0.009508 -0.039103 0.089422
vn 0.000000 0.000000 0.000000
v 0.006799 -0.044000 0.163673
vn 0.000000 0.000000 0.000000
v -0.036074 -0.029000 0.284868
vn 0.000000 0.000000 0.000000
v -0.034366 0.017000 0.290499
vn 0.000000 0.000000 0.000000
v -0.026344 -0.035974 0.294315
vn 0.000000 0.000000 0.000000
v 0.021399 -0.043871 0.276607
vn 0.000000 0.000000 0.000000
v 0.033500 -0.025969 0.107967
vn 0.000000 0.000000 0.000000
v 0.020089 -0.037226 0.095880
vn 0.000000 0.000000 0.000000
v 0.033500 -0.006018 0.087722
vn 0.000000 0.000000 0.000000
v 0.028716 0.026672 0.276607
vn 0.000000 0.000000 0.000000
v 0.036866 0.017000 0.279037
vn 0.000000 0.000000 0.000000
v 0.009280 -0.047415 0.286535
vn 0.000000 0.000000 0.000000
v -0.010786 -0.039758 0.302225
vn 0.000000 0.000000 0.000000
v 0.003338 -0.038440 0.305788
vn 0.000000 0.000000 0.000000
v 0.014208 -0.018311 0.031000
vn 0.000000 0.000000 0.000000
v 0.030570 -0.028737 0.099524
vn 0.000000 0.000000 0.000000
v -0.018761 -0.023271 0.046100
vn 0.000000 0.000000 0.000000
v 0.000000 -0.031500 0.046100
vn 0.000000 0.000000 0.000000
v -0.005297 -0.024038 0.031000
vn 0.000000 0.000000 0.000000
v 0.014904 0.026381 0.091934
vn 0.000000 0.000000 0.000000
v 0.016632 0.013330 0.046100
vn 0.000000 0.000000 0.000000
v -0.015662 0.014123 0.046100
vn 0.000000 0.000000 0.000000
v 0.000000 0.019500 0.046100
vn 0.000000 0.000000 0.000000
v -0.033500 0.013590 0.104044
vn 0.000000 0.000000 0.000000
v -0.027632 0.021522 0.107858
vn 0.000000 0.000000 0.000000
v -0.031897 0.023575 0.276607
vn 0.000000 0.000000 0.000000
v -0.033500 -0.018218 0.091962
vn 0.000000 0.000000 0.000000
v -0.027632 -0.033523 0.107858
vn 0.000000 0.000000 0.000000
v -0.018270 -0.001568 0.031000
vn 0.000000 0.000000 0.000000
v 0.033500 0.010035 0.095911
vn 0.000000 0.000000 0.000000
v 0.018270 -0.001568 0.031000
vn 0.000000 0.000000 0.000000
v 0.024720 -0.012260 0.046100
vn 0.000000 0.000000 0.000000
v -0.019562 0.017000 0.308314
vn 0.000000 0.000000 0.000000
v -0.011499 0.030092 0.298387
vn 0.000000 0.000000 0.000000
v -0.010140 -0.029000 0.312502
vn 0.000000 0.000000 0.000000
v -0.018162 0.033500 0.275534
vn 0.000000 0.000000 0.000000
v -0.000050 0.037500 0.277043
vn 0.000000 0.000000 0.000000
v -0.014533 0.026444 0.091716
vn 0.000000 0.000000 0.000000
v -0.002329 0.033500 0.112576
vn 0.000000 0.000000 0.000000
v -0.020972 0.031116 0.285650
vn 0.000000 0.000000 0.000000
v -0.023098 0.026541 0.294315
vn 0.000000 0.000000 0.000000
v 0.016624 0.032020 0.290054
vn 0.000000 0.000000 0.000000
v 0.028397 0.017000 0.300597
vn 0.000000 0.000000 0.000000
v 0.004987 0.033500 0.116644
vn 0.000000 0.000000 0.000000
v -0.002942 0.017000 0.313805
vn 0.000000 0.000000 0.000000
v 0.007384 -0.029000 0.313176
vn 0.000000 0.000000 0.000000
v 0.027368 -0.037190 0.290054
vn 0.000000 0.000000 0.000000
v 0.016067 0.022379 0.305788
vn 0.000000 0.000000 0.000000
v 0.007889 0.018692 0.311933
vn 0.000000 0.000000 0.000000
v -0.021003 -0.043099 0.285650
vn 0.000000 0.000000 0.000000
v -0.009414 -0.048469 0.277043
vn 0.000000 0.000000 0.000000
v -0.010351 -0.045500 0.291995
vn 0.000000 0.000000 0.000000
v -0.003051 -0.048332 0.286535
vn 0.000000 0.000000 0.000000
v -0.018057 -0.037747 0.094111
vn 0.000000 0.000000 0.000000
v -0.002991 -0.044000 0.161674
vn 0.000000 0.000000 0.000000
v -0.036688 -0.029000 0.281155
vn 0.000000 0.000000 0.000000
v -0.031785 -0.029000 0.295787
vn 0.000000 0.000000 0.000000
v -0.029263 0.021132 0.294315
vn 0.000000 0.000000 0.000000
v -0.035893 0.017000 0.285655
vn 0.000000 0.000000 0.000000
v -0.020537 -0.034882 0.302225
vn 0.000000 0.000000 0.000000
v -0.028144 -0.038021 0.285650
vn 0.000000 0.000000 0.000000
v 0.028689 -0.038696 0.276607
vn 0.000000 0.000000 0.000000
v 0.033500 -0.025110 0.102100
vn 0.000000 0.000000 0.000000
v 0.031440 -0.029077 0.107967
vn 0.000000 0.000000 0.000000
v 0.016317 -0.038120 0.092834
vn 0.000000 0.000000 0.000000
v 0.015662 -0.026123 0.046100
vn 0.000000 0.000000 0.000000
v 0.012552 -0.047531 0.273856
vn 0.000000 0.000000 0.000000
v 0.023293 -0.036142 0.099498
vn 0.000000 0.000000 0.000000
v 0.033500 -0.015412 0.090118
vn 0.000000 0.000000 0.000000
v 0.026601 0.022386 0.105165
vn 0.000000 0.000000 0.000000
v 0.031777 0.023415 0.281151
vn 0.000000 0.000000 0.000000
v 0.008142 -0.045066 0.294315
vn 0.000000 0.000000 0.000000
v -0.003657 -0.041250 0.302225
vn 0.000000 0.000000 0.000000
v 0.016281 -0.015400 0.031000
vn 0.000000 0.000000 0.000000
v -0.012137 -0.028427 0.046100
vn 0.000000 0.000000 0.000000
v -0.029704 -0.030121 0.100332
vn 0.000000 0.000000 0.000000
v 0.004197 -0.031152 0.046100
vn 0.000000 0.000000 0.000000
v -0.004197 -0.031152 0.046100
vn 0.000000 0.000000 0.000000
v 0.000000 -0.039558 0.087823
vn 0.000000 0.000000 0.000000
v 0.001787 -0.024715 0.031000
vn 0.000000 0.000000 0.000000
v 0.017824 0.025801 0.093927
vn 0.000000 0.000000 0.000000
v 0.004197 0.019152 0.046100
vn 0.000000 0.000000 0.000000
v 0.011675 0.016670 0.046100
vn 0.000000 0.000000 0.000000
v 0.012974 0.007606 0.031000
vn 0.000000 0.000000 0.000000
v -0.012137 0.016427 0.046100
vn 0.000000 0.000000 0.000000
v 0.000000 0.012800 0.031000
vn 0.000000 0.000000 0.000000
v -0.033500 0.006939 0.092555
vn 0.000000 0.000000 0.000000
v -0.021348 0.007947 0.046100
vn 0.000000 0.000000 0.000000
v -0.026599 0.022387 0.105160
vn 0.000000 0.000000 0.000000
v -0.031440 0.017077 0.107967
vn 0.000000 0.000000 0.000000
v -0.034768 0.020140 0.276607
vn 0.000000 0.000000 0.000000
v -0.028559 0.026548 0.281151
vn 0.000000 0.000000 0.000000
v -0.033500 -0.022610 0.096738
vn 0.000000 0.000000 0.000000
v -0.033500 -0.013894 0.089376
vn 0.000000 0.000000 0.000000
v -0.031922 -0.035548 0.276607
vn 0.000000 0.000000 0.000000
v -0.025807 -0.034907 0.103509
vn 0.000000 0.000000 0.000000
v -0.017766 -0.012149 0.031000
vn 0.000000 0.000000 0.000000
v 0.024720 0.000260 0.046100
vn 0.000000 0.000000 0.000000
v 0.031270 0.014990 0.097707
vn 0.000000 0.000000 0.000000
v 0.033500 0.002642 0.089722
vn 0.000000 0.000000 0.000000
v 0.033500 0.012789 0.101117
vn 0.000000 0.000000 0.000000
v 0.018779 -0.005106 0.031000
vn 0.000000 0.000000 0.000000
v 0.025413 -0.008106 0.046100
vn 0.000000 0.000000 0.000000
v 0.023352 -0.016243 0.046100
vn 0.000000 0.000000 0.000000
v -0.023374 0.020638 0.302225
vn 0.000000 0.000000 0.000000
v -0.011767 0.020973 0.309035
vn 0.000000 0.000000 0.000000
v -0.024288 -0.029000 0.304809
vn 0.000000 0.000000 0.000000
v -0.009918 0.033500 0.292285
vn 0.000000 0.000000 0.000000
v -0.006028 -0.034804 0.309035
vn 0.000000 0.000000 0.000000
v -0.014339 -0.029000 0.311024
vn 0.000000 0.000000 0.000000
v -0.010611 0.031000 0.115276
vn 0.000000 0.000000 0.000000
v -0.021399 0.031871 0.276607
vn 0.000000 0.000000 0.000000
v 0.004217 0.033500 0.114313
vn 0.000000 0.000000 0.000000
v -0.009511 0.036447 0.277043
vn 0.000000 0.000000 0.000000
v -0.000049 0.037027 0.283400
vn 0.000000 0.000000 0.000000
v -0.019986 0.025255 0.095782
vn 0.000000 0.000000 0.000000
v 0.000057 0.033500 0.112000
vn 0.000000 0.000000 0.000000
v -0.004154 0.033500 0.114218
vn 0.000000 0.000000 0.000000
v -0.001569 0.033500 0.112253
vn 0.000000 0.000000 0.000000
v -0.015957 0.030576 0.294315
vn 0.000000 0.000000 0.000000
v -0.024018 0.027838 0.290054
vn 0.000000 0.000000 0.000000
v 0.024704 0.028744 0.285650
vn 0.000000 0.000000 0.000000
v 0.019660 0.028726 0.294315
vn 0.000000 0.000000 0.000000
v 0.006168 0.033500 0.294145
vn 0.000000 0.000000 0.000000
v 0.015331 0.034203 0.283400
vn 0.000000 0.000000 0.000000
v 0.034366 0.017000 0.290499
vn 0.000000 0.000000 0.000000
v 0.019562 0.017000 0.308314
vn 0.000000 0.000000 0.000000
v 0.006287 0.037043 0.277043
vn 0.000000 0.000000 0.000000
v 0.018217 0.033500 0.276603
vn 0.000000 0.000000 0.000000
v 0.000010 0.017000 0.313922
vn 0.000000 0.000000 0.000000
v -0.004865 -0.029000 0.313600
vn 0.000000 0.000000 0.000000
v 0.002942 -0.029000 0.313805
vn 0.000000 0.000000 0.000000
v 0.008752 0.017000 0.312870
vn 0.000000 0.000000 0.000000
v 0.014339 -0.029000 0.311024
vn 0.000000 0.000000 0.000000
v 0.021925 -0.036889 0.298387
vn 0.000000 0.000000 0.000000
v 0.032602 -0.029000 0.294330
vn 0.000000 0.000000 0.000000
v 0.020972 -0.043116 0.285650
vn 0.000000 0.000000 0.000000
v 0.011790 0.020963 0.309035
vn 0.000000 0.000000 0.000000
v 0.014198 0.026471 0.302225
vn 0.000000 0.000000 0.000000
v 0.003036 0.023271 0.309035
vn 0.000000 0.000000 0.000000
v -0.018171 -0.045500 0.278354
vn 0.000000 0.000000 0.000000
v -0.024046 -0.039818 0.290054
vn 0.000000 0.000000 0.000000
v -0.006270 -0.048931 0.273856
vn 0.000000 0.000000 0.000000
v -0.011529 -0.042082 0.298387
vn 0.000000 0.000000 0.000000
v -0.014566 -0.045500 0.287946
vn 0.000000 0.000000 0.000000
v -0.003118 -0.049268 0.280230
vn 0.000000 0.000000 0.000000
v -0.009185 -0.047436 0.286535
vn 0.000000 0.000000 0.000000
v -0.006017 -0.047192 0.289619
vn 0.000000 0.000000 0.000000
v -0.013983 -0.038533 0.091407
vn 0.000000 0.000000 0.000000
v -0.010611 -0.044000 0.170276
vn 0.000000 0.000000 0.000000
v 0.002150 -0.044000 0.161467
vn 0.000000 0.000000 0.000000
v -0.006107 -0.044000 0.163153
vn 0.000000 0.000000 0.000000
v -0.036866 -0.029000 0.279037
vn 0.000000 0.000000 0.000000
v -0.032602 -0.029000 0.294330
vn 0.000000 0.000000 0.000000
v -0.027798 -0.031731 0.298387
vn 0.000000 0.000000 0.000000
v -0.030076 -0.029000 0.298417
vn 0.000000 0.000000 0.000000
v -0.031785 0.017000 0.295787
vn 0.000000 0.000000 0.000000
v -0.030429 0.022213 0.290054
vn 0.000000 0.000000 0.000000
v -0.026320 0.023995 0.294315
vn 0.000000 0.000000 0.000000
v -0.036688 0.017000 0.281155
vn 0.000000 0.000000 0.000000
v -0.021951 -0.036871 0.298387
vn 0.000000 0.000000 0.000000
v -0.016067 -0.034379 0.305788
vn 0.000000 0.000000 0.000000
v -0.030452 -0.034188 0.290054
vn 0.000000 0.000000 0.000000
v -0.025093 -0.041290 0.281151
vn 0.000000 0.000000 0.000000
v 0.031897 -0.035575 0.276607
vn 0.000000 0.000000 0.000000
v 0.025177 -0.041471 0.276607
vn 0.000000 0.000000 0.000000
v 0.033500 -0.024054 0.099325
vn 0.000000 0.000000 0.000000
v 0.033500 -0.025753 0.105004
vn 0.000000 0.000000 0.000000
v 0.027256 -0.033414 0.102746
vn 0.000000 0.000000 0.000000
v 0.009890 -0.044000 0.167786
vn 0.000000 0.000000 0.000000
v 0.012137 -0.028427 0.046100
vn 0.000000 0.000000 0.000000
v 0.018761 -0.023271 0.046100
vn 0.000000 0.000000 0.000000
v 0.006368 -0.048910 0.280230
vn 0.000000 0.000000 0.000000
v 0.022094 -0.036469 0.097614
vn 0.000000 0.000000 0.000000
v 0.015552 -0.046503 0.273856
vn 0.000000 0.000000 0.000000
v 0.033500 -0.009928 0.088121
vn 0.000000 0.000000 0.000000
v 0.033500 -0.020121 0.093662
vn 0.000000 0.000000 0.000000
v 0.025207 0.029450 0.276607
vn 0.000000 0.000000 0.000000
v 0.030796 0.017929 0.107967
vn 0.000000 0.000000 0.000000
v 0.027417 0.020543 0.099815
vn 0.000000 0.000000 0.000000
v 0.034632 0.019993 0.281151
vn 0.000000 0.000000 0.000000
v 0.003877 -0.043681 0.298387
vn 0.000000 0.000000 0.000000
v 0.003088 -0.047515 0.289619
vn 0.000000 0.000000 0.000000
v -0.015662 -0.026123 0.046100
vn 0.000000 0.000000 0.000000
v -0.020468 -0.037117 0.096249
vn 0.000000 0.000000 0.000000
v -0.008615 -0.022710 0.031000
vn 0.000000 0.000000 0.000000
v -0.025693 -0.033716 0.098215
vn 0.000000 0.000000 0.000000
v -0.030796 -0.029929 0.107967
vn 0.000000 0.000000 0.000000
v 0.004372 -0.039464 0.088154
vn 0.000000 0.000000 0.000000
v 0.013516 -0.038606 0.091156
vn 0.000000 0.000000 0.000000
v -0.004372 -0.039464 0.088154
vn 0.000000 0.000000 0.000000
v -0.001787 -0.024715 0.031000
vn 0.000000 0.000000 0.000000
v 0.019987 0.025255 0.095783
vn 0.000000 0.000000 0.000000
v 0.012545 0.026746 0.090669
vn 0.000000 0.000000 0.000000
v 0.001677 0.033500 0.112290
vn 0.000000 0.000000 0.000000
v 0.006987 0.011453 0.031000
vn 0.000000 0.000000 0.000000
v 0.018761 0.011271 0.046100
vn 0.000000 0.000000 0.000000
v 0.017101 0.001810 0.031000
vn 0.000000 0.000000 0.000000
v -0.008280 0.018118 0.046100
vn 0.000000 0.000000 0.000000
v -0.010164 0.009816 0.031000
vn 0.000000 0.000000 0.000000
v -0.003558 0.012460 0.031000
vn 0.000000 0.000000 0.000000
v -0.033500 -0.000541 0.088497
vn 0.000000 0.000000 0.000000
v -0.033500 0.011631 0.098470
vn 0.000000 0.000000 0.000000
v -0.027895 0.020131 0.100119
vn 0.000000 0.000000 0.000000
v -0.024720 0.000260 0.046100
vn 0.000000 0.000000 0.000000
v -0.028689 0.026696 0.276607
vn 0.000000 0.000000 0.000000
v -0.033500 0.013945 0.106979
vn 0.000000 0.000000 0.000000
v -0.031164 0.016874 0.102746
vn 0.000000 0.000000 0.000000
v -0.027667 0.021487 0.107967
vn 0.000000 0.000000 0.000000
v -0.031753 0.023441 0.281151
vn 0.000000 0.000000 0.000000
v -0.025063 0.029311 0.281151
vn 0.000000 0.000000 0.000000
v -0.033500 -0.025110 0.102100
vn 0.000000 0.000000 0.000000
v -0.033500 -0.020806 0.094391
vn 0.000000 0.000000 0.000000
v -0.033500 -0.009077 0.087967
vn 0.000000 0.000000 0.000000
v -0.025413 -0.008106 0.046100
vn 0.000000 0.000000 0.000000
v -0.028716 -0.038672 0.276607
vn 0.000000 0.000000 0.000000
v -0.031777 -0.035415 0.281151
vn 0.000000 0.000000 0.000000
v -0.027256 -0.033414 0.102746
vn 0.000000 0.000000 0.000000
v -0.016281 -0.015400 0.031000
vn 0.000000 0.000000 0.000000
v 0.023352 0.004243 0.046100
vn 0.000000 0.000000 0.000000
v 0.033500 -0.002923 0.087967
vn 0.000000 0.000000 0.000000
v 0.033500 0.007464 0.093025
vn 0.000000 0.000000 0.000000
v 0.033500 0.011603 0.098417
vn 0.000000 0.000000 0.000000
v 0.031164 0.016874 0.102746
vn 0.000000 0.000000 0.000000
v 0.017766 -0.012149 0.031000
vn 0.000000 0.000000 0.000000
v -0.018876 0.020594 0.305788
vn 0.000000 0.000000 0.000000
v -0.024288 0.017000 0.304809
vn 0.000000 0.000000 0.000000
v -0.021925 0.024889 0.298387
vn 0.000000 0.000000 0.000000
v -0.027777 0.019754 0.298387
vn 0.000000 0.000000 0.000000
v -0.014339 0.017000 0.311024
vn 0.000000 0.000000 0.000000
v -0.009900 0.025073 0.305788
vn 0.000000 0.000000 0.000000
v -0.006004 0.022809 0.309035
vn 0.000000 0.000000 0.000000
v -0.021529 -0.030495 0.305788
vn 0.000000 0.000000 0.000000
v -0.003877 0.031680 0.298387
vn 0.000000 0.000000 0.000000
v -0.011790 -0.032963 0.309035
vn 0.000000 0.000000 0.000000
v -0.006681 -0.037920 0.305788
vn 0.000000 0.000000 0.000000
v -0.000012 -0.035428 0.309035
vn 0.000000 0.000000 0.000000
v -0.017053 -0.029983 0.309035
vn 0.000000 0.000000 0.000000
v -0.010750 0.031000 0.117000
vn 0.000000 0.000000 0.000000
v -0.025299 0.023199 0.102571
vn 0.000000 0.000000 0.000000
v -0.017738 0.033500 0.281168
vn 0.000000 0.000000 0.000000
v 0.003116 0.033500 0.113090
vn 0.000000 0.000000 0.000000
v 0.004861 0.033500 0.115828
vn 0.000000 0.000000 0.000000
v -0.003226 0.037380 0.277043
vn 0.000000 0.000000 0.000000
v -0.012585 0.035640 0.277043
vn 0.000000 0.000000 0.000000
v -0.009407 0.035986 0.283400
vn 0.000000 0.000000 0.000000
v -0.000050 0.037380 0.280230
vn 0.000000 0.000000 0.000000
v -0.021961 0.024641 0.097844
vn 0.000000 0.000000 0.000000
v -0.003640 0.033500 0.113572
vn 0.000000 0.000000 0.000000
v -0.004833 0.033500 0.115717
vn 0.000000 0.000000 0.000000
v -0.017824 0.025801 0.093927
vn 0.000000 0.000000 0.000000
v -0.000767 0.033500 0.112059
vn 0.000000 0.000000 0.000000
v -0.015147 0.028719 0.298387
vn 0.000000 0.000000 0.000000
v -0.012636 0.033500 0.290127
vn 0.000000 0.000000 0.000000
v -0.012114 0.032022 0.294315
vn 0.000000 0.000000 0.000000
v -0.020413 0.030127 0.290054
vn 0.000000 0.000000 0.000000
v -0.028117 0.026044 0.285650
vn 0.000000 0.000000 0.000000
v 0.021003 0.031099 0.285650
vn 0.000000 0.000000 0.000000
v 0.028144 0.026021 0.285650
vn 0.000000 0.000000 0.000000
v 0.025007 0.022452 0.298387
vn 0.000000 0.000000 0.000000
v 0.024046 0.027818 0.290054
vn 0.000000 0.000000 0.000000
v 0.002992 0.035522 0.289619
vn 0.000000 0.000000 0.000000
v 0.007260 0.028688 0.302225
vn 0.000000 0.000000 0.000000
v 0.009009 0.034643 0.289619
vn 0.000000 0.000000 0.000000
v 0.035893 -0.029000 0.285655
vn 0.000000 0.000000 0.000000
v 0.024288 0.017000 0.304809
vn 0.000000 0.000000 0.000000
v 0.009414 0.036469 0.277043
vn 0.000000 0.000000 0.000000
v 0.015499 0.034645 0.277043
vn 0.000000 0.000000 0.000000
v 0.017985 0.033500 0.279923
vn 0.000000 0.000000 0.000000
v 0.010715 0.031000 0.116135
vn 0.000000 0.000000 0.000000
v 0.024574 0.023573 0.101359
vn 0.000000 0.000000 0.000000
v -0.002373 0.017000 0.313846
vn 0.000000 0.000000 0.000000
v 0.002373 -0.029000 0.313846
vn 0.000000 0.000000 0.000000
v -0.007384 0.017000 0.313176
vn 0.000000 0.000000 0.000000
v -0.007889 -0.030692 0.311933
vn 0.000000 0.000000 0.000000
v 0.004865 0.017000 0.313600
vn 0.000000 0.000000 0.000000
v 0.010385 0.017751 0.311933
vn 0.000000 0.000000 0.000000
v 0.014339 0.017000 0.311024
vn 0.000000 0.000000 0.000000
v 0.019562 -0.029000 0.308314
vn 0.000000 0.000000 0.000000
v 0.011644 -0.029000 0.312038
vn 0.000000 0.000000 0.000000
v 0.013040 -0.035891 0.305788
vn 0.000000 0.000000 0.000000
v 0.029263 -0.033132 0.294315
vn 0.000000 0.000000 0.000000
v 0.031785 0.017000 0.295787
vn 0.000000 0.000000 0.000000
v 0.028397 -0.029000 0.300597
vn 0.000000 0.000000 0.000000
v 0.028559 -0.038548 0.281151
vn 0.000000 0.000000 0.000000
v 0.019631 -0.040743 0.294315
vn 0.000000 0.000000 0.000000
v 0.013065 0.023880 0.305788
vn 0.000000 0.000000 0.000000
v 0.018662 0.026963 0.298387
vn 0.000000 0.000000 0.000000
v 0.006028 0.022804 0.309035
vn 0.000000 0.000000 0.000000
v 0.000011 0.019922 0.311933
vn 0.000000 0.000000 0.000000
v -0.017283 -0.045500 0.282770
vn 0.000000 0.000000 0.000000
v -0.012455 -0.047553 0.280230
vn 0.000000 0.000000 0.000000
v -0.021430 -0.043853 0.276607
vn 0.000000 0.000000 0.000000
v -0.020443 -0.042110 0.290054
vn 0.000000 0.000000 0.000000
v -0.023125 -0.038522 0.294315
vn 0.000000 0.000000 0.000000
v -0.024704 -0.040744 0.285650
vn 0.000000 0.000000 0.000000
v -0.003119 -0.049274 0.273856
vn 0.000000 0.000000 0.000000
v -0.015987 -0.042563 0.294315
vn 0.000000 0.000000 0.000000
v -0.007759 -0.043076 0.298387
vn 0.000000 0.000000 0.000000
v -0.006287 -0.049043 0.277043
vn 0.000000 0.000000 0.000000
v -0.012186 -0.046655 0.286535
vn 0.000000 0.000000 0.000000
v -0.006219 -0.048575 0.283400
vn 0.000000 0.000000 0.000000
v -0.002992 -0.047522 0.289619
vn 0.000000 0.000000 0.000000
v -0.006168 -0.045500 0.294145
vn 0.000000 0.000000 0.000000
v -0.006134 -0.047996 0.286535
vn 0.000000 0.000000 0.000000
v -0.009009 -0.046643 0.289619
vn 0.000000 0.000000 0.000000
v -0.010863 -0.038958 0.089929
vn 0.000000 0.000000 0.000000
v -0.016357 -0.038019 0.092659
vn 0.000000 0.000000 0.000000
v -0.010197 -0.044000 0.168596
vn 0.000000 0.000000 0.000000
v -0.009389 -0.048358 0.273856
vn 0.000000 0.000000 0.000000
v 0.000050 -0.049386 0.273856
vn 0.000000 0.000000 0.000000
v 0.000433 -0.044000 0.161259
vn 0.000000 0.000000 0.000000
v -0.034789 -0.032111 0.276607
vn 0.000000 0.000000 0.000000
v -0.034366 -0.029000 0.290499
vn 0.000000 0.000000 0.000000
v -0.026008 -0.030074 0.302225
vn 0.000000 0.000000 0.000000
v -0.030076 0.017000 0.298417
vn 0.000000 0.000000 0.000000
v -0.031896 0.017981 0.294315
vn 0.000000 0.000000 0.000000
v -0.032602 0.017000 0.294330
vn 0.000000 0.000000 0.000000
v -0.034075 0.019619 0.285650
vn 0.000000 0.000000 0.000000
v -0.036074 0.017000 0.284868
vn 0.000000 0.000000 0.000000
v -0.034610 0.020022 0.281151
vn 0.000000 0.000000 0.000000
v -0.025007 -0.034452 0.298387
vn 0.000000 0.000000 0.000000
v -0.015176 -0.040707 0.298387
vn 0.000000 0.000000 0.000000
v -0.027394 -0.037168 0.290054
vn 0.000000 0.000000 0.000000
v -0.034096 -0.031591 0.285650
vn 0.000000 0.000000 0.000000
v -0.029285 -0.033108 0.294315
vn 0.000000 0.000000 0.000000
v -0.021333 -0.043682 0.281151
vn 0.000000 0.000000 0.000000
v 0.034768 -0.032140 0.276607
vn 0.000000 0.000000 0.000000
v 0.027632 -0.033523 0.107858
vn 0.000000 0.000000 0.000000
v 0.025063 -0.041311 0.281151
vn 0.000000 0.000000 0.000000
v 0.031272 -0.026985 0.097700
vn 0.000000 0.000000 0.000000
v 0.033417 -0.023315 0.097614
vn 0.000000 0.000000 0.000000
v 0.031164 -0.028874 0.102746
vn 0.000000 0.000000 0.000000
v 0.026763 -0.033043 0.099288
vn 0.000000 0.000000 0.000000
v 0.010438 -0.044000 0.169427
vn 0.000000 0.000000 0.000000
v 0.008615 -0.022710 0.031000
vn 0.000000 0.000000 0.000000
v 0.011621 -0.020778 0.031000
vn 0.000000 0.000000 0.000000
v 0.012551 -0.047525 0.280230
vn 0.000000 0.000000 0.000000
v 0.000050 -0.049380 0.280230
vn 0.000000 0.000000 0.000000
v 0.018162 -0.045500 0.275534
vn 0.000000 0.000000 0.000000
v 0.033500 -0.009077 0.087967
vn 0.000000 0.000000 0.000000
v 0.033500 -0.012754 0.088920
vn 0.000000 0.000000 0.000000
v 0.033500 -0.017908 0.091723
vn 0.000000 0.000000 0.000000
v 0.033500 -0.020799 0.094383
vn 0.000000 0.000000 0.000000
v 0.021430 0.031853 0.276607
vn 0.000000 0.000000 0.000000
v 0.028586 0.026525 0.281151
vn 0.000000 0.000000 0.000000
v 0.033500 0.013942 0.106922
vn 0.000000 0.000000 0.000000
v 0.031922 0.023548 0.276607
vn 0.000000 0.000000 0.000000
v 0.036074 0.017000 0.284868
vn 0.000000 0.000000 0.000000
v 0.034789 0.020111 0.276607
vn 0.000000 0.000000 0.000000
v 0.011499 -0.042092 0.298387
vn 0.000000 0.000000 0.000000
v -0.000016 -0.043879 0.298387
vn 0.000000 0.000000 0.000000
v 0.006111 -0.047178 0.289619
vn 0.000000 0.000000 0.000000
v 0.003191 -0.048908 0.283400
vn 0.000000 0.000000 0.000000
v 0.002093 -0.045500 0.295100
vn 0.000000 0.000000 0.000000
v -0.022094 -0.036469 0.097614
vn 0.000000 0.000000 0.000000
v -0.015459 -0.046539 0.273856
vn 0.000000 0.000000 0.000000
v -0.027417 -0.032543 0.099815
vn 0.000000 0.000000 0.000000
v -0.025383 -0.035153 0.102721
vn 0.000000 0.000000 0.000000
v -0.031164 -0.028874 0.102746
vn 0.000000 0.000000 0.000000
v -0.027667 -0.033487 0.107967
vn 0.000000 0.000000 0.000000
v -0.031440 -0.029077 0.107967
vn 0.000000 0.000000 0.000000
v 0.006980 -0.039317 0.088674
vn 0.000000 0.000000 0.000000
v 0.002883 -0.039517 0.087967
vn 0.000000 0.000000 0.000000
v -0.006983 -0.039316 0.088675
vn 0.000000 0.000000 0.000000
v -0.002883 -0.039517 0.087967
vn 0.000000 0.000000 0.000000
v 0.000879 0.033500 0.112078
vn 0.000000 0.000000 0.000000
v 0.003558 0.012460 0.031000
vn 0.000000 0.000000 0.000000
v 0.015314 0.004905 0.031000
vn 0.000000 0.000000 0.000000
v 0.025693 0.021716 0.098215
vn 0.000000 0.000000 0.000000
v 0.030275 0.017262 0.099907
vn 0.000000 0.000000 0.000000
v -0.012974 0.007606 0.031000
vn 0.000000 0.000000 0.000000
v -0.033500 -0.002923 0.087967
vn 0.000000 0.000000 0.000000
v -0.033500 0.004129 0.090527
vn 0.000000 0.000000 0.000000
v -0.033500 0.010068 0.095956
vn 0.000000 0.000000 0.000000
v -0.033500 0.012810 0.101177
vn 0.000000 0.000000 0.000000
v -0.025687 0.021719 0.098209
vn 0.000000 0.000000 0.000000
v -0.018761 0.011271 0.046100
vn 0.000000 0.000000 0.000000
v -0.023352 0.004243 0.046100
vn 0.000000 0.000000 0.000000
v -0.027256 0.021414 0.102746
vn 0.000000 0.000000 0.000000
v -0.030570 0.016737 0.099524
vn 0.000000 0.000000 0.000000
v -0.033500 -0.024055 0.099326
vn 0.000000 0.000000 0.000000
v -0.033500 -0.020121 0.093662
vn 0.000000 0.000000 0.000000
v -0.023352 -0.016243 0.046100
vn 0.000000 0.000000 0.000000
v -0.018779 -0.005106 0.031000
vn 0.000000 0.000000 0.000000
v -0.028586 -0.038525 0.281151
vn 0.000000 0.000000 0.000000
v -0.014208 -0.018311 0.031000
vn 0.000000 0.000000 0.000000
v 0.033500 -0.000080 0.088636
vn 0.000000 0.000000 0.000000
v 0.033500 0.008121 0.093662
vn 0.000000 0.000000 0.000000
v 0.033500 0.005154 0.091182
vn 0.000000 0.000000 0.000000
v 0.033417 0.011315 0.097614
vn 0.000000 0.000000 0.000000
v 0.027256 0.021414 0.102746
vn 0.000000 0.000000 0.000000
v -0.020513 0.022899 0.302225
vn 0.000000 0.000000 0.000000
v -0.016043 0.022393 0.305788
vn 0.000000 0.000000 0.000000
v -0.025988 0.018095 0.302225
vn 0.000000 0.000000 0.000000
v -0.021509 0.018513 0.305788
vn 0.000000 0.000000 0.000000
v -0.024983 0.022473 0.298387
vn 0.000000 0.000000 0.000000
v -0.030729 0.017000 0.297469
vn 0.000000 0.000000 0.000000
v -0.010365 0.017759 0.311933
vn 0.000000 0.000000 0.000000
v -0.017033 0.017997 0.309035
vn 0.000000 0.000000 0.000000
v -0.011644 -0.029000 0.312038
vn 0.000000 0.000000 0.000000
v -0.008933 0.022039 0.309035
vn 0.000000 0.000000 0.000000
v 0.000014 0.026612 0.305788
vn 0.000000 0.000000 0.000000
v -0.018898 -0.032578 0.305788
vn 0.000000 0.000000 0.000000
v -0.007231 0.028694 0.302225
vn 0.000000 0.000000 0.000000
v -0.006168 0.033500 0.294145
vn 0.000000 0.000000 0.000000
v 0.000016 0.031879 0.298387
vn 0.000000 0.000000 0.000000
v -0.013065 -0.035880 0.305788
vn 0.000000 0.000000 0.000000
v -0.007260 -0.040688 0.302225
vn 0.000000 0.000000 0.000000
v -0.009925 -0.037065 0.305788
vn 0.000000 0.000000 0.000000
v -0.003365 -0.038438 0.305788
vn 0.000000 0.000000 0.000000
v -0.002675 -0.031784 0.311933
vn 0.000000 0.000000 0.000000
v 0.006004 -0.034809 0.309035
vn 0.000000 0.000000 0.000000
v -0.018171 0.033500 0.278354
vn 0.000000 0.000000 0.000000
v -0.021302 0.031699 0.281151
vn 0.000000 0.000000 0.000000
v -0.017047 0.033075 0.285650
vn 0.000000 0.000000 0.000000
v 0.003717 0.033500 0.113656
vn 0.000000 0.000000 0.000000
v 0.004601 0.033500 0.115044
vn 0.000000 0.000000 0.000000
v -0.006386 0.037029 0.277043
vn 0.000000 0.000000 0.000000
v -0.015592 0.034609 0.277043
vn 0.000000 0.000000 0.000000
v -0.009102 0.034622 0.289619
vn 0.000000 0.000000 0.000000
v -0.012551 0.035525 0.280230
vn 0.000000 0.000000 0.000000
v -0.003148 0.036325 0.286535
vn 0.000000 0.000000 0.000000
v 0.003118 0.037268 0.280230
vn 0.000000 0.000000 0.000000
v -0.003217 0.037260 0.280230
vn 0.000000 0.000000 0.000000
v -0.003026 0.033500 0.113020
vn 0.000000 0.000000 0.000000
v -0.010930 0.026950 0.089956
vn 0.000000 0.000000 0.000000
v -0.004556 0.033500 0.114939
vn 0.000000 0.000000 0.000000
v -0.018635 0.026979 0.298387
vn 0.000000 0.000000 0.000000
v -0.014171 0.026483 0.302225
vn 0.000000 0.000000 0.000000
v -0.011524 0.033500 0.291114
vn 0.000000 0.000000 0.000000
v -0.019631 0.028743 0.294315
vn 0.000000 0.000000 0.000000
v -0.024675 0.028764 0.285650
vn 0.000000 0.000000 0.000000
v 0.017079 0.033061 0.285650
vn 0.000000 0.000000 0.000000
v 0.031286 0.022959 0.285650
vn 0.000000 0.000000 0.000000
v 0.026344 0.023974 0.294315
vn 0.000000 0.000000 0.000000
v 0.020443 0.030110 0.290054
vn 0.000000 0.000000 0.000000
v 0.011529 0.030082 0.298387
vn 0.000000 0.000000 0.000000
v 0.010786 0.027758 0.302225
vn 0.000000 0.000000 0.000000
v 0.006017 0.035192 0.289619
vn 0.000000 0.000000 0.000000
v 0.034366 -0.029000 0.290499
vn 0.000000 0.000000 0.000000
v 0.031753 -0.035441 0.281151
vn 0.000000 0.000000 0.000000
v 0.026008 0.018074 0.302225
vn 0.000000 0.000000 0.000000
v 0.020537 0.022882 0.302225
vn 0.000000 0.000000 0.000000
v 0.009387 0.036352 0.280230
vn 0.000000 0.000000 0.000000
v 0.015457 0.034533 0.280230
vn 0.000000 0.000000 0.000000
v 0.018171 0.033500 0.278354
vn 0.000000 0.000000 0.000000
v 0.010438 0.031000 0.114427
vn 0.000000 0.000000 0.000000
v -0.002392 -0.029000 0.313845
vn 0.000000 0.000000 0.000000
v 0.002653 -0.031786 0.311933
vn 0.000000 0.000000 0.000000
v -0.005289 0.019377 0.311933
vn 0.000000 0.000000 0.000000
v -0.008752 -0.029000 0.312870
vn 0.000000 0.000000 0.000000
v -0.008956 -0.034032 0.309035
vn 0.000000 0.000000 0.000000
v -0.010385 -0.029751 0.311933
vn 0.000000 0.000000 0.000000
v 0.002942 0.017000 0.313805
vn 0.000000 0.000000 0.000000
v 0.011644 0.017000 0.312038
vn 0.000000 0.000000 0.000000
v 0.014498 0.019609 0.309035
vn 0.000000 0.000000 0.000000
v 0.020513 -0.034899 0.302225
vn 0.000000 0.000000 0.000000
v 0.010117 -0.029000 0.312509
vn 0.000000 0.000000 0.000000
v 0.013090 -0.029000 0.311524
vn 0.000000 0.000000 0.000000
v 0.014477 -0.031621 0.309035
vn 0.000000 0.000000 0.000000
v 0.026320 -0.035995 0.294315
vn 0.000000 0.000000 0.000000
v 0.032602 0.017000 0.294330
vn 0.000000 0.000000 0.000000
v 0.027798 0.019731 0.298387
vn 0.000000 0.000000 0.000000
v 0.030076 -0.029000 0.298417
vn 0.000000 0.000000 0.000000
v 0.018635 -0.038979 0.298387
vn 0.000000 0.000000 0.000000
v 0.024018 -0.039838 0.290054
vn 0.000000 0.000000 0.000000
v 0.013144 -0.045500 0.289619
vn 0.000000 0.000000 0.000000
v 0.023125 0.026522 0.294315
vn 0.000000 0.000000 0.000000
v 0.008956 0.022032 0.309035
vn 0.000000 0.000000 0.000000
v 0.006681 0.025920 0.305788
vn 0.000000 0.000000 0.000000
v 0.005310 0.019372 0.311933
vn 0.000000 0.000000 0.000000
v -0.003012 0.023273 0.309035
vn 0.000000 0.000000 0.000000
v -0.002653 0.019786 0.311933
vn 0.000000 0.000000 0.000000
v -0.017079 -0.045061 0.285650
vn 0.000000 0.000000 0.000000
v -0.015457 -0.046533 0.280230
vn 0.000000 0.000000 0.000000
v -0.018217 -0.045500 0.276603
vn 0.000000 0.000000 0.000000
v -0.007447 -0.044000 0.164247
vn 0.000000 0.000000 0.000000
v -0.012145 -0.044012 0.294315
vn 0.000000 0.000000 0.000000
v -0.016624 -0.044020 0.290054
vn 0.000000 0.000000 0.000000
v -0.003127 -0.049387 0.277043
vn 0.000000 0.000000 0.000000
v -0.009311 -0.048007 0.283400
vn 0.000000 0.000000 0.000000
v -0.011953 -0.045877 0.289619
vn 0.000000 0.000000 0.000000
v -0.003093 -0.048915 0.283400
vn 0.000000 0.000000 0.000000
v -0.006270 -0.048924 0.280230
vn 0.000000 0.000000 0.000000
v 0.000049 -0.048442 0.286535
vn 0.000000 0.000000 0.000000
v -0.002918 -0.046488 0.292635
vn 0.000000 0.000000 0.000000
v -0.003908 -0.043677 0.298387
vn 0.000000 0.000000 0.000000
v -0.008784 -0.045631 0.292635
vn 0.000000 0.000000 0.000000
v 0.005375 -0.044000 0.162690
vn 0.000000 0.000000 0.000000
v 0.003218 -0.049267 0.273856
vn 0.000000 0.000000 0.000000
v -0.004608 -0.044000 0.162288
vn 0.000000 0.000000 0.000000
v -0.001296 -0.044000 0.161328
vn 0.000000 0.000000 0.000000
v -0.034632 -0.031993 0.281151
vn 0.000000 0.000000 0.000000
v -0.033187 -0.030909 0.290054
vn 0.000000 0.000000 0.000000
v -0.023396 -0.032619 0.302225
vn 0.000000 0.000000 0.000000
v -0.033167 0.018936 0.290054
vn 0.000000 0.000000 0.000000
v -0.031262 0.022985 0.285650
vn 0.000000 0.000000 0.000000
v -0.018662 -0.038963 0.298387
vn 0.000000 0.000000 0.000000
v -0.031286 -0.034959 0.285650
vn 0.000000 0.000000 0.000000
v -0.031916 -0.029955 0.294315
vn 0.000000 0.000000 0.000000
v -0.017738 -0.045500 0.281168
vn 0.000000 0.000000 0.000000
v 0.034610 -0.032022 0.281151
vn 0.000000 0.000000 0.000000
v 0.027667 -0.033487 0.107967
vn 0.000000 0.000000 0.000000
v 0.021302 -0.043699 0.281151
vn 0.000000 0.000000 0.000000
v 0.028662 -0.031377 0.100423
vn 0.000000 0.000000 0.000000
v 0.025687 -0.033719 0.098209
vn 0.000000 0.000000 0.000000
v 0.010715 -0.044000 0.171135
vn 0.000000 0.000000 0.000000
v 0.009511 -0.048448 0.277043
vn 0.000000 0.000000 0.000000
v 0.009407 -0.047986 0.283400
vn 0.000000 0.000000 0.000000
v 0.015592 -0.046609 0.277043
vn 0.000000 0.000000 0.000000
v 0.003226 -0.049380 0.277043
vn 0.000000 0.000000 0.000000
v 0.033500 -0.013894 0.089376
vn 0.000000 0.000000 0.000000
v 0.025093 0.029290 0.281151
vn 0.000000 0.000000 0.000000
v 0.031440 0.017077 0.107967
vn 0.000000 0.000000 0.000000
v 0.027632 0.021522 0.107858
vn 0.000000 0.000000 0.000000
v 0.034536 0.017000 0.290057
vn 0.000000 0.000000 0.000000
v 0.036074 -0.029000 0.284868
vn 0.000000 0.000000 0.000000
v 0.007729 -0.043083 0.298387
vn 0.000000 0.000000 0.000000
v 0.014171 -0.038483 0.302225
vn 0.000000 0.000000 0.000000
v -0.000015 -0.041439 0.302225
vn 0.000000 0.000000 0.000000
v 0.003217 -0.049260 0.280230
vn 0.000000 0.000000 0.000000
v 0.006230 -0.047982 0.286535
vn 0.000000 0.000000 0.000000
v 0.004097 -0.045500 0.294754
vn 0.000000 0.000000 0.000000
v -0.000016 -0.045500 0.295221
vn 0.000000 0.000000 0.000000
v -0.012457 -0.047559 0.273856
vn 0.000000 0.000000 0.000000
v -0.028772 -0.031259 0.100445
vn 0.000000 0.000000 0.000000
v -0.033500 -0.025969 0.107967
vn 0.000000 0.000000 0.000000
v 0.009086 -0.044000 0.166255
vn 0.000000 0.000000 0.000000
v 0.008047 -0.044000 0.164871
vn 0.000000 0.000000 0.000000
v 0.024688 0.022197 0.097036
vn 0.000000 0.000000 0.000000
v 0.028772 0.019259 0.100445
vn 0.000000 0.000000 0.000000
v 0.030889 0.016070 0.098920
vn 0.000000 0.000000 0.000000
v -0.017101 0.001810 0.031000
vn 0.000000 0.000000 0.000000
v -0.033500 0.008176 0.093717
vn 0.000000 0.000000 0.000000
v -0.026763 0.021043 0.099288
vn 0.000000 0.000000 0.000000
v -0.015314 0.004905 0.031000
vn 0.000000 0.000000 0.000000
v -0.033417 0.011315 0.097614
vn 0.000000 0.000000 0.000000
v -0.028662 0.019377 0.100423
vn 0.000000 0.000000 0.000000
v -0.031272 0.014985 0.097700
vn 0.000000 0.000000 0.000000
v -0.021348 -0.019947 0.046100
vn 0.000000 0.000000 0.000000
v -0.030889 -0.028070 0.098920
vn 0.000000 0.000000 0.000000
v -0.033500 -0.020175 0.093717
vn 0.000000 0.000000 0.000000
v -0.024720 -0.012260 0.046100
vn 0.000000 0.000000 0.000000
v -0.033417 -0.023315 0.097614
vn 0.000000 0.000000 0.000000
v -0.018609 -0.008675 0.031000
vn 0.000000 0.000000 0.000000
v 0.033500 0.004129 0.090527
vn 0.000000 0.000000 0.000000
v -0.013040 0.023891 0.305788
vn 0.000000 0.000000 0.000000
v -0.011644 0.017000 0.312038
vn 0.000000 0.000000 0.000000
v -0.014477 0.019621 0.309035
vn 0.000000 0.000000 0.000000
v -0.013114 -0.029000 0.311515
vn 0.000000 0.000000 0.000000
v 0.003657 0.029250 0.302225
vn 0.000000 0.000000 0.000000
v -0.003627 0.029253 0.302225
vn 0.000000 0.000000 0.000000
v -0.007729 0.031082 0.298387
vn 0.000000 0.000000 0.000000
v -0.006654 0.025926 0.305788
vn 0.000000 0.000000 0.000000
v -0.008142 0.033066 0.294315
vn 0.000000 0.000000 0.000000
v 0.002093 0.033500 0.295100
vn 0.000000 0.000000 0.000000
v -0.014198 -0.038471 0.302225
vn 0.000000 0.000000 0.000000
v -0.003036 -0.035271 0.309035
vn 0.000000 0.000000 0.000000
v -0.000014 -0.038612 0.305788
vn 0.000000 0.000000 0.000000
v -0.005310 -0.031372 0.311933
vn 0.000000 0.000000 0.000000
v 0.003012 -0.035273 0.309035
vn 0.000000 0.000000 0.000000
v 0.009900 -0.037073 0.305788
vn 0.000000 0.000000 0.000000
v -0.018221 0.033500 0.277043
vn 0.000000 0.000000 0.000000
v -0.017382 0.033500 0.282464
vn 0.000000 0.000000 0.000000
v -0.018162 0.033500 0.278466
vn 0.000000 0.000000 0.000000
v -0.015400 0.033500 0.286738
vn 0.000000 0.000000 0.000000
v -0.009485 0.036330 0.280230
vn 0.000000 0.000000 0.000000
v -0.012279 0.034627 0.286535
vn 0.000000 0.000000 0.000000
v -0.006111 0.035178 0.289619
vn 0.000000 0.000000 0.000000
v -0.015549 0.034497 0.280230
vn 0.000000 0.000000 0.000000
v -0.000049 0.036442 0.286535
vn 0.000000 0.000000 0.000000
v -0.003191 0.036908 0.283400
vn 0.000000 0.000000 0.000000
v -0.006368 0.036910 0.280230
vn 0.000000 0.000000 0.000000
v -0.010758 0.027767 0.302225
vn 0.000000 0.000000 0.000000
v -0.012044 0.033849 0.289619
vn 0.000000 0.000000 0.000000
v 0.017283 0.033500 0.282770
vn 0.000000 0.000000 0.000000
v 0.014566 0.033500 0.287946
vn 0.000000 0.000000 0.000000
v 0.030452 0.022188 0.290054
vn 0.000000 0.000000 0.000000
v 0.034096 0.019591 0.285650
vn 0.000000 0.000000 0.000000
v 0.015987 0.030563 0.294315
vn 0.000000 0.000000 0.000000
v 0.007759 0.031076 0.298387
vn 0.000000 0.000000 0.000000
v 0.015176 0.028707 0.298387
vn 0.000000 0.000000 0.000000
v 0.005867 0.034167 0.292635
vn 0.000000 0.000000 0.000000
v 0.033167 -0.030936 0.290054
vn 0.000000 0.000000 0.000000
v 0.028117 -0.038044 0.285650
vn 0.000000 0.000000 0.000000
v 0.023396 0.020619 0.302225
vn 0.000000 0.000000 0.000000
v 0.018898 0.020578 0.305788
vn 0.000000 0.000000 0.000000
v 0.021951 0.024871 0.298387
vn 0.000000 0.000000 0.000000
v 0.009311 0.036007 0.283400
vn 0.000000 0.000000 0.000000
v 0.006270 0.036924 0.280230
vn 0.000000 0.000000 0.000000
v 0.012455 0.035553 0.280230
vn 0.000000 0.000000 0.000000
v 0.018221 0.033500 0.277000
vn 0.000000 0.000000 0.000000
v -0.002942 -0.029000 0.313805
vn 0.000000 0.000000 0.000000
v -0.000011 -0.031922 0.311933
vn 0.000000 0.000000 0.000000
v 0.005289 -0.031377 0.311933
vn 0.000000 0.000000 0.000000
v -0.007869 0.018699 0.311933
vn 0.000000 0.000000 0.000000
v -0.010117 0.017000 0.312509
vn 0.000000 0.000000 0.000000
v 0.002675 0.019784 0.311933
vn 0.000000 0.000000 0.000000
v 0.010140 0.017000 0.312502
vn 0.000000 0.000000 0.000000
v 0.017053 0.017983 0.309035
vn 0.000000 0.000000 0.000000
v 0.021509 -0.030513 0.305788
vn 0.000000 0.000000 0.000000
v 0.023374 -0.032638 0.302225
vn 0.000000 0.000000 0.000000
v 0.008752 -0.029000 0.312870
vn 0.000000 0.000000 0.000000
v 0.017033 -0.029997 0.309035
vn 0.000000 0.000000 0.000000
v 0.016043 -0.034393 0.305788
vn 0.000000 0.000000 0.000000
v 0.011767 -0.032973 0.309035
vn 0.000000 0.000000 0.000000
v 0.023098 -0.038541 0.294315
vn 0.000000 0.000000 0.000000
v 0.030076 0.017000 0.298417
vn 0.000000 0.000000 0.000000
v 0.031785 -0.029000 0.295787
vn 0.000000 0.000000 0.000000
v 0.027777 -0.031754 0.298387
vn 0.000000 0.000000 0.000000
v 0.015957 -0.042576 0.294315
vn 0.000000 0.000000 0.000000
v 0.020413 -0.042127 0.290054
vn 0.000000 0.000000 0.000000
v 0.009102 -0.046622 0.289619
vn 0.000000 0.000000 0.000000
v 0.016763 -0.045500 0.284142
vn 0.000000 0.000000 0.000000
v 0.003365 0.026438 0.305788
vn 0.000000 0.000000 0.000000
v 0.000012 0.023428 0.309035
vn 0.000000 0.000000 0.000000
v -0.015331 -0.046203 0.283400
vn 0.000000 0.000000 0.000000
v -0.012490 -0.047668 0.277043
vn 0.000000 0.000000 0.000000
v -0.018221 -0.045500 0.277000
vn 0.000000 0.000000 0.000000
v -0.018000 -0.045500 0.274172
vn 0.000000 0.000000 0.000000
v -0.008594 -0.044000 0.165542
vn 0.000000 0.000000 0.000000
v -0.008175 -0.045059 0.294315
vn 0.000000 0.000000 0.000000
v -0.015677 -0.045500 0.286287
vn 0.000000 0.000000 0.000000
v -0.012622 -0.045500 0.290141
vn 0.000000 0.000000 0.000000
v -0.009387 -0.048352 0.280230
vn 0.000000 0.000000 0.000000
v -0.013144 -0.045500 0.289619
vn 0.000000 0.000000 0.000000
v 0.000049 -0.049027 0.283400
vn 0.000000 0.000000 0.000000
v 0.000048 -0.047629 0.289619
vn 0.000000 0.000000 0.000000
v -0.004131 -0.045500 0.294746
vn 0.000000 0.000000 0.000000
v -0.005867 -0.046167 0.292635
vn 0.000000 0.000000 0.000000
v -0.005069 -0.045500 0.294502
vn 0.000000 0.000000 0.000000
v -0.009918 -0.045500 0.292285
vn 0.000000 0.000000 0.000000
v 0.003812 -0.044000 0.161949
vn 0.000000 0.000000 0.000000
v 0.006369 -0.048916 0.273856
vn 0.000000 0.000000 0.000000
v -0.017985 -0.045500 0.279923
vn 0.000000 0.000000 0.000000
v -0.017382 -0.045500 0.282464
vn 0.000000 0.000000 0.000000
v 0.018162 -0.045500 0.278466
vn 0.000000 0.000000 0.000000
v 0.029615 -0.030242 0.100369
vn 0.000000 0.000000 0.000000
v 0.027895 -0.032131 0.100119
vn 0.000000 0.000000 0.000000
v 0.009485 -0.048330 0.280230
vn 0.000000 0.000000 0.000000
v 0.009486 -0.048336 0.273856
vn 0.000000 0.000000 0.000000
v 0.006316 -0.048561 0.283400
vn 0.000000 0.000000 0.000000
v 0.012585 -0.047640 0.277043
vn 0.000000 0.000000 0.000000
v 0.006386 -0.049029 0.277043
vn 0.000000 0.000000 0.000000
v 0.027667 0.021487 0.107967
vn 0.000000 0.000000 0.000000
v 0.034075 -0.031619 0.285650
vn 0.000000 0.000000 0.000000
v 0.007231 -0.040694 0.302225
vn 0.000000 0.000000 0.000000
v 0.017434 -0.036854 0.302225
vn 0.000000 0.000000 0.000000
v 0.003148 -0.048325 0.286535
vn 0.000000 0.000000 0.000000
v 0.003645 -0.045500 0.294853
vn 0.000000 0.000000 0.000000
v 0.005959 -0.046153 0.292635
vn 0.000000 0.000000 0.000000
v 0.006168 -0.045500 0.294145
vn 0.000000 0.000000 0.000000
v 0.000734 -0.045500 0.295206
vn 0.000000 0.000000 0.000000
v 0.000047 -0.046593 0.292635
vn 0.000000 0.000000 0.000000
v 0.022094 0.024469 0.097614
vn 0.000000 0.000000 0.000000
v 0.029704 0.018121 0.100332
vn 0.000000 0.000000 0.000000
v -0.033500 0.008121 0.093662
vn 0.000000 0.000000 0.000000
v -0.029615 0.018242 0.100369
vn 0.000000 0.000000 0.000000
v -0.030275 -0.029262 0.099907
vn 0.000000 0.000000 0.000000
v -0.031270 -0.026990 0.097707
vn 0.000000 0.000000 0.000000
v -0.013090 0.017000 0.311524
vn 0.000000 0.000000 0.000000
v -0.003338 0.026440 0.305788
vn 0.000000 0.000000 0.000000
v -0.008875 0.033611 0.292635
vn 0.000000 0.000000 0.000000
v -0.009110 0.033500 0.292780
vn 0.000000 0.000000 0.000000
v -0.000047 0.034593 0.292635
vn 0.000000 0.000000 0.000000
v -0.017460 -0.036840 0.302225
vn 0.000000 0.000000 0.000000
v 0.003627 -0.041253 0.302225
vn 0.000000 0.000000 0.000000
v 0.006654 -0.037926 0.305788
vn 0.000000 0.000000 0.000000
v -0.018217 0.033500 0.276603
vn 0.000000 0.000000 0.000000
v -0.017691 0.033500 0.281361
vn 0.000000 0.000000 0.000000
v -0.017055 0.033500 0.283412
vn 0.000000 0.000000 0.000000
v -0.017931 0.033500 0.280238
vn 0.000000 0.000000 0.000000
v -0.013639 0.033500 0.289083
vn 0.000000 0.000000 0.000000
v -0.009280 0.035415 0.286535
vn 0.000000 0.000000 0.000000
v -0.012448 0.035186 0.283400
vn 0.000000 0.000000 0.000000
v -0.005959 0.034153 0.292635
vn 0.000000 0.000000 0.000000
v -0.006230 0.035982 0.286535
vn 0.000000 0.000000 0.000000
v -0.000048 0.035629 0.289619
vn 0.000000 0.000000 0.000000
v 0.006134 0.035997 0.286535
vn 0.000000 0.000000 0.000000
v -0.006316 0.036560 0.283400
vn 0.000000 0.000000 0.000000
v 0.016134 0.033500 0.285468
vn 0.000000 0.000000 0.000000
v 0.017738 0.033500 0.281168
vn 0.000000 0.000000 0.000000
v 0.017382 0.033500 0.282464
vn 0.000000 0.000000 0.000000
v 0.012622 0.033500 0.290141
vn 0.000000 0.000000 0.000000
v 0.015677 0.033500 0.286287
vn 0.000000 0.000000 0.000000
v 0.033187 0.018909 0.290054
vn 0.000000 0.000000 0.000000
v 0.029285 0.021108 0.294315
vn 0.000000 0.000000 0.000000
v 0.008175 0.033059 0.294315
vn 0.000000 0.000000 0.000000
v 0.003908 0.031677 0.298387
vn 0.000000 0.000000 0.000000
v 0.012145 0.032012 0.294315
vn 0.000000 0.000000 0.000000
v 0.004131 0.033500 0.294746
vn 0.000000 0.000000 0.000000
v 0.031896 -0.029981 0.294315
vn 0.000000 0.000000 0.000000
v 0.030429 -0.034213 0.290054
vn 0.000000 0.000000 0.000000
v 0.024675 -0.040764 0.285650
vn 0.000000 0.000000 0.000000
v 0.021529 0.018495 0.305788
vn 0.000000 0.000000 0.000000
v 0.012186 0.034655 0.286535
vn 0.000000 0.000000 0.000000
v 0.006219 0.036575 0.283400
vn 0.000000 0.000000 0.000000
v 0.012354 0.035215 0.283400
vn 0.000000 0.000000 0.000000
v 0.025988 -0.030095 0.302225
vn 0.000000 0.000000 0.000000
v 0.024983 -0.034472 0.298387
vn 0.000000 0.000000 0.000000
v 0.018876 -0.032594 0.305788
vn 0.000000 0.000000 0.000000
v 0.007869 -0.030699 0.311933
vn 0.000000 0.000000 0.000000
v 0.010365 -0.029759 0.311933
vn 0.000000 0.000000 0.000000
v 0.008933 -0.034039 0.309035
vn 0.000000 0.000000 0.000000
v 0.030729 -0.029000 0.297469
vn 0.000000 0.000000 0.000000
v 0.012114 -0.044022 0.294315
vn 0.000000 0.000000 0.000000
v 0.016593 -0.044033 0.290054
vn 0.000000 0.000000 0.000000
v 0.012279 -0.046627 0.286535
vn 0.000000 0.000000 0.000000
v 0.017382 -0.045500 0.282464
vn 0.000000 0.000000 0.000000
v -0.016134 -0.045500 0.285468
vn 0.000000 0.000000 0.000000
v -0.015499 -0.046645 0.277043
vn 0.000000 0.000000 0.000000
v -0.007811 -0.045500 0.293462
vn 0.000000 0.000000 0.000000
v -0.015122 -0.045657 0.286535
vn 0.000000 0.000000 0.000000
v -0.012669 -0.045500 0.290095
vn 0.000000 0.000000 0.000000
v -0.002196 -0.045500 0.295088
vn 0.000000 0.000000 0.000000
v 0.018221 -0.045500 0.277043
vn 0.000000 0.000000 0.000000
v 0.031262 -0.034985 0.285650
vn 0.000000 0.000000 0.000000
v 0.010758 -0.039767 0.302225
vn 0.000000 0.000000 0.000000
v 0.008875 -0.045611 0.292635
vn 0.000000 0.000000 0.000000
v 0.003011 -0.046481 0.292635
vn 0.000000 0.000000 0.000000
v 0.006461 -0.045500 0.294037
vn 0.000000 0.000000 0.000000
v -0.002093 0.033500 0.295100
vn 0.000000 0.000000 0.000000
v -0.015423 0.034167 0.283400
vn 0.000000 0.000000 0.000000
v -0.013144 0.033500 0.289619
vn 0.000000 0.000000 0.000000
v -0.015213 0.033622 0.286535
vn 0.000000 0.000000 0.000000
v -0.003011 0.034481 0.292635
vn 0.000000 0.000000 0.000000
v -0.006461 0.033500 0.294037
vn 0.000000 0.000000 0.000000
v 0.003051 0.036332 0.286535
vn 0.000000 0.000000 0.000000
v 0.002918 0.034488 0.292635
vn 0.000000 0.000000 0.000000
v 0.013144 0.033500 0.289619
vn 0.000000 0.000000 0.000000
v 0.015122 0.033657 0.286535
vn 0.000000 0.000000 0.000000
v 0.031916 0.017955 0.294315
vn 0.000000 0.000000 0.000000
v 0.010351 0.033500 0.291995
vn 0.000000 0.000000 0.000000
v 0.007811 0.033500 0.293462
vn 0.000000 0.000000 0.000000
v 0.005069 0.033500 0.294502
vn 0.000000 0.000000 0.000000
v 0.002196 0.033500 0.295088
vn 0.000000 0.000000 0.000000
v 0.009185 0.035436 0.286535
vn 0.000000 0.000000 0.000000
v 0.011953 0.033877 0.289619
vn 0.000000 0.000000 0.000000
v 0.003093 0.036915 0.283400
vn 0.000000 0.000000 0.000000
v 0.012636 -0.045500 0.290127
vn 0.000000 0.000000 0.000000
v 0.015400 -0.045500 0.286738
vn 0.000000 0.000000 0.000000
v 0.017047 -0.045075 0.285650
vn 0.000000 0.000000 0.000000
v 0.012044 -0.045849 0.289619
vn 0.000000 0.000000 0.000000
v 0.012448 -0.047187 0.283400
vn 0.000000 0.000000 0.000000
v 0.017055 -0.045500 0.283412
vn 0.000000 0.000000 0.000000
v 0.017931 -0.045500 0.280238
vn 0.000000 0.000000 0.000000
v -0.013118 -0.045500 0.289646
vn 0.000000 0.000000 0.000000
v 0.018217 -0.045500 0.276603
vn 0.000000 0.000000 0.000000
v 0.018171 -0.045500 0.278354
vn 0.000000 0.000000 0.000000
v 0.009110 -0.045500 0.292780
vn 0.000000 0.000000 0.000000
v -0.004097 0.033500 0.294754
vn 0.000000 0.000000 0.000000
v 0.000016 0.033500 0.295221
vn 0.000000 0.000000 0.000000
v -0.016763 0.033500 0.284142
vn 0.000000 0.000000 0.000000
v -0.015677 0.033500 0.286287
vn 0.000000 0.000000 0.000000
v 0.012669 0.033500 0.290095
vn 0.000000 0.000000 0.000000
v 0.009918 0.033500 0.292285
vn 0.000000 0.000000 0.000000
v 0.008784 0.033631 0.292635
vn 0.000000 0.000000 0.000000
v 0.013639 -0.045500 0.289083
vn 0.000000 0.000000 0.000000
v 0.015677 -0.045500 0.286287
vn 0.000000 0.000000 0.000000
v 0.015549 -0.046497 0.280230
vn 0.000000 0.000000 0.000000
v 0.015423 -0.046168 0.283400
vn 0.000000 0.000000 0.000000
v 0.017691 -0.045500 0.281361
vn 0.000000 0.000000 0.000000
v 0.011524 -0.045500 0.291114
vn 0.000000 0.000000 0.000000
v -0.003645 0.033500 0.294853
vn 0.000000 0.000000 0.000000
v -0.000734 0.033500 0.295206
vn 0.000000 0.000000 0.000000
v 0.013118 0.033500 0.289646
vn 0.000000 0.000000 0.000000
v 0.015213 -0.045622 0.286535
vn 0.000000 0.000000 0.000000
v 0.017738 -0.045500 0.281168
vn 0.000000 0.000000 0.000000
v 0.009918 -0.045500 0.292285
# 831 vertices, 0 vertices normals

f 46//46 26//26 11//11
f 70//70 39//39 21//21
f 72//72 7//7 12//12
f 72//72 12//12 37//37
f 72//72 37//37 21//21
f 72//72 21//21 39//39
f 120//120 64//64 35//35
f 120//120 35//35 65//65
f 125//125 68//68 21//21
f 126//126 24//24 69//69
f 129//129 38//38 67//67
f 135//135 42//42 76//76
f 136//136 43//43 115//115
f 138//138 41//41 24//24
f 139//139 43//43 80//80
f 141//141 138//138 79//79
f 141//141 41//41 138//138
f 142//142 8//8 81//81
f 144//144 44//44 82//82
f 144//144 82//82 50//50
f 144//144 8//8 142//142
f 145//145 50//50 82//82
f 147//147 45//45 84//84
f 147//147 84//84 143//143
f 152//152 46//46 5//5
f 152//152 151//151 46//46
f 152//152 87//87 151//151
f 155//155 88//88 11//11
f 159//159 49//49 92//92
f 162//162 15//15 39//39
f 163//163 92//92 49//49
f 164//164 93//93 13//13
f 164//164 163//163 49//49
f 164//164 13//13 163//163
f 164//164 49//49 70//70
f 165//165 93//93 4//4
f 165//165 42//42 135//135
f 172//172 97//97 53//53
f 173//173 97//97 14//14
f 174//174 98//98 3//3
f 174//174 142//142 81//81
f 180//180 84//84 45//45
f 180//180 45//45 100//100
f 180//180 100//100 98//98
f 182//182 54//54 102//102
f 200//200 109//109 17//17
f 210//210 43//43 139//139
f 214//214 46//46 11//11
f 214//214 5//5 46//46
f 217//217 216//216 20//20
f 217//217 118//118 216//216
f 219//219 119//119 54//54
f 220//220 102//102 54//54
f 220//220 54//54 119//119
f 221//221 214//214 117//117
f 221//221 5//5 214//214
f 227//227 67//67 38//38
f 227//227 38//38 123//123
f 228//228 4//4 21//21
f 228//228 21//21 124//124
f 228//228 42//42 165//165
f 229//229 124//124 21//21
f 229//229 68//68 125//125
f 229//229 21//21 68//68
f 232//232 69//69 24//24
f 233//233 42//42 77//77
f 233//233 76//76 42//42
f 235//235 129//129 69//69
f 235//235 127//127 129//129
f 235//235 232//232 127//127
f 235//235 69//69 232//232
f 236//236 69//69 129//129
f 239//239 71//71 131//131
f 242//242 7//7 72//72
f 245//245 78//78 1//1
f 245//245 1//1 136//136
f 246//246 136//136 115//115
f 246//246 115//115 211//211
f 247//247 80//80 43//43
f 247//247 43//43 136//136
f 247//247 136//136 1//1
f 248//248 245//245 19//19
f 248//248 78//78 245//245
f 250//250 79//79 138//138
f 251//251 10//10 138//138
f 251//251 138//138 24//24
f 251//251 24//24 126//126
f 251//251 231//231 10//10
f 252//252 139//139 79//79
f 253//253 139//139 80//80
f 253//253 141//141 79//79
f 253//253 79//79 139//139
f 254//254 144//144 142//142
f 254//254 44//44 144//144
f 255//255 81//81 8//8
f 255//255 8//8 143//143
f 255//255 174//174 81//81
f 256//256 143//143 84//84
f 256//256 25//25 143//143
f 256//256 98//98 25//25
f 257//257 144//144 50//50
f 257//257 8//8 144//144
f 258//258 145//145 82//82
f 260//260 23//23 146//146
f 260//260 99//99 45//45
f 261//261 146//146 23//23
f 261//261 83//83 146//146
f 262//262 45//45 147//147
f 262//262 260//260 45//45
f 262//262 23//23 260//260
f 266//266 90//90 48//48
f 266//266 48//48 148//148
f 267//267 29//29 150//150
f 267//267 150//150 86//86
f 267//267 86//86 87//87
f 268//268 85//85 46//46
f 268//268 46//46 151//151
f 269//269 151//151 86//86
f 269//269 268//268 151//151
f 269//269 85//85 268//268
f 270//270 151//151 87//87
f 270//270 87//87 86//86
f 270//270 86//86 151//151
f 271//271 267//267 87//87
f 271//271 153//153 267//267
f 271//271 87//87 152//152
f 272//272 173//173 29//29
f 272//272 267//267 153//153
f 272//272 29//29 267//267
f 273//273 47//47 11//11
f 274//274 154//154 11//11
f 275//275 155//155 11//11
f 275//275 11//11 26//26
f 276//276 88//88 155//155
f 276//276 155//155 275//275
f 276//276 275//275 26//26
f 276//276 26//26 48//48
f 277//277 156//156 89//89
f 277//277 157//157 33//33
f 277//277 89//89 157//157
f 279//279 157//157 89//89
f 279//279 89//89 249//249
f 281//281 91//91 159//159
f 281//281 259//259 27//27
f 281//281 159//159 92//92
f 281//281 92//92 259//259
f 282//282 70//70 49//49
f 282//282 39//39 70//70
f 284//284 162//162 39//39
f 284//284 39//39 91//91
f 284//284 281//281 27//27
f 284//284 27//27 160//160
f 284//284 160//160 162//162
f 285//285 15//15 162//162
f 286//286 165//165 135//135
f 286//286 13//13 93//93
f 286//286 93//93 165//165
f 288//288 168//168 52//52
f 288//288 52//52 94//94
f 288//288 28//28 20//20
f 288//288 20//20 168//168
f 291//291 94//94 52//52
f 291//291 52//52 171//171
f 294//294 52//52 168//168
f 296//296 36//36 223//223
f 299//299 171//171 52//52
f 299//299 36//36 171//171
f 300//300 172//172 14//14
f 300//300 14//14 97//97
f 300//300 97//97 172//172
f 301//301 150//150 29//29
f 301//301 29//29 173//173
f 301//301 173//173 14//14
f 303//303 25//25 98//98
f 303//303 143//143 25//25
f 304//304 189//189 105//105
f 304//304 3//3 189//189
f 304//304 44//44 254//254
f 305//305 98//98 179//179
f 306//306 175//175 53//53
f 308//308 3//3 98//98
f 308//308 98//98 305//305
f 309//309 14//14 172//172
f 309//309 83//83 14//14
f 309//309 177//177 146//146
f 309//309 146//146 83//83
f 310//310 179//179 98//98
f 310//310 99//99 179//179
f 311//311 177//177 309//309
f 311//311 309//309 172//172
f 311//311 172//172 53//53
f 312//312 99//99 260//260
f 312//312 260//260 146//146
f 312//312 146//146 177//177
f 313//313 178//178 84//84
f 313//313 84//84 180//180
f 313//313 180//180 98//98
f 313//313 98//98 178//178
f 314//314 95//95 181//181
f 315//315 16//16 181//181
f 316//316 181//181 95//95
f 316//316 315//315 181//181
f 317//317 101//101 182//182
f 317//317 181//181 16//16
f 317//317 182//182 102//102
f 318//318 54//54 182//182
f 318//318 272//272 153//153
f 318//318 219//219 54//54
f 318//318 153//153 271//271
f 319//319 183//183 30//30
f 322//322 320//320 183//183
f 322//322 55//55 320//320
f 322//322 183//183 319//319
f 328//328 56//56 105//105
f 328//328 105//105 189//189
f 329//329 190//190 105//105
f 329//329 105//105 56//56
f 331//331 105//105 190//190
f 331//331 304//304 105//105
f 332//332 239//239 131//131
f 332//332 331//331 190//190
f 332//332 44//44 331//331
f 333//333 2//2 191//191
f 334//334 191//191 2//2
f 334//334 57//57 191//191
f 334//334 193//193 57//57
f 335//335 192//192 106//106
f 337//337 193//193 107//107
f 337//337 107//107 194//194
f 337//337 194//194 110//110
f 338//338 110//110 194//194
f 338//338 199//199 110//110
f 338//338 31//31 199//199
f 339//339 31//31 195//195
f 340//340 327//327 188//188
f 340//340 58//58 327//327
f 340//340 339//339 195//195
f 340//340 188//188 339//339
f 345//345 327//327 58//58
f 345//345 104//104 327//327
f 348//348 199//199 109//109
f 348//348 60//60 199//199
f 348//348 200//200 60//60
f 348//348 109//109 200//200
f 349//349 200//200 17//17
f 351//351 191//191 57//57
f 351//351 333//333 191//191
f 355//355 203//203 111//111
f 355//355 18//18 203//203
f 356//356 203//203 18//18
f 356//356 66//66 203//203
f 356//356 222//222 66//66
f 356//356 18//18 222//222
f 357//357 203//203 122//122
f 357//357 111//111 203//203
f 359//359 18//18 355//355
f 361//361 204//204 358//358
f 366//366 363//363 114//114
f 366//366 364//364 209//209
f 366//366 114//114 364//364
f 367//367 362//362 208//208
f 367//367 366//366 209//209
f 367//367 208//208 366//366
f 368//368 62//62 34//34
f 368//368 210//210 139//139
f 368//368 139//139 62//62
f 369//369 210//210 115//115
f 369//369 115//115 43//43
f 369//369 43//43 210//210
f 370//370 211//211 115//115
f 370//370 115//115 210//210
f 370//370 368//368 34//34
f 370//370 210//210 368//368
f 370//370 204//204 211//211
f 370//370 358//358 204//204
f 370//370 34//34 358//358
f 371//371 211//211 204//204
f 371//371 361//361 112//112
f 371//371 204//204 361//361
f 372//372 358//358 213//213
f 372//372 6//6 358//358
f 373//373 140//140 212//212
f 373//373 212//212 372//372
f 374//374 214//214 11//11
f 374//374 249//249 156//156
f 374//374 156//156 278//278
f 375//375 65//65 35//35
f 376//376 168//168 20//20
f 376//376 20//20 216//216
f 377//377 217//217 20//20
f 377//377 20//20 28//28
f 377//377 28//28 290//290
f 379//379 218//218 378//378
f 379//379 375//375 215//215
f 379//379 65//65 375//375
f 379//379 215//215 118//118
f 379//379 118//118 218//218
f 381//381 64//64 120//120
f 381//381 221//221 117//117
f 381//381 117//117 64//64
f 381//381 120//120 380//380
f 382//382 152//152 5//5
f 382//382 5//5 221//221
f 382//382 271//271 152//152
f 382//382 380//380 271//271
f 382//382 381//381 380//380
f 382//382 221//221 381//381
f 383//383 216//216 66//66
f 383//383 66//66 222//222
f 384//384 205//205 74//74
f 384//384 18//18 359//359
f 385//385 203//203 66//66
f 385//385 66//66 224//224
f 385//385 122//122 203//203
f 386//386 35//35 64//64
f 387//387 216//216 118//118
f 387//387 224//224 66//66
f 387//387 66//66 216//216
f 388//388 354//354 202//202
f 388//388 352//352 111//111
f 388//388 357//357 225//225
f 388//388 111//111 357//357
f 388//388 225//225 33//33
f 388//388 33//33 354//354
f 389//389 21//21 37//37
f 389//389 226//226 125//125
f 389//389 125//125 21//21
f 390//390 226//226 123//123
f 390//390 123//123 38//38
f 390//390 38//38 230//230
f 391//391 67//67 227//227
f 391//391 227//227 123//123
f 391//391 123//123 346//346
f 392//392 228//228 124//124
f 392//392 124//124 77//77
f 392//392 77//77 42//42
f 392//392 42//42 228//228
f 393//393 228//228 165//165
f 393//393 165//165 4//4
f 393//393 4//4 228//228
f 394//394 229//229 125//125
f 394//394 77//77 124//124
f 394//394 124//124 229//229
f 394//394 390//390 230//230
f 394//394 125//125 390//390
f 395//395 230//230 38//38
f 395//395 38//38 129//129
f 396//396 126//126 69//69
f 396//396 251//251 126//126
f 396//396 231//231 251//251
f 397//397 232//232 24//24
f 397//397 24//24 41//41
f 398//398 233//233 127//127
f 398//398 76//76 233//233
f 398//398 127//127 232//232
f 398//398 232//232 397//397
f 401//401 236//236 129//129
f 401//401 129//129 67//67
f 402//402 70//70 21//21
f 402//402 21//21 237//237
f 402//402 237//237 164//164
f 402//402 164//164 70//70
f 403//403 237//237 21//21
f 403//403 164//164 237//237
f 404//404 130//130 21//21
f 404//404 21//21 238//238
f 404//404 164//164 130//130
f 404//404 238//238 93//93
f 404//404 93//93 164//164
f 405//405 238//238 21//21
f 405//405 21//21 4//4
f 405//405 4//4 93//93
f 405//405 93//93 238//238
f 406//406 30//30 239//239
f 406//406 332//332 190//190
f 406//406 239//239 332//332
f 407//407 71//71 239//239
f 407//407 183//183 320//320
f 408//408 39//39 15//15
f 408//408 15//15 285//285
f 409//409 407//407 132//132
f 409//409 71//71 407//407
f 410//410 7//7 242//242
f 411//411 242//242 72//72
f 411//411 72//72 39//39
f 411//411 409//409 132//132
f 411//411 132//132 242//242
f 411//411 240//240 409//409
f 416//416 243//243 413//413
f 417//417 245//245 136//136
f 417//417 136//136 246//246
f 417//417 246//246 19//19
f 417//417 19//19 245//245
f 418//418 246//246 211//211
f 418//418 19//19 246//246
f 419//419 78//78 248//248
f 420//420 248//248 19//19
f 420//420 19//19 354//354
f 420//420 157//157 279//279
f 420//420 354//354 33//33
f 420//420 33//33 157//157
f 420//420 419//419 248//248
f 420//420 279//279 419//419
f 421//421 47//47 273//273
f 421//421 279//279 249//249
f 422//422 249//249 89//89
f 422//422 89//89 156//156
f 422//422 156//156 249//249
f 423//423 374//374 11//11
f 423//423 249//249 374//374
f 423//423 421//421 249//249
f 423//423 47//47 421//421
f 424//424 250//250 138//138
f 424//424 138//138 10//10
f 425//425 140//140 79//79
f 425//425 79//79 250//250
f 425//425 212//212 140//140
f 425//425 250//250 63//63
f 426//426 62//62 139//139
f 426//426 139//139 252//252
f 426//426 34//34 62//62
f 427//427 252//252 79//79
f 427//427 79//79 140//140
f 427//427 140//140 116//116
f 427//427 213//213 252//252
f 428//428 256//256 84//84
f 428//428 84//84 178//178
f 428//428 178//178 98//98
f 428//428 98//98 256//256
f 429//429 147//147 143//143
f 429//429 143//143 8//8
f 429//429 8//8 257//257
f 430//430 258//258 27//27
f 430//430 145//145 258//258
f 430//430 27//27 259//259
f 431//431 258//258 82//82
f 431//431 241//241 258//258
f 431//431 332//332 241//241
f 432//432 27//27 258//258
f 433//433 83//83 261//261
f 434//434 26//26 46//46
f 434//434 46//46 263//263
f 434//434 263//263 48//48
f 434//434 48//48 26//26
f 435//435 263//263 46//46
f 435//435 46//46 148//148
f 435//435 148//148 48//48
f 435//435 48//48 263//263
f 436//436 46//46 264//264
f 437//437 264//264 46//46
f 437//437 46//46 85//85
f 437//437 85//85 269//269
f 438//438 14//14 83//83
f 439//439 438//438 83//83
f 439//439 83//83 433//433
f 440//440 90//90 266//266
f 440//440 264//264 149//149
f 440//440 266//266 436//436
f 441//441 269//269 86//86
f 441//441 86//86 150//150
f 441//441 150//150 301//301
f 442//442 439//439 149//149
f 442//442 437//437 269//269
f 443//443 273//273 11//11
f 443//443 11//11 154//154
f 444//444 11//11 88//88
f 445//445 158//158 280//280
f 446//446 276//276 48//48
f 446//446 48//48 90//90
f 447//447 277//277 33//33
f 447//447 33//33 225//225
f 447//447 278//278 156//156
f 447//447 156//156 277//277
f 447//447 357//357 122//122
f 447//447 225//225 357//357
f 448//448 1//1 78//78
f 449//449 282//282 49//49
f 449//449 49//49 161//161
f 449//449 161//161 39//39
f 449//449 39//39 282//282
f 450//450 91//91 39//39
f 450//450 39//39 283//283
f 450//450 283//283 159//159
f 450//450 159//159 91//91
f 451//451 283//283 39//39
f 451//451 49//49 159//159
f 451//451 159//159 283//283
f 452//452 284//284 91//91
f 452//452 91//91 281//281
f 452//452 281//281 284//284
f 453//453 332//332 131//131
f 453//453 241//241 332//332
f 453//453 240//240 285//285
f 454//454 166//166 287//287
f 455//455 454//454 287//287
f 455//455 51//51 454//454
f 456//456 288//288 166//166
f 456//456 28//28 288//288
f 456//456 290//290 28//28
f 456//456 166//166 290//290
f 457//457 287//287 166//166
f 457//457 166//166 288//288
f 457//457 288//288 94//94
f 457//457 94//94 287//287
f 458//458 289//289 102//102
f 458//458 102//102 220//220
f 458//458 290//290 166//166
f 458//458 220//220 119//119
f 458//458 119//119 290//290
f 458//458 454//454 289//289
f 458//458 166//166 454//454
f 459//459 290//290 119//119
f 459//459 378//378 218//218
f 459//459 119//119 378//378
f 459//459 377//377 290//290
f 459//459 218//218 118//118
f 459//459 118//118 217//217
f 459//459 217//217 377//377
f 461//461 287//287 94//94
f 461//461 94//94 291//291
f 461//461 455//455 287//287
f 463//463 293//293 292//292
f 463//463 292//292 167//167
f 463//463 167//167 460//460
f 465//465 294//294 121//121
f 465//465 121//121 223//223
f 465//465 299//299 52//52
f 465//465 52//52 294//294
f 465//465 223//223 36//36
f 465//465 36//36 299//299
f 468//468 295//295 32//32
f 469//469 296//296 223//223
f 470//470 134//134 297//297
f 470//470 360//360 134//134
f 470//470 74//74 205//205
f 470//470 205//205 360//360
f 471//471 297//297 170//170
f 471//471 296//296 469//469
f 471//471 470//470 297//297
f 471//471 74//74 470//470
f 472//472 297//297 134//134
f 476//476 272//272 101//101
f 476//476 173//173 272//272
f 477//477 317//317 16//16
f 477//477 101//101 317//317
f 478//478 303//303 98//98
f 478//478 98//98 174//174
f 478//478 174//174 255//255
f 478//478 255//255 143//143
f 478//478 143//143 303//303
f 479//479 174//174 3//3
f 479//479 3//3 304//304
f 479//479 142//142 174//174
f 479//479 304//304 254//254
f 479//479 254//254 142//142
f 480//480 53//53 175//175
f 480//480 311//311 53//53
f 480//480 305//305 311//311
f 481//481 306//306 53//53
f 481//481 53//53 97//97
f 483//483 175//175 306//306
f 483//483 306//306 481//481
f 485//485 189//189 3//3
f 485//485 3//3 308//308
f 485//485 308//308 176//176
f 486//486 308//308 305//305
f 487//487 310//310 98//98
f 487//487 98//98 100//100
f 487//487 100//100 45//45
f 487//487 45//45 310//310
f 488//488 310//310 45//45
f 488//488 45//45 99//99
f 488//488 99//99 310//310
f 489//489 311//311 305//305
f 489//489 305//305 179//179
f 489//489 312//312 177//177
f 489//489 177//177 311//311
f 489//489 179//179 99//99
f 489//489 99//99 312//312
f 490//490 102//102 289//289
f 490//490 454//454 51//51
f 490//490 289//289 454//454
f 490//490 314//314 181//181
f 491//491 95//95 314//314
f 491//491 490//490 51//51
f 491//491 314//314 490//490
f 491//491 51//51 455//455
f 492//492 316//316 169//169
f 492//492 315//315 316//316
f 492//492 169//169 482//482
f 493//493 317//317 102//102
f 493//493 181//181 317//317
f 493//493 490//490 181//181
f 493//493 102//102 490//490
f 494//494 318//318 182//182
f 494//494 182//182 101//101
f 494//494 101//101 272//272
f 494//494 272//272 318//318
f 495//495 103//103 319//319
f 496//496 320//320 55//55
f 496//496 407//407 320//320
f 496//496 132//132 407//407
f 497//497 55//55 322//322
f 498//498 322//322 319//319
f 498//498 319//319 103//103
f 498//498 184//184 322//322
f 500//500 324//324 60//60
f 500//500 60//60 200//200
f 500//500 499//499 324//324
f 503//503 226//226 389//389
f 503//503 346//346 123//123
f 503//503 123//123 226//226
f 504//504 327//327 104//104
f 505//505 17//17 109//109
f 505//505 349//349 17//17
f 506//506 56//56 328//328
f 506//506 328//328 189//189
f 507//507 329//329 56//56
f 508//508 507//507 330//330
f 508//508 329//329 507//507
f 508//508 330//330 30//30
f 508//508 30//30 406//406
f 509//509 331//331 44//44
f 509//509 44//44 304//304
f 509//509 304//304 331//331
f 510//510 2//2 333//333
f 510//510 333//333 106//106
f 511//511 193//193 334//334
f 512//512 335//335 106//106
f 513//513 335//335 9//9
f 513//513 192//192 335//335
f 513//513 336//336 192//192
f 514//514 336//336 296//296
f 514//514 170//170 336//336
f 514//514 471//471 170//170
f 514//514 296//296 471//471
f 515//515 296//296 336//336
f 515//515 513//513 96//96
f 515//515 336//336 513//513
f 515//515 96//96 462//462
f 516//516 57//57 193//193
f 516//516 193//193 337//337
f 517//517 31//31 338//338
f 518//518 199//199 31//31
f 518//518 31//31 339//339
f 518//518 109//109 199//199
f 521//521 195//195 31//31
f 521//521 517//517 341//341
f 521//521 31//31 517//517
f 522//522 195//195 521//521
f 523//523 108//108 343//343
f 524//524 502//502 187//187
f 524//524 197//197 502//502
f 525//525 497//497 321//321
f 525//525 504//504 104//104
f 525//525 321//321 504//504
f 527//527 196//196 519//519
f 530//530 497//497 322//322
f 530//530 322//322 184//184
f 531//531 199//199 60//60
f 531//531 60//60 350//350
f 531//531 350//350 110//110
f 531//531 110//110 199//199
f 532//532 201//201 350//350
f 532//532 350//350 60//60
f 532//532 60//60 324//324
f 533//533 337//337 110//110
f 533//533 110//110 350//350
f 535//535 106//106 333//333
f 535//535 333//333 351//351
f 535//535 512//512 106//106
f 535//535 351//351 534//534
f 535//535 534//534 293//293
f 535//535 293//293 512//512
f 536//536 111//111 352//352
f 537//537 353//353 61//61
f 538//538 354//354 19//19
f 539//539 213//213 358//358
f 539//539 426//426 252//252
f 539//539 252//252 213//213
f 540//540 384//384 359//359
f 540//540 205//205 384//384
f 541//541 359//359 355//355
f 541//541 355//355 111//111
f 541//541 111//111 536//536
f 542//542 361//361 358//358
f 542//542 358//358 6//6
f 542//542 207//207 361//361
f 542//542 400//400 207//207
f 542//542 6//6 400//400
f 543//543 362//362 61//61
f 543//543 208//208 362//362
f 543//543 366//366 208//208
f 543//543 363//363 366//366
f 544//544 367//367 113//113
f 544//544 362//362 367//367
f 545//545 363//363 207//207
f 545//545 114//114 363//363
f 546//546 361//361 207//207
f 546//546 207//207 363//363
f 547//547 114//114 545//545
f 548//548 209//209 364//364
f 549//549 40//40 413//413
f 549//549 413//413 134//134
f 549//549 134//134 360//360
f 551//551 63//63 372//372
f 551//551 425//425 63//63
f 552//552 372//372 63//63
f 553//553 372//372 213//213
f 553//553 116//116 372//372
f 553//553 427//427 116//116
f 553//553 213//213 427//427
f 554//554 116//116 140//140
f 554//554 140//140 373//373
f 554//554 373//373 372//372
f 554//554 372//372 116//116
f 555//555 374//374 278//278
f 555//555 278//278 386//386
f 555//555 117//117 214//214
f 555//555 214//214 374//374
f 555//555 386//386 64//64
f 555//555 64//64 117//117
f 556//556 215//215 375//375
f 556//556 375//375 35//35
f 556//556 386//386 224//224
f 556//556 35//35 386//386
f 557//557 294//294 168//168
f 557//557 168//168 376//376
f 557//557 121//121 294//294
f 557//557 383//383 222//222
f 557//557 222//222 121//121
f 557//557 376//376 216//216
f 557//557 216//216 383//383
f 558//558 378//378 119//119
f 558//558 119//119 219//219
f 558//558 219//219 380//380
f 558//558 379//379 378//378
f 558//558 65//65 379//379
f 558//558 380//380 120//120
f 558//558 120//120 65//65
f 559//559 318//318 271//271
f 559//559 271//271 380//380
f 559//559 380//380 219//219
f 559//559 219//219 318//318
f 560//560 121//121 222//222
f 560//560 222//222 18//18
f 560//560 18//18 384//384
f 561//561 385//385 224//224
f 561//561 122//122 385//385
f 561//561 224//224 386//386
f 561//561 386//386 278//278
f 561//561 447//447 122//122
f 561//561 278//278 447//447
f 562//562 387//387 118//118
f 562//562 118//118 215//215
f 562//562 215//215 556//556
f 562//562 556//556 224//224
f 562//562 224//224 387//387
f 564//564 389//389 37//37
f 564//564 37//37 12//12
f 564//564 503//503 389//389
f 565//565 390//390 125//125
f 565//565 125//125 226//226
f 565//565 226//226 390//390
f 566//566 391//391 198//198
f 566//566 67//67 391//391
f 567//567 394//394 230//230
f 568//568 395//395 129//129
f 568//568 129//129 127//127
f 568//568 127//127 233//233
f 568//568 233//233 395//395
f 569//569 396//396 69//69
f 569//569 69//69 236//236
f 569//569 236//236 128//128
f 572//572 128//128 236//236
f 572//572 236//236 401//401
f 573//573 400//400 6//6
f 573//573 6//6 372//372
f 573//573 372//372 552//552
f 574//574 403//403 21//21
f 574//574 21//21 130//130
f 574//574 130//130 164//164
f 574//574 164//164 403//403
f 575//575 407//407 239//239
f 575//575 239//239 30//30
f 575//575 30//30 183//183
f 575//575 183//183 407//407
f 576//576 408//408 285//285
f 576//576 285//285 240//240
f 576//576 240//240 411//411
f 576//576 411//411 39//39
f 576//576 39//39 408//408
f 577//577 453//453 131//131
f 577//577 240//240 453//453
f 577//577 131//131 71//71
f 577//577 71//71 409//409
f 578//578 326//326 410//410
f 578//578 502//502 326//326
f 578//578 187//187 502//502
f 579//579 410//410 326//326
f 579//579 564//564 12//12
f 579//579 12//12 7//7
f 579//579 7//7 410//410
f 580//580 133//133 412//412
f 581//581 412//412 22//22
f 581//581 22//22 527//527
f 582//582 413//413 243//243
f 582//582 134//134 413//413
f 583//583 415//415 400//400
f 583//583 234//234 415//415
f 583//583 573//573 234//234
f 583//583 400//400 573//573
f 584//584 414//414 244//244
f 584//584 571//571 73//73
f 586//586 413//413 40//40
f 587//587 418//418 211//211
f 587//587 211//211 371//371
f 588//588 137//137 78//78
f 588//588 78//78 419//419
f 588//588 419//419 279//279
f 588//588 421//421 137//137
f 588//588 279//279 421//421
f 589//589 423//423 11//11
f 589//589 11//11 47//47
f 589//589 47//47 423//423
f 590//590 424//424 10//10
f 590//590 10//10 231//231
f 590//590 231//231 552//552
f 591//591 63//63 250//250
f 591//591 250//250 424//424
f 591//591 424//424 590//590
f 591//591 590//590 552//552
f 591//591 552//552 63//63
f 592//592 431//431 82//82
f 592//592 332//332 431//431
f 593//593 258//258 241//241
f 593//593 241//241 453//453
f 593//593 453//453 285//285
f 594//594 160//160 27//27
f 594//594 27//27 432//432
f 594//594 162//162 160//160
f 594//594 432//432 285//285
f 594//594 285//285 162//162
f 595//595 440//440 149//149
f 595//595 90//90 440//440
f 596//596 46//46 436//436
f 596//596 436//436 266//266
f 597//597 301//301 14//14
f 597//597 14//14 438//438
f 597//597 441//441 301//301
f 597//597 265//265 441//441
f 597//597 439//439 265//265
f 597//597 438//438 439//439
f 598//598 439//439 433//433
f 598//598 149//149 439//439
f 598//598 595//595 149//149
f 599//599 440//440 436//436
f 599//599 436//436 264//264
f 599//599 264//264 440//440
f 600//600 441//441 265//265
f 600//600 269//269 441//441
f 600//600 265//265 439//439
f 601//601 442//442 149//149
f 601//601 149//149 264//264
f 601//601 264//264 437//437
f 601//601 437//437 442//442
f 602//602 443//443 445//445
f 602//602 445//445 280//280
f 602//602 448//448 78//78
f 602//602 280//280 448//448
f 603//603 421//421 273//273
f 603//603 273//273 443//443
f 604//604 274//274 11//11
f 604//604 11//11 444//444
f 605//605 444//444 88//88
f 605//605 88//88 276//276
f 605//605 604//604 444//444
f 605//605 274//274 604//604
f 605//605 445//445 154//154
f 605//605 154//154 274//274
f 605//605 158//158 445//445
f 606//606 445//445 443//443
f 606//606 443//443 154//154
f 606//606 154//154 445//445
f 607//607 276//276 446//446
f 607//607 605//605 276//276
f 607//607 158//158 605//605
f 607//607 280//280 158//158
f 607//607 446//446 90//90
f 607//607 448//448 280//280
f 607//607 90//90 595//595
f 607//607 595//595 598//598
f 607//607 1//1 448//448
f 607//607 247//247 1//1
f 607//607 80//80 247//247
f 607//607 253//253 80//80
f 607//607 141//141 253//253
f 607//607 41//41 141//141
f 607//607 397//397 41//41
f 607//607 398//398 397//397
f 607//607 76//76 398//398
f 607//607 135//135 76//76
f 607//607 286//286 135//135
f 607//607 13//13 286//286
f 607//607 163//163 13//13
f 607//607 92//92 163//163
f 607//607 259//259 92//92
f 607//607 430//430 259//259
f 607//607 145//145 430//430
f 607//607 50//50 145//145
f 607//607 257//257 50//50
f 607//607 429//429 257//257
f 607//607 147//147 429//429
f 607//607 262//262 147//147
f 607//607 23//23 262//262
f 607//607 261//261 23//23
f 607//607 598//598 433//433
f 607//607 433//433 261//261
f 608//608 451//451 39//39
f 608//608 39//39 161//161
f 608//608 161//161 49//49
f 608//608 49//49 451//451
f 609//609 455//455 167//167
f 609//609 167//167 292//292
f 609//609 491//491 455//455
f 609//609 292//292 491//491
f 610//610 462//462 96//96
f 611//611 461//461 291//291
f 611//611 167//167 455//455
f 611//611 455//455 461//461
f 612//612 171//171 36//36
f 612//612 36//36 296//296
f 612//612 291//291 171//171
f 612//612 515//515 462//462
f 612//612 296//296 515//515
f 613//613 32//32 464//464
f 613//613 532//532 324//324
f 613//613 468//468 32//32
f 614//614 32//32 295//295
f 614//614 295//295 466//466
f 614//614 464//464 32//32
f 615//615 466//466 295//295
f 615//615 95//95 466//466
f 615//615 295//295 467//467
f 616//616 466//466 292//292
f 616//616 292//292 293//293
f 617//617 615//615 467//467
f 617//617 316//316 95//95
f 617//617 95//95 615//615
f 619//619 384//384 74//74
f 619//619 469//469 223//223
f 619//619 471//471 469//469
f 619//619 74//74 471//471
f 619//619 560//560 384//384
f 620//620 473//473 170//170
f 620//620 298//298 473//473
f 620//620 170//170 297//297
f 620//620 297//297 472//472
f 621//621 620//620 472//472
f 621//621 298//298 620//620
f 621//621 472//472 134//134
f 621//621 134//134 582//582
f 622//622 336//336 170//170
f 622//622 170//170 473//473
f 622//622 473//473 192//192
f 622//622 192//192 336//336
f 623//623 75//75 474//474
f 623//623 474//474 511//511
f 623//623 621//621 75//75
f 623//623 298//298 621//621
f 624//624 581//581 342//342
f 625//625 173//173 475//475
f 625//625 475//475 481//481
f 626//626 476//476 101//101
f 627//627 475//475 173//173
f 627//627 173//173 476//476
f 627//627 481//481 475//475
f 628//628 477//477 16//16
f 629//629 480//480 175//175
f 629//629 483//483 307//307
f 629//629 175//175 483//483
f 632//632 483//483 481//481
f 632//632 481//481 627//627
f 633//633 484//484 59//59
f 634//634 176//176 308//308
f 634//634 308//308 486//486
f 634//634 633//633 176//176
f 634//634 484//484 633//633
f 635//635 486//486 305//305
f 635//635 305//305 480//480
f 635//635 480//480 629//629
f 636//636 466//466 95//95
f 636//636 95//95 491//491
f 636//636 491//491 292//292
f 636//636 292//292 466//466
f 637//637 492//492 482//482
f 637//637 315//315 492//492
f 638//638 495//495 319//319
f 638//638 319//319 30//30
f 640//640 496//496 55//55
f 640//640 55//55 497//497
f 641//641 410//410 242//242
f 641//641 578//578 410//410
f 641//641 242//242 132//132
f 641//641 132//132 496//496
f 641//641 496//496 640//640
f 642//642 498//498 103//103
f 642//642 184//184 498//498
f 643//643 324//324 499//499
f 643//643 613//613 324//324
f 644//644 200//200 349//349
f 644//644 500//500 200//200
f 644//644 499//499 500//500
f 644//644 349//349 184//184
f 644//644 184//184 642//642
f 645//645 501//501 323//323
f 645//645 325//325 501//501
f 646//646 502//502 197//197
f 646//646 326//326 502//502
f 647//647 346//346 503//503
f 647//647 108//108 528//528
f 647//647 391//391 346//346
f 648//648 327//327 504//504
f 648//648 504//504 321//321
f 648//648 321//321 505//505
f 649//649 505//505 109//109
f 649//649 109//109 518//518
f 650//650 505//505 321//321
f 650//650 349//349 505//505
f 650//650 530//530 184//184
f 650//650 184//184 349//349
f 650//650 321//321 497//497
f 650//650 497//497 530//530
f 652//652 506//506 189//189
f 652//652 189//189 485//485
f 653//653 507//507 56//56
f 653//653 56//56 506//506
f 654//654 190//190 329//329
f 654//654 329//329 508//508
f 654//654 508//508 406//406
f 654//654 406//406 190//190
f 655//655 510//510 106//106
f 655//655 106//106 192//192
f 655//655 192//192 473//473
f 655//655 473//473 510//510
f 656//656 510//510 473//473
f 656//656 2//2 510//510
f 656//656 511//511 334//334
f 656//656 334//334 2//2
f 656//656 473//473 298//298
f 656//656 623//623 511//511
f 656//656 298//298 623//623
f 657//657 511//511 474//474
f 657//657 107//107 193//193
f 657//657 193//193 511//511
f 658//658 512//512 293//293
f 658//658 293//293 463//463
f 658//658 463//463 460//460
f 658//658 460//460 9//9
f 658//658 9//9 335//335
f 658//658 335//335 512//512
f 659//659 513//513 9//9
f 659//659 96//96 513//513
f 659//659 610//610 96//96
f 659//659 9//9 460//460
f 659//659 460//460 610//610
f 660//660 351//351 57//57
f 660//660 57//57 516//516
f 660//660 516//516 337//337
f 660//660 337//337 533//533
f 660//660 533//533 350//350
f 660//660 350//350 201//201
f 661//661 517//517 338//338
f 661//661 338//338 194//194
f 661//661 194//194 520//520
f 661//661 520//520 341//341
f 661//661 341//341 517//517
f 662//662 518//518 339//339
f 662//662 339//339 188//188
f 662//662 649//649 518//518
f 662//662 188//188 649//649
f 663//663 58//58 340//340
f 664//664 58//58 663//663
f 665//665 520//520 194//194
f 665//665 194//194 107//107
f 666//666 340//340 195//195
f 666//666 195//195 522//522
f 667//667 342//342 581//581
f 667//667 666//666 522//522
f 668//668 522//522 521//521
f 668//668 624//624 342//342
f 668//668 667//667 522//522
f 668//668 342//342 667//667
f 669//669 527//527 347//347
f 669//669 196//196 527//527
f 669//669 528//528 108//108
f 669//669 108//108 523//523
f 670//670 525//525 104//104
f 670//670 344//344 525//525
f 670//670 104//104 345//345
f 670//670 345//345 526//526
f 671//671 524//524 344//344
f 671//671 197//197 524//524
f 672//672 526//526 345//345
f 673//673 527//527 22//22
f 673//673 347//347 527//527
f 673//673 22//22 412//412
f 674//674 198//198 528//528
f 674//674 669//669 347//347
f 674//674 528//528 669//669
f 674//674 347//347 673//673
f 675//675 584//584 73//73
f 675//675 414//414 584//584
f 677//677 464//464 201//201
f 677//677 201//201 532//532
f 677//677 613//613 464//464
f 677//677 532//532 613//613
f 678//678 534//534 351//351
f 678//678 660//660 201//201
f 678//678 351//351 660//660
f 678//678 201//201 464//464
f 678//678 464//464 534//534
f 679//679 537//537 61//61
f 679//679 61//61 362//362
f 680//680 353//353 537//537
f 680//680 418//418 587//587
f 680//680 587//587 371//371
f 680//680 371//371 112//112
f 681//681 202//202 354//354
f 681//681 354//354 538//538
f 682//682 538//538 19//19
f 682//682 19//19 418//418
f 683//683 539//539 358//358
f 683//683 358//358 34//34
f 683//683 34//34 426//426
f 683//683 426//426 539//539
f 684//684 360//360 205//205
f 684//684 205//205 540//540
f 684//684 365//365 360//360
f 685//685 541//541 536//536
f 685//685 206//206 541//541
f 686//686 540//540 359//359
f 686//686 359//359 541//541
f 686//686 544//544 113//113
f 686//686 113//113 540//540
f 687//687 543//543 61//61
f 687//687 61//61 353//353
f 687//687 546//546 363//363
f 687//687 363//363 543//543
f 687//687 680//680 112//112
f 687//687 353//353 680//680
f 687//687 112//112 361//361
f 687//687 361//361 546//546
f 688//688 206//206 362//362
f 688//688 362//362 544//544
f 688//688 541//541 206//206
f 689//689 545//545 207//207
f 689//689 207//207 400//400
f 689//689 400//400 415//415
f 689//689 547//547 545//545
f 689//689 415//415 547//547
f 690//690 364//364 114//114
f 690//690 114//114 547//547
f 690//690 547//547 244//244
f 690//690 548//548 364//364
f 692//692 209//209 548//548
f 692//692 550//550 367//367
f 692//692 367//367 209//209
f 693//693 549//549 360//360
f 693//693 360//360 365//365
f 693//693 691//691 549//549
f 693//693 365//365 692//692
f 693//693 692//692 548//548
f 693//693 548//548 691//691
f 694//694 113//113 367//367
f 694//694 367//367 550//550
f 694//694 550//550 684//684
f 694//694 684//684 540//540
f 694//694 540//540 113//113
f 695//695 551//551 372//372
f 695//695 372//372 212//212
f 695//695 212//212 425//425
f 695//695 425//425 551//551
f 696//696 552//552 231//231
f 696//696 231//231 396//396
f 696//696 573//573 552//552
f 697//697 563//563 388//388
f 697//697 388//388 202//202
f 697//697 202//202 537//537
f 697//697 537//537 563//563
f 698//698 352//352 388//388
f 698//698 388//388 563//563
f 698//698 563//563 537//537
f 698//698 679//679 352//352
f 698//698 537//537 679//679
f 699//699 67//67 566//566
f 700//700 77//77 394//394
f 700//700 394//394 567//567
f 700//700 567//567 233//233
f 700//700 233//233 77//77
f 701//701 567//567 230//230
f 701//701 230//230 395//395
f 701//701 395//395 233//233
f 701//701 233//233 567//567
f 702//702 570//570 399//399
f 702//702 234//234 570//570
f 702//702 571//571 234//234
f 702//702 399//399 571//571
f 703//703 569//569 128//128
f 703//703 128//128 570//570
f 703//703 396//396 569//569
f 703//703 696//696 396//396
f 703//703 570//570 696//696
f 704//704 415//415 234//234
f 704//704 234//234 571//571
f 704//704 571//571 584//584
f 705//705 570//570 128//128
f 705//705 128//128 572//572
f 705//705 572//572 399//399
f 705//705 399//399 570//570
f 706//706 570//570 234//234
f 706//706 234//234 573//573
f 706//706 696//696 570//570
f 706//706 573//573 696//696
f 707//707 577//577 409//409
f 707//707 409//409 240//240
f 707//707 240//240 577//577
f 708//708 579//579 326//326
f 708//708 564//564 579//579
f 708//708 326//326 646//646
f 708//708 503//503 564//564
f 709//709 243//243 580//580
f 709//709 580//580 412//412
f 710//710 581//581 527//527
f 710//710 527//527 519//519
f 710//710 667//667 581//581
f 710//710 519//519 667//667
f 711//711 547//547 415//415
f 711//711 584//584 244//244
f 711//711 244//244 547//547
f 711//711 704//704 584//584
f 711//711 415//415 704//704
f 712//712 585//585 243//243
f 712//712 243//243 416//416
f 713//713 244//244 414//414
f 713//713 414//414 675//675
f 714//714 580//580 243//243
f 714//714 243//243 585//585
f 714//714 133//133 580//580
f 714//714 585//585 713//713
f 715//715 416//416 413//413
f 715//715 413//413 586//586
f 716//716 586//586 40//40
f 716//716 40//40 548//548
f 716//716 548//548 690//690
f 716//716 715//715 586//586
f 716//716 416//416 715//715
f 717//717 592//592 82//82
f 717//717 82//82 44//44
f 717//717 44//44 332//332
f 717//717 332//332 592//592
f 718//718 432//432 258//258
f 718//718 258//258 593//593
f 718//718 593//593 285//285
f 718//718 285//285 432//432
f 719//719 148//148 46//46
f 719//719 46//46 596//596
f 719//719 596//596 266//266
f 719//719 266//266 148//148
f 720//720 442//442 269//269
f 720//720 269//269 600//600
f 720//720 600//600 439//439
f 720//720 439//439 442//442
f 721//721 137//137 421//421
f 721//721 421//421 603//603
f 721//721 78//78 137//137
f 721//721 603//603 602//602
f 721//721 602//602 78//78
f 722//722 603//603 443//443
f 722//722 443//443 602//602
f 722//722 602//602 603//603
f 723//723 610//610 460//460
f 723//723 460//460 167//167
f 723//723 167//167 611//611
f 723//723 611//611 291//291
f 723//723 291//291 612//612
f 723//723 612//612 462//462
f 723//723 462//462 610//610
f 724//724 614//614 466//466
f 724//724 466//466 616//616
f 724//724 464//464 614//614
f 724//724 534//534 464//464
f 724//724 616//616 293//293
f 724//724 293//293 534//534
f 725//725 482//482 169//169
f 726//726 169//169 316//316
f 726//726 316//316 617//617
f 726//726 725//725 169//169
f 726//726 617//617 725//725
f 728//728 619//619 223//223
f 728//728 223//223 121//121
f 728//728 121//121 560//560
f 728//728 560//560 619//619
f 729//729 621//621 582//582
f 729//729 75//75 621//621
f 729//729 709//709 75//75
f 729//729 582//582 243//243
f 729//729 243//243 709//709
f 730//730 624//624 474//474
f 730//730 474//474 75//75
f 730//730 709//709 624//624
f 730//730 75//75 709//709
f 731//731 97//97 173//173
f 731//731 173//173 625//625
f 731//731 625//625 481//481
f 731//731 481//481 97//97
f 732//732 302//302 476//476
f 732//732 476//476 626//626
f 732//732 632//632 302//302
f 732//732 626//626 632//632
f 733//733 626//626 101//101
f 733//733 101//101 477//477
f 734//734 627//627 476//476
f 734//734 476//476 302//302
f 734//734 632//632 627//627
f 734//734 302//302 632//632
f 735//735 628//628 16//16
f 735//735 637//637 630//630
f 736//736 307//307 630//630
f 736//736 637//637 482//482
f 736//736 630//630 637//637
f 737//737 630//630 307//307
f 737//737 307//307 483//483
f 738//738 59//59 631//631
f 738//738 631//631 482//482
f 738//738 482//482 725//725
f 739//739 631//631 59//59
f 739//739 59//59 484//484
f 739//739 736//736 482//482
f 739//739 482//482 631//631
f 739//739 307//307 736//736
f 740//740 633//633 59//59
f 741//741 323//323 501//501
f 741//741 501//501 325//325
f 742//742 635//635 629//629
f 742//742 629//629 307//307
f 742//742 307//307 739//739
f 742//742 634//634 486//486
f 742//742 486//486 635//635
f 742//742 739//739 484//484
f 742//742 484//484 634//634
f 743//743 638//638 186//186
f 743//743 495//495 638//638
f 744//744 30//30 330//330
f 744//744 330//330 507//507
f 745//745 507//507 186//186
f 745//745 186//186 638//638
f 745//745 744//744 507//507
f 745//745 638//638 30//30
f 745//745 30//30 744//744
f 746//746 642//642 103//103
f 747//747 639//639 103//103
f 747//747 103//103 495//495
f 747//747 495//495 743//743
f 748//748 524//524 187//187
f 748//748 187//187 578//578
f 748//748 641//641 640//640
f 748//748 578//578 641//641
f 749//749 525//525 344//344
f 749//749 640//640 497//497
f 749//749 497//497 525//525
f 750//750 643//643 499//499
f 750//750 185//185 643//643
f 751//751 618//618 468//468
f 751//751 468//468 613//613
f 751//751 613//613 643//643
f 752//752 644//644 642//642
f 752//752 499//499 644//644
f 752//752 750//750 499//499
f 752//752 642//642 746//746
f 754//754 646//646 197//197
f 754//754 343//343 646//646
f 754//754 197//197 671//671
f 755//755 646//646 343//343
f 755//755 343//343 108//108
f 755//755 708//708 646//646
f 755//755 108//108 647//647
f 756//756 647//647 528//528
f 756//756 528//528 198//198
f 756//756 198//198 391//391
f 756//756 391//391 647//647
f 757//757 648//648 505//505
f 757//757 505//505 649//649
f 757//757 327//327 648//648
f 757//757 649//649 188//188
f 757//757 188//188 327//327
f 759//759 651//651 506//506
f 759//759 506//506 652//652
f 759//759 741//741 651//651
f 759//759 652//652 485//485
f 760//760 653//653 506//506
f 760//760 506//506 651//651
f 760//760 758//758 186//186
f 760//760 651//651 758//758
f 760//760 186//186 507//507
f 760//760 507//507 653//653
f 761//761 345//345 58//58
f 761//761 58//58 664//664
f 761//761 672//672 345//345
f 761//761 664//664 672//672
f 762//762 664//664 519//519
f 762//762 519//519 196//196
f 762//762 672//672 664//664
f 762//762 669//669 523//523
f 762//762 196//196 669//669
f 762//762 523//523 343//343
f 762//762 343//343 672//672
f 763//763 664//664 663//663
f 763//763 519//519 664//664
f 763//763 667//667 519//519
f 763//763 666//666 667//667
f 763//763 663//663 340//340
f 763//763 340//340 666//666
f 764//764 665//665 107//107
f 764//764 107//107 657//657
f 764//764 657//657 474//474
f 765//765 668//668 521//521
f 765//765 521//521 341//341
f 765//765 341//341 520//520
f 765//765 520//520 665//665
f 765//765 665//665 764//764
f 766//766 474//474 624//624
f 766//766 624//624 668//668
f 766//766 764//764 474//474
f 766//766 765//765 764//764
f 766//766 668//668 765//765
f 767//767 670//670 526//526
f 767//767 671//671 344//344
f 767//767 344//344 670//670
f 767//767 526//526 672//672
f 767//767 672//672 343//343
f 767//767 754//754 671//671
f 767//767 343//343 754//754
f 768//768 673//673 412//412
f 768//768 412//412 133//133
f 769//769 674//674 673//673
f 770//770 73//73 571//571
f 771//771 566//566 198//198
f 772//772 536//536 352//352
f 772//772 352//352 679//679
f 772//772 685//685 536//536
f 773//773 537//537 202//202
f 773//773 202//202 681//681
f 773//773 680//680 537//537
f 773//773 418//418 680//680
f 773//773 681//681 538//538
f 773//773 682//682 418//418
f 773//773 538//538 682//682
f 774//774 684//684 550//550
f 774//774 365//365 684//684
f 774//774 692//692 365//365
f 774//774 550//550 692//692
f 775//775 679//679 362//362
f 775//775 772//772 679//679
f 775//775 685//685 772//772
f 775//775 362//362 206//206
f 775//775 206//206 685//685
f 776//776 544//544 686//686
f 776//776 686//686 541//541
f 777//777 691//691 548//548
f 777//777 548//548 40//40
f 777//777 40//40 549//549
f 777//777 549//549 691//691
f 779//779 647//647 503//503
f 779//779 503//503 708//708
f 779//779 755//755 647//647
f 779//779 708//708 755//755
f 780//780 709//709 412//412
f 780//780 412//412 581//581
f 780//780 581//581 624//624
f 780//780 624//624 709//709
f 781//781 713//713 675//675
f 782//782 244//244 713//713
f 782//782 713//713 585//585
f 782//782 585//585 712//712
f 782//782 716//716 690//690
f 782//782 690//690 244//244
f 782//782 712//712 416//416
f 782//782 416//416 716//716
f 783//783 714//714 713//713
f 783//783 133//133 714//714
f 783//783 781//781 133//133
f 783//783 713//713 781//781
f 784//784 295//295 468//468
f 785//785 630//630 737//737
f 785//785 737//737 483//483
f 785//785 483//483 632//632
f 785//785 632//632 626//626
f 785//785 626//626 733//733
f 786//786 735//735 16//16
f 786//786 16//16 315//315
f 786//786 315//315 637//637
f 786//786 637//637 735//735
f 787//787 735//735 630//630
f 787//787 628//628 735//735
f 787//787 630//630 785//785
f 788//788 59//59 738//738
f 788//788 784//784 727//727
f 788//788 740//740 59//59
f 788//788 727//727 740//740
f 789//789 738//738 725//725
f 789//789 725//725 617//617
f 789//789 617//617 467//467
f 789//789 467//467 738//738
f 790//790 740//740 323//323
f 790//790 633//633 740//740
f 790//790 323//323 741//741
f 790//790 741//741 759//759
f 791//791 740//740 727//727
f 791//791 323//323 740//740
f 791//791 645//645 323//323
f 791//791 727//727 618//618
f 792//792 103//103 639//639
f 792//792 639//639 758//758
f 793//793 747//747 743//743
f 793//793 743//743 186//186
f 793//793 186//186 758//758
f 793//793 758//758 639//639
f 793//793 639//639 747//747
f 794//794 749//749 344//344
f 794//794 344//344 524//524
f 794//794 524//524 748//748
f 794//794 748//748 640//640
f 794//794 640//640 749//749
f 795//795 752//752 746//746
f 796//796 645//645 185//185
f 796//796 185//185 750//750
f 797//797 751//751 643//643
f 797//797 643//643 185//185
f 797//797 753//753 751//751
f 797//797 185//185 645//645
f 797//797 791//791 753//753
f 797//797 645//645 791//791
f 798//798 618//618 751//751
f 798//798 751//751 753//753
f 798//798 791//791 618//618
f 798//798 753//753 791//791
f 799//799 741//741 325//325
f 799//799 325//325 758//758
f 799//799 758//758 651//651
f 799//799 651//651 741//741
f 800//800 758//758 325//325
f 800//800 795//795 746//746
f 800//800 325//325 795//795
f 800//800 792//792 758//758
f 801//801 759//759 485//485
f 801//801 485//485 176//176
f 801//801 790//790 759//759
f 801//801 176//176 633//633
f 801//801 633//633 790//790
f 802//802 529//529 769//769
f 802//802 769//769 673//673
f 802//802 673//673 768//768
f 804//804 198//198 674//674
f 804//804 674//674 769//769
f 804//804 769//769 803//803
f 805//805 675//675 73//73
f 805//805 73//73 770//770
f 805//805 529//529 802//802
f 806//806 770//770 571//571
f 806//806 571//571 399//399
f 807//807 771//771 198//198
f 807//807 804//804 676//676
f 807//807 198//198 804//804
f 808//808 699//699 566//566
f 809//809 688//688 544//544
f 809//809 544//544 776//776
f 809//809 776//776 541//541
f 809//809 541//541 688//688
f 810//810 401//401 67//67
f 810//810 67//67 778//778
f 810//810 778//778 572//572
f 810//810 572//572 401//401
f 811//811 778//778 67//67
f 811//811 67//67 699//699
f 811//811 699//699 572//572
f 811//811 572//572 778//778
f 812//812 768//768 133//133
f 812//812 133//133 781//781
f 813//813 467//467 295//295
f 813//813 788//788 738//738
f 813//813 738//738 467//467
f 814//814 468//468 618//618
f 814//814 618//618 727//727
f 815//815 785//785 733//733
f 815//815 733//733 477//477
f 816//816 477//477 628//628
f 816//816 628//628 787//787
f 816//816 815//815 477//477
f 816//816 787//787 785//785
f 816//816 785//785 815//815
f 817//817 746//746 103//103
f 817//817 800//800 746//746
f 818//818 750//750 752//752
f 818//818 752//752 795//795
f 818//818 795//795 325//325
f 819//819 325//325 645//645
f 819//819 645//645 796//796
f 819//819 818//818 325//325
f 819//819 796//796 750//750
f 819//819 750//750 818//818
f 820//820 803//803 769//769
f 820//820 769//769 529//529
f 820//820 805//805 770//770
f 820//820 529//529 805//805
f 821//821 804//804 803//803
f 821//821 676//676 804//804
f 822//822 399//399 572//572
f 822//822 572//572 699//699
f 822//822 699//699 808//808
f 823//823 807//807 676//676
f 823//823 676//676 821//821
f 823//823 770//770 806//806
f 823//823 822//822 771//771
f 823//823 771//771 807//807
f 823//823 806//806 399//399
f 823//823 399//399 822//822
f 824//824 566//566 771//771
f 824//824 771//771 822//822
f 825//825 802//802 768//768
f 825//825 805//805 802//802
f 825//825 675//675 805//805
f 826//826 813//813 295//295
f 826//826 295//295 784//784
f 826//826 784//784 788//788
f 826//826 788//788 813//813
f 827//827 784//784 468//468
f 827//827 468//468 814//814
f 827//827 814//814 727//727
f 827//827 727//727 784//784
f 828//828 817//817 103//103
f 828//828 103//103 792//792
f 828//828 792//792 800//800
f 828//828 800//800 817//817
f 829//829 820//820 770//770
f 829//829 803//803 820//820
f 829//829 821//821 803//803
f 829//829 823//823 821//821
f 829//829 770//770 823//823
f 830//830 808//808 566//566
f 830//830 566//566 824//824
f 830//830 824//824 822//822
f 830//830 822//822 808//808
f 831//831 825//825 768//768
f 831//831 768//768 812//812
f 831//831 812//812 781//781
f 831//831 781//781 675//675
f 831//831 675//675 825//825
# 1658 faces, 0 coords texture

# End of File
