####
#
# OBJ File Generated by Meshlab
#
####
# Object star_arm_link_4_collision_mesh.obj
#
# Vertices: 496
# Faces: 988
#
####
vn 0.000000 0.000000 0.000000
v -0.043998 0.000369 0.034000
vn 0.000000 0.000000 0.000000
v 0.042839 -0.003716 -0.047000
vn 0.000000 0.000000 0.000000
v 0.034688 0.027069 0.034000
vn 0.000000 0.000000 0.000000
v 0.006698 -0.059800 0.004554
vn 0.000000 0.000000 0.000000
v -0.013804 0.041779 -0.046000
vn 0.000000 0.000000 0.000000
v 0.016636 -0.039651 0.035000
vn 0.000000 0.000000 0.000000
v -0.013712 0.041809 0.034000
vn 0.000000 0.000000 0.000000
v -0.037278 -0.023375 -0.046000
vn 0.000000 0.000000 0.000000
v 0.027501 0.034346 -0.046000
vn 0.000000 0.000000 0.000000
v -0.024515 -0.036538 0.034000
vn 0.000000 0.000000 0.000000
v 0.038299 -0.021661 0.034000
vn 0.000000 0.000000 0.000000
v -0.035784 0.025603 0.017733
vn 0.000000 0.000000 0.000000
v 0.010611 0.041670 0.035000
vn 0.000000 0.000000 0.000000
v -0.039118 0.017853 -0.047000
vn 0.000000 0.000000 0.000000
v 0.013293 -0.041944 -0.046000
vn 0.000000 0.000000 0.000000
v 0.040534 0.017118 -0.046000
vn 0.000000 0.000000 0.000000
v -0.038027 -0.020074 0.035000
vn 0.000000 0.000000 0.000000
v -0.004255 -0.043794 0.034000
vn 0.000000 0.000000 0.000000
v -0.012401 -0.059800 -0.007567
vn 0.000000 0.000000 0.000000
v 0.029233 -0.032885 0.034000
vn 0.000000 0.000000 0.000000
v 0.036188 -0.025029 -0.046000
vn 0.000000 0.000000 0.000000
v 0.043896 0.003029 0.034000
vn 0.000000 0.000000 0.000000
v -0.026544 0.035091 0.034000
vn 0.000000 0.000000 0.000000
v 0.024067 0.036835 0.034000
vn 0.000000 0.000000 0.000000
v 0.007839 0.043296 -0.046000
vn 0.000000 0.000000 0.000000
v -0.031966 0.030235 -0.046000
vn 0.000000 0.000000 0.000000
v -0.043904 -0.002900 -0.046000
vn 0.000000 0.000000 0.000000
v -0.041513 0.014582 0.034000
vn 0.000000 0.000000 0.000000
v -0.008003 -0.042249 -0.047000
vn 0.000000 0.000000 0.000000
v 0.034769 0.026966 -0.045611
vn 0.000000 0.000000 0.000000
v 0.036149 0.023287 -0.047000
vn 0.000000 0.000000 0.000000
v 0.006644 -0.043496 0.034000
vn 0.000000 0.000000 0.000000
v -0.017779 -0.039152 0.035000
vn 0.000000 0.000000 0.000000
v -0.037163 -0.023556 0.034000
vn 0.000000 0.000000 0.000000
v 0.006698 -0.059800 -0.016554
vn 0.000000 0.000000 0.000000
v -0.007968 -0.059800 0.003631
vn 0.000000 0.000000 0.000000
v 0.033451 -0.027019 0.035000
vn 0.000000 0.000000 0.000000
v 0.020406 -0.038982 0.034000
vn 0.000000 0.000000 0.000000
v 0.041865 -0.013539 -0.046000
vn 0.000000 0.000000 0.000000
v 0.012500 -0.059800 -0.006000
vn 0.000000 0.000000 0.000000
v 0.041579 0.014393 0.034000
vn 0.000000 0.000000 0.000000
v 0.043866 0.003436 -0.046000
vn 0.000000 0.000000 0.000000
v -0.020406 0.038982 0.034000
vn 0.000000 0.000000 0.000000
v -0.033779 0.026608 0.035000
vn 0.000000 0.000000 0.000000
v 0.029104 0.031654 0.035000
vn 0.000000 0.000000 0.000000
v 0.029780 0.032390 0.034000
vn 0.000000 0.000000 0.000000
v 0.021264 0.038521 -0.046000
vn 0.000000 0.000000 0.000000
v -0.002844 0.043908 -0.030100
vn 0.000000 0.000000 0.000000
v -0.036491 0.024584 -0.046000
vn 0.000000 0.000000 0.000000
v -0.025973 0.034270 -0.047000
vn 0.000000 0.000000 0.000000
v -0.031958 0.030244 0.034000
vn 0.000000 0.000000 0.000000
v -0.039683 -0.016561 -0.047000
vn 0.000000 0.000000 0.000000
v -0.043241 0.008136 -0.039940
vn 0.000000 0.000000 0.000000
v 0.025552 -0.034585 -0.047000
vn 0.000000 0.000000 0.000000
v -0.021734 -0.038258 -0.046000
vn 0.000000 0.000000 0.000000
v 0.038657 0.021015 0.034000
vn 0.000000 0.000000 0.000000
v 0.041738 0.010341 -0.047000
vn 0.000000 0.000000 0.000000
v 0.037163 0.023556 -0.046000
vn 0.000000 0.000000 0.000000
v 0.031841 0.028899 -0.047000
vn 0.000000 0.000000 0.000000
v 0.000785 -0.059800 0.006475
vn 0.000000 0.000000 0.000000
v 0.002915 -0.042901 0.035000
vn 0.000000 0.000000 0.000000
v -0.029488 -0.031296 0.035000
vn 0.000000 0.000000 0.000000
v -0.036209 -0.024998 -0.038832
vn 0.000000 0.000000 0.000000
v -0.041752 -0.013884 0.034000
vn 0.000000 0.000000 0.000000
v -0.000606 -0.043996 -0.046000
vn 0.000000 0.000000 0.000000
v -0.005322 -0.059800 -0.017310
vn 0.000000 0.000000 0.000000
v -0.011378 -0.042503 0.034000
vn 0.000000 0.000000 0.000000
v -0.018192 -0.040063 0.034000
vn 0.000000 0.000000 0.000000
v -0.011622 -0.059800 -0.001398
vn 0.000000 0.000000 0.000000
v 0.034229 -0.027647 0.034000
vn 0.000000 0.000000 0.000000
v 0.028569 -0.032138 0.035000
vn 0.000000 0.000000 0.000000
v 0.041823 -0.009992 0.035000
vn 0.000000 0.000000 0.000000
v 0.010954 -0.059800 0.000022
vn 0.000000 0.000000 0.000000
v 0.013712 -0.041809 0.034000
vn 0.000000 0.000000 0.000000
v 0.038897 -0.018330 -0.047000
vn 0.000000 0.000000 0.000000
v 0.039802 -0.018756 -0.046000
vn 0.000000 0.000000 0.000000
v 0.036500 -0.024571 0.034000
vn 0.000000 0.000000 0.000000
v 0.043795 -0.004237 -0.046000
vn 0.000000 0.000000 0.000000
v 0.043377 0.007381 0.034000
vn 0.000000 0.000000 0.000000
v -0.017518 0.040362 0.034000
vn 0.000000 0.000000 0.000000
v -0.023356 0.036104 0.035000
vn 0.000000 0.000000 0.000000
v -0.042358 0.007406 0.035000
vn 0.000000 0.000000 0.000000
v 0.023520 0.035998 0.035000
vn 0.000000 0.000000 0.000000
v 0.027501 0.034346 0.034000
vn 0.000000 0.000000 0.000000
v 0.032779 0.029352 0.034000
vn 0.000000 0.000000 0.000000
v 0.027292 0.034513 -0.046000
vn 0.000000 0.000000 0.000000
v 0.014859 0.041415 0.034000
vn 0.000000 0.000000 0.000000
v 0.000453 0.043998 -0.046000
vn 0.000000 0.000000 0.000000
v -0.007877 0.043289 0.020113
vn 0.000000 0.000000 0.000000
v -0.034046 0.027872 -0.032562
vn 0.000000 0.000000 0.000000
v -0.038561 0.021191 0.034000
vn 0.000000 0.000000 0.000000
v -0.026544 0.035091 -0.046000
vn 0.000000 0.000000 0.000000
v -0.035662 0.024026 -0.047000
vn 0.000000 0.000000 0.000000
v -0.042790 0.004239 -0.047000
vn 0.000000 0.000000 0.000000
v -0.043795 0.004237 -0.046000
vn 0.000000 0.000000 0.000000
v -0.043343 0.007578 0.034000
vn 0.000000 0.000000 0.000000
v -0.040047 0.018228 -0.046000
vn 0.000000 0.000000 0.000000
v 0.012990 -0.040991 -0.047000
vn 0.000000 0.000000 0.000000
v 0.020406 -0.038982 -0.046000
vn 0.000000 0.000000 0.000000
v 0.031595 -0.030623 -0.046000
vn 0.000000 0.000000 0.000000
v -0.032779 -0.029352 -0.046000
vn 0.000000 0.000000 0.000000
v 0.040534 0.017118 0.034000
vn 0.000000 0.000000 0.000000
v 0.037778 0.020538 0.035000
vn 0.000000 0.000000 0.000000
v 0.039478 0.017045 -0.047000
vn 0.000000 0.000000 0.000000
v 0.042869 0.003358 -0.047000
vn 0.000000 0.000000 0.000000
v 0.042709 0.010582 -0.046000
vn 0.000000 0.000000 0.000000
v 0.040396 0.017441 -0.046000
vn 0.000000 0.000000 0.000000
v 0.036236 0.024960 0.033175
vn 0.000000 0.000000 0.000000
v 0.030478 0.031734 -0.046000
vn 0.000000 0.000000 0.000000
v 0.034353 0.027493 -0.046000
vn 0.000000 0.000000 0.000000
v 0.014328 0.040543 -0.047000
vn 0.000000 0.000000 0.000000
v 0.002983 -0.043899 0.034000
vn 0.000000 0.000000 0.000000
v 0.003863 -0.059800 0.005888
vn 0.000000 0.000000 0.000000
v -0.002342 -0.059800 0.006279
vn 0.000000 0.000000 0.000000
v 0.009910 -0.041842 0.035000
vn 0.000000 0.000000 0.000000
v -0.023958 -0.035707 0.035000
vn 0.000000 0.000000 0.000000
v -0.034221 -0.026038 0.035000
vn 0.000000 0.000000 0.000000
v -0.036736 -0.024217 -0.039109
vn 0.000000 0.000000 0.000000
v -0.037163 -0.023556 -0.046000
vn 0.000000 0.000000 0.000000
v -0.012401 -0.059800 -0.004433
vn 0.000000 0.000000 0.000000
v -0.038911 -0.020541 0.034000
vn 0.000000 0.000000 0.000000
v -0.042476 -0.006694 0.035000
vn 0.000000 0.000000 0.000000
v -0.043463 -0.006850 0.034000
vn 0.000000 0.000000 0.000000
v -0.042798 -0.010213 -0.046000
vn 0.000000 0.000000 0.000000
v 0.006235 -0.043556 -0.046000
vn 0.000000 0.000000 0.000000
v -0.014859 -0.041415 -0.046000
vn 0.000000 0.000000 0.000000
v -0.010113 -0.059800 -0.013347
vn 0.000000 0.000000 0.000000
v 0.000785 -0.059800 -0.018475
vn 0.000000 0.000000 0.000000
v -0.007839 -0.043296 -0.046000
vn 0.000000 0.000000 0.000000
v -0.004158 -0.042799 0.035000
vn 0.000000 0.000000 0.000000
v -0.021473 -0.038405 0.034000
vn 0.000000 0.000000 0.000000
v -0.014859 -0.041415 0.034000
vn 0.000000 0.000000 0.000000
v -0.030174 -0.032024 0.034000
vn 0.000000 0.000000 0.000000
v 0.012107 -0.059800 -0.002891
vn 0.000000 0.000000 0.000000
v 0.023445 -0.037233 0.034000
vn 0.000000 0.000000 0.000000
v 0.031958 -0.030244 0.034000
vn 0.000000 0.000000 0.000000
v 0.037428 -0.021169 0.035000
vn 0.000000 0.000000 0.000000
v 0.042182 -0.012517 0.034000
vn 0.000000 0.000000 0.000000
v 0.009112 -0.059800 0.002557
vn 0.000000 0.000000 0.000000
v 0.017023 -0.040574 0.034000
vn 0.000000 0.000000 0.000000
v 0.040829 -0.013491 -0.047000
vn 0.000000 0.000000 0.000000
v 0.036500 -0.024571 -0.046000
vn 0.000000 0.000000 0.000000
v 0.043835 -0.003802 -0.046000
vn 0.000000 0.000000 0.000000
v 0.042391 0.007213 0.035000
vn 0.000000 0.000000 0.000000
v -0.020406 0.038982 -0.046000
vn 0.000000 0.000000 0.000000
v -0.023899 0.036944 0.034000
vn 0.000000 0.000000 0.000000
v -0.017120 0.039445 0.035000
vn 0.000000 0.000000 0.000000
v -0.028959 0.031786 0.035000
vn 0.000000 0.000000 0.000000
v -0.040570 0.014251 0.035000
vn 0.000000 0.000000 0.000000
v 0.029755 0.032413 -0.044611
vn 0.000000 0.000000 0.000000
v 0.033900 0.026454 0.035000
vn 0.000000 0.000000 0.000000
v 0.021473 0.038405 -0.046000
vn 0.000000 0.000000 0.000000
v 0.026672 0.033728 -0.047000
vn 0.000000 0.000000 0.000000
v 0.014661 0.041486 -0.046000
vn 0.000000 0.000000 0.000000
v 0.017701 0.040282 0.034000
vn 0.000000 0.000000 0.000000
v -0.006767 0.043476 -0.046000
vn 0.000000 0.000000 0.000000
v 0.003719 0.043842 0.034000
vn 0.000000 0.000000 0.000000
v -0.010663 0.042688 0.034000
vn 0.000000 0.000000 0.000000
v -0.035512 0.025979 -0.032917
vn 0.000000 0.000000 0.000000
v -0.033161 0.028920 0.020113
vn 0.000000 0.000000 0.000000
v -0.037067 0.023708 0.019465
vn 0.000000 0.000000 0.000000
v -0.034564 0.027227 0.034000
vn 0.000000 0.000000 0.000000
v -0.026577 0.035067 -0.046000
vn 0.000000 0.000000 0.000000
v -0.031240 0.029548 -0.047000
vn 0.000000 0.000000 0.000000
v -0.042907 -0.002834 -0.047000
vn 0.000000 0.000000 0.000000
v -0.043998 0.000378 -0.039637
vn 0.000000 0.000000 0.000000
v -0.042501 0.011388 0.034000
vn 0.000000 0.000000 0.000000
v -0.043795 0.004237 0.034000
vn 0.000000 0.000000 0.000000
v -0.043475 0.006778 -0.040150
vn 0.000000 0.000000 0.000000
v -0.040028 0.018269 -0.046000
vn 0.000000 0.000000 0.000000
v -0.042482 0.011458 -0.046000
vn 0.000000 0.000000 0.000000
v -0.040047 0.018228 0.034000
vn 0.000000 0.000000 0.000000
v 0.006094 -0.042566 -0.047000
vn 0.000000 0.000000 0.000000
v 0.019990 -0.039197 -0.046000
vn 0.000000 0.000000 0.000000
v 0.010954 -0.059800 -0.012022
vn 0.000000 0.000000 0.000000
v 0.031958 -0.030244 -0.046000
vn 0.000000 0.000000 0.000000
v 0.026146 -0.035389 -0.046000
vn 0.000000 0.000000 0.000000
v -0.027082 -0.033400 -0.047000
vn 0.000000 0.000000 0.000000
v 0.037163 0.023556 0.034000
vn 0.000000 0.000000 0.000000
v 0.040634 0.014066 0.035000
vn 0.000000 0.000000 0.000000
v 0.042798 0.010213 -0.046000
vn 0.000000 0.000000 0.000000
v 0.042798 0.010213 0.034000
vn 0.000000 0.000000 0.000000
v 0.035153 0.026462 -0.044611
vn 0.000000 0.000000 0.000000
v 0.032081 0.030114 0.031735
vn 0.000000 0.000000 0.000000
v 0.036989 0.023829 -0.046000
vn 0.000000 0.000000 0.000000
v 0.033228 0.027979 -0.046561
vn 0.000000 0.000000 0.000000
v 0.033893 0.028058 0.033673
vn 0.000000 0.000000 0.000000
v 0.034499 0.027309 0.029735
vn 0.000000 0.000000 0.000000
v 0.007486 0.042343 -0.047000
vn 0.000000 0.000000 0.000000
v -0.000606 -0.043996 0.034000
vn 0.000000 0.000000 0.000000
v 0.010141 -0.042815 0.034000
vn 0.000000 0.000000 0.000000
v -0.005322 -0.059800 0.005310
vn 0.000000 0.000000 0.000000
v -0.007839 -0.043296 0.034000
vn 0.000000 0.000000 0.000000
v -0.036736 -0.024217 -0.037307
vn 0.000000 0.000000 0.000000
v -0.032941 -0.029170 -0.046000
vn 0.000000 0.000000 0.000000
v -0.037162 -0.023558 -0.039196
vn 0.000000 0.000000 0.000000
v -0.036431 -0.022843 -0.047000
vn 0.000000 0.000000 0.000000
v -0.036209 -0.024998 -0.037585
vn 0.000000 0.000000 0.000000
v -0.040534 -0.017118 0.034000
vn 0.000000 0.000000 0.000000
v -0.037854 -0.022430 0.027114
vn 0.000000 0.000000 0.000000
v -0.040803 -0.013568 0.035000
vn 0.000000 0.000000 0.000000
v -0.042999 0.000361 0.035000
vn 0.000000 0.000000 0.000000
v -0.043896 -0.003029 0.034000
vn 0.000000 0.000000 0.000000
v -0.042798 -0.010213 0.034000
vn 0.000000 0.000000 0.000000
v -0.042835 -0.010059 -0.046000
vn 0.000000 0.000000 0.000000
v -0.040606 -0.016946 -0.046000
vn 0.000000 0.000000 0.000000
v 0.003863 -0.059800 -0.017888
vn 0.000000 0.000000 0.000000
v -0.014822 -0.040365 -0.047000
vn 0.000000 0.000000 0.000000
v -0.027712 -0.034177 -0.046000
vn 0.000000 0.000000 0.000000
v -0.007968 -0.059800 -0.015631
vn 0.000000 0.000000 0.000000
v -0.000968 -0.042989 -0.047000
vn 0.000000 0.000000 0.000000
v -0.008189 -0.043231 -0.046000
vn 0.000000 0.000000 0.000000
v -0.002342 -0.059800 -0.018279
vn 0.000000 0.000000 0.000000
v -0.011119 -0.041538 0.035000
vn 0.000000 0.000000 0.000000
v -0.010113 -0.059800 0.001347
vn 0.000000 0.000000 0.000000
v -0.027501 -0.034346 0.034000
vn 0.000000 0.000000 0.000000
v -0.035016 -0.026643 0.034000
vn 0.000000 0.000000 0.000000
v 0.026544 -0.035091 0.034000
vn 0.000000 0.000000 0.000000
v 0.022913 -0.036387 0.035000
vn 0.000000 0.000000 0.000000
v 0.040744 -0.016611 0.034000
vn 0.000000 0.000000 0.000000
v 0.042995 -0.009350 -0.046000
vn 0.000000 0.000000 0.000000
v 0.043795 -0.004237 0.034000
vn 0.000000 0.000000 0.000000
v 0.040047 -0.018228 -0.046000
vn 0.000000 0.000000 0.000000
v 0.035366 -0.024460 -0.047000
vn 0.000000 0.000000 0.000000
v 0.043896 0.003029 -0.046000
vn 0.000000 0.000000 0.000000
v -0.018849 0.039758 0.020113
vn 0.000000 0.000000 0.000000
v -0.013490 0.040829 -0.047000
vn 0.000000 0.000000 0.000000
v -0.020002 0.038065 -0.047000
vn 0.000000 0.000000 0.000000
v -0.024513 0.036539 0.020113
vn 0.000000 0.000000 0.000000
v -0.020467 0.038950 -0.046000
vn 0.000000 0.000000 0.000000
v -0.029633 0.032525 0.034000
vn 0.000000 0.000000 0.000000
v -0.037684 0.020709 0.035000
vn 0.000000 0.000000 0.000000
v 0.030099 0.032094 -0.045611
vn 0.000000 0.000000 0.000000
v 0.021473 0.038405 0.034000
vn 0.000000 0.000000 0.000000
v 0.031187 0.030550 -0.046343
vn 0.000000 0.000000 0.000000
v 0.020781 0.037645 -0.047000
vn 0.000000 0.000000 0.000000
v 0.010857 0.042639 0.034000
vn 0.000000 0.000000 0.000000
v 0.014859 0.041415 -0.046000
vn 0.000000 0.000000 0.000000
v 0.017299 0.039367 0.035000
vn 0.000000 0.000000 0.000000
v -0.003542 0.043857 -0.031902
vn 0.000000 0.000000 0.000000
v 0.007660 0.043328 -0.046000
vn 0.000000 0.000000 0.000000
v 0.000606 0.043996 0.034000
vn 0.000000 0.000000 0.000000
v -0.012772 0.042105 0.020113
vn 0.000000 0.000000 0.000000
v -0.013712 0.041809 -0.046000
vn 0.000000 0.000000 0.000000
v -0.010421 0.041718 0.035000
vn 0.000000 0.000000 0.000000
v -0.035956 0.025361 0.017041
vn 0.000000 0.000000 0.000000
v -0.032582 0.029570 -0.031559
vn 0.000000 0.000000 0.000000
v -0.037971 0.022231 -0.031880
vn 0.000000 0.000000 0.000000
v -0.036500 0.024571 0.034000
vn 0.000000 0.000000 0.000000
v -0.033778 0.028197 0.019940
vn 0.000000 0.000000 0.000000
v -0.034783 0.026947 0.017733
vn 0.000000 0.000000 0.000000
v -0.043982 -0.001252 -0.039208
vn 0.000000 0.000000 0.000000
v -0.042781 0.010284 0.018100
vn 0.000000 0.000000 0.000000
v -0.043954 0.002018 0.027614
vn 0.000000 0.000000 0.000000
v -0.043786 0.004338 -0.046000
vn 0.000000 0.000000 0.000000
v -0.043717 0.004979 0.028297
vn 0.000000 0.000000 0.000000
v -0.042009 0.013087 0.027579
vn 0.000000 0.000000 0.000000
v -0.041516 0.011198 -0.047000
vn 0.000000 0.000000 0.000000
v -0.040769 0.016548 0.018100
vn 0.000000 0.000000 0.000000
v -0.039386 0.019616 0.019177
vn 0.000000 0.000000 0.000000
v 0.006644 -0.043496 -0.046000
vn 0.000000 0.000000 0.000000
v 0.013712 -0.041809 -0.046000
vn 0.000000 0.000000 0.000000
v 0.019536 -0.038306 -0.047000
vn 0.000000 0.000000 0.000000
v 0.012107 -0.059800 -0.009109
vn 0.000000 0.000000 0.000000
v 0.009112 -0.059800 -0.014557
vn 0.000000 0.000000 0.000000
v 0.026544 -0.035091 -0.046000
vn 0.000000 0.000000 0.000000
v 0.035744 0.025658 0.033467
vn 0.000000 0.000000 0.000000
v 0.034975 0.026697 -0.043919
vn 0.000000 0.000000 0.000000
v 0.031050 0.031175 -0.042879
vn 0.000000 0.000000 0.000000
v 0.032171 0.030017 0.032281
vn 0.000000 0.000000 0.000000
v 0.035034 0.026621 -0.045181
vn 0.000000 0.000000 0.000000
v 0.036234 0.024962 0.030294
vn 0.000000 0.000000 0.000000
v 0.037021 0.023778 0.031735
vn 0.000000 0.000000 0.000000
v 0.033900 0.027508 -0.046343
vn 0.000000 0.000000 0.000000
v 0.033740 0.028243 -0.042879
vn 0.000000 0.000000 0.000000
v 0.034499 0.027309 0.033735
vn 0.000000 0.000000 0.000000
v -0.006614 0.042488 -0.047000
vn 0.000000 0.000000 0.000000
v -0.032192 -0.028507 -0.047000
vn 0.000000 0.000000 0.000000
v -0.037162 -0.023558 -0.037221
vn 0.000000 0.000000 0.000000
v -0.038344 -0.021581 0.025748
vn 0.000000 0.000000 0.000000
v -0.037403 -0.023174 0.018100
vn 0.000000 0.000000 0.000000
v -0.038344 -0.021581 0.027480
vn 0.000000 0.000000 0.000000
v -0.043858 -0.003531 0.018100
vn 0.000000 0.000000 0.000000
v -0.042755 -0.010393 0.018100
vn 0.000000 0.000000 0.000000
v -0.043896 -0.003029 -0.046000
vn 0.000000 0.000000 0.000000
v -0.041861 -0.009831 -0.047000
vn 0.000000 0.000000 0.000000
v -0.040534 -0.017118 -0.046000
vn 0.000000 0.000000 0.000000
v -0.040585 -0.016995 0.018100
vn 0.000000 0.000000 0.000000
v -0.015167 -0.041303 -0.046000
vn 0.000000 0.000000 0.000000
v -0.021240 -0.037388 -0.047000
vn 0.000000 0.000000 0.000000
v -0.027501 -0.034346 -0.046000
vn 0.000000 0.000000 0.000000
v -0.011622 -0.059800 -0.010602
vn 0.000000 0.000000 0.000000
v -0.021473 -0.038405 -0.046000
vn 0.000000 0.000000 0.000000
v -0.000990 -0.043989 -0.046000
vn 0.000000 0.000000 0.000000
v -0.032779 -0.029352 0.034000
vn 0.000000 0.000000 0.000000
v 0.039714 -0.016486 0.035000
vn 0.000000 0.000000 0.000000
v 0.039790 -0.018782 0.031736
vn 0.000000 0.000000 0.000000
v 0.041538 -0.014511 -0.043477
vn 0.000000 0.000000 0.000000
v 0.042501 -0.011388 -0.042611
vn 0.000000 0.000000 0.000000
v 0.042450 -0.006858 -0.047000
vn 0.000000 0.000000 0.000000
v 0.043432 -0.007048 0.034000
vn 0.000000 0.000000 0.000000
v 0.044000 0.000169 0.034000
vn 0.000000 0.000000 0.000000
v 0.030877 -0.029927 -0.047000
vn 0.000000 0.000000 0.000000
v -0.029416 0.032721 -0.032933
vn 0.000000 0.000000 0.000000
v -0.030778 0.031444 -0.030100
vn 0.000000 0.000000 0.000000
v 0.029853 0.032323 -0.045158
vn 0.000000 0.000000 0.000000
v 0.030099 0.032094 -0.043611
vn 0.000000 0.000000 0.000000
v 0.032152 0.029181 -0.046580
vn 0.000000 0.000000 0.000000
v 0.007839 0.043296 0.034000
vn 0.000000 0.000000 0.000000
v -0.002567 0.043925 -0.031670
vn 0.000000 0.000000 0.000000
v -0.006644 0.043496 -0.046000
vn 0.000000 0.000000 0.000000
v 0.000606 0.043996 -0.046000
vn 0.000000 0.000000 0.000000
v -0.003519 0.043859 0.034000
vn 0.000000 0.000000 0.000000
v 0.003635 0.042846 0.035000
vn 0.000000 0.000000 0.000000
v -0.035816 0.025558 0.017432
vn 0.000000 0.000000 0.000000
v -0.032358 0.029816 -0.030100
vn 0.000000 0.000000 0.000000
v -0.033419 0.028621 -0.032261
vn 0.000000 0.000000 0.000000
v -0.037275 0.023379 -0.032593
vn 0.000000 0.000000 0.000000
v -0.037653 0.022765 0.015000
vn 0.000000 0.000000 0.000000
v -0.038160 0.021904 -0.031376
vn 0.000000 0.000000 0.000000
v -0.036173 0.025051 0.016706
vn 0.000000 0.000000 0.000000
v -0.036801 0.024119 -0.032802
vn 0.000000 0.000000 0.000000
v -0.034299 0.027560 0.019440
vn 0.000000 0.000000 0.000000
v -0.034655 0.027111 0.018669
vn 0.000000 0.000000 0.000000
v -0.034783 0.026947 0.015000
vn 0.000000 0.000000 0.000000
v -0.043982 -0.001252 -0.037208
vn 0.000000 0.000000 0.000000
v -0.043255 0.008060 0.028605
vn 0.000000 0.000000 0.000000
v -0.042875 0.009886 -0.039208
vn 0.000000 0.000000 0.000000
v -0.042685 0.010678 0.024758
vn 0.000000 0.000000 0.000000
v -0.043998 0.000378 -0.036779
vn 0.000000 0.000000 0.000000
v -0.043867 0.003419 0.018100
vn 0.000000 0.000000 0.000000
v -0.043953 0.002036 -0.039940
vn 0.000000 0.000000 0.000000
v -0.042501 0.011388 -0.046000
vn 0.000000 0.000000 0.000000
v -0.043475 0.006778 -0.036267
vn 0.000000 0.000000 0.000000
v -0.043667 0.005404 -0.040208
vn 0.000000 0.000000 0.000000
v -0.042174 0.012544 0.027924
vn 0.000000 0.000000 0.000000
v -0.041835 0.013631 0.026616
vn 0.000000 0.000000 0.000000
v -0.040388 0.017459 0.017554
vn 0.000000 0.000000 0.000000
v -0.039659 0.019056 0.018733
vn 0.000000 0.000000 0.000000
v 0.034769 0.026966 -0.043611
vn 0.000000 0.000000 0.000000
v 0.030547 0.031668 -0.043169
vn 0.000000 0.000000 0.000000
v 0.032376 0.029796 -0.042611
vn 0.000000 0.000000 0.000000
v 0.035120 0.026506 -0.044913
vn 0.000000 0.000000 0.000000
v 0.036675 0.024309 0.030735
vn 0.000000 0.000000 0.000000
v 0.035744 0.025658 0.030003
vn 0.000000 0.000000 0.000000
v 0.034142 0.027447 -0.046193
vn 0.000000 0.000000 0.000000
v 0.034281 0.027583 -0.043171
vn 0.000000 0.000000 0.000000
v 0.033280 0.028783 0.033467
vn 0.000000 0.000000 0.000000
v 0.000442 0.042998 -0.047000
vn 0.000000 0.000000 0.000000
v -0.039029 -0.020316 0.025614
vn 0.000000 0.000000 0.000000
v -0.037412 -0.023159 -0.039208
vn 0.000000 0.000000 0.000000
v -0.037676 -0.022727 0.026614
vn 0.000000 0.000000 0.000000
v -0.037854 -0.022430 0.026114
vn 0.000000 0.000000 0.000000
v 0.040006 -0.018318 0.032522
vn 0.000000 0.000000 0.000000
v 0.041865 -0.013539 -0.042611
vn 0.000000 0.000000 0.000000
v 0.041256 -0.015296 -0.045398
vn 0.000000 0.000000 0.000000
v 0.042501 -0.011388 0.034000
vn 0.000000 0.000000 0.000000
v 0.042182 -0.012517 0.029735
vn 0.000000 0.000000 0.000000
v 0.042445 -0.006888 0.035000
vn 0.000000 0.000000 0.000000
v 0.043000 0.000165 0.035000
vn 0.000000 0.000000 0.000000
v -0.030912 0.031312 -0.030933
vn 0.000000 0.000000 0.000000
v -0.030171 0.032027 -0.032665
vn 0.000000 0.000000 0.000000
v 0.029853 0.032323 -0.044064
vn 0.000000 0.000000 0.000000
v 0.032602 0.028631 -0.046611
vn 0.000000 0.000000 0.000000
v -0.001859 0.043961 -0.030902
vn 0.000000 0.000000 0.000000
v -0.006644 0.043496 0.034000
vn 0.000000 0.000000 0.000000
v -0.003440 0.042862 0.035000
vn 0.000000 0.000000 0.000000
v -0.035901 0.025439 0.018307
vn 0.000000 0.000000 0.000000
v -0.032403 0.029766 -0.031215
vn 0.000000 0.000000 0.000000
v -0.032814 0.029312 -0.031821
vn 0.000000 0.000000 0.000000
v -0.037708 0.022673 -0.032244
vn 0.000000 0.000000 0.000000
v -0.039066 0.020244 0.016001
vn 0.000000 0.000000 0.000000
v -0.038145 0.021931 0.019733
vn 0.000000 0.000000 0.000000
v -0.036151 0.025082 0.018733
vn 0.000000 0.000000 0.000000
v -0.036502 0.024569 -0.032877
vn 0.000000 0.000000 0.000000
v -0.037067 0.023708 0.016001
vn 0.000000 0.000000 0.000000
v -0.043255 0.008060 0.024623
vn 0.000000 0.000000 0.000000
v -0.042685 0.010678 0.028471
vn 0.000000 0.000000 0.000000
v -0.043060 0.009047 -0.036754
vn 0.000000 0.000000 0.000000
v -0.042732 0.010486 -0.038208
vn 0.000000 0.000000 0.000000
v -0.043954 0.002018 0.025614
vn 0.000000 0.000000 0.000000
v -0.043796 0.004229 0.025065
vn 0.000000 0.000000 0.000000
v -0.043953 0.002036 -0.036476
vn 0.000000 0.000000 0.000000
v -0.043061 0.009043 -0.039665
vn 0.000000 0.000000 0.000000
v -0.043674 0.005351 -0.036208
vn 0.000000 0.000000 0.000000
v -0.042174 0.012544 0.025305
vn 0.000000 0.000000 0.000000
v -0.041875 0.013509 0.027086
vn 0.000000 0.000000 0.000000
v -0.040527 0.017134 0.017895
vn 0.000000 0.000000 0.000000
v -0.040196 0.017896 0.015000
vn 0.000000 0.000000 0.000000
v -0.039386 0.019614 0.016291
vn 0.000000 0.000000 0.000000
v -0.039861 0.018630 0.017733
vn 0.000000 0.000000 0.000000
v 0.031713 0.030500 -0.042673
vn 0.000000 0.000000 0.000000
v 0.032171 0.030017 0.031188
vn 0.000000 0.000000 0.000000
v 0.032400 0.029770 0.032735
vn 0.000000 0.000000 0.000000
v 0.032784 0.029346 -0.042634
vn 0.000000 0.000000 0.000000
v 0.035120 0.026506 -0.044310
vn 0.000000 0.000000 0.000000
v 0.036862 0.024025 0.031043
vn 0.000000 0.000000 0.000000
v 0.036675 0.024309 0.032735
vn 0.000000 0.000000 0.000000
v 0.033892 0.028059 0.029797
vn 0.000000 0.000000 0.000000
v -0.039029 -0.020316 0.027614
vn 0.000000 0.000000 0.000000
v -0.037760 -0.022588 0.026965
vn 0.000000 0.000000 0.000000
v -0.037412 -0.023159 -0.037208
vn 0.000000 0.000000 0.000000
v -0.009000 -0.060400 -0.006000
vn 0.000000 0.000000 0.000000
v 0.001281 -0.060400 0.002908
vn 0.000000 0.000000 0.000000
v 0.008635 -0.060400 -0.003464
vn 0.000000 0.000000 0.000000
v 0.009000 -0.060400 -0.006000
vn 0.000000 0.000000 0.000000
v 0.008635 -0.060400 -0.008536
vn 0.000000 0.000000 0.000000
v -0.001281 -0.060400 -0.014908
vn 0.000000 0.000000 0.000000
v 0.039896 -0.018557 0.032302
vn 0.000000 0.000000 0.000000
v 0.040346 -0.017556 0.032869
vn 0.000000 0.000000 0.000000
v 0.041538 -0.014511 -0.045744
vn 0.000000 0.000000 0.000000
v 0.041256 -0.015296 -0.043824
vn 0.000000 0.000000 0.000000
v 0.041075 -0.015775 -0.044610
vn 0.000000 0.000000 0.000000
v 0.042995 -0.009350 -0.042611
vn 0.000000 0.000000 0.000000
v -0.031958 0.030244 -0.030100
vn 0.000000 0.000000 0.000000
v -0.030715 0.031506 -0.031933
vn 0.000000 0.000000 0.000000
v -0.029639 0.032520 0.020113
vn 0.000000 0.000000 0.000000
v -0.002247 0.043943 -0.031504
vn 0.000000 0.000000 0.000000
v -0.007180 0.043410 0.020019
vn 0.000000 0.000000 0.000000
v -0.005467 0.043659 -0.032665
vn 0.000000 0.000000 0.000000
v -0.035816 0.025558 0.018036
vn 0.000000 0.000000 0.000000
v -0.032358 0.029816 -0.030933
vn 0.000000 0.000000 0.000000
v -0.038209 0.021820 -0.030885
vn 0.000000 0.000000 0.000000
v -0.039066 0.020244 0.019465
vn 0.000000 0.000000 0.000000
v -0.038028 0.022133 -0.030100
vn 0.000000 0.000000 0.000000
v -0.042875 0.009886 -0.037208
vn 0.000000 0.000000 0.000000
v -0.043241 0.008136 -0.036476
vn 0.000000 0.000000 0.000000
v -0.042799 0.010212 -0.037517
vn 0.000000 0.000000 0.000000
v -0.042777 0.010302 -0.038778
vn 0.000000 0.000000 0.000000
v -0.043796 0.004229 0.028163
vn 0.000000 0.000000 0.000000
v -0.043796 0.004233 -0.040173
vn 0.000000 0.000000 0.000000
v -0.043717 0.004979 0.024932
vn 0.000000 0.000000 0.000000
v -0.042009 0.013086 0.025648
vn 0.000000 0.000000 0.000000
v -0.041875 0.013509 0.026143
vn 0.000000 0.000000 0.000000
v -0.040663 0.016809 0.018061
vn 0.000000 0.000000 0.000000
v -0.040486 0.017231 0.017815
vn 0.000000 0.000000 0.000000
v -0.040274 0.017719 0.017046
vn 0.000000 0.000000 0.000000
v -0.039659 0.019056 0.016733
vn 0.000000 0.000000 0.000000
v -0.039804 0.018751 0.018280
vn 0.000000 0.000000 0.000000
v 0.033280 0.028783 0.030003
vn 0.000000 0.000000 0.000000
v 0.032779 0.029352 -0.030100
vn 0.000000 0.000000 0.000000
v 0.036913 0.023946 0.032308
vn 0.000000 0.000000 0.000000
v -0.037692 -0.022701 0.026769
vn 0.000000 0.000000 0.000000
v -0.008635 -0.060400 -0.003464
vn 0.000000 0.000000 0.000000
v -0.008635 -0.060400 -0.008536
vn 0.000000 0.000000 0.000000
v 0.003739 -0.060400 0.002187
vn 0.000000 0.000000 0.000000
v -0.001281 -0.060400 0.002908
vn 0.000000 0.000000 0.000000
v 0.007571 -0.060400 -0.001134
vn 0.000000 0.000000 0.000000
v 0.007571 -0.060400 -0.010866
vn 0.000000 0.000000 0.000000
v -0.003739 -0.060400 -0.014187
vn 0.000000 0.000000 0.000000
v 0.001281 -0.060400 -0.014908
vn 0.000000 0.000000 0.000000
v 0.039815 -0.018729 0.032017
vn 0.000000 0.000000 0.000000
v 0.039896 -0.018557 0.031168
vn 0.000000 0.000000 0.000000
v 0.040047 -0.018228 0.030887
vn 0.000000 0.000000 0.000000
v 0.040744 -0.016611 0.029735
vn 0.000000 0.000000 0.000000
v 0.041164 -0.015542 -0.045178
vn 0.000000 0.000000 0.000000
v -0.030862 0.031361 -0.031452
vn 0.000000 0.000000 0.000000
v -0.001978 0.043956 -0.031262
vn 0.000000 0.000000 0.000000
v -0.002344 0.043938 -0.030304
vn 0.000000 0.000000 0.000000
v -0.005577 0.043645 0.018733
vn 0.000000 0.000000 0.000000
v -0.004659 0.043753 -0.031909
vn 0.000000 0.000000 0.000000
v -0.038619 0.021086 0.015795
vn 0.000000 0.000000 0.000000
v -0.038139 0.021942 -0.030403
vn 0.000000 0.000000 0.000000
v -0.042744 0.010437 -0.038507
vn 0.000000 0.000000 0.000000
v -0.040196 0.017896 0.016004
vn 0.000000 0.000000 0.000000
v -0.040262 0.017748 0.016965
vn 0.000000 0.000000 0.000000
v -0.039804 0.018751 0.017186
vn 0.000000 0.000000 0.000000
v 0.032400 0.029770 0.030735
vn 0.000000 0.000000 0.000000
v 0.036992 0.023824 0.031434
vn 0.000000 0.000000 0.000000
v 0.036992 0.023824 0.032037
vn 0.000000 0.000000 0.000000
v -0.037733 -0.022633 0.026324
vn 0.000000 0.000000 0.000000
v -0.037692 -0.022701 0.026460
vn 0.000000 0.000000 0.000000
v -0.007571 -0.060400 -0.001134
vn 0.000000 0.000000 0.000000
v -0.007571 -0.060400 -0.010866
vn 0.000000 0.000000 0.000000
v 0.005894 -0.060400 0.000802
vn 0.000000 0.000000 0.000000
v -0.003739 -0.060400 0.002187
vn 0.000000 0.000000 0.000000
v 0.005894 -0.060400 -0.012802
vn 0.000000 0.000000 0.000000
v 0.039815 -0.018729 0.031454
vn 0.000000 0.000000 0.000000
v 0.040346 -0.017556 0.030602
vn 0.000000 0.000000 0.000000
v 0.041096 -0.015720 -0.044892
vn 0.000000 0.000000 0.000000
v 0.041164 -0.015541 -0.044043
vn 0.000000 0.000000 0.000000
v -0.001868 0.043960 -0.031031
vn 0.000000 0.000000 0.000000
v -0.002055 0.043952 -0.030516
vn 0.000000 0.000000 0.000000
v -0.005975 0.043593 0.019301
vn 0.000000 0.000000 0.000000
v -0.004674 0.043751 -0.031933
vn 0.000000 0.000000 0.000000
v -0.038618 0.021086 0.019671
vn 0.000000 0.000000 0.000000
v -0.038145 0.021931 0.015733
vn 0.000000 0.000000 0.000000
v -0.042744 0.010436 -0.037909
vn 0.000000 0.000000 0.000000
v -0.040243 0.017792 0.016818
vn 0.000000 0.000000 0.000000
v -0.005894 -0.060400 0.000802
vn 0.000000 0.000000 0.000000
v -0.005894 -0.060400 -0.012802
vn 0.000000 0.000000 0.000000
v 0.003739 -0.060400 -0.014187
vn 0.000000 0.000000 0.000000
v 0.041096 -0.015720 -0.044329
vn 0.000000 0.000000 0.000000
v -0.001885 0.043960 -0.030776
vn 0.000000 0.000000 0.000000
v -0.006536 0.043512 -0.032933
vn 0.000000 0.000000 0.000000
v -0.006529 0.043513 0.019744
# 496 vertices, 0 vertices normals

f 77//77 70//70 40//40
f 77//77 37//37 70//70
f 79//79 22//22 42//42
f 80//80 7//7 5//5
f 84//84 24//24 83//83
f 84//84 83//83 45//45
f 84//84 45//45 46//46
f 85//85 46//46 45//45
f 86//86 84//84 9//9
f 86//86 24//24 84//84
f 90//90 26//26 49//49
f 93//93 49//49 26//26
f 93//93 14//14 49//49
f 102//102 41//41 16//16
f 103//103 102//102 56//56
f 104//104 16//16 57//57
f 104//104 31//31 58//58
f 106//106 57//57 16//16
f 106//106 16//16 41//41
f 107//107 58//58 56//56
f 107//107 102//102 16//16
f 107//107 56//56 102//102
f 107//107 104//104 58//58
f 107//107 16//16 104//104
f 112//112 32//32 61//61
f 113//113 112//112 60//60
f 113//113 32//32 112//112
f 115//115 61//61 32//32
f 115//115 74//74 6//6
f 117//117 17//17 34//34
f 119//119 19//19 63//63
f 119//119 63//63 118//118
f 120//120 63//63 19//19
f 121//121 34//34 17//17
f 128//128 65//65 125//125
f 131//131 36//36 68//68
f 131//131 116//116 10//10
f 131//131 68//68 33//33
f 131//131 33//33 116//116
f 132//132 33//33 68//68
f 132//132 68//68 36//36
f 133//133 120//120 69//69
f 134//134 40//40 70//70
f 134//134 20//20 73//73
f 136//136 70//70 37//37
f 136//136 37//37 71//71
f 136//136 71//71 20//20
f 136//136 134//134 70//70
f 136//136 20//20 134//134
f 137//137 77//77 11//11
f 137//137 37//37 77//77
f 139//139 135//135 38//38
f 139//139 73//73 135//135
f 140//140 38//38 6//6
f 140//140 6//6 74//74
f 140//140 139//139 38//38
f 140//140 74//74 4//4
f 140//140 4//4 139//139
f 142//142 76//76 11//11
f 142//142 11//11 77//77
f 142//142 75//75 76//76
f 142//142 77//77 40//40
f 142//142 40//40 21//21
f 143//143 78//78 2//2
f 144//144 22//22 79//79
f 145//145 80//80 5//5
f 146//146 81//81 43//43
f 146//146 23//23 81//81
f 147//147 80//80 43//43
f 147//147 43//43 81//81
f 147//147 7//7 80//80
f 148//148 51//51 44//44
f 148//148 81//81 23//23
f 150//150 84//84 46//46
f 150//150 9//9 84//84
f 151//151 85//85 45//45
f 151//151 3//3 85//85
f 152//152 24//24 86//86
f 153//153 86//86 9//9
f 153//153 9//9 109//109
f 153//153 152//152 86//86
f 154//154 111//111 25//25
f 158//158 89//89 156//156
f 159//159 90//90 49//49
f 162//162 44//44 51//51
f 162//162 51//51 160//160
f 163//163 92//92 50//50
f 163//163 50//50 26//26
f 163//163 23//23 92//92
f 164//164 93//93 26//26
f 164//164 26//26 50//50
f 165//165 95//95 94//94
f 165//165 27//27 95//95
f 166//166 95//95 27//27
f 167//167 96//96 82//82
f 167//167 149//149 28//28
f 167//167 82//82 149//149
f 168//168 82//82 96//96
f 169//169 96//96 53//53
f 170//170 49//49 14//14
f 170//170 14//14 97//97
f 171//171 28//28 97//97
f 172//172 28//28 149//149
f 172//172 170//170 97//97
f 173//173 125//125 65//65
f 176//176 21//21 40//40
f 177//177 99//99 54//54
f 177//177 175//175 99//99
f 179//179 103//103 56//56
f 179//179 151//151 103//103
f 179//179 3//3 151//151
f 179//179 56//56 58//58
f 180//180 41//41 102//102
f 180//180 102//102 103//103
f 181//181 79//79 42//42
f 181//181 42//42 105//105
f 181//181 105//105 57//57
f 181//181 57//57 106//106
f 182//182 106//106 41//41
f 182//182 41//41 180//180
f 182//182 181//181 106//106
f 182//182 79//79 181//181
f 182//182 180//180 144//144
f 182//182 144//144 79//79
f 185//185 58//58 31//31
f 185//185 31//31 110//110
f 185//185 110//110 30//30
f 186//186 31//31 59//59
f 187//187 85//85 3//3
f 188//188 3//3 30//30
f 188//188 30//30 110//110
f 189//189 25//25 111//111
f 190//190 60//60 112//112
f 190//190 112//112 61//61
f 190//190 114//114 60//60
f 190//190 18//18 114//114
f 190//190 130//130 18//18
f 190//190 61//61 130//130
f 191//191 32//32 113//113
f 191//191 113//113 4//4
f 191//191 4//4 74//74
f 191//191 115//115 32//32
f 191//191 74//74 115//115
f 192//192 132//132 36//36
f 192//192 67//67 132//132
f 193//193 114//114 18//18
f 193//193 18//18 130//130
f 193//193 192//192 114//114
f 193//193 67//67 192//192
f 195//195 101//101 19//19
f 195//195 19//19 119//119
f 196//196 8//8 119//119
f 196//196 119//119 118//118
f 197//197 119//119 8//8
f 198//198 120//120 34//34
f 198//198 63//63 120//120
f 198//198 34//34 194//194
f 198//198 194//194 118//118
f 198//198 118//118 63//63
f 199//199 121//121 17//17
f 201//201 199//199 17//17
f 201//201 64//64 199//199
f 202//202 168//168 1//1
f 202//202 82//82 168//168
f 203//203 123//123 122//122
f 203//203 202//202 1//1
f 203//203 122//122 202//202
f 204//204 122//122 123//123
f 204//204 201//201 122//122
f 204//204 64//64 201//201
f 205//205 204//204 123//123
f 205//205 124//124 204//204
f 206//206 124//124 52//52
f 206//206 64//64 124//124
f 207//207 15//15 35//35
f 207//207 128//128 125//125
f 208//208 29//29 126//126
f 209//209 101//101 178//178
f 210//210 126//126 66//66
f 211//211 129//129 29//29
f 211//211 173//173 65//65
f 212//212 126//126 29//29
f 212//212 29//29 129//129
f 212//212 129//129 66//66
f 212//212 66//66 126//126
f 213//213 66//66 129//129
f 214//214 132//132 67//67
f 214//214 33//33 132//132
f 214//214 193//193 130//130
f 214//214 67//67 193//193
f 215//215 36//36 131//131
f 215//215 131//131 10//10
f 215//215 10//10 69//69
f 216//216 133//133 69//69
f 216//216 69//69 10//10
f 216//216 10//10 116//116
f 216//216 116//116 62//62
f 216//216 62//62 133//133
f 217//217 117//117 34//34
f 217//217 34//34 120//120
f 218//218 20//20 71//71
f 218//218 135//135 73//73
f 218//218 73//73 20//20
f 219//219 218//218 71//71
f 219//219 135//135 218//218
f 219//219 6//6 38//38
f 219//219 38//38 135//135
f 221//221 39//39 141//141
f 222//222 78//78 143//143
f 223//223 76//76 75//75
f 223//223 75//75 141//141
f 223//223 141//141 39//39
f 224//224 142//142 21//21
f 224//224 75//75 142//142
f 224//224 21//21 176//176
f 225//225 105//105 42//42
f 225//225 143//143 2//2
f 225//225 2//2 105//105
f 225//225 42//42 22//22
f 226//226 145//145 43//43
f 226//226 43//43 80//80
f 226//226 80//80 145//145
f 227//227 145//145 5//5
f 228//228 50//50 92//92
f 228//228 145//145 227//227
f 229//229 92//92 23//23
f 229//229 23//23 146//146
f 230//230 146//146 43//43
f 230//230 43//43 145//145
f 230//230 229//229 146//146
f 230//230 92//92 229//229
f 230//230 228//228 92//92
f 230//230 145//145 228//228
f 231//231 148//148 23//23
f 231//231 51//51 148//148
f 232//232 172//172 149//149
f 232//232 91//91 172//172
f 233//233 109//109 9//9
f 234//234 152//152 47//47
f 234//234 24//24 152//152
f 234//234 47//47 155//155
f 234//234 83//83 24//24
f 235//235 153//153 109//109
f 235//235 59//59 153//153
f 235//235 109//109 110//110
f 236//236 47//47 152//152
f 236//236 152//152 153//153
f 237//237 154//154 25//25
f 237//237 87//87 154//154
f 237//237 13//13 87//87
f 238//238 154//154 87//87
f 238//238 87//87 155//155
f 238//238 155//155 47//47
f 238//238 47//47 236//236
f 238//238 236//236 111//111
f 238//238 111//111 154//154
f 239//239 155//155 87//87
f 239//239 87//87 13//13
f 239//239 234//234 155//155
f 239//239 83//83 234//234
f 241//241 25//25 189//189
f 243//243 7//7 158//158
f 244//244 158//158 156//156
f 244//244 227//227 5//5
f 244//244 7//7 243//243
f 244//244 243//243 158//158
f 244//244 5//5 7//7
f 245//245 158//158 7//7
f 245//245 7//7 147//147
f 246//246 159//159 49//49
f 247//247 160//160 51//51
f 249//249 161//161 91//91
f 249//249 91//91 232//232
f 249//249 162//162 12//12
f 249//249 232//232 44//44
f 249//249 44//44 162//162
f 250//250 162//162 160//160
f 251//251 159//159 12//12
f 251//251 12//12 162//162
f 252//252 166//166 27//27
f 252//252 1//1 166//166
f 254//254 1//1 168//168
f 255//255 169//169 53//53
f 255//255 95//95 168//168
f 255//255 94//94 95//95
f 256//256 168//168 96//96
f 256//256 255//255 168//168
f 257//257 167//167 28//28
f 258//258 171//171 97//97
f 258//258 97//97 14//14
f 259//259 97//97 28//28
f 259//259 28//28 172//172
f 260//260 172//172 91//91
f 261//261 173//173 98//98
f 261//261 98//98 15//15
f 261//261 125//125 173//173
f 261//261 207//207 125//125
f 261//261 15//15 207//207
f 262//262 174//174 35//35
f 262//262 35//35 15//15
f 262//262 15//15 98//98
f 263//263 262//262 98//98
f 263//263 174//174 262//262
f 263//263 54//54 99//99
f 263//263 99//99 174//174
f 264//264 176//176 40//40
f 264//264 100//100 176//176
f 265//265 174//174 99//99
f 265//265 99//99 175//175
f 265//265 35//35 174//174
f 266//266 177//177 54//54
f 266//266 100//100 264//264
f 266//266 264//264 175//175
f 266//266 175//175 177//177
f 267//267 179//179 108//108
f 267//267 3//3 179//179
f 267//267 183//183 3//3
f 269//269 46//46 184//184
f 270//270 184//184 46//46
f 270//270 46//46 85//85
f 271//271 185//185 30//30
f 271//271 30//30 268//268
f 271//271 268//268 3//3
f 272//272 185//185 183//183
f 272//272 267//267 108//108
f 273//273 179//179 58//58
f 273//273 58//58 185//185
f 274//274 186//186 110//110
f 274//274 31//31 186//186
f 276//276 187//187 3//3
f 276//276 3//3 188//188
f 276//276 188//188 110//110
f 277//277 244//244 156//156
f 277//277 227//227 244//244
f 278//278 178//178 101//101
f 278//278 101//101 195//195
f 278//278 195//195 119//119
f 278//278 119//119 197//197
f 279//279 34//34 8//8
f 279//279 8//8 196//196
f 279//279 194//194 34//34
f 279//279 196//196 118//118
f 279//279 118//118 194//194
f 281//281 8//8 34//34
f 282//282 200//200 34//34
f 282//282 34//34 121//121
f 282//282 121//121 280//280
f 283//283 123//123 203//203
f 284//284 204//204 124//124
f 284//284 124//124 64//64
f 284//284 64//64 204//204
f 285//285 205//205 123//123
f 285//285 123//123 283//283
f 285//285 283//283 203//203
f 285//285 27//27 165//165
f 285//285 203//203 27//27
f 286//286 285//285 165//165
f 286//286 205//205 285//285
f 286//286 52//52 124//124
f 286//286 124//124 205//205
f 287//287 197//197 8//8
f 287//287 206//206 52//52
f 287//287 52//52 197//197
f 288//288 199//199 64//64
f 288//288 64//64 206//206
f 288//288 287//287 199//199
f 288//288 206//206 287//287
f 289//289 208//208 126//126
f 289//289 126//126 210//210
f 291//291 55//55 127//127
f 291//291 290//290 55//55
f 291//291 209//209 178//178
f 291//291 178//178 290//290
f 292//292 291//291 127//127
f 292//292 209//209 291//291
f 292//292 19//19 101//101
f 292//292 101//101 209//209
f 293//293 210//210 127//127
f 293//293 127//127 55//55
f 293//293 289//289 210//210
f 293//293 55//55 290//290
f 293//293 290//290 208//208
f 293//293 208//208 289//289
f 294//294 211//211 65//65
f 294//294 129//129 211//211
f 294//294 213//213 129//129
f 294//294 65//65 128//128
f 294//294 128//128 213//213
f 295//295 133//133 62//62
f 295//295 217//217 120//120
f 295//295 120//120 133//133
f 295//295 62//62 117//117
f 295//295 117//117 217//217
f 296//296 137//137 11//11
f 296//296 11//11 220//220
f 296//296 220//220 138//138
f 296//296 138//138 72//72
f 297//297 11//11 76//76
f 298//298 138//138 220//220
f 299//299 39//39 221//221
f 300//300 221//221 141//141
f 300//300 2//2 78//78
f 300//300 78//78 221//221
f 301//301 221//221 78//78
f 301//301 78//78 222//222
f 302//302 222//222 143//143
f 302//302 225//225 22//22
f 302//302 143//143 225//225
f 303//303 224//224 176//176
f 303//303 176//176 100//100
f 303//303 266//266 54//54
f 303//303 100//100 266//266
f 304//304 231//231 23//23
f 304//304 23//23 163//163
f 304//304 163//163 26//26
f 305//305 51//51 231//231
f 306//306 233//233 9//9
f 306//306 9//9 150//150
f 307//307 46//46 109//109
f 307//307 109//109 233//233
f 308//308 59//59 235//235
f 308//308 235//235 110//110
f 309//309 13//13 237//237
f 309//309 241//241 157//157
f 309//309 237//237 25//25
f 309//309 25//25 241//241
f 310//310 240//240 48//48
f 310//310 88//88 240//240
f 311//311 240//240 88//88
f 311//311 277//277 156//156
f 312//312 157//157 241//241
f 312//312 241//241 189//189
f 312//312 242//242 157//157
f 312//312 88//88 242//242
f 313//313 48//48 240//240
f 313//313 310//310 48//48
f 314//314 157//157 242//242
f 314//314 309//309 157//157
f 314//314 13//13 309//309
f 315//315 12//12 159//159
f 315//315 159//159 246//246
f 316//316 51//51 26//26
f 317//317 26//26 90//90
f 317//317 250//250 160//160
f 317//317 90//90 250//250
f 319//319 91//91 161//161
f 319//319 161//161 318//318
f 320//320 248//248 49//49
f 320//320 49//49 170//170
f 321//321 246//246 49//49
f 321//321 49//49 249//249
f 322//322 161//161 249//249
f 322//322 49//49 318//318
f 323//323 250//250 90//90
f 323//323 162//162 250//250
f 324//324 251//251 162//162
f 324//324 323//323 90//90
f 324//324 162//162 323//323
f 325//325 90//90 159//159
f 325//325 159//159 251//251
f 325//325 324//324 90//90
f 325//325 251//251 324//324
f 326//326 203//203 1//1
f 326//326 1//1 252//252
f 326//326 252//252 27//27
f 326//326 27//27 203//203
f 330//330 166//166 1//1
f 330//330 1//1 254//254
f 331//331 254//254 168//168
f 332//332 95//95 166//166
f 332//332 331//331 95//95
f 333//333 255//255 53//53
f 333//333 94//94 255//255
f 333//333 258//258 94//94
f 333//333 171//171 258//258
f 333//333 167//167 171//171
f 334//334 256//256 96//96
f 334//334 96//96 169//169
f 335//335 169//169 255//255
f 335//335 334//334 169//169
f 335//335 256//256 334//334
f 336//336 171//171 167//167
f 336//336 167//167 257//257
f 337//337 28//28 171//171
f 339//339 172//172 260//260
f 340//340 268//268 30//30
f 340//340 30//30 3//3
f 340//340 3//3 268//268
f 341//341 269//269 109//109
f 341//341 109//109 46//46
f 341//341 46//46 269//269
f 342//342 110//110 109//109
f 343//343 183//183 185//185
f 343//343 185//185 271//271
f 344//344 272//272 108//108
f 344//344 185//185 272//272
f 345//345 272//272 183//183
f 345//345 183//183 267//267
f 345//345 267//267 272//272
f 346//346 274//274 110//110
f 346//346 110//110 31//31
f 346//346 31//31 274//274
f 347//347 110//110 275//275
f 347//347 276//276 110//110
f 347//347 187//187 276//276
f 348//348 85//85 187//187
f 348//348 187//187 275//275
f 349//349 311//311 88//88
f 349//349 277//277 311//311
f 349//349 312//312 189//189
f 349//349 88//88 312//312
f 349//349 227//227 277//277
f 349//349 189//189 111//111
f 349//349 228//228 227//227
f 349//349 111//111 236//236
f 349//349 50//50 228//228
f 349//349 236//236 153//153
f 349//349 164//164 50//50
f 349//349 153//153 59//59
f 349//349 93//93 164//164
f 349//349 59//59 31//31
f 349//349 14//14 93//93
f 349//349 31//31 104//104
f 349//349 258//258 14//14
f 349//349 104//104 57//57
f 349//349 94//94 258//258
f 349//349 57//57 105//105
f 349//349 165//165 94//94
f 349//349 105//105 2//2
f 349//349 286//286 165//165
f 349//349 2//2 300//300
f 349//349 52//52 286//286
f 349//349 300//300 141//141
f 349//349 197//197 52//52
f 349//349 141//141 75//75
f 349//349 278//278 197//197
f 349//349 75//75 224//224
f 349//349 224//224 303//303
f 349//349 178//178 278//278
f 349//349 290//290 178//178
f 349//349 208//208 290//290
f 349//349 29//29 208//208
f 349//349 211//211 29//29
f 349//349 173//173 211//211
f 349//349 98//98 173//173
f 349//349 263//263 98//98
f 349//349 303//303 54//54
f 349//349 54//54 263//263
f 350//350 280//280 121//121
f 351//351 280//280 350//350
f 351//351 8//8 281//281
f 351//351 350//350 287//287
f 351//351 287//287 8//8
f 352//352 281//281 34//34
f 353//353 282//282 280//280
f 353//353 200//200 282//282
f 353//353 280//280 351//351
f 354//354 220//220 11//11
f 355//355 298//298 39//39
f 355//355 138//138 298//298
f 357//357 301//301 72//72
f 357//357 72//72 138//138
f 358//358 39//39 299//299
f 358//358 357//357 138//138
f 358//358 299//299 357//357
f 358//358 355//355 39//39
f 358//358 138//138 355//355
f 359//359 301//301 222//222
f 359//359 72//72 301//301
f 360//360 302//302 22//22
f 360//360 22//22 144//144
f 360//360 359//359 222//222
f 360//360 222//222 302//302
f 361//361 51//51 305//305
f 362//362 304//304 26//26
f 363//363 306//306 150//150
f 363//363 150//150 46//46
f 363//363 46//46 307//307
f 363//363 307//307 233//233
f 363//363 233//233 306//306
f 364//364 186//186 59//59
f 364//364 59//59 308//308
f 364//364 308//308 110//110
f 364//364 110//110 186//186
f 365//365 242//242 88//88
f 365//365 313//313 242//242
f 366//366 311//311 156//156
f 366//366 89//89 158//158
f 366//366 158//158 245//245
f 367//367 314//314 242//242
f 367//367 242//242 313//313
f 367//367 366//366 245//245
f 367//367 313//313 366//366
f 367//367 13//13 314//314
f 367//367 245//245 147//147
f 367//367 239//239 13//13
f 367//367 147//147 81//81
f 367//367 83//83 239//239
f 367//367 81//81 148//148
f 367//367 45//45 83//83
f 367//367 148//148 44//44
f 367//367 151//151 45//45
f 367//367 44//44 232//232
f 367//367 103//103 151//151
f 367//367 232//232 149//149
f 367//367 180//180 103//103
f 367//367 149//149 82//82
f 367//367 360//360 144//144
f 367//367 144//144 180//180
f 367//367 82//82 202//202
f 367//367 202//202 122//122
f 367//367 122//122 201//201
f 367//367 201//201 17//17
f 367//367 17//17 117//117
f 367//367 117//117 62//62
f 367//367 62//62 116//116
f 367//367 116//116 33//33
f 367//367 33//33 214//214
f 367//367 214//214 130//130
f 367//367 130//130 61//61
f 367//367 61//61 115//115
f 367//367 115//115 6//6
f 367//367 6//6 219//219
f 367//367 219//219 71//71
f 367//367 71//71 37//37
f 367//367 37//37 137//137
f 367//367 137//137 296//296
f 367//367 296//296 72//72
f 367//367 72//72 359//359
f 367//367 359//359 360//360
f 368//368 315//315 246//246
f 369//369 247//247 51//51
f 369//369 51//51 316//316
f 369//369 26//26 247//247
f 370//370 247//247 26//26
f 370//370 26//26 317//317
f 370//370 317//317 160//160
f 370//370 160//160 247//247
f 371//371 318//318 49//49
f 371//371 49//49 248//248
f 371//371 319//319 318//318
f 371//371 248//248 319//319
f 373//373 319//319 248//248
f 373//373 91//91 319//319
f 374//374 321//321 249//249
f 374//374 246//246 321//321
f 374//374 368//368 246//246
f 374//374 249//249 368//368
f 375//375 322//322 249//249
f 375//375 249//249 49//49
f 375//375 49//49 322//322
f 376//376 322//322 318//318
f 376//376 318//318 161//161
f 376//376 161//161 322//322
f 377//377 53//53 96//96
f 377//377 96//96 327//327
f 378//378 327//327 96//96
f 378//378 96//96 167//167
f 378//378 253//253 327//327
f 378//378 333//333 329//329
f 378//378 167//167 333//333
f 379//379 327//327 253//253
f 380//380 329//329 333//333
f 380//380 378//378 329//329
f 380//380 253//253 378//378
f 381//381 330//330 254//254
f 381//381 166//166 330//330
f 381//381 332//332 166//166
f 383//383 254//254 331//331
f 383//383 331//331 332//332
f 383//383 381//381 254//254
f 383//383 332//332 381//381
f 384//384 333//333 53//53
f 384//384 328//328 333//333
f 384//384 379//379 328//328
f 384//384 53//53 379//379
f 385//385 335//335 255//255
f 385//385 256//256 335//335
f 386//386 336//336 257//257
f 386//386 171//171 336//336
f 387//387 257//257 28//28
f 387//387 28//28 337//337
f 390//390 372//372 170//170
f 390//390 260//260 372//372
f 391//391 170//170 172//172
f 392//392 269//269 184//184
f 392//392 184//184 342//342
f 392//392 342//342 109//109
f 392//392 109//109 269//269
f 393//393 342//342 184//184
f 393//393 184//184 270//270
f 394//394 270//270 85//85
f 394//394 393//393 270//270
f 394//394 342//342 393//393
f 395//395 275//275 110//110
f 395//395 110//110 342//342
f 395//395 85//85 348//348
f 396//396 343//343 271//271
f 396//396 271//271 3//3
f 396//396 3//3 183//183
f 396//396 183//183 343//343
f 397//397 185//185 344//344
f 398//398 344//344 108//108
f 398//398 108//108 179//179
f 398//398 397//397 344//344
f 399//399 347//347 275//275
f 399//399 275//275 187//187
f 399//399 187//187 347//347
f 400//400 350//350 121//121
f 400//400 121//121 199//199
f 400//400 199//199 287//287
f 400//400 287//287 350//350
f 401//401 34//34 200//200
f 401//401 200//200 353//353
f 401//401 353//353 351//351
f 402//402 352//352 351//351
f 402//402 351//351 281//281
f 402//402 281//281 352//352
f 403//403 120//120 19//19
f 404//404 113//113 60//60
f 405//405 134//134 73//73
f 406//406 264//264 40//40
f 406//406 40//40 134//134
f 406//406 134//134 405//405
f 407//407 175//175 264//264
f 407//407 264//264 406//406
f 408//408 213//213 128//128
f 409//409 354//354 11//11
f 410//410 220//220 354//354
f 411//411 356//356 223//223
f 411//411 223//223 39//39
f 411//411 39//39 298//298
f 412//412 298//298 220//220
f 412//412 411//411 298//298
f 412//412 356//356 411//411
f 414//414 221//221 301//301
f 414//414 301//301 357//357
f 414//414 357//357 299//299
f 414//414 299//299 221//221
f 415//415 361//361 26//26
f 415//415 26//26 51//51
f 415//415 51//51 361//361
f 416//416 305//305 231//231
f 416//416 231//231 362//362
f 416//416 362//362 26//26
f 417//417 362//362 231//231
f 417//417 231//231 304//304
f 417//417 304//304 362//362
f 418//418 88//88 310//310
f 419//419 366//366 156//156
f 419//419 156//156 89//89
f 419//419 89//89 366//366
f 421//421 368//368 249//249
f 421//421 249//249 12//12
f 421//421 12//12 315//315
f 421//421 315//315 368//368
f 422//422 369//369 316//316
f 422//422 316//316 26//26
f 422//422 26//26 369//369
f 423//423 320//320 170//170
f 423//423 170//170 372//372
f 423//423 373//373 320//320
f 423//423 91//91 373//373
f 424//424 372//372 260//260
f 424//424 260//260 91//91
f 425//425 373//373 248//248
f 425//425 248//248 320//320
f 426//426 379//379 253//253
f 426//426 328//328 379//379
f 427//427 379//379 53//53
f 427//427 327//327 379//379
f 427//427 377//377 327//327
f 427//427 53//53 377//377
f 428//428 426//426 253//253
f 428//428 328//328 426//426
f 429//429 333//333 328//328
f 429//429 328//328 428//428
f 429//429 428//428 253//253
f 430//430 95//95 382//382
f 430//430 382//382 331//331
f 430//430 331//331 168//168
f 430//430 168//168 95//95
f 431//431 382//382 95//95
f 431//431 95//95 331//331
f 431//431 331//331 382//382
f 432//432 385//385 255//255
f 432//432 255//255 256//256
f 432//432 256//256 385//385
f 433//433 386//386 257//257
f 433//433 171//171 386//386
f 434//434 387//387 337//337
f 434//434 337//337 171//171
f 434//434 171//171 433//433
f 434//434 433//433 257//257
f 434//434 257//257 387//387
f 435//435 259//259 172//172
f 435//435 172//172 388//388
f 435//435 388//388 97//97
f 435//435 97//97 259//259
f 436//436 388//388 172//172
f 436//436 172//172 338//338
f 436//436 338//338 97//97
f 436//436 97//97 388//388
f 437//437 338//338 172//172
f 437//437 97//97 338//338
f 438//438 339//339 260//260
f 438//438 260//260 390//390
f 438//438 390//390 170//170
f 439//439 391//391 172//172
f 439//439 172//172 339//339
f 440//440 395//395 348//348
f 440//440 348//348 275//275
f 440//440 275//275 395//395
f 441//441 85//85 395//395
f 441//441 395//395 342//342
f 442//442 185//185 397//397
f 442//442 397//397 398//398
f 442//442 398//398 179//179
f 443//443 352//352 34//34
f 443//443 34//34 401//401
f 444//444 69//69 120//120
f 444//444 120//120 403//403
f 445//445 403//403 19//19
f 445//445 19//19 292//292
f 446//446 4//4 113//113
f 446//446 113//113 404//404
f 447//447 404//404 60//60
f 447//447 60//60 114//114
f 448//448 405//405 73//73
f 448//448 73//73 139//139
f 449//449 265//265 175//175
f 449//449 175//175 407//407
f 450//450 66//66 213//213
f 450//450 213//213 408//408
f 450//450 210//210 66//66
f 451//451 408//408 128//128
f 451//451 128//128 207//207
f 452//452 409//409 11//11
f 452//452 11//11 297//297
f 452//452 297//297 76//76
f 453//453 76//76 223//223
f 453//453 409//409 452//452
f 453//453 223//223 354//354
f 453//453 354//354 409//409
f 454//454 410//410 354//354
f 454//454 354//354 223//223
f 455//455 413//413 220//220
f 455//455 223//223 413//413
f 456//456 223//223 356//356
f 456//456 356//356 412//412
f 457//457 361//361 305//305
f 457//457 305//305 416//416
f 457//457 416//416 26//26
f 457//457 26//26 361//361
f 458//458 88//88 418//418
f 459//459 418//418 310//310
f 459//459 310//310 313//313
f 460//460 366//366 313//313
f 461//461 313//313 240//240
f 461//461 240//240 311//311
f 462//462 423//423 372//372
f 462//462 91//91 423//423
f 463//463 425//425 320//320
f 463//463 373//373 425//425
f 464//464 380//380 333//333
f 464//464 333//333 429//429
f 465//465 97//97 389//389
f 465//465 172//172 97//97
f 466//466 389//389 97//97
f 466//466 97//97 437//437
f 466//466 437//437 172//172
f 467//467 170//170 391//391
f 467//467 391//391 439//439
f 467//467 438//438 170//170
f 467//467 439//439 339//339
f 467//467 339//339 438//438
f 468//468 441//441 342//342
f 468//468 342//342 394//394
f 468//468 394//394 85//85
f 468//468 85//85 441//441
f 469//469 273//273 185//185
f 469//469 185//185 442//442
f 470//470 442//442 179//179
f 470//470 179//179 273//273
f 470//470 469//469 442//442
f 470//470 273//273 469//469
f 471//471 443//443 401//401
f 471//471 401//401 351//351
f 472//472 351//351 352//352
f 472//472 352//352 443//443
f 472//472 471//471 351//351
f 472//472 443//443 471//471
f 473//473 215//215 69//69
f 473//473 69//69 444//444
f 474//474 445//445 292//292
f 474//474 292//292 127//127
f 475//475 139//139 4//4
f 475//475 4//4 446//446
f 475//475 448//448 139//139
f 476//476 447//447 114//114
f 476//476 114//114 192//192
f 476//476 192//192 36//36
f 477//477 35//35 265//265
f 477//477 265//265 449//449
f 478//478 453//453 452//452
f 478//478 452//452 76//76
f 478//478 76//76 453//453
f 479//479 223//223 455//455
f 479//479 455//455 220//220
f 479//479 220//220 410//410
f 479//479 454//454 223//223
f 479//479 410//410 454//454
f 480//480 413//413 223//223
f 480//480 223//223 456//456
f 481//481 456//456 412//412
f 481//481 412//412 220//220
f 482//482 365//365 88//88
f 482//482 88//88 458//458
f 483//483 458//458 418//418
f 483//483 459//459 313//313
f 483//483 418//418 459//459
f 484//484 460//460 420//420
f 484//484 366//366 460//460
f 485//485 460//460 313//313
f 485//485 313//313 461//461
f 485//485 420//420 460//460
f 485//485 461//461 311//311
f 485//485 311//311 420//420
f 486//486 424//424 91//91
f 486//486 91//91 462//462
f 486//486 462//462 372//372
f 486//486 372//372 424//424
f 487//487 463//463 320//320
f 487//487 320//320 373//373
f 487//487 373//373 463//463
f 488//488 464//464 429//429
f 488//488 429//429 253//253
f 488//488 253//253 380//380
f 488//488 380//380 464//464
f 489//489 465//465 389//389
f 489//489 389//389 466//466
f 489//489 466//466 172//172
f 489//489 172//172 465//465
f 490//490 36//36 215//215
f 490//490 215//215 473//473
f 490//490 476//476 36//36
f 491//491 474//474 127//127
f 491//491 127//127 210//210
f 491//491 210//210 450//450
f 492//492 451//451 207//207
f 492//492 207//207 35//35
f 492//492 35//35 477//477
f 492//492 408//408 451//451
f 492//492 477//477 449//449
f 492//492 491//491 450//450
f 492//492 450//450 408//408
f 492//492 449//449 407//407
f 492//492 407//407 406//406
f 492//492 406//406 405//405
f 492//492 405//405 448//448
f 492//492 448//448 475//475
f 492//492 475//475 446//446
f 492//492 446//446 404//404
f 492//492 404//404 447//447
f 492//492 447//447 476//476
f 492//492 476//476 490//490
f 492//492 490//490 473//473
f 492//492 473//473 444//444
f 492//492 444//444 403//403
f 492//492 403//403 445//445
f 492//492 445//445 474//474
f 492//492 474//474 491//491
f 493//493 220//220 413//413
f 493//493 413//413 480//480
f 493//493 481//481 220//220
f 493//493 480//480 456//456
f 493//493 456//456 481//481
f 494//494 482//482 458//458
f 494//494 365//365 482//482
f 494//494 458//458 483//483
f 494//494 483//483 313//313
f 494//494 313//313 365//365
f 495//495 484//484 420//420
f 495//495 420//420 311//311
f 495//495 311//311 366//366
f 496//496 495//495 366//366
f 496//496 366//366 484//484
f 496//496 484//484 495//495
# 988 faces, 0 coords texture

# End of File
