0
SECTION
2
HEADER
9
$ACADVER
1
AC1015
9
$INSUNITS
70
4
9
$MEASUREMENT
70
1
0
ENDSEC
0
SECTION
2
ENTITIES
0
LWPOLYLINE
100
AcDbEntity
8
0
100
AcDbPolyline
90
4
70
1
10
-160
20
-120
10
160
20
-120
10
160
20
120
10
-160
20
120
0
CIRCLE
100
AcDbEntity
8
0
100
AcDbCircle
10
-100
20
55
30
0
40
18.5
0
LWPOLYLINE
100
AcDbEntity
8
0
100
AcDbPolyline
90
4
70
1
10
-21.5
20
39.5
10
21.5
20
39.5
10
21.5
20
70.5
10
-21.5
20
70.5
0
LWPOLYLINE
100
AcDbEntity
8
0
100
AcDbPolyline
90
3
70
1
10
100
20
80
10
78.3493649054
20
42.5
10
121.650635095
20
42.5
0
LWPOLYLINE
100
AcDbEntity
8
0
100
AcDbPolyline
90
6
70
1
10
-78.63804004
20
-55
10
-89.31902002
20
-36.5
10
-110.68097998
20
-36.5
10
-121.36195996
20
-55
10
-110.68097998
20
-73.5
10
-89.31902002
20
-73.5
0
ARC
100
AcDbEntity
8
0
100
AcDbCircle
10
0
20
-55
30
0
40
20.5
100
AcDbArc
50
59.1898433569
51
300.810156643
0
LINE
100
AcDbEntity
8
0
100
AcDbLine
10
10.5
20
-72.6068168617
30
0
11
10.5
21
-37.3931831383
31
0
0
LWPOLYLINE
100
AcDbEntity
8
0
100
AcDbPolyline
90
5
70
1
10
79.5
20
-70.5
10
120.5
20
-70.5
10
120.5
20
-47.7928932188
10
112.207106781
20
-39.5
10
79.5
20
-39.5
0
ENDSEC
0
EOF
