0
SECTION
2
HEADER
9
$ACADVER
1
AC1015
9
$INSUNITS
70
4
9
$MEASUREMENT
70
1
0
ENDSEC
0
SECTION
2
ENTITIES
0
LWPOLYLINE
100
AcDbEntity
8
0
100
AcDbPolyline
90
4
70
1
10
-160
20
-120
10
160
20
-120
10
160
20
120
10
-160
20
120
0
CIRCLE
100
AcDbEntity
8
0
100
AcDbCircle
10
-100
20
55
30
0
40
21
0
LWPOLYLINE
100
AcDbEntity
8
0
100
AcDbPolyline
90
4
70
1
10
-24
20
37
10
24
20
37
10
24
20
73
10
-24
20
73
0
LWPOLYLINE
100
AcDbEntity
8
0
100
AcDbPolyline
90
3
70
1
10
100
20
85
10
74.0192378865
20
40
10
125.980762114
20
40
0
LWPOLYLINE
100
AcDbEntity
8
0
100
AcDbPolyline
90
6
70
1
10
-75.751288694
20
-55
10
-87.875644347
20
-34
10
-112.124355653
20
-34
10
-124.248711306
20
-55
10
-112.124355653
20
-76
10
-87.875644347
20
-76
0
ARC
100
AcDbEntity
8
0
100
AcDbCircle
10
0
20
-55
30
0
40
23
100
AcDbArc
50
55.5826112896
51
304.41738871
0
LINE
100
AcDbEntity
8
0
100
AcDbLine
10
13
20
-73.973665961
30
0
11
13
21
-36.026334039
31
0
0
LWPOLYLINE
100
AcDbEntity
8
0
100
AcDbPolyline
90
5
70
1
10
77
20
-73
10
123
20
-73
10
123
20
-46.7573593129
10
113.242640687
20
-37
10
77
20
-37
0
ENDSEC
0
EOF
