<?xml version="1.0" encoding="UTF-8" standalone="no"?>
<!DOCTYPE svg PUBLIC "-//W3C//DTD SVG 1.1//EN"
 "http://www.w3.org/Graphics/SVG/1.1/DTD/svg11.dtd">
<!-- Generated by graphviz version 2.43.0 (0)
 -->
<!-- Title: architecture Pages: 1 -->
<svg width="1598pt" height="2297pt"
 viewBox="0.00 0.00 852.30 1224.80" xmlns="http://www.w3.org/2000/svg" xmlns:xlink="http://www.w3.org/1999/xlink">
<g id="graph0" class="graph" transform="scale(1.88 1.88) rotate(0) translate(32.4 1192.4)">
<title>architecture</title>
<polygon fill="#181818" stroke="transparent" points="-32.4,32.4 -32.4,-1192.4 819.9,-1192.4 819.9,32.4 -32.4,32.4"/>
<text text-anchor="middle" x="393.75" y="-1136" font-family="Noto Sans CJK SC" font-size="25.00" fill="#eeeeee">导航、避障与底盘执行链</text>
<text text-anchor="middle" x="393.75" y="-1108" font-family="Noto Sans CJK SC" font-size="25.00" fill="#eeeeee"> </text>
<!-- lidar -->
<g id="node1" class="node">
<title>lidar</title>
<path fill="#333333" stroke="#555555" stroke-width="1.3" d="M545,-1096C545,-1096 418,-1096 418,-1096 412,-1096 406,-1090 406,-1084 406,-1084 406,-1046 406,-1046 406,-1040 412,-1034 418,-1034 418,-1034 545,-1034 545,-1034 551,-1034 557,-1040 557,-1046 557,-1046 557,-1084 557,-1084 557,-1090 551,-1096 545,-1096"/>
<text text-anchor="middle" x="481.5" y="-1070.6" font-family="Noto Sans CJK SC" font-size="18.00" fill="#f3f3f3">激光点云 / IMU</text>
<text text-anchor="middle" x="481.5" y="-1050.6" font-family="Noto Sans CJK SC" font-size="18.00" fill="#f3f3f3">关节与里程计</text>
</g>
<!-- slam -->
<g id="node4" class="node">
<title>slam</title>
<path fill="#333333" stroke="#555555" stroke-width="1.3" d="M533,-987C533,-987 368,-987 368,-987 362,-987 356,-981 356,-975 356,-975 356,-937 356,-937 356,-931 362,-925 368,-925 368,-925 533,-925 533,-925 539,-925 545,-931 545,-937 545,-937 545,-975 545,-975 545,-981 539,-987 533,-987"/>
<text text-anchor="middle" x="450.5" y="-961.6" font-family="Noto Sans CJK SC" font-size="18.00" fill="#f3f3f3">Voxel&#45;SLAM</text>
<text text-anchor="middle" x="450.5" y="-941.6" font-family="Noto Sans CJK SC" font-size="18.00" fill="#f3f3f3">定位 / map→odom</text>
</g>
<!-- lidar&#45;&gt;slam -->
<g id="edge1" class="edge">
<title>lidar&#45;&gt;slam</title>
<path fill="none" stroke="#bfc2c5" stroke-width="1.35" d="M472.78,-1033.91C469.28,-1021.83 465.21,-1007.77 461.51,-994.99"/>
<polygon fill="#bfc2c5" stroke="#bfc2c5" stroke-width="1.35" points="464.18,-994.14 459.26,-987.24 458.8,-995.7 464.18,-994.14"/>
</g>
<!-- filter -->
<g id="node5" class="node">
<title>filter</title>
<path fill="#333333" stroke="#555555" stroke-width="1.3" d="M760,-987C760,-987 593,-987 593,-987 587,-987 581,-981 581,-975 581,-975 581,-937 581,-937 581,-931 587,-925 593,-925 593,-925 760,-925 760,-925 766,-925 772,-931 772,-937 772,-937 772,-975 772,-975 772,-981 766,-987 760,-987"/>
<text text-anchor="middle" x="676.5" y="-961.6" font-family="Noto Sans CJK SC" font-size="18.00" fill="#f3f3f3">点云自滤 / 切片扫描</text>
<text text-anchor="middle" x="676.5" y="-941.6" font-family="Noto Sans CJK SC" font-size="18.00" fill="#f3f3f3">深度障碍投影</text>
</g>
<!-- lidar&#45;&gt;filter -->
<g id="edge2" class="edge">
<title>lidar&#45;&gt;filter</title>
<path fill="none" stroke="#bfc2c5" stroke-width="1.35" d="M536.34,-1033.91C560.64,-1020.58 589.34,-1004.83 614.42,-991.06"/>
<polygon fill="#bfc2c5" stroke="#bfc2c5" stroke-width="1.35" points="616.07,-993.35 621.74,-987.05 613.38,-988.44 616.07,-993.35"/>
</g>
<!-- rgbd -->
<g id="node2" class="node">
<title>rgbd</title>
<path fill="#333333" stroke="#555555" stroke-width="1.3" d="M775.5,-1096C775.5,-1096 605.5,-1096 605.5,-1096 599.5,-1096 593.5,-1090 593.5,-1084 593.5,-1084 593.5,-1046 593.5,-1046 593.5,-1040 599.5,-1034 605.5,-1034 605.5,-1034 775.5,-1034 775.5,-1034 781.5,-1034 787.5,-1040 787.5,-1046 787.5,-1046 787.5,-1084 787.5,-1084 787.5,-1090 781.5,-1096 775.5,-1096"/>
<text text-anchor="middle" x="690.5" y="-1070.6" font-family="Noto Sans CJK SC" font-size="18.00" fill="#f3f3f3">头部 / 腹部 RGB&#45;D</text>
<text text-anchor="middle" x="690.5" y="-1050.6" font-family="Noto Sans CJK SC" font-size="18.00" fill="#f3f3f3">原始健康 + 投影健康</text>
</g>
<!-- rgbd&#45;&gt;filter -->
<g id="edge3" class="edge">
<title>rgbd&#45;&gt;filter</title>
<path fill="none" stroke="#bfc2c5" stroke-width="1.35" d="M686.56,-1033.91C685,-1021.94 683.18,-1008.03 681.52,-995.35"/>
<polygon fill="#bfc2c5" stroke="#bfc2c5" stroke-width="1.35" points="684.27,-994.8 680.46,-987.24 678.72,-995.53 684.27,-994.8"/>
</g>
<!-- request -->
<g id="node3" class="node">
<title>request</title>
<path fill="#333333" stroke="#555555" stroke-width="1.3" d="M358,-1096C358,-1096 177,-1096 177,-1096 171,-1096 165,-1090 165,-1084 165,-1084 165,-1046 165,-1046 165,-1040 171,-1034 177,-1034 177,-1034 358,-1034 358,-1034 364,-1034 370,-1040 370,-1046 370,-1046 370,-1084 370,-1084 370,-1090 364,-1096 358,-1096"/>
<text text-anchor="middle" x="267.5" y="-1070.6" font-family="Noto Sans CJK SC" font-size="18.00" fill="#f3f3f3">人工目标 / 路线 / 探索</text>
<text text-anchor="middle" x="267.5" y="-1050.6" font-family="Noto Sans CJK SC" font-size="18.00" fill="#f3f3f3">搬运任务导航请求</text>
</g>
<!-- arb -->
<g id="node6" class="node">
<title>arb</title>
<path fill="#333333" stroke="#555555" stroke-width="1.3" d="M385,-902C385,-902 150,-902 150,-902 144,-902 138,-896 138,-890 138,-890 138,-852 138,-852 138,-846 144,-840 150,-840 150,-840 385,-840 385,-840 391,-840 397,-846 397,-852 397,-852 397,-890 397,-890 397,-896 391,-902 385,-902"/>
<text text-anchor="middle" x="267.5" y="-876.6" font-family="Noto Sans CJK SC" font-size="18.00" fill="#f3f3f3">TaskArbiter</text>
<text text-anchor="middle" x="267.5" y="-856.6" font-family="Noto Sans CJK SC" font-size="18.00" fill="#f3f3f3">优先级 / 取消交接 / 唯一目标</text>
</g>
<!-- request&#45;&gt;arb -->
<g id="edge4" class="edge">
<title>request&#45;&gt;arb</title>
<path fill="none" stroke="#bfc2c5" stroke-width="1.35" d="M267.5,-1034C267.5,-1000.7 267.5,-946.88 267.5,-910.5"/>
<polygon fill="#bfc2c5" stroke="#bfc2c5" stroke-width="1.35" points="270.3,-910.11 267.5,-902.11 264.7,-910.11 270.3,-910.11"/>
</g>
<!-- map -->
<g id="node7" class="node">
<title>map</title>
<path fill="#333333" stroke="#555555" stroke-width="1.3" d="M541,-817C541,-817 360,-817 360,-817 354,-817 348,-811 348,-805 348,-805 348,-767 348,-767 348,-761 354,-755 360,-755 360,-755 541,-755 541,-755 547,-755 553,-761 553,-767 553,-767 553,-805 553,-805 553,-811 547,-817 541,-817"/>
<text text-anchor="middle" x="450.5" y="-791.6" font-family="Noto Sans CJK SC" font-size="18.00" fill="#f3f3f3">地图 / 区域 / 禁行约束</text>
<text text-anchor="middle" x="450.5" y="-771.6" font-family="Noto Sans CJK SC" font-size="18.00" fill="#f3f3f3">全局与局部 costmap</text>
</g>
<!-- slam&#45;&gt;map -->
<g id="edge5" class="edge">
<title>slam&#45;&gt;map</title>
<path fill="none" stroke="#bfc2c5" stroke-width="1.35" d="M450.5,-924.96C450.5,-897.1 450.5,-855.5 450.5,-825.26"/>
<polygon fill="#bfc2c5" stroke="#bfc2c5" stroke-width="1.35" points="453.3,-825.06 450.5,-817.06 447.7,-825.06 453.3,-825.06"/>
</g>
<!-- filter&#45;&gt;map -->
<g id="edge6" class="edge">
<title>filter&#45;&gt;map</title>
<path fill="none" stroke="#bfc2c5" stroke-width="1.35" d="M636.1,-924.96C597.25,-896.09 538.55,-852.45 497.6,-822.01"/>
<polygon fill="#bfc2c5" stroke="#bfc2c5" stroke-width="1.35" points="499.03,-819.58 490.93,-817.06 495.68,-824.08 499.03,-819.58"/>
</g>
<!-- planner -->
<g id="node10" class="node">
<title>planner</title>
<path fill="#333333" stroke="#555555" stroke-width="1.3" d="M377,-696C377,-696 160,-696 160,-696 154,-696 148,-690 148,-684 148,-684 148,-646 148,-646 148,-640 154,-634 160,-634 160,-634 377,-634 377,-634 383,-634 389,-640 389,-646 389,-646 389,-684 389,-684 389,-690 383,-696 377,-696"/>
<text text-anchor="middle" x="268.5" y="-670.6" font-family="Noto Sans CJK SC" font-size="18.00" fill="#f3f3f3">Nav2 BT / 路由策略</text>
<text text-anchor="middle" x="268.5" y="-650.6" font-family="Noto Sans CJK SC" font-size="18.00" fill="#f3f3f3">规划 / 候选复核 / 路径提交</text>
</g>
<!-- arb&#45;&gt;planner -->
<g id="edge8" class="edge">
<title>arb&#45;&gt;planner</title>
<path fill="none" stroke="#bfc2c5" stroke-width="1.35" d="M267.65,-839.9C267.82,-803.89 268.12,-743.56 268.31,-704.27"/>
<polygon fill="#bfc2c5" stroke="#bfc2c5" stroke-width="1.35" points="271.11,-704.24 268.35,-696.22 265.51,-704.21 271.11,-704.24"/>
</g>
<!-- map&#45;&gt;planner -->
<g id="edge9" class="edge">
<title>map&#45;&gt;planner</title>
<path fill="none" stroke="#bfc2c5" stroke-width="1.35" d="M404.57,-754.97C379.25,-738.41 347.69,-717.78 321.34,-700.55"/>
<polygon fill="#bfc2c5" stroke="#bfc2c5" stroke-width="1.35" points="322.64,-698.05 314.41,-696.02 319.58,-702.74 322.64,-698.05"/>
</g>
<!-- geometry -->
<g id="node8" class="node">
<title>geometry</title>
<path fill="#333333" stroke="#555555" stroke-width="1.3" d="M200.5,-987C200.5,-987 12.5,-987 12.5,-987 6.5,-987 0.5,-981 0.5,-975 0.5,-975 0.5,-937 0.5,-937 0.5,-931 6.5,-925 12.5,-925 12.5,-925 200.5,-925 200.5,-925 206.5,-925 212.5,-931 212.5,-937 212.5,-937 212.5,-975 212.5,-975 212.5,-981 206.5,-987 200.5,-987"/>
<text text-anchor="middle" x="106.5" y="-961.6" font-family="Noto Sans CJK SC" font-size="18.00" fill="#f3f3f3">实测关节 + 附着物账本</text>
<text text-anchor="middle" x="106.5" y="-941.6" font-family="Noto Sans CJK SC" font-size="18.00" fill="#f3f3f3">整机几何 / 固定包络</text>
</g>
<!-- confirm -->
<g id="node9" class="node">
<title>confirm</title>
<path fill="#333333" stroke="#555555" stroke-width="1.3" d="M201,-817C201,-817 12,-817 12,-817 6,-817 0,-811 0,-805 0,-805 0,-767 0,-767 0,-761 6,-755 12,-755 12,-755 201,-755 201,-755 207,-755 213,-761 213,-767 213,-767 213,-805 213,-805 213,-811 207,-817 201,-817"/>
<text text-anchor="middle" x="106.5" y="-791.6" font-family="Noto Sans CJK SC" font-size="18.00" fill="#f3f3f3">停稳与 ArmHold</text>
<text text-anchor="middle" x="106.5" y="-771.6" font-family="Noto Sans CJK SC" font-size="18.00" fill="#f3f3f3">包络消费者同版本确认</text>
</g>
<!-- geometry&#45;&gt;confirm -->
<g id="edge7" class="edge">
<title>geometry&#45;&gt;confirm</title>
<path fill="none" stroke="#bfc2c5" stroke-width="1.35" d="M106.5,-924.96C106.5,-897.1 106.5,-855.5 106.5,-825.26"/>
<polygon fill="#bfc2c5" stroke="#bfc2c5" stroke-width="1.35" points="109.3,-825.06 106.5,-817.06 103.7,-825.06 109.3,-825.06"/>
</g>
<!-- confirm&#45;&gt;planner -->
<g id="edge10" class="edge">
<title>confirm&#45;&gt;planner</title>
<path fill="none" stroke="#bfc2c5" stroke-width="1.35" d="M124.28,-754.78C132.59,-742.52 143.35,-728.94 155.5,-719 164.07,-711.99 173.72,-705.67 183.68,-700.04"/>
<polygon fill="#bfc2c5" stroke="#bfc2c5" stroke-width="1.35" points="185.3,-702.35 190.98,-696.06 182.61,-697.43 185.3,-702.35"/>
<text text-anchor="middle" x="198" y="-722.4" font-family="Noto Sans CJK SC" font-size="12.00" fill="#aaaaaa">准入与足迹约束</text>
</g>
<!-- final -->
<g id="node13" class="node">
<title>final</title>
<path fill="#333333" stroke="#555555" stroke-width="1.3" d="M409.5,-357C409.5,-357 127.5,-357 127.5,-357 121.5,-357 115.5,-351 115.5,-345 115.5,-345 115.5,-307 115.5,-307 115.5,-301 121.5,-295 127.5,-295 127.5,-295 409.5,-295 409.5,-295 415.5,-295 421.5,-301 421.5,-307 421.5,-307 421.5,-345 421.5,-345 421.5,-351 415.5,-357 409.5,-357"/>
<text text-anchor="middle" x="268.5" y="-331.6" font-family="Noto Sans CJK SC" font-size="18.00" fill="#f3f3f3">FinalProtection</text>
<text text-anchor="middle" x="268.5" y="-311.6" font-family="Noto Sans CJK SC" font-size="18.00" fill="#f3f3f3">输入时效 / 扫掠 / 包络 / 区域 / 许可</text>
</g>
<!-- confirm&#45;&gt;final -->
<g id="edge14" class="edge">
<title>confirm&#45;&gt;final</title>
<path fill="none" stroke="#bfc2c5" stroke-width="1.35" d="M213.14,-780.82C278.39,-772.41 358.33,-750.58 406.5,-696 489.12,-602.38 457.66,-516.45 383.5,-416 368.01,-395.02 346.29,-376.47 325.89,-361.82"/>
<polygon fill="#bfc2c5" stroke="#bfc2c5" stroke-width="1.35" points="327.48,-359.51 319.33,-357.2 324.26,-364.09 327.48,-359.51"/>
</g>
<!-- tracker -->
<g id="node11" class="node">
<title>tracker</title>
<path fill="#333333" stroke="#555555" stroke-width="1.3" d="M395,-587C395,-587 142,-587 142,-587 136,-587 130,-581 130,-575 130,-575 130,-537 130,-537 130,-531 136,-525 142,-525 142,-525 395,-525 395,-525 401,-525 407,-531 407,-537 407,-537 407,-575 407,-575 407,-581 401,-587 395,-587"/>
<text text-anchor="middle" x="268.5" y="-561.6" font-family="Noto Sans CJK SC" font-size="18.00" fill="#f3f3f3">Arrival / ThreePhase</text>
<text text-anchor="middle" x="268.5" y="-541.6" font-family="Noto Sans CJK SC" font-size="18.00" fill="#f3f3f3">路径跟踪 / 终点精调 / 停稳确认</text>
</g>
<!-- planner&#45;&gt;tracker -->
<g id="edge11" class="edge">
<title>planner&#45;&gt;tracker</title>
<path fill="none" stroke="#bfc2c5" stroke-width="1.35" d="M268.5,-633.91C268.5,-621.94 268.5,-608.03 268.5,-595.35"/>
<polygon fill="#bfc2c5" stroke="#bfc2c5" stroke-width="1.35" points="271.3,-595.24 268.5,-587.24 265.7,-595.24 271.3,-595.24"/>
</g>
<!-- smooth -->
<g id="node12" class="node">
<title>smooth</title>
<path fill="#333333" stroke="#555555" stroke-width="1.3" d="M354,-478C354,-478 183,-478 183,-478 177,-478 171,-472 171,-466 171,-466 171,-428 171,-428 171,-422 177,-416 183,-416 183,-416 354,-416 354,-416 360,-416 366,-422 366,-428 366,-428 366,-466 366,-466 366,-472 360,-478 354,-478"/>
<text text-anchor="middle" x="268.5" y="-452.6" font-family="Noto Sans CJK SC" font-size="18.00" fill="#f3f3f3">速度平滑 / 坐标转换</text>
<text text-anchor="middle" x="268.5" y="-432.6" font-family="Noto Sans CJK SC" font-size="18.00" fill="#f3f3f3">双臂姿态与运动约束</text>
</g>
<!-- tracker&#45;&gt;smooth -->
<g id="edge12" class="edge">
<title>tracker&#45;&gt;smooth</title>
<path fill="none" stroke="#bfc2c5" stroke-width="1.35" d="M268.5,-524.91C268.5,-512.94 268.5,-499.03 268.5,-486.35"/>
<polygon fill="#bfc2c5" stroke="#bfc2c5" stroke-width="1.35" points="271.3,-486.24 268.5,-478.24 265.7,-486.24 271.3,-486.24"/>
</g>
<!-- smooth&#45;&gt;final -->
<g id="edge13" class="edge">
<title>smooth&#45;&gt;final</title>
<path fill="none" stroke="#bfc2c5" stroke-width="1.35" d="M268.5,-415.97C268.5,-400.61 268.5,-381.74 268.5,-365.34"/>
<polygon fill="#bfc2c5" stroke="#bfc2c5" stroke-width="1.35" points="271.3,-365.02 268.5,-357.02 265.7,-365.02 271.3,-365.02"/>
<text text-anchor="middle" x="293" y="-383.4" font-family="Noto Sans CJK SC" font-size="12.00" fill="#aaaaaa">策略启用</text>
</g>
<!-- base -->
<g id="node14" class="node">
<title>base</title>
<path fill="#333333" stroke="#555555" stroke-width="1.3" d="M364,-248C364,-248 173,-248 173,-248 167,-248 161,-242 161,-236 161,-236 161,-198 161,-198 161,-192 167,-186 173,-186 173,-186 364,-186 364,-186 370,-186 376,-192 376,-198 376,-198 376,-236 376,-236 376,-242 370,-248 364,-248"/>
<text text-anchor="middle" x="268.5" y="-222.6" font-family="Noto Sans CJK SC" font-size="18.00" fill="#f3f3f3">底盘执行适配</text>
<text text-anchor="middle" x="268.5" y="-202.6" font-family="Noto Sans CJK SC" font-size="18.00" fill="#f3f3f3">仿真 effort 或真机 SDK</text>
</g>
<!-- smooth&#45;&gt;base -->
<g id="edge16" class="edge">
<title>smooth&#45;&gt;base</title>
<path fill="none" stroke="#909090" stroke-width="1.35" d="M366.31,-417.14C394.91,-403.65 422.92,-384.32 439.5,-357 453.8,-333.44 454.46,-318.14 439.5,-295 426.1,-274.27 405.65,-259.07 383.49,-247.94"/>
<polygon fill="#909090" stroke="#909090" stroke-width="1.35" points="384.67,-245.4 376.24,-244.46 382.25,-250.45 384.67,-245.4"/>
<text text-anchor="middle" x="503.5" y="-322.9" font-family="Noto Sans CJK SC" font-size="12.00" fill="#aaaaaa">策略 off 的既有接线</text>
</g>
<!-- final&#45;&gt;base -->
<g id="edge15" class="edge">
<title>final&#45;&gt;base</title>
<path fill="none" stroke="#bfc2c5" stroke-width="1.35" d="M268.5,-294.91C268.5,-282.94 268.5,-269.03 268.5,-256.35"/>
<polygon fill="#bfc2c5" stroke="#bfc2c5" stroke-width="1.35" points="271.3,-256.24 268.5,-248.24 265.7,-256.24 271.3,-256.24"/>
</g>
<!-- feedback -->
<g id="node15" class="node">
<title>feedback</title>
<path fill="#333333" stroke="#555555" stroke-width="1.3" d="M390,-139C390,-139 147,-139 147,-139 141,-139 135,-133 135,-127 135,-127 135,-89 135,-89 135,-83 141,-77 147,-77 147,-77 390,-77 390,-77 396,-77 402,-83 402,-89 402,-89 402,-127 402,-127 402,-133 396,-139 390,-139"/>
<text text-anchor="middle" x="268.5" y="-113.6" font-family="Noto Sans CJK SC" font-size="18.00" fill="#f3f3f3">实际位姿 / 速度 / 执行状态</text>
<text text-anchor="middle" x="268.5" y="-93.6" font-family="Noto Sans CJK SC" font-size="18.00" fill="#f3f3f3">反馈至定位、跟踪与任务结果</text>
</g>
<!-- base&#45;&gt;feedback -->
<g id="edge17" class="edge">
<title>base&#45;&gt;feedback</title>
<path fill="none" stroke="#bfc2c5" stroke-width="1.35" d="M268.5,-185.91C268.5,-173.94 268.5,-160.03 268.5,-147.35"/>
<polygon fill="#bfc2c5" stroke="#bfc2c5" stroke-width="1.35" points="271.3,-147.24 268.5,-139.24 265.7,-147.24 271.3,-147.24"/>
</g>
<!-- note -->
<g id="node16" class="node">
<title>note</title>
<path fill="#181818" stroke="transparent" stroke-width="1.3" d="M489.5,-30C489.5,-30 47.5,-30 47.5,-30 42.5,-30 37.5,-25 37.5,-20 37.5,-20 37.5,-10 37.5,-10 37.5,-5 42.5,0 47.5,0 47.5,0 489.5,0 489.5,0 494.5,0 499.5,-5 499.5,-10 499.5,-10 499.5,-20 499.5,-20 499.5,-25 494.5,-30 489.5,-30"/>
<text text-anchor="middle" x="268.5" y="-18.8" font-family="Noto Sans CJK SC" font-size="14.00" fill="#d8bc87">控制出口按启动 profile 核对；感知和候选规划不直接发布底盘命令</text>
<text text-anchor="middle" x="268.5" y="-3.8" font-family="Noto Sans CJK SC" font-size="14.00" fill="#d8bc87">固定包络限定场景已有验证，非 home / 偏载 / 狭窄通道完整矩阵仍待验收</text>
</g>
<!-- feedback&#45;&gt;note -->
</g>
</svg>
