####
#
# OBJ File Generated by Meshlab
#
####
# Object T1_Link_collision_mesh.obj
#
# Vertices: 684
# Faces: 1364
#
####
vn 0.000000 0.000000 0.000000
v -0.460925 0.003491 0.060000
vn 0.000000 0.000000 0.000000
v 0.173498 0.000336 0.050193
vn 0.000000 0.000000 0.000000
v -0.004769 -0.053086 -0.088000
vn 0.000000 0.000000 0.000000
v -0.001499 0.080986 -0.072000
vn 0.000000 0.000000 0.000000
v -0.001792 -0.080980 0.072000
vn 0.000000 0.000000 0.000000
v -0.429637 0.019960 -0.076000
vn 0.000000 0.000000 0.000000
v 0.080944 0.003007 -0.072000
vn 0.000000 0.000000 0.000000
v -0.001499 0.080986 0.072000
vn 0.000000 0.000000 0.000000
v 0.025054 -0.077028 -0.072000
vn 0.000000 0.000000 0.000000
v -0.004545 0.053106 -0.088000
vn 0.000000 0.000000 0.000000
v 0.055660 0.058847 -0.072000
vn 0.000000 0.000000 0.000000
v -0.053402 -0.003230 0.088000
vn 0.000000 0.000000 0.000000
v -0.399135 0.078708 0.060000
vn 0.000000 0.000000 0.000000
v 0.156732 -0.027537 0.059976
vn 0.000000 0.000000 0.000000
v -0.391787 -0.080138 -0.060000
vn 0.000000 0.000000 0.000000
v 0.071060 -0.038878 -0.072000
vn 0.000000 0.000000 0.000000
v -0.386067 0.055670 -0.075000
vn 0.000000 0.000000 0.000000
v -0.053086 0.004769 -0.088000
vn 0.000000 0.000000 0.000000
v 0.053086 -0.004769 -0.088000
vn 0.000000 0.000000 0.000000
v 0.071060 0.038878 -0.072000
vn 0.000000 0.000000 0.000000
v 0.021561 0.053305 -0.086100
vn 0.000000 0.000000 0.000000
v 0.155625 0.028080 0.058405
vn 0.000000 0.000000 0.000000
v -0.392803 -0.051945 0.076000
vn 0.000000 0.000000 0.000000
v -0.447340 0.045014 -0.060000
vn 0.000000 0.000000 0.000000
v -0.378432 0.080985 0.060000
vn 0.000000 0.000000 0.000000
v -0.009644 0.052624 0.088000
vn 0.000000 0.000000 0.000000
v 0.025054 -0.077028 0.072000
vn 0.000000 0.000000 0.000000
v -0.398294 -0.050275 -0.076000
vn 0.000000 0.000000 0.000000
v -0.001792 -0.080980 -0.072000
vn 0.000000 0.000000 0.000000
v 0.079020 -0.017800 -0.072000
vn 0.000000 0.000000 0.000000
v 0.035352 -0.039889 -0.088000
vn 0.000000 0.000000 0.000000
v 0.043926 -0.068056 -0.072000
vn 0.000000 0.000000 0.000000
v 0.167776 -0.017806 0.050080
vn 0.000000 0.000000 0.000000
v -0.399990 0.049625 -0.076000
vn 0.000000 0.000000 0.000000
v -0.001036 0.055990 -0.087000
vn 0.000000 0.000000 0.000000
v 0.166714 0.019226 0.049160
vn 0.000000 0.000000 0.000000
v 0.078476 0.020064 -0.072000
vn 0.000000 0.000000 0.000000
v 0.025420 0.076908 -0.072000
vn 0.000000 0.000000 0.000000
v 0.039889 0.035352 -0.088000
vn 0.000000 0.000000 0.000000
v 0.172364 0.001895 0.060918
vn 0.000000 0.000000 0.000000
v -0.003230 -0.053402 0.088000
vn 0.000000 0.000000 0.000000
v -0.418584 0.037061 0.076000
vn 0.000000 0.000000 0.000000
v -0.385412 -0.080819 0.060000
vn 0.000000 0.000000 0.000000
v -0.447340 0.045014 0.060000
vn 0.000000 0.000000 0.000000
v -0.399135 0.078708 -0.060000
vn 0.000000 0.000000 0.000000
v -0.454034 -0.032863 -0.060000
vn 0.000000 0.000000 0.000000
v 0.026793 0.049175 0.087000
vn 0.000000 0.000000 0.000000
v -0.386067 0.055670 0.075000
vn 0.000000 0.000000 0.000000
v 0.005576 -0.080808 0.064000
vn 0.000000 0.000000 0.000000
v 0.153614 -0.028935 0.060055
vn 0.000000 0.000000 0.000000
v -0.383741 -0.055875 -0.075000
vn 0.000000 0.000000 0.000000
v -0.039889 -0.035352 -0.088000
vn 0.000000 0.000000 0.000000
v 0.006077 -0.057178 -0.086100
vn 0.000000 0.000000 0.000000
v 0.172945 -0.003061 0.049072
vn 0.000000 0.000000 0.000000
v 0.056943 -0.007980 -0.086100
vn 0.000000 0.000000 0.000000
v 0.154781 -0.028463 0.051034
vn 0.000000 0.000000 0.000000
v 0.059874 -0.054554 -0.072000
vn 0.000000 0.000000 0.000000
v 0.021561 -0.053305 -0.086100
vn 0.000000 0.000000 0.000000
v -0.389294 0.052687 -0.076000
vn 0.000000 0.000000 0.000000
v -0.039739 0.035521 -0.088000
vn 0.000000 0.000000 0.000000
v -0.414421 0.044172 -0.075000
vn 0.000000 0.000000 0.000000
v -0.382966 0.057774 -0.073890
vn 0.000000 0.000000 0.000000
v -0.383246 0.053401 -0.076000
vn 0.000000 0.000000 0.000000
v 0.016868 0.050560 -0.088000
vn 0.000000 0.000000 0.000000
v 0.059214 0.055269 -0.072000
vn 0.000000 0.000000 0.000000
v 0.159174 0.026037 0.048923
vn 0.000000 0.000000 0.000000
v 0.172879 0.003663 0.048914
vn 0.000000 0.000000 0.000000
v 0.056943 0.007980 -0.086100
vn 0.000000 0.000000 0.000000
v 0.043678 0.068214 -0.072000
vn 0.000000 0.000000 0.000000
v 0.005576 0.080808 -0.072000
vn 0.000000 0.000000 0.000000
v 0.025420 0.076908 0.072000
vn 0.000000 0.000000 0.000000
v 0.168958 -0.015983 0.060147
vn 0.000000 0.000000 0.000000
v 0.168281 0.017053 0.059353
vn 0.000000 0.000000 0.000000
v -0.037085 -0.038562 0.088000
vn 0.000000 0.000000 0.000000
v 0.006077 -0.057178 0.086100
vn 0.000000 0.000000 0.000000
v -0.430023 -0.018971 0.076000
vn 0.000000 0.000000 0.000000
v -0.044633 0.029499 0.088000
vn 0.000000 0.000000 0.000000
v -0.385412 -0.080819 -0.060000
vn 0.000000 0.000000 0.000000
v -0.383741 -0.055875 0.075000
vn 0.000000 0.000000 0.000000
v -0.457359 0.024010 0.060000
vn 0.000000 0.000000 0.000000
v -0.425004 0.067347 0.052000
vn 0.000000 0.000000 0.000000
v -0.418572 0.071226 0.060000
vn 0.000000 0.000000 0.000000
v -0.390174 0.080359 -0.052000
vn 0.000000 0.000000 0.000000
v -0.401044 0.051895 -0.075000
vn 0.000000 0.000000 0.000000
v -0.460702 0.006937 -0.060000
vn 0.000000 0.000000 0.000000
v -0.440337 -0.054041 0.060000
vn 0.000000 0.000000 0.000000
v -0.428991 -0.064505 -0.060000
vn 0.000000 0.000000 0.000000
v -0.428780 -0.021972 -0.076000
vn 0.000000 0.000000 0.000000
v 0.006077 0.057178 0.086100
vn 0.000000 0.000000 0.000000
v 0.051937 -0.012835 0.088000
vn 0.000000 0.000000 0.000000
v -0.382500 0.072624 0.065000
vn 0.000000 0.000000 0.000000
v -0.396942 0.050747 0.076000
vn 0.000000 0.000000 0.000000
v 0.004515 -0.080874 0.072000
vn 0.000000 0.000000 0.000000
v 0.005576 -0.080808 -0.064000
vn 0.000000 0.000000 0.000000
v 0.025420 -0.076908 0.064000
vn 0.000000 0.000000 0.000000
v 0.153496 -0.028544 0.061252
vn 0.000000 0.000000 0.000000
v -0.389263 -0.052692 -0.076000
vn 0.000000 0.000000 0.000000
v -0.022617 -0.048264 -0.088000
vn 0.000000 0.000000 0.000000
v 0.004515 -0.080874 -0.072000
vn 0.000000 0.000000 0.000000
v -0.005119 -0.057401 -0.086023
vn 0.000000 0.000000 0.000000
v 0.081000 0.000000 -0.072000
vn 0.000000 0.000000 0.000000
v 0.171550 -0.009613 0.049229
vn 0.000000 0.000000 0.000000
v 0.052556 -0.023326 -0.086100
vn 0.000000 0.000000 0.000000
v 0.163335 -0.022954 0.050798
vn 0.000000 0.000000 0.000000
v 0.035383 -0.045324 -0.086100
vn 0.000000 0.000000 0.000000
v 0.167505 -0.017635 0.049440
vn 0.000000 0.000000 0.000000
v 0.017321 -0.053254 -0.087000
vn 0.000000 0.000000 0.000000
v -0.016655 0.050631 -0.088000
vn 0.000000 0.000000 0.000000
v -0.048264 0.022617 -0.088000
vn 0.000000 0.000000 0.000000
v -0.421001 0.034368 -0.076000
vn 0.000000 0.000000 0.000000
v -0.418572 0.071226 -0.060000
vn 0.000000 0.000000 0.000000
v -0.384255 0.056336 -0.074702
vn 0.000000 0.000000 0.000000
v -0.003754 0.080415 -0.072298
vn 0.000000 0.000000 0.000000
v 0.013322 0.054392 -0.087000
vn 0.000000 0.000000 0.000000
v 0.030673 0.043589 -0.088000
vn 0.000000 0.000000 0.000000
v 0.068862 0.042650 -0.072000
vn 0.000000 0.000000 0.000000
v 0.164464 0.021763 0.049081
vn 0.000000 0.000000 0.000000
v 0.038481 0.040684 -0.087000
vn 0.000000 0.000000 0.000000
v 0.153986 0.028793 0.049347
vn 0.000000 0.000000 0.000000
v 0.173418 0.000322 0.049633
vn 0.000000 0.000000 0.000000
v 0.173037 0.005308 0.059084
vn 0.000000 0.000000 0.000000
v 0.171343 0.010215 0.048756
vn 0.000000 0.000000 0.000000
v 0.055961 0.002079 -0.087000
vn 0.000000 0.000000 0.000000
v 0.052271 0.024267 -0.086023
vn 0.000000 0.000000 0.000000
v 0.038754 0.071127 -0.072000
vn 0.000000 0.000000 0.000000
v 0.161937 0.024046 0.049002
vn 0.000000 0.000000 0.000000
v 0.002500 0.070956 -0.078000
vn 0.000000 0.000000 0.000000
v 0.005576 0.080808 0.072000
vn 0.000000 0.000000 0.000000
v 0.019269 0.078675 0.072000
vn 0.000000 0.000000 0.000000
v 0.158026 0.025580 0.060239
vn 0.000000 0.000000 0.000000
v 0.173110 -0.004866 0.059315
vn 0.000000 0.000000 0.000000
v 0.043409 0.031272 0.088000
vn 0.000000 0.000000 0.000000
v -0.019975 -0.049631 0.088000
vn 0.000000 0.000000 0.000000
v -0.433110 0.006449 0.076000
vn 0.000000 0.000000 0.000000
v -0.049631 -0.019975 0.088000
vn 0.000000 0.000000 0.000000
v -0.415477 -0.040045 0.076000
vn 0.000000 0.000000 0.000000
v -0.032995 0.042114 0.088000
vn 0.000000 0.000000 0.000000
v -0.003798 -0.079005 -0.073142
vn 0.000000 0.000000 0.000000
v -0.386067 -0.055670 -0.075000
vn 0.000000 0.000000 0.000000
v -0.384305 -0.053326 0.076000
vn 0.000000 0.000000 0.000000
v -0.405841 -0.076767 0.060000
vn 0.000000 0.000000 0.000000
v -0.004261 -0.057841 0.085801
vn 0.000000 0.000000 0.000000
v -0.430963 0.023522 0.074923
vn 0.000000 0.000000 0.000000
v -0.437952 0.056592 -0.052000
vn 0.000000 0.000000 0.000000
v -0.434004 0.060370 0.060000
vn 0.000000 0.000000 0.000000
v -0.394390 0.079712 -0.052000
vn 0.000000 0.000000 0.000000
v -0.390174 0.080359 0.052000
vn 0.000000 0.000000 0.000000
v -0.378432 0.080985 -0.060000
vn 0.000000 0.000000 0.000000
v -0.397166 0.070610 -0.065000
vn 0.000000 0.000000 0.000000
v -0.398324 0.050264 -0.076000
vn 0.000000 0.000000 0.000000
v -0.407691 0.045776 -0.076000
vn 0.000000 0.000000 0.000000
v -0.459886 -0.013385 -0.060000
vn 0.000000 0.000000 0.000000
v -0.460702 0.006937 0.060000
vn 0.000000 0.000000 0.000000
v -0.456431 0.026821 -0.060000
vn 0.000000 0.000000 0.000000
v -0.454034 -0.032863 0.060000
vn 0.000000 0.000000 0.000000
v -0.411378 -0.074676 -0.060000
vn 0.000000 0.000000 0.000000
v -0.443514 -0.050269 -0.060000
vn 0.000000 0.000000 0.000000
v -0.435465 -0.007723 -0.075000
vn 0.000000 0.000000 0.000000
v -0.414368 -0.041001 -0.076000
vn 0.000000 0.000000 0.000000
v -0.433403 0.003214 -0.076000
vn 0.000000 0.000000 0.000000
v -0.050631 -0.016655 -0.088000
vn 0.000000 0.000000 0.000000
v 0.012835 0.051937 0.088000
vn 0.000000 0.000000 0.000000
v -0.001036 0.055990 0.087000
vn 0.000000 0.000000 0.000000
v 0.029499 -0.044633 0.088000
vn 0.000000 0.000000 0.000000
v 0.169666 -0.012548 0.061267
vn 0.000000 0.000000 0.000000
v -0.003754 0.080415 0.072298
vn 0.000000 0.000000 0.000000
v -0.388582 0.052807 0.076000
vn 0.000000 0.000000 0.000000
v -0.414421 0.044172 0.075000
vn 0.000000 0.000000 0.000000
v -0.401044 0.051895 0.075000
vn 0.000000 0.000000 0.000000
v 0.003122 -0.055913 0.087000
vn 0.000000 0.000000 0.000000
v 0.025420 -0.076908 -0.064000
vn 0.000000 0.000000 0.000000
v 0.153597 -0.028852 0.060614
vn 0.000000 0.000000 0.000000
v 0.162157 -0.023434 0.061017
vn 0.000000 0.000000 0.000000
v -0.010892 -0.052175 -0.088000
vn 0.000000 0.000000 0.000000
v -0.381061 -0.053489 -0.076000
vn 0.000000 0.000000 0.000000
v 0.003122 -0.055913 -0.087000
vn 0.000000 0.000000 0.000000
v 0.173098 0.000302 0.048993
vn 0.000000 0.000000 0.000000
v 0.170692 -0.012889 0.050508
vn 0.000000 0.000000 0.000000
v 0.078476 -0.020064 -0.072000
vn 0.000000 0.000000 0.000000
v 0.172427 -0.006375 0.049150
vn 0.000000 0.000000 0.000000
v 0.046479 -0.033852 -0.086100
vn 0.000000 0.000000 0.000000
v 0.048264 -0.022617 -0.088000
vn 0.000000 0.000000 0.000000
v 0.157836 -0.026939 0.050955
vn 0.000000 0.000000 0.000000
v 0.164880 -0.021446 0.059743
vn 0.000000 0.000000 0.000000
v 0.165665 -0.020480 0.050159
vn 0.000000 0.000000 0.000000
v 0.163271 -0.022904 0.050238
vn 0.000000 0.000000 0.000000
v 0.030368 -0.047051 -0.087000
vn 0.000000 0.000000 0.000000
v 0.170316 -0.012750 0.049308
vn 0.000000 0.000000 0.000000
v 0.017785 -0.054680 -0.086100
vn 0.000000 0.000000 0.000000
v 0.016655 -0.050631 -0.088000
vn 0.000000 0.000000 0.000000
v -0.010672 0.052221 -0.088000
vn 0.000000 0.000000 0.000000
v -0.050560 0.016868 -0.088000
vn 0.000000 0.000000 0.000000
v -0.425793 0.027664 -0.076000
vn 0.000000 0.000000 0.000000
v -0.429754 0.052963 -0.065000
vn 0.000000 0.000000 0.000000
v -0.414604 0.063899 -0.065000
vn 0.000000 0.000000 0.000000
v -0.417264 0.071919 -0.060000
vn 0.000000 0.000000 0.000000
v -0.004261 0.057841 -0.085801
vn 0.000000 0.000000 0.000000
v -0.385111 0.055896 -0.074923
vn 0.000000 0.000000 0.000000
v -0.002819 0.080822 -0.072077
vn 0.000000 0.000000 0.000000
v 0.026793 0.049175 -0.087000
vn 0.000000 0.000000 0.000000
v 0.004769 0.053086 -0.088000
vn 0.000000 0.000000 0.000000
v 0.019269 0.078675 -0.072000
vn 0.000000 0.000000 0.000000
v 0.166473 0.019014 0.048520
vn 0.000000 0.000000 0.000000
v 0.166332 0.019816 0.058716
vn 0.000000 0.000000 0.000000
v 0.048789 0.051582 -0.078000
vn 0.000000 0.000000 0.000000
v 0.046479 0.033852 -0.086100
vn 0.000000 0.000000 0.000000
v 0.035521 0.039739 -0.088000
vn 0.000000 0.000000 0.000000
v 0.159205 0.026112 0.049483
vn 0.000000 0.000000 0.000000
v 0.152472 0.029350 0.058327
vn 0.000000 0.000000 0.000000
v 0.026779 0.076445 0.000004
vn 0.000000 0.000000 0.000000
v 0.173195 0.003717 0.049554
vn 0.000000 0.000000 0.000000
v 0.173346 -0.003072 0.050272
vn 0.000000 0.000000 0.000000
v 0.170760 0.011701 0.060126
vn 0.000000 0.000000 0.000000
v 0.172291 0.006981 0.048835
vn 0.000000 0.000000 0.000000
v 0.077481 0.023614 -0.072000
vn 0.000000 0.000000 0.000000
v 0.170392 0.013528 0.049877
vn 0.000000 0.000000 0.000000
v 0.054631 -0.012306 -0.087000
vn 0.000000 0.000000 0.000000
v 0.050631 0.016655 -0.088000
vn 0.000000 0.000000 0.000000
v 0.047608 0.029486 -0.087000
vn 0.000000 0.000000 0.000000
v 0.006077 0.057178 -0.086100
vn 0.000000 0.000000 0.000000
v 0.038754 0.071127 0.072000
vn 0.000000 0.000000 0.000000
v 0.173352 0.001927 0.059720
vn 0.000000 0.000000 0.000000
v 0.037085 0.038562 0.088000
vn 0.000000 0.000000 0.000000
v 0.052969 0.007517 0.088000
vn 0.000000 0.000000 0.000000
v -0.011755 -0.052193 0.088000
vn 0.000000 0.000000 0.000000
v -0.433457 -0.002154 0.076000
vn 0.000000 0.000000 0.000000
v -0.428335 0.022935 0.076000
vn 0.000000 0.000000 0.000000
v -0.051397 0.014853 0.088000
vn 0.000000 0.000000 0.000000
v -0.425801 -0.027649 0.076000
vn 0.000000 0.000000 0.000000
v -0.052193 -0.011755 0.088000
vn 0.000000 0.000000 0.000000
v -0.027678 -0.045784 0.088000
vn 0.000000 0.000000 0.000000
v -0.039323 0.036276 0.088000
vn 0.000000 0.000000 0.000000
v -0.407649 0.045801 0.076000
vn 0.000000 0.000000 0.000000
v -0.017960 0.050395 0.088000
vn 0.000000 0.000000 0.000000
v -0.382966 -0.057774 -0.073890
vn 0.000000 0.000000 0.000000
v -0.003754 -0.080415 -0.072298
vn 0.000000 0.000000 0.000000
v -0.002500 -0.061156 -0.083876
vn 0.000000 0.000000 0.000000
v -0.385111 -0.055896 -0.074923
vn 0.000000 0.000000 0.000000
v -0.401044 -0.051895 -0.075000
vn 0.000000 0.000000 0.000000
v -0.386067 -0.055670 0.075000
vn 0.000000 0.000000 0.000000
v -0.424562 -0.067640 0.060000
vn 0.000000 0.000000 0.000000
v -0.391787 -0.080138 0.060000
vn 0.000000 0.000000 0.000000
v -0.003798 -0.079005 0.073142
vn 0.000000 0.000000 0.000000
v -0.456431 0.026821 0.060000
vn 0.000000 0.000000 0.000000
v -0.425179 0.033089 0.075000
vn 0.000000 0.000000 0.000000
v -0.435465 0.007723 0.075000
vn 0.000000 0.000000 0.000000
v -0.439454 0.055012 -0.052000
vn 0.000000 0.000000 0.000000
v -0.434004 0.060370 -0.060000
vn 0.000000 0.000000 0.000000
v -0.392204 0.080075 -0.052000
vn 0.000000 0.000000 0.000000
v -0.398174 0.078935 -0.052000
vn 0.000000 0.000000 0.000000
v -0.394390 0.079712 0.052000
vn 0.000000 0.000000 0.000000
v -0.386429 0.080744 -0.052000
vn 0.000000 0.000000 0.000000
v -0.382500 0.072624 -0.065000
vn 0.000000 0.000000 0.000000
v -0.414392 0.040981 -0.076000
vn 0.000000 0.000000 0.000000
v -0.030489 0.043718 -0.088000
vn 0.000000 0.000000 0.000000
v -0.460925 0.003491 -0.060000
vn 0.000000 0.000000 0.000000
v -0.457359 0.024010 -0.060000
vn 0.000000 0.000000 0.000000
v -0.458240 -0.020964 -0.052000
vn 0.000000 0.000000 0.000000
v -0.459886 -0.013385 0.060000
vn 0.000000 0.000000 0.000000
v -0.405841 -0.076767 -0.060000
vn 0.000000 0.000000 0.000000
v -0.440337 -0.054041 -0.060000
vn 0.000000 0.000000 0.000000
v -0.452122 -0.036869 0.060000
vn 0.000000 0.000000 0.000000
v -0.428550 -0.031455 -0.073890
vn 0.000000 0.000000 0.000000
v -0.431245 -0.022581 -0.075000
vn 0.000000 0.000000 0.000000
v -0.420981 -0.034392 -0.076000
vn 0.000000 0.000000 0.000000
v -0.405798 -0.046869 -0.076000
vn 0.000000 0.000000 0.000000
v -0.030673 -0.043589 -0.088000
vn 0.000000 0.000000 0.000000
v -0.432687 -0.009294 -0.076000
vn 0.000000 0.000000 0.000000
v -0.043718 -0.030489 -0.088000
vn 0.000000 0.000000 0.000000
v 0.013322 0.054392 0.087000
vn 0.000000 0.000000 0.000000
v -0.001077 0.053489 0.088000
vn 0.000000 0.000000 0.000000
v 0.002500 0.070956 0.078000
vn 0.000000 0.000000 0.000000
v -0.382966 0.057774 0.073890
vn 0.000000 0.000000 0.000000
v 0.017321 -0.053254 0.087000
vn 0.000000 0.000000 0.000000
v 0.171128 -0.004503 0.061301
vn 0.000000 0.000000 0.000000
v 0.042114 -0.032995 0.088000
vn 0.000000 0.000000 0.000000
v 0.171804 -0.009840 0.059992
vn 0.000000 0.000000 0.000000
v -0.002819 0.080822 0.072077
vn 0.000000 0.000000 0.000000
v -0.012835 0.051937 0.088000
vn 0.000000 0.000000 0.000000
v -0.397166 0.070610 0.065000
vn 0.000000 0.000000 0.000000
v -0.417264 0.071919 0.060000
vn 0.000000 0.000000 0.000000
v -0.414604 0.063899 0.065000
vn 0.000000 0.000000 0.000000
v 0.004261 -0.057841 0.085801
vn 0.000000 0.000000 0.000000
v 0.002500 -0.070956 0.078000
vn 0.000000 0.000000 0.000000
v -0.002500 -0.061156 0.083876
vn 0.000000 0.000000 0.000000
v -0.005119 -0.057401 0.086023
vn 0.000000 0.000000 0.000000
v 0.156705 -0.027456 0.060536
vn 0.000000 0.000000 0.000000
v 0.159674 -0.025802 0.059898
vn 0.000000 0.000000 0.000000
v 0.166276 -0.018171 0.061422
vn 0.000000 0.000000 0.000000
v 0.156278 -0.026566 0.061734
vn 0.000000 0.000000 0.000000
v -0.016868 -0.050560 -0.088000
vn 0.000000 0.000000 0.000000
v 0.002500 -0.070956 -0.078000
vn 0.000000 0.000000 0.000000
v 0.004261 -0.057841 -0.085801
vn 0.000000 0.000000 0.000000
v 0.173265 -0.003078 0.049712
vn 0.000000 0.000000 0.000000
v 0.169102 -0.015912 0.050586
vn 0.000000 0.000000 0.000000
v 0.071837 -0.037422 -0.072000
vn 0.000000 0.000000 0.000000
v 0.049665 -0.025872 -0.087000
vn 0.000000 0.000000 0.000000
v 0.060200 -0.037643 -0.078000
vn 0.000000 0.000000 0.000000
v 0.041394 -0.037716 -0.087000
vn 0.000000 0.000000 0.000000
v 0.167100 -0.018856 0.059665
vn 0.000000 0.000000 0.000000
v 0.165734 -0.020522 0.050719
vn 0.000000 0.000000 0.000000
v 0.160636 -0.025040 0.050316
vn 0.000000 0.000000 0.000000
v 0.031182 -0.048311 -0.086100
vn 0.000000 0.000000 0.000000
v 0.168744 -0.015732 0.049387
vn 0.000000 0.000000 0.000000
v 0.170614 -0.012869 0.049948
vn 0.000000 0.000000 0.000000
v 0.021961 -0.067518 -0.078000
vn 0.000000 0.000000 0.000000
v 0.004545 -0.053106 -0.088000
vn 0.000000 0.000000 0.000000
v 0.022413 -0.048359 -0.088000
vn 0.000000 0.000000 0.000000
v -0.432692 0.009263 -0.076000
vn 0.000000 0.000000 0.000000
v -0.043589 0.030673 -0.088000
vn 0.000000 0.000000 0.000000
v -0.425179 0.033089 -0.075000
vn 0.000000 0.000000 0.000000
v -0.002967 0.059279 -0.084988
vn 0.000000 0.000000 0.000000
v -0.001792 0.080980 -0.072000
vn 0.000000 0.000000 0.000000
v 0.022617 0.048264 -0.088000
vn 0.000000 0.000000 0.000000
v 0.035383 0.045324 -0.086100
vn 0.000000 0.000000 0.000000
v 0.010892 0.052175 -0.088000
vn 0.000000 0.000000 0.000000
v 0.016890 0.068962 -0.078000
vn 0.000000 0.000000 0.000000
v 0.021989 0.077958 0.002948
vn 0.000000 0.000000 0.000000
v 0.168411 0.016275 0.048598
vn 0.000000 0.000000 0.000000
v 0.168734 0.016513 0.049798
vn 0.000000 0.000000 0.000000
v 0.166768 0.019286 0.049720
vn 0.000000 0.000000 0.000000
v 0.164021 0.022307 0.058639
vn 0.000000 0.000000 0.000000
v 0.161976 0.024117 0.049562
vn 0.000000 0.000000 0.000000
v 0.155577 0.028009 0.058964
vn 0.000000 0.000000 0.000000
v 0.026093 0.076682 0.002065
vn 0.000000 0.000000 0.000000
v 0.173458 -0.001495 0.059238
vn 0.000000 0.000000 0.000000
v 0.170142 0.011461 0.060686
vn 0.000000 0.000000 0.000000
v 0.172673 0.007102 0.050035
vn 0.000000 0.000000 0.000000
v 0.170045 0.013326 0.048677
vn 0.000000 0.000000 0.000000
v 0.052556 0.023326 -0.086100
vn 0.000000 0.000000 0.000000
v 0.053567 0.016326 -0.087000
vn 0.000000 0.000000 0.000000
v 0.171149 0.011830 0.058929
vn 0.000000 0.000000 0.000000
v 0.050560 -0.016868 -0.088000
vn 0.000000 0.000000 0.000000
v 0.053106 0.004545 -0.088000
vn 0.000000 0.000000 0.000000
v 0.054212 0.028413 -0.083876
vn 0.000000 0.000000 0.000000
v 0.047962 0.032610 -0.085801
vn 0.000000 0.000000 0.000000
v 0.043718 0.030489 -0.088000
vn 0.000000 0.000000 0.000000
v 0.002967 0.059279 -0.084988
vn 0.000000 0.000000 0.000000
v 0.021561 0.053305 0.086100
vn 0.000000 0.000000 0.000000
v 0.172711 -0.004773 0.060512
vn 0.000000 0.000000 0.000000
v 0.172629 0.005267 0.060280
vn 0.000000 0.000000 0.000000
v 0.173436 0.001918 0.059161
vn 0.000000 0.000000 0.000000
v 0.031272 0.043409 0.088000
vn 0.000000 0.000000 0.000000
v -0.014853 -0.051397 0.088000
vn 0.000000 0.000000 0.000000
v -0.053229 0.005378 0.088000
vn 0.000000 0.000000 0.000000
v -0.424030 0.030391 0.076000
vn 0.000000 0.000000 0.000000
v -0.431388 0.014885 0.076000
vn 0.000000 0.000000 0.000000
v -0.048787 0.021957 0.088000
vn 0.000000 0.000000 0.000000
v -0.426846 -0.025840 0.076000
vn 0.000000 0.000000 0.000000
v -0.045784 -0.027678 0.088000
vn 0.000000 0.000000 0.000000
v -0.421441 -0.033836 0.076000
vn 0.000000 0.000000 0.000000
v -0.051397 -0.014853 0.088000
vn 0.000000 0.000000 0.000000
v -0.432419 -0.010701 0.076000
vn 0.000000 0.000000 0.000000
v -0.034663 -0.040752 0.088000
vn 0.000000 0.000000 0.000000
v -0.405840 -0.046846 0.076000
vn 0.000000 0.000000 0.000000
v -0.037085 0.038562 0.088000
vn 0.000000 0.000000 0.000000
v -0.412140 0.042770 0.076000
vn 0.000000 0.000000 0.000000
v -0.405840 0.046846 0.076000
vn 0.000000 0.000000 0.000000
v -0.002819 -0.080822 -0.072077
vn 0.000000 0.000000 0.000000
v -0.002967 -0.059279 -0.084988
vn 0.000000 0.000000 0.000000
v -0.384255 -0.056336 -0.074702
vn 0.000000 0.000000 0.000000
v -0.424562 -0.067640 -0.060000
vn 0.000000 0.000000 0.000000
v -0.401044 -0.051895 0.075000
vn 0.000000 0.000000 0.000000
v -0.385111 -0.055896 0.074923
vn 0.000000 0.000000 0.000000
v -0.428991 -0.064505 0.060000
vn 0.000000 0.000000 0.000000
v -0.415670 -0.072723 0.040000
vn 0.000000 0.000000 0.000000
v -0.403183 -0.068870 0.065000
vn 0.000000 0.000000 0.000000
v -0.382966 -0.057774 0.073890
vn 0.000000 0.000000 0.000000
v -0.003754 -0.080415 0.072298
vn 0.000000 0.000000 0.000000
v -0.444144 0.034147 0.065000
vn 0.000000 0.000000 0.000000
v -0.449401 0.021540 0.065000
vn 0.000000 0.000000 0.000000
v -0.448680 0.042943 0.060000
vn 0.000000 0.000000 0.000000
v -0.435459 0.059036 0.060000
vn 0.000000 0.000000 0.000000
v -0.452599 0.003131 0.065000
vn 0.000000 0.000000 0.000000
v -0.433490 0.001045 0.076000
vn 0.000000 0.000000 0.000000
v -0.446618 0.046077 -0.052000
vn 0.000000 0.000000 0.000000
v -0.429219 0.064331 -0.052000
vn 0.000000 0.000000 0.000000
v -0.435459 0.059036 -0.060000
vn 0.000000 0.000000 0.000000
v -0.398460 0.078869 -0.052000
vn 0.000000 0.000000 0.000000
v -0.392204 0.080075 0.052000
vn 0.000000 0.000000 0.000000
v -0.398174 0.078935 0.052000
vn 0.000000 0.000000 0.000000
v -0.386429 0.080744 0.052000
vn 0.000000 0.000000 0.000000
v -0.022413 0.048359 -0.088000
vn 0.000000 0.000000 0.000000
v -0.035352 0.039889 -0.088000
vn 0.000000 0.000000 0.000000
v -0.435465 0.007723 -0.075000
vn 0.000000 0.000000 0.000000
v -0.431245 0.022581 -0.075000
vn 0.000000 0.000000 0.000000
v -0.459140 -0.017260 -0.060000
vn 0.000000 0.000000 0.000000
v -0.458240 -0.020964 0.052000
vn 0.000000 0.000000 0.000000
v -0.450998 -0.015484 0.065000
vn 0.000000 0.000000 0.000000
v -0.411378 -0.074676 0.060000
vn 0.000000 0.000000 0.000000
v -0.403183 -0.068870 -0.065000
vn 0.000000 0.000000 0.000000
v -0.414421 -0.044172 -0.075000
vn 0.000000 0.000000 0.000000
v -0.452122 -0.036869 -0.060000
vn 0.000000 0.000000 0.000000
v -0.443514 -0.050269 0.060000
vn 0.000000 0.000000 0.000000
v -0.425179 -0.033089 -0.075000
vn 0.000000 0.000000 0.000000
v -0.035521 -0.039739 -0.088000
vn 0.000000 0.000000 0.000000
v -0.412982 -0.042124 -0.076000
vn 0.000000 0.000000 0.000000
v -0.433227 -0.005394 -0.076000
vn 0.000000 0.000000 0.000000
v -0.430264 -0.018324 -0.076000
vn 0.000000 0.000000 0.000000
v -0.048359 -0.022413 -0.088000
vn 0.000000 0.000000 0.000000
v -0.424624 -0.029512 -0.076000
vn 0.000000 0.000000 0.000000
v 0.015916 0.051078 0.088000
vn 0.000000 0.000000 0.000000
v 0.016890 0.068962 0.078000
vn 0.000000 0.000000 0.000000
v 0.007517 0.052969 0.088000
vn 0.000000 0.000000 0.000000
v -0.381044 0.053490 0.076000
vn 0.000000 0.000000 0.000000
v 0.002967 0.059279 0.084988
vn 0.000000 0.000000 0.000000
v -0.384255 0.056336 0.074702
vn 0.000000 0.000000 0.000000
v -0.002967 0.059279 0.084988
vn 0.000000 0.000000 0.000000
v 0.017785 -0.054680 0.086100
vn 0.000000 0.000000 0.000000
v 0.014853 -0.051397 0.088000
vn 0.000000 0.000000 0.000000
v 0.169986 -0.009192 0.061418
vn 0.000000 0.000000 0.000000
v 0.053489 -0.001077 0.088000
vn 0.000000 0.000000 0.000000
v 0.171449 -0.001350 0.061224
vn 0.000000 0.000000 0.000000
v 0.170261 -0.012839 0.060707
vn 0.000000 0.000000 0.000000
v 0.170620 -0.013037 0.059510
vn 0.000000 0.000000 0.000000
v 0.171939 -0.009710 0.050429
vn 0.000000 0.000000 0.000000
v -0.001792 0.080980 0.072000
vn 0.000000 0.000000 0.000000
v -0.014853 0.051397 0.088000
vn 0.000000 0.000000 0.000000
v 0.005119 -0.057401 0.086023
vn 0.000000 0.000000 0.000000
v 0.002500 -0.061156 0.083876
vn 0.000000 0.000000 0.000000
v -0.002967 -0.059279 0.084988
vn 0.000000 0.000000 0.000000
v 0.159639 -0.025725 0.060458
vn 0.000000 0.000000 0.000000
v 0.162396 -0.023766 0.059820
vn 0.000000 0.000000 0.000000
v 0.164605 -0.021142 0.060940
vn 0.000000 0.000000 0.000000
v 0.046862 -0.025812 0.088000
vn 0.000000 0.000000 0.000000
v 0.161741 -0.022918 0.061577
vn 0.000000 0.000000 0.000000
v 0.030368 -0.047051 0.087000
vn 0.000000 0.000000 0.000000
v 0.156570 -0.027161 0.061173
vn 0.000000 0.000000 0.000000
v 0.002500 -0.061156 -0.083876
vn 0.000000 0.000000 0.000000
v 0.005119 -0.057401 -0.086023
vn 0.000000 0.000000 0.000000
v 0.172743 -0.006426 0.049790
vn 0.000000 0.000000 0.000000
v 0.062700 -0.033313 -0.078000
vn 0.000000 0.000000 0.000000
v 0.052222 -0.025231 -0.085801
vn 0.000000 0.000000 0.000000
v 0.051712 -0.032743 -0.083876
vn 0.000000 0.000000 0.000000
v 0.052482 -0.047819 -0.078000
vn 0.000000 0.000000 0.000000
v 0.043589 -0.030673 -0.088000
vn 0.000000 0.000000 0.000000
v 0.169022 -0.016038 0.059587
vn 0.000000 0.000000 0.000000
v 0.167849 -0.017841 0.050640
vn 0.000000 0.000000 0.000000
v 0.157784 -0.026876 0.050395
vn 0.000000 0.000000 0.000000
v 0.160694 -0.025097 0.050876
vn 0.000000 0.000000 0.000000
v 0.038503 -0.059654 -0.078000
vn 0.000000 0.000000 0.000000
v 0.169026 -0.015883 0.050027
vn 0.000000 0.000000 0.000000
v 0.010672 -0.052221 -0.088000
vn 0.000000 0.000000 0.000000
v 0.030489 -0.043718 -0.088000
vn 0.000000 0.000000 0.000000
v -0.430275 0.018294 -0.076000
vn 0.000000 0.000000 0.000000
v -0.052175 0.010892 -0.088000
vn 0.000000 0.000000 0.000000
v -0.003798 0.079005 -0.073142
vn 0.000000 0.000000 0.000000
v -0.002500 0.061156 -0.083876
vn 0.000000 0.000000 0.000000
v -0.002500 0.070956 -0.078000
vn 0.000000 0.000000 0.000000
v 0.020642 0.078326 -0.001543
vn 0.000000 0.000000 0.000000
v 0.023542 0.077503 0.003352
vn 0.000000 0.000000 0.000000
v 0.021667 0.078048 -0.002744
vn 0.000000 0.000000 0.000000
v 0.168673 0.016459 0.049238
vn 0.000000 0.000000 0.000000
v 0.168359 0.017089 0.058794
vn 0.000000 0.000000 0.000000
v 0.164511 0.021829 0.049641
vn 0.000000 0.000000 0.000000
v 0.161436 0.024540 0.058561
vn 0.000000 0.000000 0.000000
v 0.163716 0.022033 0.059836
vn 0.000000 0.000000 0.000000
v 0.152432 0.029274 0.058886
vn 0.000000 0.000000 0.000000
v 0.155426 0.027722 0.059602
vn 0.000000 0.000000 0.000000
v 0.026643 0.076493 -0.000962
vn 0.000000 0.000000 0.000000
v 0.025828 0.076772 -0.002375
vn 0.000000 0.000000 0.000000
v 0.165481 0.019164 0.060473
vn 0.000000 0.000000 0.000000
v 0.051078 0.015916 0.088000
vn 0.000000 0.000000 0.000000
v 0.172599 0.007070 0.049475
vn 0.000000 0.000000 0.000000
v 0.173273 0.003741 0.050114
vn 0.000000 0.000000 0.000000
v 0.171639 0.010337 0.049396
vn 0.000000 0.000000 0.000000
v 0.048359 0.022413 -0.088000
vn 0.000000 0.000000 0.000000
v 0.171066 0.011811 0.059489
vn 0.000000 0.000000 0.000000
v 0.172271 0.008620 0.059006
vn 0.000000 0.000000 0.000000
v 0.052175 -0.010892 -0.088000
vn 0.000000 0.000000 0.000000
v 0.052221 0.010672 -0.088000
vn 0.000000 0.000000 0.000000
v 0.062700 0.033313 -0.078000
vn 0.000000 0.000000 0.000000
v 0.052821 0.027070 -0.084988
vn 0.000000 0.000000 0.000000
v 0.047151 0.033134 -0.086023
vn 0.000000 0.000000 0.000000
v 0.049853 0.032209 -0.084988
vn 0.000000 0.000000 0.000000
v 0.004261 0.057841 -0.085801
vn 0.000000 0.000000 0.000000
v 0.002500 0.061156 -0.083876
vn 0.000000 0.000000 0.000000
v 0.173052 -0.001446 0.060435
vn 0.000000 0.000000 0.000000
v 0.172320 -0.008144 0.059951
vn 0.000000 0.000000 0.000000
v 0.173029 -0.004839 0.059875
vn 0.000000 0.000000 0.000000
v 0.172059 -0.004656 0.061072
vn 0.000000 0.000000 0.000000
v 0.172952 0.005307 0.059643
vn 0.000000 0.000000 0.000000
v 0.171974 0.005167 0.060840
vn 0.000000 0.000000 0.000000
v 0.173375 -0.001477 0.059798
vn 0.000000 0.000000 0.000000
v 0.160747 0.023718 0.060317
vn 0.000000 0.000000 0.000000
v -0.400970 -0.049219 0.076000
vn 0.000000 0.000000 0.000000
v -0.012835 -0.051937 0.088000
vn 0.000000 0.000000 0.000000
v -0.051937 0.012835 0.088000
vn 0.000000 0.000000 0.000000
v -0.426846 0.025840 0.076000
vn 0.000000 0.000000 0.000000
v -0.431245 0.022581 0.075000
vn 0.000000 0.000000 0.000000
v -0.429862 -0.025490 0.075000
vn 0.000000 0.000000 0.000000
v -0.038562 -0.037085 0.088000
vn 0.000000 0.000000 0.000000
v -0.425179 -0.033089 0.075000
vn 0.000000 0.000000 0.000000
v -0.051937 -0.012835 0.088000
vn 0.000000 0.000000 0.000000
v -0.408594 -0.045218 0.076000
vn 0.000000 0.000000 0.000000
v -0.038562 0.037085 0.088000
vn 0.000000 0.000000 0.000000
v -0.404863 0.047372 0.076000
vn 0.000000 0.000000 0.000000
v -0.025812 0.046862 0.088000
vn 0.000000 0.000000 0.000000
v -0.002500 -0.070956 -0.078000
vn 0.000000 0.000000 0.000000
v -0.004261 -0.057841 -0.085801
vn 0.000000 0.000000 0.000000
v -0.419977 -0.060682 -0.065000
vn 0.000000 0.000000 0.000000
v -0.384247 -0.056342 0.074699
vn 0.000000 0.000000 0.000000
v -0.414421 -0.044172 0.075000
vn 0.000000 0.000000 0.000000
v -0.425000 -0.067350 -0.037500
vn 0.000000 0.000000 0.000000
v -0.417500 -0.071797 -0.041830
vn 0.000000 0.000000 0.000000
v -0.002819 -0.080822 0.072077
vn 0.000000 0.000000 0.000000
v -0.427482 0.029689 0.075000
vn 0.000000 0.000000 0.000000
v -0.448680 0.042943 -0.060000
vn 0.000000 0.000000 0.000000
v -0.429754 0.052963 0.065000
vn 0.000000 0.000000 0.000000
v -0.439454 0.055012 0.052000
vn 0.000000 0.000000 0.000000
v -0.435465 -0.007723 0.075000
vn 0.000000 0.000000 0.000000
v -0.433490 -0.001045 0.076000
vn 0.000000 0.000000 0.000000
v -0.429219 0.064331 0.052000
vn 0.000000 0.000000 0.000000
v -0.435915 0.058605 -0.052000
vn 0.000000 0.000000 0.000000
v -0.452599 0.003131 -0.065000
vn 0.000000 0.000000 0.000000
v -0.449401 0.021540 -0.065000
vn 0.000000 0.000000 0.000000
v -0.427482 0.029689 -0.075000
vn 0.000000 0.000000 0.000000
v -0.450998 -0.015484 -0.065000
vn 0.000000 0.000000 0.000000
v -0.459140 -0.017260 0.060000
vn 0.000000 0.000000 0.000000
v -0.415000 -0.073048 -0.037500
vn 0.000000 0.000000 0.000000
v -0.417500 -0.071797 0.041830
vn 0.000000 0.000000 0.000000
v -0.419977 -0.060682 0.065000
vn 0.000000 0.000000 0.000000
v -0.441644 -0.038477 -0.065000
vn 0.000000 0.000000 0.000000
v -0.429862 -0.025490 -0.075000
vn 0.000000 0.000000 0.000000
v -0.434129 -0.048482 -0.065000
vn 0.000000 0.000000 0.000000
v -0.053106 -0.004545 -0.088000
vn 0.000000 0.000000 0.000000
v 0.014853 0.051397 0.088000
vn 0.000000 0.000000 0.000000
v 0.023904 0.047863 0.088000
vn 0.000000 0.000000 0.000000
v 0.002500 0.061156 0.083876
vn 0.000000 0.000000 0.000000
v 0.004261 0.057841 0.085801
vn 0.000000 0.000000 0.000000
v -0.385111 0.055896 0.074923
vn 0.000000 0.000000 0.000000
v -0.004261 0.057841 0.085801
vn 0.000000 0.000000 0.000000
v -0.003798 0.079005 0.073142
vn 0.000000 0.000000 0.000000
v -0.002500 0.061156 0.083876
vn 0.000000 0.000000 0.000000
v 0.021961 -0.067518 0.078000
vn 0.000000 0.000000 0.000000
v 0.021957 -0.048787 0.088000
vn 0.000000 0.000000 0.000000
v 0.005378 -0.053229 0.088000
vn 0.000000 0.000000 0.000000
v 0.052624 -0.009644 0.088000
vn 0.000000 0.000000 0.000000
v 0.051397 -0.014853 0.088000
vn 0.000000 0.000000 0.000000
v 0.171423 0.001842 0.061146
vn 0.000000 0.000000 0.000000
v 0.171502 -0.009722 0.060629
vn 0.000000 0.000000 0.000000
v 0.168688 -0.015801 0.060784
vn 0.000000 0.000000 0.000000
v 0.170549 -0.012990 0.060069
vn 0.000000 0.000000 0.000000
v 0.171880 -0.009880 0.059433
vn 0.000000 0.000000 0.000000
v 0.171859 -0.009698 0.049869
vn 0.000000 0.000000 0.000000
v -0.002500 0.070956 0.078000
vn 0.000000 0.000000 0.000000
v 0.002967 -0.059279 0.084988
vn 0.000000 0.000000 0.000000
v 0.162353 -0.023693 0.060380
vn 0.000000 0.000000 0.000000
v 0.164828 -0.021378 0.060302
vn 0.000000 0.000000 0.000000
v 0.168128 -0.015447 0.061344
vn 0.000000 0.000000 0.000000
v 0.159472 -0.025446 0.061095
vn 0.000000 0.000000 0.000000
v 0.164136 -0.020674 0.061500
vn 0.000000 0.000000 0.000000
v 0.036276 -0.039323 0.088000
vn 0.000000 0.000000 0.000000
v 0.159117 -0.024887 0.061655
vn 0.000000 0.000000 0.000000
v 0.021561 -0.053305 0.086100
vn 0.000000 0.000000 0.000000
v 0.043926 -0.068056 0.072000
vn 0.000000 0.000000 0.000000
v 0.002967 -0.059279 -0.084988
vn 0.000000 0.000000 0.000000
v 0.172824 -0.006429 0.050350
vn 0.000000 0.000000 0.000000
v 0.054212 -0.028413 -0.083876
vn 0.000000 0.000000 0.000000
v 0.052271 -0.024267 -0.086023
vn 0.000000 0.000000 0.000000
v 0.052821 -0.027070 -0.084988
vn 0.000000 0.000000 0.000000
v 0.047962 -0.032610 -0.085801
vn 0.000000 0.000000 0.000000
v 0.039739 -0.035521 -0.088000
vn 0.000000 0.000000 0.000000
v 0.167042 -0.018794 0.060224
vn 0.000000 0.000000 0.000000
v 0.020275 0.078422 -0.000000
vn 0.000000 0.000000 0.000000
v 0.024699 0.077142 -0.003130
vn 0.000000 0.000000 0.000000
v 0.023146 0.077623 -0.003327
vn 0.000000 0.000000 0.000000
v 0.020834 0.078275 0.001874
vn 0.000000 0.000000 0.000000
v 0.170326 0.013480 0.049317
vn 0.000000 0.000000 0.000000
v 0.169881 0.014527 0.058862
vn 0.000000 0.000000 0.000000
v 0.158621 0.026473 0.058483
vn 0.000000 0.000000 0.000000
v 0.163952 0.022256 0.059198
vn 0.000000 0.000000 0.000000
v 0.158383 0.026139 0.059680
vn 0.000000 0.000000 0.000000
v 0.026726 0.076464 0.000602
vn 0.000000 0.000000 0.000000
v 0.038562 0.037085 0.088000
vn 0.000000 0.000000 0.000000
v 0.167442 0.016533 0.060550
vn 0.000000 0.000000 0.000000
v 0.165999 0.019577 0.059913
vn 0.000000 0.000000 0.000000
v 0.047863 0.023904 0.088000
vn 0.000000 0.000000 0.000000
v 0.171710 0.010377 0.049956
vn 0.000000 0.000000 0.000000
v 0.171870 0.008535 0.060203
vn 0.000000 0.000000 0.000000
v 0.172187 0.008610 0.059566
vn 0.000000 0.000000 0.000000
v 0.052222 0.025231 -0.085801
vn 0.000000 0.000000 0.000000
v 0.051712 0.032743 -0.083876
vn 0.000000 0.000000 0.000000
v 0.005119 0.057401 -0.086023
vn 0.000000 0.000000 0.000000
v 0.173027 0.001922 0.060358
vn 0.000000 0.000000 0.000000
v 0.172011 -0.008043 0.060589
vn 0.000000 0.000000 0.000000
v 0.172390 -0.001401 0.060995
vn 0.000000 0.000000 0.000000
v 0.170878 -0.009498 0.061189
vn 0.000000 0.000000 0.000000
v 0.170467 -0.007602 0.061378
vn 0.000000 0.000000 0.000000
v 0.171230 0.008364 0.060763
vn 0.000000 0.000000 0.000000
v 0.163246 0.021565 0.060395
vn 0.000000 0.000000 0.000000
v -0.425801 0.027649 0.076000
vn 0.000000 0.000000 0.000000
v -0.430916 -0.024484 0.074702
vn 0.000000 0.000000 0.000000
v -0.431245 -0.022581 0.075000
vn 0.000000 0.000000 0.000000
v -0.040752 -0.034663 0.088000
vn 0.000000 0.000000 0.000000
v -0.434129 -0.048482 0.065000
vn 0.000000 0.000000 0.000000
v -0.441644 -0.038477 0.065000
vn 0.000000 0.000000 0.000000
v -0.425852 -0.032374 0.074923
vn 0.000000 0.000000 0.000000
v -0.407649 -0.045801 0.076000
vn 0.000000 0.000000 0.000000
v -0.424825 -0.067466 -0.036190
vn 0.000000 0.000000 0.000000
v -0.425000 -0.067350 0.037500
vn 0.000000 0.000000 0.000000
v -0.002500 -0.070956 0.078000
vn 0.000000 0.000000 0.000000
v -0.431516 0.026318 0.073890
vn 0.000000 0.000000 0.000000
v -0.441644 0.038477 0.065000
vn 0.000000 0.000000 0.000000
v -0.426661 0.031853 0.074702
vn 0.000000 0.000000 0.000000
v -0.428550 0.031455 0.073890
vn 0.000000 0.000000 0.000000
v -0.444144 0.034147 -0.065000
vn 0.000000 0.000000 0.000000
v -0.437952 0.056592 0.052000
vn 0.000000 0.000000 0.000000
v -0.446618 0.046077 0.052000
vn 0.000000 0.000000 0.000000
v -0.430963 0.023522 -0.074923
vn 0.000000 0.000000 0.000000
v -0.428550 0.031455 -0.073890
vn 0.000000 0.000000 0.000000
v -0.415000 -0.073048 0.037500
vn 0.000000 0.000000 0.000000
v -0.416479 -0.072320 -0.041051
vn 0.000000 0.000000 0.000000
v -0.416479 -0.072321 0.041050
vn 0.000000 0.000000 0.000000
v -0.420000 -0.070434 -0.042500
vn 0.000000 0.000000 0.000000
v -0.425852 -0.032374 -0.074923
vn 0.000000 0.000000 0.000000
v -0.430916 -0.024484 -0.074702
vn 0.000000 0.000000 0.000000
v -0.430406 -0.031989 -0.072780
vn 0.000000 0.000000 0.000000
v -0.444144 -0.034147 -0.065000
vn 0.000000 0.000000 0.000000
v -0.052221 -0.010672 -0.088000
vn 0.000000 0.000000 0.000000
v 0.005119 0.057401 0.086023
vn 0.000000 0.000000 0.000000
v 0.012835 -0.051937 0.088000
vn 0.000000 0.000000 0.000000
v 0.168813 -0.012146 0.061495
vn 0.000000 0.000000 0.000000
v 0.051937 0.012835 0.088000
vn 0.000000 0.000000 0.000000
v 0.166794 -0.018585 0.060862
vn 0.000000 0.000000 0.000000
v 0.172397 -0.008179 0.059392
vn 0.000000 0.000000 0.000000
v 0.050395 -0.017960 0.088000
vn 0.000000 0.000000 0.000000
v 0.038562 -0.037085 0.088000
vn 0.000000 0.000000 0.000000
v 0.031182 -0.048311 0.086100
vn 0.000000 0.000000 0.000000
v 0.062968 -0.032802 -0.078000
vn 0.000000 0.000000 0.000000
v 0.049853 -0.032209 -0.084988
vn 0.000000 0.000000 0.000000
v 0.047151 -0.033134 -0.086023
vn 0.000000 0.000000 0.000000
v 0.020298 0.078416 0.000397
vn 0.000000 0.000000 0.000000
v 0.024883 0.077083 0.003051
vn 0.000000 0.000000 0.000000
v 0.158565 0.026409 0.059042
vn 0.000000 0.000000 0.000000
v 0.166259 0.019773 0.059276
vn 0.000000 0.000000 0.000000
v 0.161163 0.024234 0.059758
vn 0.000000 0.000000 0.000000
v 0.168002 0.016887 0.059990
vn 0.000000 0.000000 0.000000
v 0.060200 0.037643 -0.078000
vn 0.000000 0.000000 0.000000
v 0.171375 -0.007855 0.061149
vn 0.000000 0.000000 0.000000
v 0.171044 0.005011 0.061069
vn 0.000000 0.000000 0.000000
v 0.038481 0.040684 0.087000
vn 0.000000 0.000000 0.000000
v -0.444702 -0.033076 0.065000
vn 0.000000 0.000000 0.000000
v -0.430963 -0.023522 0.074923
vn 0.000000 0.000000 0.000000
v -0.428550 -0.031455 0.073890
vn 0.000000 0.000000 0.000000
v -0.424825 -0.067466 -0.038811
vn 0.000000 0.000000 0.000000
v -0.424825 -0.067466 0.038810
vn 0.000000 0.000000 0.000000
v -0.432906 0.027658 0.072780
vn 0.000000 0.000000 0.000000
v -0.430916 0.024484 0.074702
vn 0.000000 0.000000 0.000000
v -0.441614 0.038525 0.065000
vn 0.000000 0.000000 0.000000
v -0.425852 0.032374 0.074923
vn 0.000000 0.000000 0.000000
v -0.441644 0.038477 -0.065000
vn 0.000000 0.000000 0.000000
v -0.435915 0.058605 0.052000
vn 0.000000 0.000000 0.000000
v -0.431516 0.026318 -0.073890
vn 0.000000 0.000000 0.000000
v -0.430406 0.031989 -0.072780
vn 0.000000 0.000000 0.000000
v -0.426661 0.031853 -0.074702
vn 0.000000 0.000000 0.000000
v -0.415173 -0.072965 0.038804
vn 0.000000 0.000000 0.000000
v -0.415670 -0.072723 -0.040000
vn 0.000000 0.000000 0.000000
v -0.416479 -0.072320 0.033950
vn 0.000000 0.000000 0.000000
v -0.420000 -0.070434 0.042500
vn 0.000000 0.000000 0.000000
v -0.426661 -0.031853 -0.074702
vn 0.000000 0.000000 0.000000
v -0.431516 -0.026318 -0.073890
vn 0.000000 0.000000 0.000000
v -0.430963 -0.023522 -0.074923
vn 0.000000 0.000000 0.000000
v -0.432906 -0.027658 -0.072780
vn 0.000000 0.000000 0.000000
v 0.037085 -0.038562 0.088000
vn 0.000000 0.000000 0.000000
v 0.038503 -0.059654 0.078000
vn 0.000000 0.000000 0.000000
v 0.161374 0.024482 0.059120
vn 0.000000 0.000000 0.000000
v 0.051397 0.014853 0.088000
vn 0.000000 0.000000 0.000000
v -0.444144 -0.034147 0.065000
vn 0.000000 0.000000 0.000000
v -0.426661 -0.031853 0.074702
vn 0.000000 0.000000 0.000000
v -0.430406 -0.031989 0.072780
vn 0.000000 0.000000 0.000000
v -0.430406 0.031989 0.072780
vn 0.000000 0.000000 0.000000
v -0.441614 0.038525 -0.065000
vn 0.000000 0.000000 0.000000
v -0.430916 0.024484 -0.074702
vn 0.000000 0.000000 0.000000
v -0.432906 0.027658 -0.072780
vn 0.000000 0.000000 0.000000
v -0.425852 0.032374 -0.074923
vn 0.000000 0.000000 0.000000
v -0.415173 -0.072965 -0.038804
vn 0.000000 0.000000 0.000000
v -0.422500 -0.068955 -0.041830
vn 0.000000 0.000000 0.000000
v -0.444702 -0.033076 -0.065000
vn 0.000000 0.000000 0.000000
v -0.432906 -0.027658 0.072780
vn 0.000000 0.000000 0.000000
v -0.415173 -0.072965 -0.036196
vn 0.000000 0.000000 0.000000
v -0.422500 -0.068955 0.041830
vn 0.000000 0.000000 0.000000
v -0.424330 -0.067793 -0.040000
vn 0.000000 0.000000 0.000000
v -0.424330 -0.067793 0.040000
# 684 vertices, 0 vertices normals

f 56//56 9//9 32//32
f 56//56 50//50 9//9
f 56//56 14//14 50//50
f 58//58 32//32 9//9
f 63//63 35//35 10//10
f 63//63 17//17 35//35
f 63//63 59//59 17//17
f 63//63 10//10 59//59
f 67//67 7//7 37//37
f 68//68 37//37 7//7
f 78//78 43//43 15//15
f 78//78 29//29 5//5
f 78//78 5//5 43//43
f 84//84 17//17 59//59
f 91//91 25//25 13//13
f 91//91 13//13 48//48
f 93//93 49//49 27//27
f 93//93 27//27 75//75
f 94//94 27//27 49//49
f 94//94 9//9 27//27
f 95//95 50//50 27//27
f 99//99 53//53 9//9
f 99//99 9//9 94//94
f 99//99 94//94 49//49
f 99//99 49//49 93//93
f 99//99 93//93 5//5
f 99//99 5//5 29//29
f 101//101 54//54 30//30
f 101//101 30//30 55//55
f 105//105 57//57 32//32
f 106//106 57//57 16//16
f 111//111 81//81 82//82
f 114//114 38//38 21//21
f 117//117 65//65 11//11
f 117//117 36//36 65//65
f 123//123 101//101 55//55
f 123//123 68//68 7//7
f 123//123 7//7 101//101
f 125//125 21//21 38//38
f 125//125 38//38 119//119
f 125//125 66//66 69//69
f 126//126 69//69 66//66
f 126//126 11//11 69//69
f 126//126 117//117 11//11
f 127//127 35//35 4//4
f 127//127 4//4 70//70
f 128//128 70//70 4//4
f 128//128 4//4 8//8
f 129//129 128//128 89//89
f 139//139 78//78 15//15
f 140//140 79//79 41//41
f 145//145 82//82 81//81
f 147//147 13//13 25//25
f 148//148 25//25 8//8
f 148//148 8//8 4//4
f 148//148 45//45 83//83
f 149//149 84//84 45//45
f 149//149 45//45 17//17
f 149//149 17//17 84//84
f 150//150 84//84 59//59
f 150//150 34//34 84//84
f 150//150 108//108 34//34
f 150//150 59//59 108//108
f 151//151 84//84 34//34
f 151//151 61//61 84//84
f 153//153 80//80 85//85
f 166//166 25//25 91//91
f 167//167 48//48 92//92
f 168//168 82//82 145//145
f 169//169 92//92 48//48
f 170//170 41//41 79//79
f 171//171 9//9 50//50
f 171//171 50//50 95//95
f 171//171 95//95 27//27
f 171//171 27//27 9//9
f 172//172 50//50 14//14
f 172//172 96//96 27//27
f 172//172 27//27 50//50
f 174//174 97//97 28//28
f 174//174 3//3 97//97
f 175//175 97//97 3//3
f 175//175 3//3 51//51
f 175//175 139//139 97//97
f 175//175 51//51 139//139
f 176//176 100//100 51//51
f 176//176 51//51 3//3
f 176//176 107//107 53//53
f 177//177 101//101 7//7
f 177//177 7//7 67//67
f 177//177 67//67 120//120
f 177//177 54//54 101//101
f 180//180 30//30 54//54
f 180//180 179//179 30//30
f 180//180 102//102 179//179
f 183//183 14//14 56//56
f 183//183 56//56 32//32
f 185//185 106//106 33//33
f 185//185 57//57 106//106
f 186//186 32//32 57//57
f 186//186 185//185 104//104
f 186//186 57//57 185//185
f 187//187 58//58 107//107
f 189//189 107//107 58//58
f 189//189 53//53 107//107
f 191//191 108//108 59//59
f 191//191 59//59 10//10
f 192//192 6//6 109//109
f 193//193 109//109 6//6
f 195//195 84//84 61//61
f 195//195 61//61 111//111
f 196//196 45//45 84//84
f 196//196 195//195 111//111
f 196//196 84//84 195//195
f 197//197 112//112 62//62
f 197//197 35//35 112//112
f 198//198 112//112 35//35
f 198//198 35//35 17//17
f 199//199 113//113 148//148
f 200//200 114//114 21//21
f 200//200 64//64 114//114
f 200//200 118//118 115//115
f 200//200 125//125 69//69
f 200//200 21//21 125//125
f 201//201 10//10 35//35
f 201//201 35//35 114//114
f 202//202 70//70 128//128
f 202//202 128//128 129//129
f 203//203 116//116 65//65
f 203//203 65//65 36//36
f 205//205 11//11 65//65
f 205//205 65//65 118//118
f 206//206 118//118 65//65
f 206//206 65//65 116//116
f 207//207 118//118 39//39
f 207//207 115//115 118//118
f 208//208 119//119 22//22
f 208//208 125//125 119//119
f 208//208 66//66 125//125
f 209//209 119//119 71//71
f 209//209 22//22 119//119
f 210//210 119//119 38//38
f 210//210 71//71 119//119
f 211//211 120//120 67//67
f 211//211 2//2 120//120
f 212//212 120//120 2//2
f 214//214 67//67 37//37
f 214//214 37//37 122//122
f 214//214 211//211 67//67
f 215//215 122//122 37//37
f 217//217 123//123 55//55
f 217//217 19//19 123//123
f 217//217 179//179 103//103
f 217//217 55//55 30//30
f 217//217 30//30 179//179
f 219//219 116//116 20//20
f 219//219 39//39 118//118
f 219//219 118//118 206//206
f 220//220 114//114 35//35
f 220//220 70//70 202//202
f 221//221 47//47 130//130
f 225//225 140//140 41//41
f 225//225 23//23 140//140
f 235//235 138//138 78//78
f 235//235 78//78 51//51
f 236//236 78//78 138//138
f 238//238 139//139 51//51
f 238//238 78//78 139//139
f 239//239 28//28 97//97
f 239//239 97//97 139//139
f 240//240 140//140 23//23
f 240//240 79//79 140//140
f 242//242 15//15 43//43
f 242//242 43//43 240//240
f 244//244 154//154 80//80
f 245//245 42//42 168//168
f 246//246 80//80 153//153
f 248//248 111//111 61//61
f 248//248 61//61 194//194
f 249//249 83//83 45//45
f 249//249 45//45 146//146
f 250//250 146//146 45//45
f 251//251 249//249 146//146
f 252//252 148//148 83//83
f 253//253 148//148 113//113
f 253//253 113//113 62//62
f 253//253 62//62 112//112
f 253//253 112//112 198//198
f 253//253 198//198 17//17
f 253//253 17//17 45//45
f 253//253 45//45 148//148
f 254//254 110//110 61//61
f 254//254 61//61 151//151
f 254//254 60//60 110//110
f 255//255 254//254 151//151
f 256//256 153//153 85//85
f 256//256 1//1 153//153
f 256//256 158//158 152//152
f 257//257 85//85 80//80
f 257//257 80//80 154//154
f 259//259 256//256 152//152
f 259//259 1//1 256//256
f 260//260 156//156 239//239
f 260//260 242//242 141//141
f 260//260 15//15 242//242
f 261//261 86//86 157//157
f 266//266 98//98 28//28
f 266//266 28//28 239//239
f 267//267 98//98 266//266
f 269//269 52//52 265//265
f 271//271 163//163 48//48
f 271//271 167//167 26//26
f 272//272 128//128 8//8
f 272//272 8//8 163//163
f 273//273 166//166 91//91
f 274//274 170//170 75//75
f 278//278 25//25 166//166
f 279//279 167//167 92//92
f 279//279 26//26 167//167
f 280//280 169//169 48//48
f 280//280 48//48 13//13
f 280//280 13//13 169//169
f 281//281 169//169 13//13
f 281//281 196//196 111//111
f 281//281 111//111 82//82
f 281//281 13//13 45//45
f 281//281 45//45 196//196
f 282//282 82//82 168//168
f 282//282 168//168 169//169
f 282//282 281//281 82//82
f 282//282 169//169 281//281
f 283//283 170//170 93//93
f 284//284 5//5 93//93
f 286//286 170//170 79//79
f 286//286 79//79 142//142
f 286//286 142//142 170//170
f 287//287 172//172 14//14
f 287//287 96//96 172//172
f 288//288 287//287 14//14
f 288//288 14//14 183//183
f 291//291 174//174 28//28
f 291//291 28//28 98//98
f 292//292 99//99 29//29
f 293//293 99//99 176//176
f 294//294 177//177 120//120
f 294//294 54//54 177//177
f 294//294 120//120 212//212
f 296//296 179//179 102//102
f 296//296 188//188 16//16
f 296//296 102//102 188//188
f 296//296 103//103 179//179
f 297//297 217//217 103//103
f 298//298 16//16 57//57
f 298//298 57//57 181//181
f 299//299 187//187 31//31
f 299//299 105//105 187//187
f 299//299 297//297 181//181
f 301//301 184//184 104//104
f 301//301 104//104 185//185
f 301//301 300//300 184//184
f 301//301 185//185 33//33
f 302//302 32//32 186//186
f 303//303 187//187 105//105
f 303//303 58//58 187//187
f 304//304 106//106 16//16
f 304//304 16//16 188//188
f 304//304 33//33 106//106
f 305//305 188//188 102//102
f 305//305 178//178 295//295
f 306//306 189//189 58//58
f 306//306 58//58 9//9
f 306//306 9//9 53//53
f 306//306 53//53 189//189
f 307//307 176//176 3//3
f 308//308 187//187 107//107
f 308//308 107//107 190//190
f 309//309 18//18 160//160
f 310//310 193//193 110//110
f 310//310 110//110 60//60
f 310//310 109//109 193//193
f 311//311 110//110 193//193
f 311//311 194//194 61//61
f 311//311 61//61 110//110
f 312//312 35//35 197//197
f 312//312 197//197 62//62
f 313//313 4//4 35//35
f 313//313 199//199 148//148
f 313//313 148//148 4//4
f 314//314 200//200 115//115
f 314//314 64//64 200//200
f 315//315 200//200 69//69
f 315//315 118//118 200//200
f 315//315 205//205 118//118
f 315//315 69//69 11//11
f 315//315 11//11 205//205
f 316//316 201//201 114//114
f 316//316 114//114 64//64
f 317//317 202//202 38//38
f 317//317 38//38 114//114
f 317//317 220//220 202//202
f 317//317 114//114 220//220
f 318//318 129//129 71//71
f 319//319 20//20 116//116
f 319//319 116//116 203//203
f 321//321 36//36 117//117
f 321//321 320//320 36//36
f 323//323 126//126 66//66
f 323//323 66//66 208//208
f 324//324 22//22 209//209
f 326//326 212//212 2//2
f 326//326 131//131 212//212
f 329//329 215//215 20//20
f 329//329 122//122 215//215
f 329//329 20//20 319//319
f 330//330 124//124 20//20
f 330//330 219//219 124//124
f 330//330 20//20 215//215
f 331//331 215//215 37//37
f 331//331 37//37 68//68
f 331//331 330//330 215//215
f 331//331 68//68 123//123
f 331//331 219//219 330//330
f 333//333 297//297 182//182
f 333//333 217//217 297//297
f 334//334 123//123 19//19
f 335//335 219//219 20//20
f 337//337 39//39 219//219
f 338//338 127//127 70//70
f 339//339 221//221 71//71
f 339//339 47//47 221//221
f 339//339 71//71 270//270
f 342//342 121//121 222//222
f 342//342 326//326 2//2
f 346//346 232//232 42//42
f 346//346 77//77 232//232
f 346//346 42//42 245//245
f 347//347 246//246 134//134
f 348//348 347//347 228//228
f 348//348 227//227 347//347
f 349//349 135//135 76//76
f 350//350 349//349 229//229
f 350//350 135//135 349//349
f 351//351 350//350 229//229
f 352//352 76//76 135//135
f 353//353 230//230 12//12
f 353//353 12//12 226//226
f 353//353 76//76 352//352
f 354//354 74//74 136//136
f 355//355 133//133 231//231
f 357//357 137//137 233//233
f 357//357 233//233 168//168
f 357//357 168//168 42//42
f 357//357 356//356 137//137
f 357//357 42//42 356//356
f 358//358 169//169 168//168
f 358//358 168//168 233//233
f 359//359 29//29 78//78
f 359//359 78//78 236//236
f 359//359 236//236 237//237
f 360//360 138//138 235//235
f 360//360 237//237 236//236
f 360//360 236//236 138//138
f 360//360 235//235 51//51
f 360//360 176//176 237//237
f 361//361 238//238 51//51
f 361//361 51//51 78//78
f 361//361 78//78 238//238
f 363//363 240//240 23//23
f 364//364 240//240 43//43
f 364//364 79//79 240//240
f 365//365 261//261 87//87
f 365//365 86//86 261//261
f 367//367 242//242 240//240
f 367//367 141//141 242//242
f 367//367 363//363 141//141
f 367//367 240//240 363//363
f 368//368 79//79 43//43
f 368//368 43//43 243//243
f 369//369 243//243 43//43
f 371//371 244//244 80//80
f 371//371 80//80 246//246
f 372//372 244//244 370//370
f 373//373 44//44 245//245
f 374//374 246//246 153//153
f 374//374 153//153 1//1
f 375//375 134//134 246//246
f 375//375 345//345 134//134
f 375//375 12//12 345//345
f 376//376 247//247 24//24
f 377//377 81//81 111//111
f 377//377 111//111 248//248
f 378//378 248//248 194//194
f 378//378 311//311 24//24
f 378//378 194//194 311//311
f 378//378 24//24 247//247
f 378//378 247//247 144//144
f 378//378 373//373 145//145
f 378//378 145//145 248//248
f 379//379 250//250 45//45
f 379//379 45//45 13//13
f 380//380 251//251 13//13
f 380//380 13//13 147//147
f 380//380 249//249 251//251
f 380//380 147//147 83//83
f 380//380 83//83 249//249
f 381//381 13//13 251//251
f 381//381 251//251 146//146
f 381//381 146//146 250//250
f 381//381 379//379 13//13
f 381//381 250//250 379//379
f 382//382 147//147 25//25
f 382//382 148//148 252//252
f 382//382 252//252 83//83
f 382//382 83//83 147//147
f 382//382 25//25 148//148
f 383//383 255//255 151//151
f 383//383 151//151 34//34
f 383//383 34//34 108//108
f 384//384 60//60 254//254
f 384//384 254//254 255//255
f 385//385 160//160 158//158
f 385//385 309//309 160//160
f 385//385 85//85 257//257
f 386//386 193//193 6//6
f 387//387 46//46 258//258
f 387//387 264//264 46//46
f 388//388 258//258 46//46
f 388//388 46//46 155//155
f 390//390 260//260 141//141
f 390//390 156//156 260//260
f 390//390 141//141 363//363
f 391//391 260//260 239//239
f 391//391 239//239 139//139
f 391//391 139//139 15//15
f 391//391 15//15 260//260
f 392//392 87//87 261//261
f 392//392 265//265 159//159
f 392//392 266//266 239//239
f 393//393 262//262 155//155
f 393//393 155//155 46//46
f 394//394 157//157 86//86
f 394//394 393//393 157//157
f 394//394 262//262 393//393
f 395//395 265//265 392//392
f 396//396 265//265 52//52
f 396//396 159//159 265//265
f 397//397 267//267 266//266
f 397//397 392//392 159//159
f 397//397 266//266 392//392
f 397//397 396//396 267//267
f 397//397 159//159 396//396
f 398//398 268//268 158//158
f 398//398 158//158 160//160
f 399//399 268//268 161//161
f 399//399 88//88 264//264
f 399//399 264//264 158//158
f 399//399 158//158 268//268
f 400//400 399//399 161//161
f 400//400 88//88 399//399
f 401//401 269//269 265//265
f 401//401 265//265 395//395
f 401//401 400//400 269//269
f 401//401 88//88 400//400
f 402//402 339//339 270//270
f 402//402 47//47 339//339
f 403//403 270//270 71//71
f 403//403 71//71 129//129
f 403//403 129//129 89//89
f 403//403 89//89 270//270
f 404//404 270//270 89//89
f 404//404 89//89 163//163
f 404//404 163//163 271//271
f 404//404 162//162 270//270
f 405//405 271//271 48//48
f 405//405 48//48 167//167
f 405//405 167//167 271//271
f 406//406 128//128 272//272
f 407//407 273//273 91//91
f 409//409 274//274 75//75
f 413//413 412//412 275//275
f 413//413 224//224 412//412
f 415//415 295//295 178//178
f 417//417 8//8 25//25
f 417//417 25//25 278//278
f 417//417 163//163 8//8
f 418//418 279//279 92//92
f 418//418 92//92 234//234
f 419//419 170//170 283//283
f 419//419 283//283 93//93
f 419//419 93//93 75//75
f 419//419 75//75 170//170
f 420//420 5//5 284//284
f 420//420 284//284 93//93
f 420//420 170//170 285//285
f 420//420 285//285 5//5
f 421//421 285//285 170//170
f 421//421 170//170 142//142
f 421//421 368//368 243//243
f 421//421 142//142 79//79
f 421//421 79//79 368//368
f 421//421 369//369 285//285
f 421//421 243//243 369//369
f 422//422 287//287 288//288
f 423//423 104//104 184//184
f 423//423 422//422 288//288
f 425//425 276//276 289//289
f 426//426 173//173 424//424
f 428//428 96//96 287//287
f 428//428 287//287 422//422
f 429//429 99//99 292//292
f 429//429 292//292 29//29
f 429//429 237//237 176//176
f 429//429 29//29 237//237
f 430//430 99//99 293//293
f 430//430 293//293 176//176
f 430//430 176//176 53//53
f 430//430 53//53 99//99
f 431//431 180//180 54//54
f 431//431 54//54 294//294
f 432//432 296//296 16//16
f 432//432 16//16 297//297
f 434//434 297//297 16//16
f 434//434 16//16 298//298
f 435//435 299//299 181//181
f 435//435 181//181 57//57
f 435//435 57//57 105//105
f 435//435 105//105 299//299
f 436//436 182//182 297//297
f 436//436 297//297 299//299
f 437//437 415//415 72//72
f 437//437 295//295 415//415
f 438//438 301//301 33//33
f 438//438 300//300 301//301
f 438//438 437//437 300//300
f 438//438 295//295 437//437
f 439//439 302//302 183//183
f 439//439 183//183 32//32
f 439//439 32//32 302//302
f 440//440 302//302 186//186
f 440//440 186//186 104//104
f 440//440 104//104 423//423
f 440//440 423//423 288//288
f 440//440 288//288 183//183
f 440//440 183//183 302//302
f 441//441 303//303 105//105
f 441//441 105//105 32//32
f 441//441 32//32 58//58
f 441//441 58//58 303//303
f 442//442 33//33 304//304
f 442//442 305//305 295//295
f 442//442 438//438 33//33
f 442//442 295//295 438//438
f 442//442 304//304 188//188
f 442//442 188//188 305//305
f 443//443 190//190 107//107
f 443//443 107//107 176//176
f 443//443 176//176 307//307
f 444//444 31//31 187//187
f 444//444 187//187 308//308
f 445//445 6//6 192//192
f 445//445 386//386 6//6
f 445//445 309//309 385//385
f 445//445 385//385 386//386
f 446//446 18//18 309//309
f 446//446 445//445 192//192
f 446//446 309//309 445//445
f 447//447 312//312 62//62
f 447//447 62//62 113//113
f 447//447 113//113 312//312
f 448//448 35//35 312//312
f 448//448 312//312 113//113
f 448//448 113//113 199//199
f 449//449 313//313 35//35
f 449//449 199//199 313//313
f 449//449 448//448 199//199
f 449//449 35//35 448//448
f 451//451 318//318 71//71
f 452//452 38//38 202//202
f 452//452 202//202 450//450
f 453//453 319//319 203//203
f 453//453 203//203 36//36
f 453//453 36//36 320//320
f 453//453 320//320 216//216
f 454//454 204//204 73//73
f 454//454 321//321 204//204
f 454//454 320//320 321//321
f 455//455 321//321 117//117
f 455//455 322//322 204//204
f 455//455 204//204 321//321
f 455//455 323//323 322//322
f 455//455 117//117 126//126
f 455//455 126//126 323//323
f 456//456 323//323 208//208
f 456//456 322//322 323//323
f 458//458 324//324 209//209
f 458//458 209//209 71//71
f 458//458 71//71 324//324
f 459//459 324//324 71//71
f 459//459 71//71 221//221
f 460//460 210//210 38//38
f 460//460 38//38 325//325
f 460//460 325//325 71//71
f 461//461 325//325 38//38
f 461//461 38//38 71//71
f 461//461 71//71 325//325
f 464//464 214//214 122//122
f 464//464 211//211 214//214
f 465//465 328//328 121//121
f 465//465 121//121 342//342
f 465//465 464//464 328//328
f 465//465 211//211 464//464
f 465//465 342//342 2//2
f 465//465 2//2 211//211
f 466//466 122//122 329//329
f 466//466 464//464 122//122
f 466//466 328//328 464//464
f 467//467 331//331 218//218
f 467//467 219//219 331//331
f 467//467 337//337 219//219
f 468//468 73//73 213//213
f 469//469 121//121 328//328
f 470//470 19//19 217//217
f 470//470 217//217 333//333
f 471//471 331//331 123//123
f 471//471 123//123 334//334
f 471//471 218//218 331//331
f 472//472 335//335 20//20
f 472//472 20//20 124//124
f 473//473 219//219 335//335
f 473//473 335//335 472//472
f 474//474 116//116 336//336
f 474//474 336//336 219//219
f 474//474 219//219 206//206
f 474//474 206//206 116//116
f 475//475 336//336 116//116
f 475//475 219//219 336//336
f 476//476 35//35 338//338
f 476//476 338//338 70//70
f 477//477 338//338 35//35
f 477//477 35//35 127//127
f 477//477 127//127 338//338
f 480//480 131//131 326//326
f 480//480 479//479 131//131
f 481//481 340//340 478//478
f 482//482 222//222 121//121
f 482//482 121//121 469//469
f 483//483 40//40 341//341
f 484//484 342//342 222//222
f 484//484 326//326 342//342
f 484//484 222//222 478//478
f 484//484 480//480 326//326
f 484//484 478//478 340//340
f 484//484 340//340 480//480
f 485//485 130//130 47//47
f 485//485 47//47 343//343
f 486//486 344//344 133//133
f 486//486 23//23 344//344
f 486//486 133//133 355//355
f 486//486 363//363 23//23
f 486//486 355//355 363//363
f 487//487 344//344 23//23
f 487//487 23//23 225//225
f 488//488 134//134 345//345
f 488//488 347//347 134//134
f 488//488 228//228 347//347
f 489//489 348//348 77//77
f 489//489 227//227 348//348
f 490//490 347//347 227//227
f 490//490 489//489 143//143
f 490//490 227//227 489//489
f 490//490 246//246 347//347
f 490//490 371//371 246//246
f 490//490 244//244 371//371
f 490//490 370//370 244//244
f 490//490 143//143 370//370
f 491//491 229//229 349//349
f 492//492 351//351 136//136
f 492//492 136//136 74//74
f 493//493 136//136 351//351
f 493//493 351//351 229//229
f 494//494 353//353 352//352
f 494//494 230//230 353//353
f 495//495 354//354 136//136
f 495//495 231//231 354//354
f 496//496 356//356 42//42
f 496//496 42//42 232//232
f 497//497 92//92 169//169
f 497//497 169//169 358//358
f 497//497 234//234 92//92
f 498//498 358//358 233//233
f 498//498 233//233 137//137
f 498//498 497//497 358//358
f 498//498 234//234 497//497
f 499//499 359//359 237//237
f 499//499 237//237 29//29
f 499//499 29//29 359//359
f 500//500 100//100 176//176
f 500//500 51//51 100//100
f 500//500 176//176 360//360
f 500//500 360//360 51//51
f 501//501 239//239 156//156
f 501//501 156//156 362//362
f 501//501 392//392 239//239
f 501//501 362//362 87//87
f 501//501 87//87 392//392
f 502//502 364//364 43//43
f 502//502 43//43 79//79
f 502//502 79//79 364//364
f 503//503 86//86 365//365
f 503//503 495//495 136//136
f 503//503 136//136 493//493
f 503//503 363//363 355//355
f 504//504 87//87 362//362
f 505//505 362//362 156//156
f 506//506 369//369 43//43
f 506//506 43//43 5//5
f 506//506 285//285 369//369
f 507//507 143//143 489//489
f 507//507 346//346 245//245
f 508//508 372//372 44//44
f 508//508 44//44 24//24
f 508//508 154//154 244//244
f 508//508 244//244 372//372
f 509//509 373//373 245//245
f 509//509 245//245 168//168
f 509//509 168//168 145//145
f 509//509 145//145 373//373
f 510//510 44//44 373//373
f 510//510 247//247 376//376
f 511//511 246//246 374//374
f 511//511 374//374 1//1
f 511//511 1//1 259//259
f 511//511 259//259 389//389
f 511//511 353//353 226//226
f 512//512 226//226 12//12
f 512//512 12//12 375//375
f 512//512 511//511 226//226
f 512//512 375//375 246//246
f 512//512 246//246 511//511
f 513//513 145//145 81//81
f 513//513 81//81 377//377
f 513//513 377//377 248//248
f 513//513 248//248 145//145
f 514//514 378//378 144//144
f 515//515 385//385 158//158
f 515//515 158//158 256//256
f 515//515 256//256 85//85
f 515//515 85//85 385//385
f 516//516 257//257 154//154
f 516//516 154//154 386//386
f 516//516 386//386 385//385
f 516//516 385//385 257//257
f 517//517 311//311 193//193
f 518//518 387//387 152//152
f 518//518 152//152 158//158
f 518//518 158//158 264//264
f 518//518 264//264 387//387
f 519//519 388//388 155//155
f 519//519 389//389 259//259
f 519//519 259//259 152//152
f 519//519 152//152 387//387
f 519//519 387//387 258//258
f 519//519 258//258 388//388
f 521//521 390//390 241//241
f 522//522 390//390 363//363
f 522//522 241//241 390//390
f 522//522 363//363 503//503
f 522//522 503//503 365//365
f 522//522 365//365 241//241
f 523//523 157//157 393//393
f 524//524 264//264 88//88
f 524//524 88//88 401//401
f 525//525 261//261 157//157
f 525//525 157//157 395//395
f 525//525 395//395 392//392
f 525//525 392//392 261//261
f 526//526 398//398 160//160
f 526//526 160//160 18//18
f 526//526 268//268 398//398
f 527//527 402//402 270//270
f 527//527 270//270 162//162
f 528//528 343//343 47//47
f 528//528 47//47 402//402
f 529//529 406//406 272//272
f 529//529 272//272 163//163
f 529//529 163//163 406//406
f 530//530 406//406 163//163
f 530//530 128//128 406//406
f 531//531 407//407 91//91
f 531//531 91//91 48//48
f 531//531 48//48 163//163
f 531//531 163//163 407//407
f 532//532 407//407 163//163
f 532//532 273//273 407//407
f 532//532 408//408 273//273
f 532//532 163//163 408//408
f 533//533 408//408 166//166
f 533//533 166//166 273//273
f 533//533 273//273 408//408
f 534//534 278//278 166//166
f 534//534 166//166 408//408
f 534//534 408//408 163//163
f 535//535 409//409 75//75
f 535//535 75//75 27//27
f 536//536 410//410 274//274
f 536//536 427//427 164//164
f 537//537 41//41 170//170
f 538//538 90//90 411//411
f 538//538 275//275 412//412
f 539//539 411//411 90//90
f 540//540 413//413 40//40
f 540//540 224//224 413//413
f 540//540 40//40 483//483
f 541//541 165//165 414//414
f 541//541 414//414 277//277
f 541//541 277//277 479//479
f 543//543 72//72 415//415
f 543//543 277//277 414//414
f 543//543 542//542 72//72
f 543//543 414//414 542//542
f 544//544 415//415 178//178
f 544//544 178//178 416//416
f 544//544 543//543 415//415
f 544//544 277//277 543//543
f 545//545 305//305 102//102
f 545//545 416//416 178//178
f 545//545 178//178 305//305
f 545//545 431//431 416//416
f 545//545 102//102 180//180
f 545//545 180//180 431//431
f 546//546 417//417 278//278
f 546//546 163//163 417//417
f 546//546 534//534 163//163
f 546//546 278//278 534//534
f 547//547 420//420 93//93
f 547//547 93//93 170//170
f 547//547 170//170 420//420
f 548//548 423//423 184//184
f 548//548 422//422 423//423
f 549//549 184//184 300//300
f 549//549 548//548 184//184
f 549//549 424//424 173//173
f 549//549 173//173 548//548
f 550//550 425//425 289//289
f 550//550 289//289 542//542
f 550//550 542//542 414//414
f 550//550 414//414 165//165
f 551//551 290//290 428//428
f 551//551 428//428 422//422
f 551//551 548//548 173//173
f 551//551 422//422 548//548
f 552//552 426//426 424//424
f 552//552 289//289 276//276
f 554//554 164//164 427//427
f 554//554 427//427 290//290
f 554//554 553//553 164//164
f 554//554 426//426 553//553
f 554//554 290//290 551//551
f 554//554 551//551 173//173
f 554//554 173//173 426//426
f 555//555 274//274 409//409
f 555//555 536//536 274//274
f 555//555 427//427 536//536
f 555//555 409//409 535//535
f 555//555 535//535 27//27
f 556//556 555//555 27//27
f 556//556 428//428 290//290
f 556//556 27//27 96//96
f 556//556 96//96 428//428
f 557//557 429//429 176//176
f 557//557 176//176 99//99
f 557//557 99//99 429//429
f 558//558 431//431 294//294
f 558//558 294//294 212//212
f 558//558 212//212 131//131
f 558//558 416//416 431//431
f 559//559 432//432 297//297
f 559//559 296//296 432//432
f 560//560 296//296 433//433
f 560//560 433//433 297//297
f 560//560 297//297 103//103
f 560//560 103//103 296//296
f 561//561 433//433 296//296
f 561//561 297//297 433//433
f 563//563 436//436 299//299
f 563//563 299//299 31//31
f 564//564 437//437 72//72
f 564//564 300//300 437//437
f 564//564 549//549 300//300
f 564//564 424//424 549//549
f 565//565 450//450 202//202
f 565//565 202//202 129//129
f 566//566 451//451 71//71
f 566//566 38//38 451//451
f 567//567 451//451 38//38
f 567//567 318//318 451//451
f 567//567 452//452 318//318
f 567//567 38//38 452//452
f 568//568 452//452 450//450
f 568//568 450//450 129//129
f 568//568 129//129 318//318
f 568//568 318//318 452//452
f 569//569 329//329 319//319
f 569//569 319//319 453//453
f 569//569 453//453 216//216
f 569//569 466//466 329//329
f 570//570 216//216 320//320
f 570//570 320//320 454//454
f 570//570 332//332 216//216
f 570//570 468//468 332//332
f 570//570 454//454 73//73
f 570//570 73//73 468//468
f 571//571 456//456 208//208
f 571//571 208//208 22//22
f 572//572 322//322 456//456
f 573//573 459//459 221//221
f 573//573 221//221 130//130
f 573//573 324//324 459//459
f 573//573 130//130 485//485
f 574//574 460//460 71//71
f 574//574 71//71 210//210
f 574//574 210//210 460//460
f 575//575 462//462 223//223
f 576//576 132//132 327//327
f 576//576 575//575 132//132
f 576//576 462//462 575//575
f 577//577 457//457 462//462
f 577//577 462//462 576//576
f 577//577 572//572 457//457
f 578//578 327//327 132//132
f 579//579 216//216 332//332
f 579//579 569//569 216//216
f 579//579 466//466 569//569
f 579//579 332//332 469//469
f 579//579 469//469 328//328
f 579//579 328//328 466//466
f 580//580 468//468 213//213
f 580//580 483//483 341//341
f 581//581 469//469 332//332
f 581//581 332//332 468//468
f 581//581 468//468 580//580
f 581//581 482//482 469//469
f 581//581 580//580 341//341
f 581//581 341//341 482//482
f 582//582 124//124 219//219
f 582//582 219//219 473//473
f 582//582 473//473 472//472
f 582//582 472//472 124//124
f 583//583 219//219 475//475
f 584//584 220//220 35//35
f 584//584 35//35 476//476
f 584//584 476//476 70//70
f 584//584 70//70 220//220
f 585//585 341//341 40//40
f 585//585 478//478 222//222
f 585//585 482//482 341//341
f 585//585 222//222 482//482
f 586//586 480//480 340//340
f 586//586 479//479 480//480
f 586//586 541//541 479//479
f 587//587 481//481 478//478
f 587//587 585//585 40//40
f 587//587 478//478 585//585
f 587//587 40//40 413//413
f 587//587 413//413 275//275
f 587//587 275//275 481//481
f 588//588 165//165 541//541
f 588//588 541//541 586//586
f 589//589 481//481 275//275
f 589//589 538//538 411//411
f 589//589 275//275 538//538
f 590//590 483//483 580//580
f 590//590 578//578 463//463
f 590//590 327//327 578//578
f 590//590 580//580 213//213
f 590//590 213//213 327//327
f 591//591 462//462 457//457
f 591//591 223//223 462//462
f 591//591 485//485 343//343
f 592//592 489//489 77//77
f 592//592 77//77 346//346
f 592//592 507//507 489//489
f 592//592 346//346 507//507
f 593//593 155//155 262//262
f 594//594 491//491 349//349
f 594//594 349//349 76//76
f 594//594 76//76 353//353
f 594//594 353//353 511//511
f 594//594 511//511 389//389
f 594//594 519//519 155//155
f 594//594 389//389 519//519
f 595//595 350//350 351//351
f 595//595 351//351 492//492
f 596//596 493//493 394//394
f 596//596 394//394 86//86
f 596//596 503//503 493//493
f 596//596 86//86 503//503
f 597//597 262//262 394//394
f 598//598 493//493 229//229
f 598//598 229//229 491//491
f 598//598 597//597 394//394
f 598//598 394//394 493//493
f 599//599 355//355 231//231
f 599//599 231//231 495//495
f 599//599 503//503 355//355
f 599//599 495//495 503//503
f 601//601 241//241 365//365
f 601//601 365//365 87//87
f 601//601 87//87 504//504
f 602//602 506//506 5//5
f 602//602 5//5 285//285
f 602//602 285//285 506//506
f 604//604 372//372 370//370
f 604//604 370//370 507//507
f 606//606 44//44 372//372
f 606//606 605//605 44//44
f 606//606 507//507 605//605
f 607//607 386//386 154//154
f 607//607 154//154 508//508
f 608//608 510//510 373//373
f 608//608 514//514 144//144
f 608//608 144//144 247//247
f 608//608 247//247 510//510
f 609//609 510//510 376//376
f 609//609 44//44 510//510
f 609//609 376//376 24//24
f 609//609 24//24 44//44
f 610//610 517//517 193//193
f 610//610 193//193 386//386
f 610//610 386//386 607//607
f 611//611 508//508 24//24
f 612//612 520//520 156//156
f 612//612 156//156 390//390
f 613//613 505//505 156//156
f 614//614 366//366 390//390
f 614//614 390//390 521//521
f 615//615 362//362 505//505
f 616//616 395//395 157//157
f 616//616 157//157 523//523
f 616//616 524//524 401//401
f 616//616 401//401 395//395
f 617//617 393//393 46//46
f 618//618 524//524 263//263
f 618//618 263//263 523//523
f 619//619 523//523 393//393
f 619//619 618//618 523//523
f 620//620 161//161 268//268
f 620//620 268//268 526//526
f 620//620 400//400 161//161
f 620//620 526//526 18//18
f 620//620 269//269 400//400
f 620//620 18//18 446//446
f 620//620 52//52 269//269
f 620//620 446//446 192//192
f 620//620 396//396 52//52
f 620//620 192//192 109//109
f 620//620 267//267 396//396
f 620//620 109//109 310//310
f 620//620 98//98 267//267
f 620//620 310//310 60//60
f 620//620 291//291 98//98
f 620//620 60//60 384//384
f 620//620 174//174 291//291
f 620//620 384//384 255//255
f 620//620 3//3 174//174
f 620//620 255//255 383//383
f 620//620 307//307 3//3
f 620//620 383//383 108//108
f 620//620 443//443 307//307
f 620//620 108//108 191//191
f 620//620 190//190 443//443
f 620//620 191//191 10//10
f 620//620 308//308 190//190
f 620//620 10//10 201//201
f 620//620 444//444 308//308
f 620//620 201//201 316//316
f 620//620 563//563 31//31
f 620//620 31//31 444//444
f 620//620 316//316 64//64
f 620//620 64//64 314//314
f 620//620 314//314 115//115
f 620//620 115//115 207//207
f 620//620 207//207 39//39
f 620//620 39//39 337//337
f 620//620 337//337 467//467
f 620//620 467//467 218//218
f 620//620 218//218 471//471
f 620//620 471//471 334//334
f 620//620 334//334 19//19
f 620//620 19//19 470//470
f 620//620 470//470 333//333
f 620//620 333//333 182//182
f 620//620 182//182 436//436
f 620//620 436//436 563//563
f 621//621 530//530 163//163
f 621//621 163//163 89//89
f 621//621 89//89 128//128
f 621//621 128//128 530//530
f 622//622 274//274 410//410
f 622//622 537//537 170//170
f 622//622 170//170 274//274
f 623//623 411//411 539//539
f 623//623 588//588 411//411
f 623//623 165//165 588//588
f 624//624 224//224 540//540
f 625//625 542//542 289//289
f 625//625 552//552 424//424
f 625//625 289//289 552//552
f 625//625 424//424 564//564
f 625//625 564//564 72//72
f 625//625 72//72 542//542
f 626//626 479//479 277//277
f 626//626 277//277 544//544
f 626//626 558//558 131//131
f 626//626 131//131 479//479
f 626//626 544//544 416//416
f 626//626 416//416 558//558
f 627//627 425//425 550//550
f 627//627 550//550 165//165
f 627//627 623//623 539//539
f 627//627 165//165 623//623
f 628//628 552//552 276//276
f 628//628 426//426 552//552
f 629//629 290//290 427//427
f 629//629 427//427 555//555
f 630//630 559//559 297//297
f 630//630 296//296 559//559
f 630//630 561//561 296//296
f 630//630 297//297 561//561
f 631//631 434//434 298//298
f 631//631 298//298 562//562
f 631//631 562//562 297//297
f 631//631 297//297 434//434
f 632//632 562//562 298//298
f 632//632 298//298 181//181
f 632//632 181//181 297//297
f 632//632 297//297 562//562
f 633//633 565//565 129//129
f 633//633 129//129 450//450
f 633//633 450//450 565//565
f 634//634 566//566 71//71
f 634//634 71//71 38//38
f 634//634 38//38 566//566
f 635//635 571//571 22//22
f 635//635 22//22 324//324
f 635//635 324//324 573//573
f 636//636 204//204 322//322
f 636//636 322//322 572//572
f 636//636 572//572 577//577
f 636//636 73//73 204//204
f 637//637 573//573 485//485
f 637//637 591//591 457//457
f 637//637 485//485 591//591
f 637//637 635//635 573//573
f 638//638 576//576 327//327
f 638//638 327//327 213//213
f 638//638 213//213 73//73
f 638//638 577//577 576//576
f 638//638 636//636 577//577
f 638//638 73//73 636//636
f 639//639 219//219 583//583
f 639//639 583//583 475//475
f 639//639 475//475 116//116
f 639//639 116//116 219//219
f 640//640 586//586 340//340
f 640//640 340//340 481//481
f 640//640 588//588 586//586
f 640//640 481//481 589//589
f 640//640 589//589 411//411
f 640//640 411//411 588//588
f 641//641 590//590 463//463
f 641//641 483//483 590//590
f 641//641 624//624 540//540
f 641//641 540//540 483//483
f 642//642 591//591 343//343
f 642//642 343//343 223//223
f 642//642 223//223 591//591
f 643//643 593//593 262//262
f 643//643 491//491 593//593
f 644//644 593//593 491//491
f 644//644 491//491 594//594
f 644//644 594//594 155//155
f 644//644 155//155 593//593
f 646//646 600//600 504//504
f 646//646 504//504 362//362
f 646//646 362//362 600//600
f 647//647 241//241 601//601
f 647//647 601//601 504//504
f 647//647 504//504 600//600
f 647//647 600//600 362//362
f 647//647 362//362 241//241
f 648//648 603//603 507//507
f 648//648 507//507 370//370
f 648//648 370//370 603//603
f 649//649 603//603 370//370
f 649//649 370//370 143//143
f 649//649 143//143 507//507
f 649//649 507//507 603//603
f 650//650 604//604 507//507
f 650//650 372//372 604//604
f 651//651 605//605 507//507
f 651//651 507//507 245//245
f 651//651 245//245 44//44
f 651//651 44//44 605//605
f 652//652 607//607 508//508
f 652//652 517//517 607//607
f 653//653 608//608 373//373
f 653//653 514//514 608//608
f 653//653 373//373 378//378
f 653//653 378//378 514//514
f 655//655 611//611 517//517
f 655//655 508//508 611//611
f 656//656 611//611 24//24
f 656//656 517//517 611//611
f 657//657 612//612 390//390
f 657//657 390//390 366//366
f 658//658 613//613 156//156
f 658//658 366//366 613//613
f 659//659 613//613 366//366
f 659//659 366//366 614//614
f 659//659 614//614 521//521
f 659//659 521//521 505//505
f 659//659 505//505 613//613
f 660//660 521//521 241//241
f 660//660 615//615 505//505
f 660//660 505//505 521//521
f 661//661 263//263 524//524
f 661//661 524//524 616//616
f 661//661 616//616 523//523
f 661//661 523//523 263//263
f 662//662 617//617 524//524
f 662//662 393//393 617//617
f 663//663 617//617 46//46
f 663//663 46//46 264//264
f 663//663 264//264 524//524
f 663//663 524//524 617//617
f 664//664 619//619 393//393
f 664//664 524//524 618//618
f 664//664 618//618 619//619
f 665//665 553//553 426//426
f 665//665 426//426 628//628
f 666//666 556//556 290//290
f 666//666 290//290 629//629
f 666//666 629//629 555//555
f 666//666 555//555 556//556
f 667//667 456//456 571//571
f 667//667 571//571 635//635
f 667//667 635//635 637//637
f 667//667 572//572 456//456
f 667//667 637//637 457//457
f 667//667 457//457 572//572
f 668//668 641//641 463//463
f 668//668 624//624 641//641
f 668//668 224//224 624//624
f 668//668 463//463 578//578
f 668//668 412//412 224//224
f 668//668 578//578 132//132
f 668//668 538//538 412//412
f 668//668 132//132 575//575
f 668//668 90//90 538//538
f 668//668 575//575 223//223
f 668//668 539//539 90//90
f 668//668 223//223 343//343
f 668//668 627//627 539//539
f 668//668 343//343 528//528
f 668//668 425//425 627//627
f 668//668 528//528 402//402
f 668//668 276//276 425//425
f 668//668 402//402 527//527
f 668//668 665//665 628//628
f 668//668 628//628 276//276
f 668//668 527//527 162//162
f 668//668 162//162 404//404
f 668//668 404//404 271//271
f 668//668 271//271 26//26
f 668//668 26//26 279//279
f 668//668 279//279 418//418
f 668//668 418//418 234//234
f 668//668 234//234 498//498
f 668//668 498//498 137//137
f 668//668 137//137 356//356
f 668//668 356//356 496//496
f 668//668 496//496 232//232
f 668//668 232//232 77//77
f 668//668 77//77 348//348
f 668//668 348//348 228//228
f 668//668 228//228 488//488
f 668//668 488//488 345//345
f 668//668 345//345 12//12
f 668//668 12//12 230//230
f 668//668 230//230 494//494
f 668//668 494//494 352//352
f 668//668 352//352 135//135
f 668//668 135//135 350//350
f 668//668 350//350 595//595
f 668//668 595//595 492//492
f 668//668 492//492 74//74
f 668//668 74//74 354//354
f 668//668 354//354 231//231
f 668//668 231//231 133//133
f 668//668 133//133 344//344
f 668//668 344//344 487//487
f 668//668 487//487 225//225
f 668//668 225//225 41//41
f 668//668 41//41 537//537
f 668//668 537//537 622//622
f 668//668 622//622 410//410
f 668//668 410//410 536//536
f 668//668 536//536 164//164
f 668//668 164//164 553//553
f 668//668 553//553 665//665
f 669//669 262//262 597//597
f 670//670 598//598 491//491
f 670//670 491//491 645//645
f 670//670 645//645 597//597
f 670//670 597//597 598//598
f 671//671 645//645 491//491
f 671//671 597//597 645//645
f 671//671 669//669 597//597
f 672//672 606//606 372//372
f 672//672 372//372 650//650
f 672//672 650//650 507//507
f 672//672 507//507 606//606
f 673//673 652//652 508//508
f 673//673 517//517 652//652
f 673//673 655//655 517//517
f 673//673 508//508 655//655
f 674//674 610//610 607//607
f 674//674 607//607 654//654
f 674//674 654//654 517//517
f 674//674 517//517 610//610
f 675//675 654//654 607//607
f 675//675 607//607 517//517
f 675//675 517//517 654//654
f 676//676 656//656 24//24
f 676//676 24//24 311//311
f 676//676 311//311 517//517
f 676//676 517//517 656//656
f 677//677 658//658 156//156
f 677//677 156//156 520//520
f 678//678 362//362 615//615
f 679//679 662//662 524//524
f 679//679 393//393 662//662
f 679//679 664//664 393//393
f 679//679 524//524 664//664
f 680//680 491//491 643//643
f 680//680 671//671 491//491
f 680//680 669//669 671//671
f 680//680 643//643 262//262
f 680//680 262//262 669//669
f 681//681 677//677 520//520
f 681//681 520//520 612//612
f 681//681 612//612 657//657
f 681//681 658//658 677//677
f 681//681 657//657 366//366
f 681//681 366//366 658//658
f 682//682 660//660 241//241
f 682//682 678//678 615//615
f 682//682 615//615 660//660
f 683//683 362//362 678//678
f 684//684 682//682 241//241
f 684//684 362//362 683//683
f 684//684 683//683 678//678
f 684//684 678//678 682//682
f 684//684 241//241 362//362
# 1364 faces, 0 coords texture

# End of File
