0
SECTION
2
HEADER
9
$ACADVER
1
AC1015
9
$INSUNITS
70
4
9
$MEASUREMENT
70
1
0
ENDSEC
0
SECTION
2
ENTITIES
0
LWPOLYLINE
8
0
90
4
70
1
10
-160
20
-120
10
160
20
-120
10
160
20
120
10
-160
20
120
0
CIRCLE
8
0
10
-100
20
55
30
0
40
19
0
LWPOLYLINE
8
0
90
4
70
1
10
-22
20
39
10
22
20
39
10
22
20
71
10
-22
20
71
0
LWPOLYLINE
8
0
90
3
70
1
10
100
20
81
10
77.4833395016
20
42
10
122.516660498
20
42
0
LWPOLYLINE
8
0
90
6
70
1
10
-78.0606897708
20
-55
10
-89.0303448854
20
-36
10
-110.969655115
20
-36
10
-121.939310229
20
-55
10
-110.969655115
20
-74
10
-89.0303448854
20
-74
0
ARC
8
0
10
0
20
-55
30
0
40
21
50
58.4118644948
51
301.588135505
0
LINE
8
0
10
11
20
-72.88854382
30
0
11
11
21
-37.11145618
31
0
0
LWPOLYLINE
8
0
90
5
70
1
10
79
20
-71
10
121
20
-71
10
121
20
-47.5857864376
10
112.414213562
20
-39
10
79
20
-39
0
ENDSEC
0
EOF
