####
#
# OBJ File Generated by Meshlab
#
####
# Object astribot_gripper_base_link_collision_mesh.obj
#
# Vertices: 564
# Faces: 1124
#
####
vn 0.000000 0.000000 0.000000
v 0.010187 -0.012000 0.089633
vn 0.000000 0.000000 0.000000
v 0.004650 0.030649 0.000200
vn 0.000000 0.000000 0.000000
v -0.042911 0.012000 0.055033
vn 0.000000 0.000000 0.000000
v 0.042980 -0.012000 0.053074
vn 0.000000 0.000000 0.000000
v -0.030892 0.002587 0.000200
vn 0.000000 0.000000 0.000000
v 0.012228 0.013848 0.088145
vn 0.000000 0.000000 0.000000
v -0.041259 -0.013732 0.057275
vn 0.000000 0.000000 0.000000
v 0.030892 -0.002587 0.000200
vn 0.000000 0.000000 0.000000
v 0.005591 -0.030432 0.035659
vn 0.000000 0.000000 0.000000
v -0.019041 0.024463 0.000200
vn 0.000000 0.000000 0.000000
v -0.014425 0.012000 0.088665
vn 0.000000 0.000000 0.000000
v 0.042330 0.013414 0.054955
vn 0.000000 0.000000 0.000000
v -0.022807 -0.020996 0.000200
vn 0.000000 0.000000 0.000000
v -0.042760 -0.012000 0.051521
vn 0.000000 0.000000 0.000000
v 0.018806 -0.024644 0.000200
vn 0.000000 0.000000 0.000000
v 0.025682 0.017003 -0.000000
vn 0.000000 0.000000 0.000000
v 0.016884 -0.013732 0.085586
vn 0.000000 0.000000 0.000000
v -0.014535 -0.013732 0.087484
vn 0.000000 0.000000 0.000000
v -0.028335 0.012576 0.000200
vn 0.000000 0.000000 0.000000
v -0.007771 0.029950 0.034659
vn 0.000000 0.000000 0.000000
v 0.010524 0.012000 0.089626
vn 0.000000 0.000000 0.000000
v -0.040501 0.012000 0.060314
vn 0.000000 0.000000 0.000000
v 0.042667 0.012000 0.051140
vn 0.000000 0.000000 0.000000
v -0.029838 -0.007639 -0.000000
vn 0.000000 0.000000 0.000000
v -0.009823 -0.029402 0.035100
vn 0.000000 0.000000 0.000000
v -0.042685 -0.012000 0.056188
vn 0.000000 0.000000 0.000000
v -0.042667 0.012000 0.051140
vn 0.000000 0.000000 0.000000
v -0.041784 -0.013732 0.051739
vn 0.000000 0.000000 0.000000
v 0.025952 -0.016955 0.000200
vn 0.000000 0.000000 0.000000
v 0.004650 -0.030649 0.000200
vn 0.000000 0.000000 0.000000
v 0.014040 -0.027638 0.035100
vn 0.000000 0.000000 0.000000
v -0.009620 0.029259 -0.000000
vn 0.000000 0.000000 0.000000
v 0.018806 0.024644 0.000200
vn 0.000000 0.000000 0.000000
v 0.040501 -0.012000 0.060314
vn 0.000000 0.000000 0.000000
v 0.010182 -0.013732 0.088633
vn 0.000000 0.000000 0.000000
v -0.010187 -0.012000 0.089633
vn 0.000000 0.000000 0.000000
v -0.012228 0.013848 0.088145
vn 0.000000 0.000000 0.000000
v 0.007662 0.029978 0.034659
vn 0.000000 0.000000 0.000000
v 0.016152 0.012000 0.087619
vn 0.000000 0.000000 0.000000
v -0.041292 0.013848 0.056540
vn 0.000000 0.000000 0.000000
v -0.017634 -0.012000 0.086247
vn 0.000000 0.000000 0.000000
v 0.042911 0.012000 0.055033
vn 0.000000 0.000000 0.000000
v 0.042760 -0.012000 0.051521
vn 0.000000 0.000000 0.000000
v 0.042100 0.013414 0.051289
vn 0.000000 0.000000 0.000000
v 0.030031 0.007688 0.000200
vn 0.000000 0.000000 0.000000
v -0.018684 -0.024485 -0.000000
vn 0.000000 0.000000 0.000000
v -0.030892 -0.002587 0.000200
vn 0.000000 0.000000 0.000000
v -0.028335 -0.012576 0.000200
vn 0.000000 0.000000 0.000000
v -0.029838 0.007639 -0.000000
vn 0.000000 0.000000 0.000000
v -0.016884 -0.013732 0.085586
vn 0.000000 0.000000 0.000000
v -0.003281 -0.030767 0.035659
vn 0.000000 0.000000 0.000000
v -0.042980 -0.012000 0.053074
vn 0.000000 0.000000 0.000000
v -0.041957 0.012000 0.058147
vn 0.000000 0.000000 0.000000
v -0.042760 0.007800 0.051521
vn 0.000000 0.000000 0.000000
v -0.025849 0.017113 0.000200
vn 0.000000 0.000000 0.000000
v -0.013947 -0.027685 0.035100
vn 0.000000 0.000000 0.000000
v 0.029838 -0.007639 -0.000000
vn 0.000000 0.000000 0.000000
v 0.014352 -0.027252 -0.000000
vn 0.000000 0.000000 0.000000
v 0.009683 -0.029449 0.000200
vn 0.000000 0.000000 0.000000
v 0.009620 0.029259 -0.000000
vn 0.000000 0.000000 0.000000
v -0.004650 0.030649 0.000200
vn 0.000000 0.000000 0.000000
v 0.041717 -0.013732 0.055940
vn 0.000000 0.000000 0.000000
v 0.013402 -0.013000 0.088800
vn 0.000000 0.000000 0.000000
v 0.014535 -0.013732 0.087484
vn 0.000000 0.000000 0.000000
v -0.010186 -0.013000 0.089365
vn 0.000000 0.000000 0.000000
v -0.010524 0.012000 0.089626
vn 0.000000 0.000000 0.000000
v -0.017194 0.013414 0.085860
vn 0.000000 0.000000 0.000000
v 0.039575 0.013848 0.059497
vn 0.000000 0.000000 0.000000
v 0.001060 0.030924 0.034659
vn 0.000000 0.000000 0.000000
v 0.012487 0.012765 0.089196
vn 0.000000 0.000000 0.000000
v 0.017634 -0.012000 0.086247
vn 0.000000 0.000000 0.000000
v -0.014040 0.027638 0.034100
vn 0.000000 0.000000 0.000000
v -0.042396 0.013414 0.053111
vn 0.000000 0.000000 0.000000
v -0.040501 -0.012000 0.060314
vn 0.000000 0.000000 0.000000
v -0.015024 -0.012000 0.088356
vn 0.000000 0.000000 0.000000
v 0.042828 0.012765 0.053084
vn 0.000000 0.000000 0.000000
v 0.042177 -0.012000 0.057673
vn 0.000000 0.000000 0.000000
v 0.042980 0.012000 0.053074
vn 0.000000 0.000000 0.000000
v 0.042760 0.007800 0.051521
vn 0.000000 0.000000 0.000000
v 0.042498 -0.013000 0.051579
vn 0.000000 0.000000 0.000000
v 0.014754 0.027264 0.000200
vn 0.000000 0.000000 0.000000
v 0.022807 0.020996 0.000200
vn 0.000000 0.000000 0.000000
v 0.030892 0.002587 0.000200
vn 0.000000 0.000000 0.000000
v 0.028389 0.012453 0.000200
vn 0.000000 0.000000 0.000000
v -0.025682 -0.017003 -0.000000
vn 0.000000 0.000000 0.000000
v -0.004620 -0.030452 -0.000000
vn 0.000000 0.000000 0.000000
v -0.019041 -0.024463 0.000200
vn 0.000000 0.000000 0.000000
v -0.030051 -0.007610 0.000200
vn 0.000000 0.000000 0.000000
v -0.030693 0.002570 -0.000000
vn 0.000000 0.000000 0.000000
v -0.030031 0.007688 0.000200
vn 0.000000 0.000000 0.000000
v -0.022496 0.021037 -0.000000
vn 0.000000 0.000000 0.000000
v -0.039751 -0.013732 0.059652
vn 0.000000 0.000000 0.000000
v 0.001170 -0.030978 0.035100
vn 0.000000 0.000000 0.000000
v -0.010182 -0.013732 0.088633
vn 0.000000 0.000000 0.000000
v -0.007662 -0.029978 0.035659
vn 0.000000 0.000000 0.000000
v -0.042955 -0.012000 0.054643
vn 0.000000 0.000000 0.000000
v -0.042713 -0.013000 0.053091
vn 0.000000 0.000000 0.000000
v -0.042460 0.012000 0.056941
vn 0.000000 0.000000 0.000000
v -0.041140 0.013414 0.058429
vn 0.000000 0.000000 0.000000
v -0.042980 0.012000 0.053074
vn 0.000000 0.000000 0.000000
v -0.042519 0.012765 0.051178
vn 0.000000 0.000000 0.000000
v -0.028152 0.012495 -0.000000
vn 0.000000 0.000000 0.000000
v -0.011897 -0.028563 0.035659
vn 0.000000 0.000000 0.000000
v -0.041960 -0.013732 0.054549
vn 0.000000 0.000000 0.000000
v 0.030693 0.002570 -0.000000
vn 0.000000 0.000000 0.000000
v 0.030051 -0.007610 0.000200
vn 0.000000 0.000000 0.000000
v 0.025682 -0.017003 -0.000000
vn 0.000000 0.000000 0.000000
v 0.009910 -0.029312 0.035659
vn 0.000000 0.000000 0.000000
v 0.007786 -0.030006 0.035100
vn 0.000000 0.000000 0.000000
v 0.013235 -0.028033 0.000902
vn 0.000000 0.000000 0.000000
v 0.004620 -0.030452 -0.000000
vn 0.000000 0.000000 0.000000
v 0.018684 0.024485 -0.000000
vn 0.000000 0.000000 0.000000
v 0.009134 0.029624 0.002724
vn 0.000000 0.000000 0.000000
v -0.009134 0.029624 0.002723
vn 0.000000 0.000000 0.000000
v -0.004620 0.030452 -0.000000
vn 0.000000 0.000000 0.000000
v 0.039751 -0.013732 0.059652
vn 0.000000 0.000000 0.000000
v 0.010186 -0.013000 0.089365
vn 0.000000 0.000000 0.000000
v 0.015789 -0.013732 0.086634
vn 0.000000 0.000000 0.000000
v 0.011691 -0.013732 0.088498
vn 0.000000 0.000000 0.000000
v -0.011864 -0.012000 0.089483
vn 0.000000 0.000000 0.000000
v -0.012487 0.012765 0.089196
vn 0.000000 0.000000 0.000000
v -0.017634 0.012000 0.086247
vn 0.000000 0.000000 0.000000
v -0.015409 0.013848 0.086633
vn 0.000000 0.000000 0.000000
v 0.016708 0.013848 0.085431
vn 0.000000 0.000000 0.000000
v 0.011897 0.028563 0.034659
vn 0.000000 0.000000 0.000000
v 0.041515 0.012765 0.058647
vn 0.000000 0.000000 0.000000
v 0.010476 0.013848 0.088392
vn 0.000000 0.000000 0.000000
v 0.003281 0.030767 0.034659
vn 0.000000 0.000000 0.000000
v -0.003388 0.030756 0.034659
vn 0.000000 0.000000 0.000000
v 0.000000 0.031000 0.012000
vn 0.000000 0.000000 0.000000
v 0.011864 -0.012000 0.089483
vn 0.000000 0.000000 0.000000
v 0.017433 -0.013000 0.086070
vn 0.000000 0.000000 0.000000
v 0.017634 0.012000 0.086247
vn 0.000000 0.000000 0.000000
v 0.015024 -0.012000 0.088356
vn 0.000000 0.000000 0.000000
v -0.011993 0.028523 0.034659
vn 0.000000 0.000000 0.000000
v -0.042330 0.013414 0.054955
vn 0.000000 0.000000 0.000000
v -0.042177 -0.012000 0.057673
vn 0.000000 0.000000 0.000000
v -0.041443 -0.012000 0.059059
vn 0.000000 0.000000 0.000000
v -0.017433 -0.013000 0.086070
vn 0.000000 0.000000 0.000000
v 0.042760 0.012765 0.055013
vn 0.000000 0.000000 0.000000
v 0.042396 0.013414 0.053111
vn 0.000000 0.000000 0.000000
v 0.042519 0.012765 0.051178
vn 0.000000 0.000000 0.000000
v 0.042685 -0.012000 0.056188
vn 0.000000 0.000000 0.000000
v 0.042998 -0.008200 0.053880
vn 0.000000 0.000000 0.000000
v 0.022642 -0.021174 0.000200
vn 0.000000 0.000000 0.000000
v 0.041982 -0.013732 0.053137
vn 0.000000 0.000000 0.000000
v 0.042713 -0.013000 0.053091
vn 0.000000 0.000000 0.000000
v 0.025849 0.017113 0.000200
vn 0.000000 0.000000 0.000000
v 0.019041 0.024463 0.000200
vn 0.000000 0.000000 0.000000
v 0.030051 0.007610 0.000200
vn 0.000000 0.000000 0.000000
v -0.022496 -0.021037 -0.000000
vn 0.000000 0.000000 0.000000
v -0.028152 -0.012495 -0.000000
vn 0.000000 0.000000 0.000000
v -0.022642 -0.021174 0.000200
vn 0.000000 0.000000 0.000000
v -0.010066 -0.029320 0.000200
vn 0.000000 0.000000 0.000000
v -0.030693 -0.002570 -0.000000
vn 0.000000 0.000000 0.000000
v -0.042498 -0.013000 0.051579
vn 0.000000 0.000000 0.000000
v -0.028389 -0.012453 0.000200
vn 0.000000 0.000000 0.000000
v -0.030051 0.007610 0.000200
vn 0.000000 0.000000 0.000000
v -0.018684 0.024485 -0.000000
vn 0.000000 0.000000 0.000000
v -0.022642 0.021174 0.000200
vn 0.000000 0.000000 0.000000
v -0.009805 -0.029348 0.035659
vn 0.000000 0.000000 0.000000
v 0.003395 -0.030814 0.035100
vn 0.000000 0.000000 0.000000
v 0.000000 -0.031000 0.012000
vn 0.000000 0.000000 0.000000
v -0.011691 -0.013732 0.088498
vn 0.000000 0.000000 0.000000
v -0.001060 -0.030924 0.035659
vn 0.000000 0.000000 0.000000
v -0.005486 -0.030451 0.035659
vn 0.000000 0.000000 0.000000
v -0.015789 -0.013732 0.086634
vn 0.000000 0.000000 0.000000
v -0.042802 0.008200 0.055678
vn 0.000000 0.000000 0.000000
v -0.042689 -0.013000 0.054618
vn 0.000000 0.000000 0.000000
v -0.041515 0.012765 0.058647
vn 0.000000 0.000000 0.000000
v -0.039575 0.013848 0.059497
vn 0.000000 0.000000 0.000000
v -0.042998 0.007800 0.053880
vn 0.000000 0.000000 0.000000
v -0.025952 0.016955 0.000200
vn 0.000000 0.000000 0.000000
v -0.028389 0.012453 0.000200
vn 0.000000 0.000000 0.000000
v -0.042828 0.012765 0.053084
vn 0.000000 0.000000 0.000000
v -0.025682 0.017003 -0.000000
vn 0.000000 0.000000 0.000000
v -0.041717 -0.013732 0.055940
vn 0.000000 0.000000 0.000000
v -0.011863 -0.028640 0.035100
vn 0.000000 0.000000 0.000000
v -0.041982 -0.013732 0.053137
vn 0.000000 0.000000 0.000000
v 0.029838 0.007639 -0.000000
vn 0.000000 0.000000 0.000000
v 0.030693 -0.002570 -0.000000
vn 0.000000 0.000000 0.000000
v 0.030031 -0.007688 0.000200
vn 0.000000 0.000000 0.000000
v 0.028152 -0.012495 -0.000000
vn 0.000000 0.000000 0.000000
v 0.011863 -0.028640 0.035100
vn 0.000000 0.000000 0.000000
v 0.006048 -0.030404 0.035100
vn 0.000000 0.000000 0.000000
v 0.009036 -0.029654 0.003500
vn 0.000000 0.000000 0.000000
v 0.007771 -0.029950 0.035659
vn 0.000000 0.000000 0.000000
v 0.009793 -0.029413 0.025925
vn 0.000000 0.000000 0.000000
v 0.014445 -0.027429 0.000200
vn 0.000000 0.000000 0.000000
v 0.005102 -0.030577 0.000200
vn 0.000000 0.000000 0.000000
v 0.009620 -0.029259 -0.000000
vn 0.000000 0.000000 0.000000
v 0.014352 0.027252 -0.000000
vn 0.000000 0.000000 0.000000
v 0.022496 0.021037 -0.000000
vn 0.000000 0.000000 0.000000
v 0.009683 0.029449 0.000200
vn 0.000000 0.000000 0.000000
v 0.006048 0.030404 0.018800
vn 0.000000 0.000000 0.000000
v -0.009683 0.029449 0.000200
vn 0.000000 0.000000 0.000000
v -0.006048 0.030404 0.018800
vn 0.000000 0.000000 0.000000
v 0.004620 0.030452 -0.000000
vn 0.000000 0.000000 0.000000
v 0.041217 -0.013000 0.058916
vn 0.000000 0.000000 0.000000
v 0.040598 -0.013732 0.058523
vn 0.000000 0.000000 0.000000
v 0.013156 -0.013732 0.088111
vn 0.000000 0.000000 0.000000
v 0.011817 -0.013000 0.089219
vn 0.000000 0.000000 0.000000
v -0.011029 0.008200 0.089593
vn 0.000000 0.000000 0.000000
v -0.013492 -0.012000 0.089053
vn 0.000000 0.000000 0.000000
v -0.011817 -0.013000 0.089219
vn 0.000000 0.000000 0.000000
v 0.010518 0.012765 0.089474
vn 0.000000 0.000000 0.000000
v -0.016061 0.012765 0.087498
vn 0.000000 0.000000 0.000000
v -0.017520 0.012765 0.086146
vn 0.000000 0.000000 0.000000
v -0.016418 -0.012000 0.087412
vn 0.000000 0.000000 0.000000
v -0.027243 -0.008200 0.075349
vn 0.000000 0.000000 0.000000
v -0.014174 0.013414 0.088136
vn 0.000000 0.000000 0.000000
v 0.009805 0.029348 0.034659
vn 0.000000 0.000000 0.000000
v 0.015800 0.013414 0.087151
vn 0.000000 0.000000 0.000000
v 0.041292 0.013848 0.056540
vn 0.000000 0.000000 0.000000
v 0.042460 0.012000 0.056941
vn 0.000000 0.000000 0.000000
v 0.041647 0.012000 0.058724
vn 0.000000 0.000000 0.000000
v -0.010476 0.013848 0.088392
vn 0.000000 0.000000 0.000000
v 0.012383 0.013414 0.088775
vn 0.000000 0.000000 0.000000
v 0.015409 0.013848 0.086633
vn 0.000000 0.000000 0.000000
v -0.013895 0.013848 0.087550
vn 0.000000 0.000000 0.000000
v -0.005591 0.030432 0.034659
vn 0.000000 0.000000 0.000000
v 0.003287 0.030825 0.034100
vn 0.000000 0.000000 0.000000
v -0.001170 0.030978 0.034100
vn 0.000000 0.000000 0.000000
v 0.012523 0.012000 0.089344
vn 0.000000 0.000000 0.000000
v 0.011029 0.008200 0.089593
vn 0.000000 0.000000 0.000000
v 0.040300 -0.013000 0.060136
vn 0.000000 0.000000 0.000000
v 0.014893 -0.013000 0.088122
vn 0.000000 0.000000 0.000000
v 0.027243 -0.008200 0.075349
vn 0.000000 0.000000 0.000000
v 0.016418 -0.012000 0.087412
vn 0.000000 0.000000 0.000000
v 0.013492 -0.012000 0.089053
vn 0.000000 0.000000 0.000000
v -0.041687 0.013848 0.054868
vn 0.000000 0.000000 0.000000
v -0.042316 0.012765 0.056891
vn 0.000000 0.000000 0.000000
v -0.041906 0.013414 0.056751
vn 0.000000 0.000000 0.000000
v -0.042177 -0.008200 0.057673
vn 0.000000 0.000000 0.000000
v -0.041647 0.012000 0.058724
vn 0.000000 0.000000 0.000000
v -0.041840 -0.008200 0.058374
vn 0.000000 0.000000 0.000000
v -0.040300 -0.013000 0.060136
vn 0.000000 0.000000 0.000000
v -0.014893 -0.013000 0.088122
vn 0.000000 0.000000 0.000000
v 0.042316 0.012765 0.056891
vn 0.000000 0.000000 0.000000
v 0.041687 0.013848 0.054868
vn 0.000000 0.000000 0.000000
v 0.041748 0.013848 0.053151
vn 0.000000 0.000000 0.000000
v 0.042998 0.007800 0.053880
vn 0.000000 0.000000 0.000000
v 0.042955 -0.012000 0.054643
vn 0.000000 0.000000 0.000000
v 0.041784 -0.013732 0.051739
vn 0.000000 0.000000 0.000000
v 0.022807 -0.020996 0.000200
vn 0.000000 0.000000 0.000000
v 0.018684 -0.024485 -0.000000
vn 0.000000 0.000000 0.000000
v 0.041960 -0.013732 0.054549
vn 0.000000 0.000000 0.000000
v 0.013795 -0.027762 0.001378
vn 0.000000 0.000000 0.000000
v 0.042426 -0.013000 0.056122
vn 0.000000 0.000000 0.000000
v 0.025952 0.016955 0.000200
vn 0.000000 0.000000 0.000000
v 0.022642 0.021174 0.000200
vn 0.000000 0.000000 0.000000
v -0.025952 -0.016955 0.000200
vn 0.000000 0.000000 0.000000
v -0.014754 -0.027264 0.000200
vn 0.000000 0.000000 0.000000
v -0.009620 -0.029259 -0.000000
vn 0.000000 0.000000 0.000000
v -0.009036 -0.029654 0.003500
vn 0.000000 0.000000 0.000000
v -0.030031 -0.007688 0.000200
vn 0.000000 0.000000 0.000000
v -0.042100 0.013414 0.051289
vn 0.000000 0.000000 0.000000
v -0.040598 -0.013732 0.058523
vn 0.000000 0.000000 0.000000
v 0.001168 -0.030920 0.035659
vn 0.000000 0.000000 0.000000
v -0.004650 -0.030649 0.000200
vn 0.000000 0.000000 0.000000
v -0.013156 -0.013732 0.088111
vn 0.000000 0.000000 0.000000
v -0.001062 -0.030982 0.035100
vn 0.000000 0.000000 0.000000
v -0.042802 0.012000 0.055678
vn 0.000000 0.000000 0.000000
v -0.042426 -0.013000 0.056122
vn 0.000000 0.000000 0.000000
v -0.040579 0.013848 0.058103
vn 0.000000 0.000000 0.000000
v -0.016708 0.013848 0.085431
vn 0.000000 0.000000 0.000000
v -0.040061 0.013414 0.059926
vn 0.000000 0.000000 0.000000
v -0.042955 -0.008200 0.054643
vn 0.000000 0.000000 0.000000
v -0.042998 -0.008200 0.053880
vn 0.000000 0.000000 0.000000
v -0.042760 0.012765 0.055013
vn 0.000000 0.000000 0.000000
v -0.022807 0.020996 0.000200
vn 0.000000 0.000000 0.000000
v -0.011000 -0.028983 0.026850
vn 0.000000 0.000000 0.000000
v -0.018806 -0.024644 0.000200
vn 0.000000 0.000000 0.000000
v 0.028152 0.012495 -0.000000
vn 0.000000 0.000000 0.000000
v 0.028389 -0.012453 0.000200
vn 0.000000 0.000000 0.000000
v 0.041259 -0.013732 0.057275
vn 0.000000 0.000000 0.000000
v 0.012250 -0.028477 0.025600
vn 0.000000 0.000000 0.000000
v 0.005602 -0.030490 0.035100
vn 0.000000 0.000000 0.000000
v 0.009917 -0.029371 0.026225
vn 0.000000 0.000000 0.000000
v 0.009421 -0.029534 0.005000
vn 0.000000 0.000000 0.000000
v 0.009750 -0.029427 0.025600
vn 0.000000 0.000000 0.000000
v 0.011863 -0.028640 0.000500
vn 0.000000 0.000000 0.000000
v 0.014754 -0.027264 0.000200
vn 0.000000 0.000000 0.000000
v 0.009134 -0.029624 0.002723
vn 0.000000 0.000000 0.000000
v 0.006048 -0.030404 0.018800
vn 0.000000 0.000000 0.000000
v 0.010066 -0.029320 0.000200
vn 0.000000 0.000000 0.000000
v 0.005102 0.030577 0.000200
vn 0.000000 0.000000 0.000000
v 0.012577 0.028334 0.000602
vn 0.000000 0.000000 0.000000
v 0.010066 0.029320 0.000200
vn 0.000000 0.000000 0.000000
v 0.006048 0.030404 0.034100
vn 0.000000 0.000000 0.000000
v -0.010118 0.029302 0.026486
vn 0.000000 0.000000 0.000000
v -0.005102 0.030577 0.000200
vn 0.000000 0.000000 0.000000
v -0.014445 0.027429 0.000200
vn 0.000000 0.000000 0.000000
v -0.007786 0.030006 0.034100
vn 0.000000 0.000000 0.000000
v -0.003395 0.030814 0.034100
vn 0.000000 0.000000 0.000000
v 0.041443 -0.012000 0.059059
vn 0.000000 0.000000 0.000000
v 0.003388 -0.030756 0.035659
vn 0.000000 0.000000 0.000000
v -0.012523 0.012000 0.089344
vn 0.000000 0.000000 0.000000
v -0.010518 0.012765 0.089474
vn 0.000000 0.000000 0.000000
v -0.017433 0.013000 0.086070
vn 0.000000 0.000000 0.000000
v -0.016152 0.012000 0.087619
vn 0.000000 0.000000 0.000000
v -0.027243 0.007800 0.075349
vn 0.000000 0.000000 0.000000
v -0.012383 0.013414 0.088775
vn 0.000000 0.000000 0.000000
v -0.014360 0.012765 0.088528
vn 0.000000 0.000000 0.000000
v -0.015800 0.013414 0.087151
vn 0.000000 0.000000 0.000000
v 0.009823 0.029402 0.034100
vn 0.000000 0.000000 0.000000
v 0.014360 0.012765 0.088528
vn 0.000000 0.000000 0.000000
v 0.016061 0.012765 0.087498
vn 0.000000 0.000000 0.000000
v 0.040061 0.013414 0.059926
vn 0.000000 0.000000 0.000000
v 0.040579 0.013848 0.058103
vn 0.000000 0.000000 0.000000
v 0.042802 0.012000 0.055678
vn 0.000000 0.000000 0.000000
v 0.040501 0.012000 0.060314
vn 0.000000 0.000000 0.000000
v 0.041957 0.012000 0.058147
vn 0.000000 0.000000 0.000000
v -0.001168 0.030920 0.034659
vn 0.000000 0.000000 0.000000
v 0.010501 0.013414 0.089040
vn 0.000000 0.000000 0.000000
v 0.005486 0.030451 0.034659
vn 0.000000 0.000000 0.000000
v 0.013895 0.013848 0.087550
vn 0.000000 0.000000 0.000000
v 0.016884 0.013732 0.085586
vn 0.000000 0.000000 0.000000
v 0.001062 0.030982 0.034100
vn 0.000000 0.000000 0.000000
v 0.011864 0.007800 0.089483
vn 0.000000 0.000000 0.000000
v 0.016250 -0.013000 0.087203
vn 0.000000 0.000000 0.000000
v 0.015679 -0.010210 0.087955
vn 0.000000 0.000000 0.000000
v -0.011863 0.028640 0.034100
vn 0.000000 0.000000 0.000000
v -0.041957 0.008200 0.058147
vn 0.000000 0.000000 0.000000
v -0.016250 -0.013000 0.087203
vn 0.000000 0.000000 0.000000
v -0.013402 -0.013000 0.088800
vn 0.000000 0.000000 0.000000
v 0.041906 0.013414 0.056751
vn 0.000000 0.000000 0.000000
v 0.011863 0.028640 0.034100
vn 0.000000 0.000000 0.000000
v 0.042689 -0.013000 0.054618
vn 0.000000 0.000000 0.000000
v 0.042955 -0.008200 0.054643
vn 0.000000 0.000000 0.000000
v 0.019041 -0.024463 0.000200
vn 0.000000 0.000000 0.000000
v 0.025849 -0.017113 0.000200
vn 0.000000 0.000000 0.000000
v 0.022496 -0.021037 -0.000000
vn 0.000000 0.000000 0.000000
v 0.013853 -0.027733 0.005555
vn 0.000000 0.000000 0.000000
v 0.013378 -0.027965 0.006000
vn 0.000000 0.000000 0.000000
v 0.041931 -0.013000 0.057566
vn 0.000000 0.000000 0.000000
v 0.028335 0.012576 0.000200
vn 0.000000 0.000000 0.000000
v -0.025849 -0.017113 0.000200
vn 0.000000 0.000000 0.000000
v -0.013795 -0.027762 0.001378
vn 0.000000 0.000000 0.000000
v -0.014352 -0.027252 -0.000000
vn 0.000000 0.000000 0.000000
v -0.009683 -0.029449 0.000200
vn 0.000000 0.000000 0.000000
v -0.018806 0.024644 0.000200
vn 0.000000 0.000000 0.000000
v 0.000000 -0.031000 0.035100
vn 0.000000 0.000000 0.000000
v -0.005496 -0.030509 0.035100
vn 0.000000 0.000000 0.000000
v -0.003287 -0.030825 0.035100
vn 0.000000 0.000000 0.000000
v -0.042689 -0.008200 0.056175
vn 0.000000 0.000000 0.000000
v -0.041217 -0.013000 0.058916
vn 0.000000 0.000000 0.000000
v -0.009910 0.029312 0.034659
vn 0.000000 0.000000 0.000000
v -0.039751 0.013732 0.059652
vn 0.000000 0.000000 0.000000
v -0.040300 0.013000 0.060136
vn 0.000000 0.000000 0.000000
v -0.011863 -0.028640 0.000500
vn 0.000000 0.000000 0.000000
v -0.010375 -0.029212 0.026683
vn 0.000000 0.000000 0.000000
v 0.028335 -0.012576 0.000200
vn 0.000000 0.000000 0.000000
v 0.011993 -0.028523 0.035659
vn 0.000000 0.000000 0.000000
v 0.004650 -0.030649 0.012000
vn 0.000000 0.000000 0.000000
v 0.010375 -0.029212 0.026683
vn 0.000000 0.000000 0.000000
v 0.009917 -0.029371 0.024975
vn 0.000000 0.000000 0.000000
v 0.009793 -0.029413 0.025275
vn 0.000000 0.000000 0.000000
v 0.012578 -0.028334 0.000603
vn 0.000000 0.000000 0.000000
v 0.012083 -0.028548 0.026225
vn 0.000000 0.000000 0.000000
v 0.009134 -0.029624 0.004277
vn 0.000000 0.000000 0.000000
v 0.009421 -0.029534 0.002000
vn 0.000000 0.000000 0.000000
v 0.009036 0.029654 0.003500
vn 0.000000 0.000000 0.000000
v 0.014445 0.027429 0.000200
vn 0.000000 0.000000 0.000000
v 0.005496 0.030509 0.034100
vn 0.000000 0.000000 0.000000
v -0.009750 0.029427 0.025600
vn 0.000000 0.000000 0.000000
v -0.009036 0.029654 0.003500
vn 0.000000 0.000000 0.000000
v -0.010066 0.029320 0.000200
vn 0.000000 0.000000 0.000000
v -0.014352 0.027252 -0.000000
vn 0.000000 0.000000 0.000000
v -0.041748 0.013848 0.053151
vn 0.000000 0.000000 0.000000
v -0.006048 0.030404 0.034100
vn 0.000000 0.000000 0.000000
v -0.005602 0.030490 0.034100
vn 0.000000 0.000000 0.000000
v -0.011864 0.007800 0.089483
vn 0.000000 0.000000 0.000000
v -0.013492 0.012000 0.089053
vn 0.000000 0.000000 0.000000
v -0.015741 0.008200 0.087913
vn 0.000000 0.000000 0.000000
v -0.010501 0.013414 0.089040
vn 0.000000 0.000000 0.000000
v -0.016884 0.013732 0.085586
vn 0.000000 0.000000 0.000000
v 0.009421 0.029534 0.005000
vn 0.000000 0.000000 0.000000
v 0.009917 0.029371 0.024975
vn 0.000000 0.000000 0.000000
v 0.014174 0.013414 0.088136
vn 0.000000 0.000000 0.000000
v 0.013492 0.012000 0.089053
vn 0.000000 0.000000 0.000000
v 0.014425 0.012000 0.088665
vn 0.000000 0.000000 0.000000
v 0.017433 0.013000 0.086070
vn 0.000000 0.000000 0.000000
v 0.039751 0.013732 0.059652
vn 0.000000 0.000000 0.000000
v 0.042689 -0.008200 0.056175
vn 0.000000 0.000000 0.000000
v 0.042802 0.008200 0.055678
vn 0.000000 0.000000 0.000000
v 0.027243 0.007800 0.075349
vn 0.000000 0.000000 0.000000
v 0.040386 0.012765 0.060213
vn 0.000000 0.000000 0.000000
v 0.042177 -0.008200 0.057673
vn 0.000000 0.000000 0.000000
v 0.041840 -0.008200 0.058374
vn 0.000000 0.000000 0.000000
v -0.000000 0.031000 0.034100
vn 0.000000 0.000000 0.000000
v 0.015707 -0.010000 0.087936
vn 0.000000 0.000000 0.000000
v 0.015307 0.005693 0.088191
vn 0.000000 0.000000 0.000000
v 0.015600 -0.010400 0.088007
vn 0.000000 0.000000 0.000000
v -0.013235 0.028033 0.000902
vn 0.000000 0.000000 0.000000
v 0.041140 0.013414 0.058429
vn 0.000000 0.000000 0.000000
v 0.013947 0.027685 0.034100
vn 0.000000 0.000000 0.000000
v 0.011141 0.028929 0.000603
vn 0.000000 0.000000 0.000000
v 0.013235 -0.028033 0.006098
vn 0.000000 0.000000 0.000000
v -0.013796 -0.027761 0.005620
vn 0.000000 0.000000 0.000000
v -0.014445 -0.027429 0.000200
vn 0.000000 0.000000 0.000000
v -0.009421 -0.029534 0.005000
vn 0.000000 0.000000 0.000000
v -0.009917 -0.029371 0.024975
vn 0.000000 0.000000 0.000000
v -0.005102 -0.030577 0.000200
vn 0.000000 0.000000 0.000000
v -0.014754 0.027264 0.000200
vn 0.000000 0.000000 0.000000
v -0.000000 -0.031000 0.018400
vn 0.000000 0.000000 0.000000
v -0.006048 -0.030404 0.035100
vn 0.000000 0.000000 0.000000
v -0.004650 -0.030649 0.012000
vn 0.000000 0.000000 0.000000
v -0.041931 -0.013000 0.057566
vn 0.000000 0.000000 0.000000
v -0.009917 0.029371 0.026225
vn 0.000000 0.000000 0.000000
v -0.010375 0.029212 0.026683
vn 0.000000 0.000000 0.000000
v -0.040386 0.012765 0.060213
vn 0.000000 0.000000 0.000000
v -0.011625 -0.028738 0.026683
vn 0.000000 0.000000 0.000000
v -0.011141 -0.028929 0.000603
vn 0.000000 0.000000 0.000000
v -0.012577 -0.028334 0.000602
vn 0.000000 0.000000 0.000000
v 0.005109 -0.030576 0.018400
vn 0.000000 0.000000 0.000000
v 0.010118 -0.029302 0.026486
vn 0.000000 0.000000 0.000000
v 0.011142 -0.028929 0.000602
vn 0.000000 0.000000 0.000000
v 0.012207 -0.028496 0.025273
vn 0.000000 0.000000 0.000000
v 0.011891 -0.028629 0.026477
vn 0.000000 0.000000 0.000000
v 0.009134 0.029624 0.004276
vn 0.000000 0.000000 0.000000
v 0.011863 0.028640 0.000500
vn 0.000000 0.000000 0.000000
v 0.005109 0.030576 0.018400
vn 0.000000 0.000000 0.000000
v -0.009421 0.029534 0.005000
vn 0.000000 0.000000 0.000000
v -0.009134 0.029624 0.004277
vn 0.000000 0.000000 0.000000
v -0.004650 0.030649 0.012000
vn 0.000000 0.000000 0.000000
v -0.015024 0.007800 0.088356
vn 0.000000 0.000000 0.000000
v 0.009750 0.029427 0.025600
vn 0.000000 0.000000 0.000000
v 0.009421 0.029534 0.002000
vn 0.000000 0.000000 0.000000
v 0.009793 0.029413 0.025275
vn 0.000000 0.000000 0.000000
v 0.014107 -0.010000 0.088810
vn 0.000000 0.000000 0.000000
v 0.017194 0.013414 0.085860
vn 0.000000 0.000000 0.000000
v 0.017520 0.012765 0.086146
vn 0.000000 0.000000 0.000000
v 0.040300 0.013000 0.060136
vn 0.000000 0.000000 0.000000
v 0.041957 0.008200 0.058147
vn 0.000000 0.000000 0.000000
v 0.000000 0.031000 0.018400
vn 0.000000 0.000000 0.000000
v -0.000000 0.031000 0.018400
vn 0.000000 0.000000 0.000000
v 0.015741 0.008200 0.087913
vn 0.000000 0.000000 0.000000
v 0.015024 0.007800 0.088356
vn 0.000000 0.000000 0.000000
v 0.015307 -0.010693 0.088191
vn 0.000000 0.000000 0.000000
v -0.012250 0.028477 0.025600
vn 0.000000 0.000000 0.000000
v -0.011863 0.028640 0.000500
vn 0.000000 0.000000 0.000000
v -0.013795 0.027762 0.001378
vn 0.000000 0.000000 0.000000
v 0.013795 0.027762 0.001378
vn 0.000000 0.000000 0.000000
v 0.012250 0.028477 0.025600
vn 0.000000 0.000000 0.000000
v 0.010375 0.029212 0.026683
vn 0.000000 0.000000 0.000000
v 0.012576 -0.028334 0.006398
vn 0.000000 0.000000 0.000000
v -0.009421 -0.029534 0.002000
vn 0.000000 0.000000 0.000000
v -0.009134 -0.029624 0.004276
vn 0.000000 0.000000 0.000000
v -0.009750 -0.029427 0.025600
vn 0.000000 0.000000 0.000000
v -0.009793 -0.029412 0.025274
vn 0.000000 0.000000 0.000000
v -0.010118 -0.029302 0.026486
vn 0.000000 0.000000 0.000000
v -0.009134 -0.029624 0.002724
vn 0.000000 0.000000 0.000000
v -0.006048 -0.030404 0.018800
vn 0.000000 0.000000 0.000000
v -0.005109 -0.030576 0.018400
vn 0.000000 0.000000 0.000000
v -0.009793 0.029413 0.025924
vn 0.000000 0.000000 0.000000
v -0.010066 0.029320 0.018400
vn 0.000000 0.000000 0.000000
v -0.009917 0.029371 0.024975
vn 0.000000 0.000000 0.000000
v -0.010375 0.029212 0.024517
vn 0.000000 0.000000 0.000000
v -0.010463 -0.029181 0.000902
vn 0.000000 0.000000 0.000000
v -0.011625 -0.028738 0.024517
vn 0.000000 0.000000 0.000000
v -0.011143 -0.028928 0.006398
vn 0.000000 0.000000 0.000000
v -0.012207 -0.028495 0.025925
vn 0.000000 0.000000 0.000000
v -0.013235 -0.028033 0.006098
vn 0.000000 0.000000 0.000000
v -0.013235 -0.028033 0.000902
vn 0.000000 0.000000 0.000000
v 0.010066 -0.029320 0.018400
vn 0.000000 0.000000 0.000000
v 0.010375 -0.029212 0.024517
vn 0.000000 0.000000 0.000000
v 0.011625 -0.028738 0.024517
vn 0.000000 0.000000 0.000000
v 0.012207 -0.028495 0.025925
vn 0.000000 0.000000 0.000000
v 0.012083 -0.028548 0.024975
vn 0.000000 0.000000 0.000000
v 0.011625 0.028738 0.026683
vn 0.000000 0.000000 0.000000
v 0.004650 0.030649 0.012000
vn 0.000000 0.000000 0.000000
v -0.009421 0.029534 0.002000
vn 0.000000 0.000000 0.000000
v -0.005109 0.030576 0.018400
vn 0.000000 0.000000 0.000000
v 0.009793 0.029413 0.025925
vn 0.000000 0.000000 0.000000
v 0.014107 0.005000 0.088810
vn 0.000000 0.000000 0.000000
v 0.014344 -0.010568 0.088704
vn 0.000000 0.000000 0.000000
v 0.015679 0.005210 0.087955
vn 0.000000 0.000000 0.000000
v 0.014907 -0.010800 0.088420
vn 0.000000 0.000000 0.000000
v 0.015029 0.005791 0.088353
vn 0.000000 0.000000 0.000000
v -0.013235 0.028033 0.006098
vn 0.000000 0.000000 0.000000
v -0.012578 0.028334 0.000603
vn 0.000000 0.000000 0.000000
v -0.012083 0.028548 0.026225
vn 0.000000 0.000000 0.000000
v -0.013853 0.027733 0.005555
vn 0.000000 0.000000 0.000000
v 0.013796 0.027761 0.005620
vn 0.000000 0.000000 0.000000
v 0.013235 0.028033 0.000902
vn 0.000000 0.000000 0.000000
v 0.012083 0.028548 0.026225
vn 0.000000 0.000000 0.000000
v 0.012207 0.028496 0.025273
vn 0.000000 0.000000 0.000000
v 0.010463 0.029181 0.000902
vn 0.000000 0.000000 0.000000
v 0.010118 0.029302 0.026486
vn 0.000000 0.000000 0.000000
v 0.011000 0.028983 0.026850
vn 0.000000 0.000000 0.000000
v -0.009793 -0.029413 0.025924
vn 0.000000 0.000000 0.000000
v -0.010314 -0.029234 0.006000
vn 0.000000 0.000000 0.000000
v -0.010066 -0.029320 0.018400
vn 0.000000 0.000000 0.000000
v -0.009917 -0.029371 0.026225
vn 0.000000 0.000000 0.000000
v -0.009793 0.029412 0.025274
vn 0.000000 0.000000 0.000000
v -0.010078 0.029316 0.018400
vn 0.000000 0.000000 0.000000
v -0.010118 0.029302 0.024715
vn 0.000000 0.000000 0.000000
v -0.011142 0.028929 0.000602
vn 0.000000 0.000000 0.000000
v -0.010463 -0.029181 0.006098
vn 0.000000 0.000000 0.000000
v -0.011000 -0.028983 0.024350
vn 0.000000 0.000000 0.000000
v -0.012207 -0.028495 0.025275
vn 0.000000 0.000000 0.000000
v -0.012083 -0.028548 0.024975
vn 0.000000 0.000000 0.000000
v -0.012250 -0.028477 0.025600
vn 0.000000 0.000000 0.000000
v 0.010078 -0.029316 0.018400
vn 0.000000 0.000000 0.000000
v 0.010118 -0.029302 0.024714
vn 0.000000 0.000000 0.000000
v 0.011000 -0.028983 0.024350
vn 0.000000 0.000000 0.000000
v 0.010463 -0.029181 0.000902
vn 0.000000 0.000000 0.000000
v 0.011891 -0.028629 0.024723
vn 0.000000 0.000000 0.000000
v 0.011625 0.028738 0.024517
vn 0.000000 0.000000 0.000000
v 0.014214 -0.010400 0.088763
vn 0.000000 0.000000 0.000000
v 0.014507 -0.010693 0.088626
vn 0.000000 0.000000 0.000000
v 0.015707 0.005000 0.087936
vn 0.000000 0.000000 0.000000
v 0.015600 0.005400 0.088007
vn 0.000000 0.000000 0.000000
v 0.014907 0.005800 0.088420
vn 0.000000 0.000000 0.000000
v 0.015029 -0.010791 0.088353
vn 0.000000 0.000000 0.000000
v -0.013378 0.027965 0.006000
vn 0.000000 0.000000 0.000000
v -0.012207 0.028495 0.025275
vn 0.000000 0.000000 0.000000
v -0.012576 0.028334 0.006398
vn 0.000000 0.000000 0.000000
v -0.012207 0.028495 0.025925
vn 0.000000 0.000000 0.000000
v -0.011891 0.028629 0.026477
vn 0.000000 0.000000 0.000000
v 0.013235 0.028033 0.006098
vn 0.000000 0.000000 0.000000
v 0.011891 0.028629 0.026477
vn 0.000000 0.000000 0.000000
v 0.012207 0.028495 0.025925
vn 0.000000 0.000000 0.000000
v 0.012083 0.028548 0.024975
vn 0.000000 0.000000 0.000000
v 0.010314 0.029234 0.006000
vn 0.000000 0.000000 0.000000
v 0.010066 0.029320 0.018400
vn 0.000000 0.000000 0.000000
v 0.009917 0.029371 0.026225
vn 0.000000 0.000000 0.000000
v 0.011143 0.028928 0.006398
vn 0.000000 0.000000 0.000000
v 0.010463 0.029181 0.006098
vn 0.000000 0.000000 0.000000
v 0.011000 0.028983 0.024350
vn 0.000000 0.000000 0.000000
v -0.010118 -0.029302 0.024715
vn 0.000000 0.000000 0.000000
v -0.010375 -0.029212 0.024517
vn 0.000000 0.000000 0.000000
v -0.010078 -0.029316 0.018400
vn 0.000000 0.000000 0.000000
v -0.010463 0.029181 0.000902
vn 0.000000 0.000000 0.000000
v -0.011625 0.028738 0.024517
vn 0.000000 0.000000 0.000000
v -0.011891 -0.028629 0.026477
vn 0.000000 0.000000 0.000000
v -0.012083 -0.028548 0.026225
vn 0.000000 0.000000 0.000000
v -0.012577 -0.028334 0.006398
vn 0.000000 0.000000 0.000000
v 0.011142 -0.028929 0.006398
vn 0.000000 0.000000 0.000000
v 0.011000 -0.028983 0.026850
vn 0.000000 0.000000 0.000000
v 0.014135 -0.010208 0.088798
vn 0.000000 0.000000 0.000000
v 0.014344 0.005568 0.088704
vn 0.000000 0.000000 0.000000
v 0.015679 0.004790 0.087955
vn 0.000000 0.000000 0.000000
v 0.014507 0.005693 0.088626
vn 0.000000 0.000000 0.000000
v -0.012083 0.028548 0.024975
vn 0.000000 0.000000 0.000000
v 0.012577 0.028334 0.006398
vn 0.000000 0.000000 0.000000
v 0.011891 0.028629 0.024723
vn 0.000000 0.000000 0.000000
v 0.010375 0.029212 0.024517
vn 0.000000 0.000000 0.000000
v 0.010118 0.029302 0.024714
vn 0.000000 0.000000 0.000000
v -0.011000 0.028983 0.026850
vn 0.000000 0.000000 0.000000
v -0.011891 -0.028629 0.024723
vn 0.000000 0.000000 0.000000
v 0.011625 -0.028738 0.026683
vn 0.000000 0.000000 0.000000
v 0.010463 -0.029181 0.006098
vn 0.000000 0.000000 0.000000
v 0.014135 -0.009792 0.088798
vn 0.000000 0.000000 0.000000
v 0.014214 0.005400 0.088763
vn 0.000000 0.000000 0.000000
v 0.014344 0.004432 0.088704
vn 0.000000 0.000000 0.000000
v -0.011891 0.028629 0.024723
vn 0.000000 0.000000 0.000000
v 0.010078 0.029316 0.018400
vn 0.000000 0.000000 0.000000
v -0.011000 0.028983 0.024350
vn 0.000000 0.000000 0.000000
v -0.010463 0.029181 0.006098
vn 0.000000 0.000000 0.000000
v -0.011142 0.028929 0.006398
vn 0.000000 0.000000 0.000000
v -0.011625 0.028738 0.026683
vn 0.000000 0.000000 0.000000
v 0.014135 0.005208 0.088798
# 564 vertices, 0 vertices normals

f 54//54 27//27 5//5
f 54//54 47//47 14//14
f 54//54 5//5 47//47
f 66//66 36//36 1//1
f 66//66 1//1 21//21
f 79//79 23//23 78//78
f 79//79 78//78 4//4
f 79//79 4//4 43//43
f 83//83 23//23 79//79
f 83//83 43//43 8//8
f 83//83 79//79 43//43
f 88//88 14//14 47//47
f 94//94 35//35 65//65
f 97//97 52//52 14//14
f 100//100 54//54 14//14
f 100//100 14//14 52//52
f 100//100 27//27 54//54
f 101//101 27//27 100//100
f 106//106 8//8 43//43
f 112//112 81//81 33//33
f 116//116 17//17 108//108
f 117//117 65//65 35//35
f 117//117 1//1 36//36
f 117//117 36//36 65//65
f 118//118 64//64 9//9
f 127//127 6//6 69//69
f 128//128 69//69 6//6
f 130//130 2//2 61//61
f 132//132 34//34 71//71
f 132//132 118//118 17//17
f 137//137 98//98 26//26
f 138//138 74//74 22//22
f 139//139 41//41 74//74
f 140//140 76//76 12//12
f 140//140 78//78 76//76
f 140//140 42//42 78//78
f 141//141 12//12 76//76
f 141//141 44//44 33//33
f 142//142 78//78 23//23
f 142//142 76//76 78//78
f 142//142 141//141 76//76
f 142//142 44//44 141//141
f 142//142 45//45 84//84
f 147//147 80//80 43//43
f 147//147 43//43 4//4
f 148//148 82//82 44//44
f 148//148 16//16 82//82
f 148//148 44//44 142//142
f 149//149 33//33 44//44
f 149//149 112//112 33//33
f 150//150 23//23 83//83
f 150//150 83//83 105//105
f 150//150 142//142 23//23
f 150//150 45//45 142//142
f 151//151 13//13 85//85
f 151//151 46//46 87//87
f 153//153 87//87 28//28
f 153//153 151//151 87//87
f 153//153 13//13 151//151
f 155//155 88//88 47//47
f 155//155 24//24 88//88
f 155//155 47//47 5//5
f 155//155 5//5 89//89
f 156//156 97//97 14//14
f 156//156 28//28 97//97
f 156//156 153//153 28//28
f 156//156 13//13 153//153
f 157//157 152//152 48//48
f 157//157 24//24 152//152
f 157//157 48//48 156//156
f 158//158 5//5 27//27
f 158//158 89//89 5//5
f 158//158 101//101 90//90
f 158//158 27//27 101//101
f 158//158 90//90 49//49
f 158//158 49//49 89//89
f 159//159 91//91 10//10
f 160//160 10//10 91//91
f 161//161 7//7 103//103
f 161//161 25//25 95//95
f 161//161 95//95 50//50
f 161//161 50//50 92//92
f 162//162 93//93 30//30
f 163//163 30//30 93//93
f 165//165 35//35 94//94
f 165//165 164//164 51//51
f 165//165 94//94 164//164
f 166//166 51//51 18//18
f 167//167 50//50 95//95
f 167//167 166//166 18//18
f 167//167 95//95 166//166
f 167//167 139//139 50//50
f 168//168 96//96 26//26
f 168//168 3//3 96//96
f 169//169 96//96 52//52
f 169//169 52//52 97//97
f 169//169 26//26 96//96
f 169//169 97//97 104//104
f 172//172 3//3 100//100
f 173//173 101//101 55//55
f 173//173 19//19 101//101
f 173//173 102//102 19//19
f 174//174 101//101 19//19
f 174//174 90//90 101//101
f 174//174 19//19 102//102
f 174//174 102//102 49//49
f 174//174 49//49 90//90
f 175//175 101//101 100//100
f 175//175 73//73 101//101
f 175//175 136//136 73//73
f 176//176 173//173 55//55
f 176//176 102//102 173//173
f 177//177 103//103 7//7
f 177//177 169//169 104//104
f 178//178 104//104 56//56
f 178//178 177//177 104//104
f 178//178 103//103 177//177
f 178//178 161//161 103//103
f 178//178 25//25 161//161
f 179//179 104//104 97//97
f 179//179 97//97 28//28
f 179//179 56//56 104//104
f 180//180 84//84 45//45
f 180//180 150//150 105//105
f 180//180 45//45 150//150
f 181//181 105//105 83//83
f 181//181 83//83 8//8
f 181//181 106//106 57//57
f 181//181 8//8 106//106
f 182//182 106//106 43//43
f 182//182 43//43 80//80
f 182//182 57//57 106//106
f 183//183 29//29 107//107
f 187//187 109//109 108//108
f 187//187 118//118 9//9
f 187//187 185//185 109//109
f 187//187 9//9 185//185
f 187//187 108//108 17//17
f 187//187 17//17 118//118
f 190//190 30//30 111//111
f 191//191 190//190 111//111
f 191//191 59//59 190//190
f 192//192 81//81 112//112
f 193//193 82//82 16//16
f 193//193 112//112 149//149
f 198//198 115//115 61//61
f 198//198 61//61 2//2
f 200//200 116//116 108//108
f 201//201 64//64 63//63
f 201//201 63//63 119//119
f 202//202 117//117 35//35
f 202//202 35//35 119//119
f 202//202 119//119 63//63
f 202//202 131//131 1//1
f 202//202 1//1 117//117
f 203//203 120//120 36//36
f 203//203 36//36 66//66
f 204//204 11//11 75//75
f 205//205 65//65 36//36
f 205//205 36//36 120//120
f 205//205 120//120 204//204
f 205//205 164//164 94//94
f 205//205 94//94 65//65
f 206//206 21//21 70//70
f 208//208 122//122 207//207
f 209//209 122//122 41//41
f 209//209 41//41 139//139
f 210//210 74//74 41//41
f 212//212 124//124 68//68
f 212//212 38//38 124//124
f 214//214 125//125 212//212
f 215//215 77//77 143//143
f 217//217 127//127 69//69
f 218//218 6//6 127//127
f 218//218 206//206 70//70
f 219//219 124//124 38//38
f 220//220 37//37 129//129
f 220//220 123//123 211//211
f 221//221 20//20 123//123
f 221//221 220//220 129//129
f 221//221 123//123 220//220
f 222//222 69//69 128//128
f 223//223 130//130 61//61
f 224//224 70//70 21//21
f 225//225 21//21 1//1
f 225//225 1//1 131//131
f 226//226 132//132 17//17
f 226//226 17//17 116//116
f 226//226 34//34 132//132
f 226//226 200//200 199//199
f 226//226 116//116 200//200
f 227//227 63//63 64//64
f 227//227 134//134 63//63
f 228//228 71//71 34//34
f 229//229 133//133 39//39
f 229//229 71//71 133//133
f 229//229 132//132 71//71
f 229//229 134//134 227//227
f 230//230 63//63 134//134
f 230//230 224//224 131//131
f 230//230 202//202 63//63
f 230//230 131//131 202//202
f 231//231 73//73 136//136
f 232//232 170//170 99//99
f 232//232 98//98 53//53
f 232//232 53//53 170//170
f 233//233 232//232 99//99
f 233//233 136//136 232//232
f 233//233 231//231 136//136
f 233//233 40//40 231//231
f 234//234 53//53 98//98
f 234//234 98//98 137//137
f 235//235 138//138 22//22
f 235//235 170//170 53//53
f 235//235 22//22 170//170
f 236//236 137//137 138//138
f 236//236 235//235 53//53
f 236//236 138//138 235//235
f 237//237 74//74 138//138
f 237//237 139//139 74//74
f 237//237 92//92 50//50
f 237//237 50//50 139//139
f 238//238 75//75 209//209
f 239//239 140//140 12//12
f 240//240 12//12 141//141
f 241//241 141//141 33//33
f 241//241 33//33 81//81
f 241//241 240//240 141//141
f 242//242 78//78 42//42
f 242//242 144//144 4//4
f 242//242 4//4 78//78
f 243//243 4//4 144//144
f 244//244 145//145 80//80
f 244//244 146//146 15//15
f 244//244 147//147 146//146
f 244//244 80//80 147//147
f 245//245 80//80 145//145
f 247//247 31//31 146//146
f 247//247 146//146 147//147
f 247//247 184//184 31//31
f 247//247 62//62 184//184
f 248//248 189//189 146//146
f 248//248 110//110 189//189
f 249//249 143//143 77//77
f 250//250 148//148 142//142
f 250//250 16//16 148//148
f 251//251 149//149 44//44
f 251//251 44//44 82//82
f 251//251 193//193 149//149
f 251//251 82//82 193//193
f 252//252 152//152 85//85
f 252//252 48//48 152//152
f 252//252 156//156 48//48
f 255//255 95//95 25//25
f 256//256 156//156 14//14
f 256//256 14//14 88//88
f 256//256 157//157 156//156
f 256//256 88//88 24//24
f 256//256 24//24 157//157
f 257//257 10//10 160//160
f 257//257 101//101 73//73
f 257//257 55//55 101//101
f 258//258 161//161 92//92
f 258//258 7//7 161//161
f 258//258 92//92 237//237
f 259//259 93//93 162//162
f 259//259 119//119 35//35
f 259//259 35//35 165//165
f 260//260 30//30 163//163
f 260//260 111//111 30//30
f 260//260 86//86 111//111
f 261//261 18//18 51//51
f 261//261 51//51 164//164
f 262//262 260//260 163//163
f 263//263 3//3 168//168
f 263//263 98//98 232//232
f 264//264 137//137 26//26
f 264//264 26//26 169//169
f 264//264 177//177 7//7
f 264//264 169//169 177//177
f 265//265 233//233 99//99
f 265//265 40//40 233//233
f 266//266 123//123 20//20
f 268//268 96//96 3//3
f 268//268 3//3 172//172
f 269//269 52//52 96//96
f 269//269 172//172 100//100
f 269//269 100//100 52//52
f 269//269 268//268 172//172
f 269//269 96//96 268//268
f 270//270 175//175 100//100
f 270//270 100//100 3//3
f 270//270 136//136 175//175
f 270//270 232//232 136//136
f 270//270 263//263 232//232
f 270//270 3//3 263//263
f 271//271 160//160 91//91
f 271//271 91//91 176//176
f 271//271 176//176 55//55
f 271//271 257//257 160//160
f 271//271 55//55 257//257
f 272//272 25//25 178//178
f 273//273 179//179 28//28
f 273//273 28//28 87//87
f 273//273 253//253 179//179
f 273//273 87//87 46//46
f 273//273 46//46 253//253
f 274//274 84//84 180//180
f 274//274 16//16 250//250
f 275//275 183//183 57//57
f 275//275 57//57 182//182
f 275//275 182//182 80//80
f 276//276 200//200 108//108
f 276//276 62//62 249//249
f 277//277 31//31 184//184
f 278//278 185//185 9//9
f 279//279 108//108 109//109
f 279//279 109//109 188//188
f 281//281 188//188 109//109
f 281//281 109//109 186//186
f 281//281 280//280 59//59
f 283//283 15//15 146//146
f 283//283 146//146 189//189
f 283//283 246//246 15//15
f 283//283 189//189 58//58
f 283//283 58//58 246//246
f 284//284 190//190 59//59
f 284//284 186//186 190//190
f 285//285 190//190 186//186
f 285//285 186//186 109//109
f 285//285 109//109 185//185
f 285//285 278//278 190//190
f 285//285 185//185 278//278
f 286//286 59//59 191//191
f 286//286 191//191 58//58
f 286//286 58//58 189//189
f 286//286 189//189 282//282
f 287//287 113//113 194//194
f 287//287 198//198 2//2
f 287//287 194//194 60//60
f 287//287 60//60 198//198
f 289//289 192//192 60//60
f 289//289 60//60 194//194
f 292//292 196//196 114//114
f 292//292 61//61 115//115
f 292//292 115//115 32//32
f 292//292 32//32 196//196
f 295//295 223//223 61//61
f 296//296 199//199 77//77
f 296//296 226//226 199//199
f 296//296 34//34 226//226
f 297//297 9//9 64//64
f 297//297 64//64 201//201
f 297//297 259//259 162//162
f 297//297 201//201 119//119
f 297//297 119//119 259//259
f 297//297 278//278 9//9
f 297//297 162//162 278//278
f 298//298 66//66 121//121
f 298//298 204//204 120//120
f 299//299 121//121 66//66
f 299//299 66//66 21//21
f 299//299 21//21 206//206
f 300//300 208//208 207//207
f 300//300 67//67 267//267
f 301//301 207//207 122//122
f 301//301 122//122 209//209
f 301//301 11//11 207//207
f 302//302 122//122 22//22
f 302//302 74//74 210//210
f 302//302 210//210 41//41
f 302//302 41//41 122//122
f 302//302 22//22 74//74
f 303//303 217//217 37//37
f 303//303 220//220 211//211
f 303//303 37//37 220//220
f 303//303 121//121 299//299
f 304//304 211//211 207//207
f 304//304 207//207 11//11
f 304//304 303//303 211//211
f 304//304 121//121 303//303
f 305//305 211//211 123//123
f 305//305 207//207 211//211
f 305//305 300//300 207//207
f 305//305 67//67 300//300
f 306//306 38//38 212//212
f 307//307 218//218 70//70
f 308//308 39//39 133//133
f 310//310 214//214 212//212
f 310//310 212//212 68//68
f 311//311 239//239 215//215
f 311//311 42//42 140//140
f 311//311 140//140 239//239
f 312//312 216//216 126//126
f 312//312 296//296 216//216
f 312//312 34//34 296//296
f 313//313 215//215 239//239
f 313//313 239//239 126//126
f 313//313 126//126 216//216
f 314//314 129//129 37//37
f 314//314 37//37 217//217
f 314//314 217//217 69//69
f 314//314 295//295 129//129
f 314//314 223//223 295//295
f 315//315 218//218 127//127
f 315//315 206//206 218//218
f 316//316 219//219 38//38
f 316//316 38//38 290//290
f 317//317 128//128 6//6
f 317//317 316//316 128//128
f 317//317 219//219 316//316
f 317//317 6//6 218//218
f 318//318 219//219 213//213
f 318//318 124//124 219//219
f 318//318 68//68 124//124
f 319//319 222//222 2//2
f 319//319 2//2 130//130
f 319//319 69//69 222//222
f 320//320 224//224 21//21
f 320//320 21//21 225//225
f 320//320 225//225 131//131
f 320//320 131//131 224//224
f 321//321 118//118 132//132
f 321//321 227//227 64//64
f 321//321 64//64 118//118
f 321//321 229//229 227//227
f 321//321 132//132 229//229
f 323//323 72//72 231//231
f 323//323 231//231 40//40
f 323//323 40//40 135//135
f 324//324 236//236 53//53
f 324//324 137//137 236//236
f 324//324 234//234 137//137
f 324//324 53//53 234//234
f 325//325 139//139 167//167
f 325//325 238//238 209//209
f 325//325 209//209 139//139
f 325//325 167//167 18//18
f 325//325 18//18 238//238
f 326//326 205//205 204//204
f 326//326 204//204 75//75
f 326//326 75//75 238//238
f 326//326 261//261 164//164
f 326//326 164//164 205//205
f 326//326 238//238 18//18
f 326//326 18//18 261//261
f 327//327 239//239 12//12
f 327//327 240//240 214//214
f 327//327 12//12 240//240
f 327//327 214//214 310//310
f 328//328 125//125 214//214
f 328//328 212//212 125//125
f 328//328 214//214 240//240
f 328//328 306//306 212//212
f 329//329 147//147 4//4
f 329//329 4//4 243//243
f 329//329 247//247 147//147
f 329//329 243//243 143//143
f 329//329 143//143 249//249
f 329//329 249//249 62//62
f 329//329 62//62 247//247
f 330//330 242//242 42//42
f 330//330 42//42 243//243
f 330//330 243//243 144//144
f 330//330 144//144 242//242
f 331//331 244//244 15//15
f 331//331 145//145 244//244
f 331//331 15//15 246//246
f 332//332 29//29 80//80
f 332//332 80//80 245//245
f 332//332 245//245 107//107
f 332//332 107//107 29//29
f 333//333 245//245 145//145
f 333//333 107//107 245//245
f 333//333 331//331 246//246
f 333//333 145//145 331//331
f 334//334 248//248 146//146
f 334//334 146//146 31//31
f 334//334 31//31 248//248
f 335//335 248//248 31//31
f 335//335 110//110 248//248
f 336//336 249//249 77//77
f 336//336 77//77 199//199
f 336//336 276//276 249//249
f 336//336 199//199 200//200
f 336//336 200//200 276//276
f 337//337 250//250 142//142
f 337//337 142//142 84//84
f 337//337 274//274 250//250
f 337//337 84//84 274//274
f 338//338 252//252 85//85
f 338//338 85//85 13//13
f 338//338 13//13 156//156
f 338//338 156//156 252//252
f 340//340 253//253 46//46
f 340//340 254//254 154//154
f 341//341 154//154 254//254
f 342//342 257//257 73//73
f 342//342 10//10 257//257
f 342//342 159//159 10//10
f 343//343 259//259 165//165
f 343//343 93//93 259//259
f 343//343 165//165 262//262
f 343//343 163//163 93//93
f 344//344 51//51 166//166
f 345//345 262//262 165//165
f 345//345 165//165 51//51
f 345//345 260//260 262//262
f 345//345 51//51 344//344
f 346//346 263//263 168//168
f 346//346 168//168 26//26
f 346//346 26//26 98//98
f 346//346 98//98 263//263
f 347//347 237//237 138//138
f 347//347 258//258 237//237
f 347//347 138//138 137//137
f 348//348 135//135 40//40
f 348//348 323//323 135//135
f 348//348 40//40 265//265
f 348//348 265//265 171//171
f 348//348 266//266 20//20
f 348//348 171//171 266//266
f 348//348 20//20 294//294
f 349//349 265//265 99//99
f 349//349 99//99 267//267
f 349//349 171//171 265//265
f 350//350 267//267 99//99
f 350//350 99//99 170//170
f 350//350 300//300 267//267
f 350//350 208//208 300//300
f 352//352 25//25 272//272
f 353//353 275//275 80//80
f 353//353 80//80 29//29
f 353//353 29//29 183//183
f 353//353 183//183 275//275
f 354//354 184//184 62//62
f 354//354 62//62 276//276
f 354//354 276//276 108//108
f 354//354 108//108 184//184
f 355//355 278//278 162//162
f 355//355 162//162 30//30
f 355//355 30//30 190//190
f 356//356 184//184 108//108
f 357//357 59//59 286//286
f 358//358 281//281 59//59
f 358//358 188//188 281//281
f 358//358 59//59 357//357
f 358//358 357//357 279//279
f 358//358 279//279 188//188
f 359//359 282//282 189//189
f 359//359 189//189 110//110
f 361//361 280//280 281//281
f 361//361 281//281 186//186
f 361//361 186//186 284//284
f 362//362 284//284 59//59
f 362//362 59//59 280//280
f 362//362 361//361 284//284
f 362//362 280//280 361//361
f 363//363 195//195 290//290
f 363//363 287//287 195//195
f 363//363 113//113 287//287
f 363//363 290//290 38//38
f 363//363 38//38 306//306
f 364//364 81//81 192//192
f 364//364 192//192 289//289
f 364//364 241//241 81//81
f 365//365 290//290 195//195
f 365//365 195//195 287//287
f 365//365 316//316 290//290
f 365//365 222//222 128//128
f 365//365 128//128 316//316
f 367//367 292//292 114//114
f 367//367 197//197 292//292
f 367//367 294//294 197//197
f 367//367 366//366 294//294
f 368//368 196//196 32//32
f 369//369 368//368 32//32
f 369//369 293//293 368//368
f 369//369 91//91 159//159
f 369//369 32//32 115//115
f 369//369 176//176 91//91
f 369//369 115//115 198//198
f 369//369 102//102 176//176
f 369//369 198//198 60//60
f 369//369 49//49 102//102
f 369//369 60//60 192//192
f 369//369 89//89 49//49
f 369//369 192//192 112//112
f 369//369 155//155 89//89
f 369//369 112//112 193//193
f 369//369 24//24 155//155
f 369//369 193//193 16//16
f 369//369 152//152 24//24
f 369//369 16//16 274//274
f 369//369 85//85 152//152
f 369//369 274//274 180//180
f 369//369 151//151 85//85
f 369//369 180//180 105//105
f 369//369 340//340 46//46
f 369//369 46//46 151//151
f 369//369 105//105 181//181
f 369//369 181//181 57//57
f 369//369 57//57 183//183
f 369//369 183//183 107//107
f 369//369 107//107 333//333
f 369//369 333//333 246//246
f 369//369 246//246 58//58
f 369//369 58//58 191//191
f 369//369 191//191 111//111
f 369//369 111//111 86//86
f 369//369 86//86 254//254
f 369//369 254//254 340//340
f 370//370 231//231 72//72
f 370//370 73//73 231//231
f 370//370 342//342 73//73
f 371//371 197//197 294//294
f 371//371 294//294 20//20
f 371//371 20//20 221//221
f 372//372 221//221 129//129
f 372//372 129//129 295//295
f 372//372 371//371 221//221
f 372//372 292//292 197//197
f 372//372 197//197 371//371
f 373//373 298//298 120//120
f 373//373 120//120 203//203
f 373//373 203//203 66//66
f 373//373 66//66 298//298
f 374//374 298//298 121//121
f 374//374 304//304 11//11
f 374//374 121//121 304//304
f 374//374 11//11 204//204
f 374//374 204//204 298//298
f 375//375 301//301 209//209
f 375//375 209//209 75//75
f 376//376 303//303 299//299
f 376//376 217//217 303//303
f 376//376 315//315 127//127
f 376//376 127//127 217//217
f 376//376 299//299 206//206
f 376//376 206//206 315//315
f 377//377 67//67 305//305
f 377//377 305//305 123//123
f 377//377 123//123 266//266
f 377//377 349//349 267//267
f 377//377 267//267 67//67
f 377//377 266//266 171//171
f 377//377 171//171 349//349
f 379//379 289//289 194//194
f 380//380 218//218 307//307
f 380//380 308//308 213//213
f 380//380 307//307 308//308
f 380//380 317//317 218//218
f 380//380 213//213 219//219
f 380//380 219//219 317//317
f 381//381 307//307 70//70
f 381//381 70//70 224//224
f 381//381 224//224 230//230
f 382//382 308//308 307//307
f 382//382 39//39 308//308
f 382//382 307//307 381//381
f 383//383 213//213 308//308
f 384//384 310//310 68//68
f 384//384 318//318 309//309
f 384//384 68//68 318//318
f 385//385 311//311 215//215
f 385//385 215//215 143//143
f 386//386 243//243 42//42
f 386//386 42//42 311//311
f 386//386 143//143 243//243
f 386//386 385//385 143//143
f 386//386 311//311 385//385
f 387//387 312//312 133//133
f 387//387 133//133 71//71
f 387//387 71//71 228//228
f 387//387 228//228 34//34
f 387//387 34//34 312//312
f 388//388 312//312 126//126
f 389//389 77//77 215//215
f 389//389 215//215 313//313
f 390//390 296//296 77//77
f 390//390 313//313 216//216
f 390//390 216//216 296//296
f 391//391 314//314 69//69
f 391//391 223//223 314//314
f 391//391 69//69 319//319
f 392//392 322//322 229//229
f 392//392 229//229 39//39
f 394//394 134//134 229//229
f 394//394 229//229 322//322
f 396//396 126//126 239//239
f 396//396 239//239 327//327
f 396//396 327//327 310//310
f 396//396 384//384 309//309
f 396//396 310//310 384//384
f 397//397 328//328 240//240
f 397//397 240//240 241//241
f 399//399 110//110 335//335
f 399//399 335//335 31//31
f 399//399 31//31 277//277
f 399//399 359//359 110//110
f 400//400 56//56 179//179
f 400//400 179//179 339//339
f 401//401 339//339 179//179
f 401//401 179//179 253//253
f 401//401 154//154 351//351
f 401//401 340//340 154//154
f 401//401 253//253 340//340
f 403//403 154//154 341//341
f 404//404 86//86 260//260
f 404//404 341//341 254//254
f 404//404 254//254 86//86
f 405//405 159//159 342//342
f 405//405 370//370 293//293
f 405//405 342//342 370//370
f 405//405 369//369 159//159
f 405//405 293//293 369//369
f 406//406 343//343 262//262
f 406//406 262//262 163//163
f 406//406 163//163 343//343
f 407//407 344//344 166//166
f 407//407 166//166 95//95
f 407//407 95//95 255//255
f 408//408 345//345 344//344
f 408//408 260//260 345//345
f 408//408 404//404 260//260
f 409//409 347//347 137//137
f 409//409 137//137 264//264
f 409//409 264//264 7//7
f 409//409 7//7 258//258
f 409//409 258//258 347//347
f 410//410 348//348 294//294
f 410//410 291//291 348//348
f 411//411 348//348 291//291
f 411//411 323//323 348//348
f 412//412 350//350 170//170
f 412//412 170//170 22//22
f 412//412 208//208 350//350
f 412//412 22//22 122//122
f 412//412 122//122 208//208
f 413//413 272//272 178//178
f 414//414 351//351 154//154
f 415//415 401//401 351//351
f 416//416 355//355 190//190
f 416//416 190//190 278//278
f 416//416 278//278 355//355
f 417//417 356//356 108//108
f 417//417 108//108 279//279
f 418//418 286//286 282//282
f 419//419 359//359 277//277
f 419//419 282//282 359//359
f 420//420 360//360 184//184
f 421//421 363//363 306//306
f 421//421 113//113 363//363
f 421//421 378//378 113//113
f 421//421 306//306 378//378
f 422//422 364//364 289//289
f 422//422 288//288 364//364
f 422//422 289//289 398//398
f 423//423 365//365 287//287
f 424//424 196//196 366//366
f 425//425 367//367 114//114
f 425//425 366//366 367//367
f 425//425 424//424 366//366
f 426//426 372//372 295//295
f 426//426 295//295 61//61
f 426//426 61//61 292//292
f 427//427 375//375 75//75
f 427//427 75//75 11//11
f 427//427 11//11 301//301
f 427//427 301//301 375//375
f 428//428 378//378 306//306
f 428//428 194//194 378//378
f 429//429 378//378 194//194
f 429//429 194//194 113//113
f 429//429 113//113 378//378
f 430//430 379//379 194//194
f 430//430 306//306 379//379
f 430//430 194//194 428//428
f 432//432 318//318 213//213
f 432//432 213//213 383//383
f 432//432 383//383 309//309
f 432//432 309//309 318//318
f 433//433 383//383 308//308
f 433//433 308//308 133//133
f 433//433 133//133 312//312
f 433//433 312//312 388//388
f 434//434 388//388 126//126
f 434//434 396//396 309//309
f 434//434 126//126 396//396
f 434//434 309//309 383//383
f 434//434 433//433 388//388
f 434//434 383//383 433//433
f 435//435 390//390 77//77
f 435//435 313//313 390//390
f 435//435 389//389 313//313
f 435//435 77//77 389//389
f 436//436 391//391 319//319
f 436//436 319//319 130//130
f 437//437 130//130 223//223
f 437//437 223//223 391//391
f 437//437 436//436 130//130
f 437//437 391//391 436//436
f 438//438 392//392 39//39
f 439//439 393//393 438//438
f 439//439 438//438 39//39
f 439//439 39//39 382//382
f 440//440 134//134 394//394
f 441//441 72//72 323//323
f 442//442 368//368 293//293
f 443//443 395//395 293//293
f 443//443 293//293 370//370
f 444//444 241//241 364//364
f 445//445 328//328 397//397
f 447//447 399//399 277//277
f 447//447 277//277 359//359
f 447//447 359//359 399//399
f 448//448 402//402 341//341
f 449//449 255//255 25//25
f 449//449 25//25 402//402
f 450//450 402//402 25//25
f 450//450 341//341 402//402
f 451//451 403//403 341//341
f 451//451 25//25 403//403
f 451//451 341//341 450//450
f 452//452 25//25 352//352
f 453//453 404//404 255//255
f 453//453 341//341 404//404
f 453//453 402//402 448//448
f 453//453 448//448 341//341
f 453//453 255//255 449//449
f 453//453 449//449 402//402
f 454//454 404//404 344//344
f 454//454 344//344 407//407
f 454//454 407//407 255//255
f 454//454 255//255 404//404
f 455//455 408//408 344//344
f 455//455 344//344 404//404
f 455//455 404//404 408//408
f 456//456 410//410 294//294
f 456//456 294//294 366//366
f 457//457 291//291 410//410
f 458//458 196//196 368//368
f 458//458 457//457 410//410
f 458//458 368//368 457//457
f 459//459 411//411 291//291
f 460//460 414//414 154//154
f 461//461 351//351 414//414
f 461//461 413//413 178//178
f 461//461 178//178 351//351
f 462//462 414//414 272//272
f 462//462 272//272 413//413
f 462//462 461//461 414//414
f 462//462 413//413 461//461
f 464//464 400//400 339//339
f 464//464 56//56 400//400
f 465//465 339//339 401//401
f 465//465 401//401 415//415
f 465//465 464//464 339//339
f 465//465 415//415 464//464
f 466//466 417//417 279//279
f 466//466 357//357 286//286
f 466//466 279//279 357//357
f 468//468 418//418 282//282
f 469//469 184//184 360//360
f 469//469 360//360 419//419
f 469//469 419//419 277//277
f 469//469 277//277 184//184
f 470//470 419//419 360//360
f 470//470 282//282 419//419
f 470//470 360//360 420//420
f 472//472 365//365 423//423
f 472//472 423//423 287//287
f 472//472 287//287 2//2
f 472//472 2//2 222//222
f 472//472 222//222 365//365
f 473//473 114//114 196//196
f 473//473 196//196 424//424
f 473//473 425//425 114//114
f 473//473 424//424 425//425
f 474//474 426//426 292//292
f 474//474 292//292 372//372
f 474//474 372//372 426//426
f 475//475 430//430 428//428
f 475//475 428//428 306//306
f 475//475 306//306 430//430
f 476//476 382//382 381//381
f 476//476 381//381 230//230
f 476//476 230//230 431//431
f 480//480 393//393 439//439
f 481//481 72//72 441//441
f 482//482 442//442 293//293
f 482//482 293//293 395//395
f 482//482 395//395 481//481
f 484//484 443//443 370//370
f 484//484 370//370 72//72
f 484//484 72//72 443//443
f 485//485 397//397 241//241
f 485//485 241//241 444//444
f 486//486 444//444 364//364
f 486//486 364//364 288//288
f 488//488 445//445 288//288
f 488//488 288//288 422//422
f 489//489 398//398 289//289
f 490//490 306//306 446//446
f 491//491 446//446 306//306
f 491//491 306//306 328//328
f 491//491 328//328 471//471
f 492//492 451//451 450//450
f 492//492 450//450 25//25
f 492//492 25//25 451//451
f 493//493 452//452 352//352
f 493//493 460//460 154//154
f 495//495 403//403 25//25
f 495//495 25//25 452//452
f 495//495 452//452 494//494
f 495//495 494//494 154//154
f 495//495 154//154 403//403
f 496//496 456//456 366//366
f 496//496 366//366 196//196
f 496//496 196//196 458//458
f 496//496 458//458 410//410
f 496//496 410//410 456//456
f 497//497 457//457 368//368
f 497//497 291//291 457//457
f 498//498 459//459 291//291
f 498//498 368//368 459//459
f 498//498 497//497 368//368
f 498//498 291//291 497//497
f 499//499 368//368 442//442
f 500//500 460//460 352//352
f 500//500 352//352 272//272
f 500//500 272//272 460//460
f 501//501 460//460 272//272
f 501//501 272//272 414//414
f 501//501 414//414 460//460
f 502//502 415//415 351//351
f 503//503 502//502 351//351
f 503//503 463//463 502//502
f 504//504 463//463 178//178
f 504//504 178//178 56//56
f 504//504 56//56 464//464
f 504//504 502//502 463//463
f 504//504 415//415 502//502
f 505//505 466//466 286//286
f 505//505 417//417 466//466
f 506//506 286//286 467//467
f 506//506 467//467 356//356
f 506//506 356//356 417//417
f 506//506 505//505 286//286
f 506//506 417//417 505//505
f 508//508 467//467 286//286
f 508//508 286//286 418//418
f 508//508 418//418 507//507
f 509//509 470//470 420//420
f 509//509 282//282 470//470
f 509//509 420//420 184//184
f 509//509 184//184 282//282
f 510//510 422//422 398//398
f 510//510 471//471 328//328
f 510//510 328//328 422//422
f 511//511 230//230 477//477
f 512//512 477//477 230//230
f 512//512 230//230 134//134
f 512//512 134//134 479//479
f 512//512 382//382 477//477
f 513//513 392//392 438//438
f 513//513 438//438 478//478
f 514//514 478//478 438//438
f 514//514 438//438 393//393
f 514//514 440//440 394//394
f 514//514 393//393 440//440
f 515//515 439//439 382//382
f 515//515 479//479 134//134
f 515//515 134//134 439//439
f 516//516 134//134 440//440
f 516//516 393//393 480//480
f 516//516 480//480 439//439
f 516//516 439//439 134//134
f 516//516 440//440 393//393
f 517//517 443//443 72//72
f 517//517 72//72 481//481
f 517//517 481//481 395//395
f 517//517 395//395 443//443
f 518//518 482//482 441//441
f 518//518 442//442 482//482
f 519//519 482//482 481//481
f 519//519 481//481 441//441
f 519//519 441//441 482//482
f 520//520 441//441 323//323
f 520//520 323//323 483//483
f 520//520 518//518 441//441
f 521//521 483//483 323//323
f 522//522 485//485 444//444
f 522//522 444//444 486//486
f 522//522 397//397 485//485
f 522//522 445//445 397//397
f 522//522 486//486 288//288
f 523//523 328//328 487//487
f 524//524 487//487 328//328
f 524//524 328//328 445//445
f 524//524 488//488 487//487
f 524//524 445//445 488//488
f 525//525 488//488 422//422
f 525//525 487//487 488//488
f 525//525 523//523 487//487
f 526//526 489//489 289//289
f 526//526 490//490 446//446
f 528//528 379//379 306//306
f 528//528 306//306 490//490
f 528//528 490//490 527//527
f 528//528 527//527 289//289
f 528//528 289//289 379//379
f 529//529 491//491 471//471
f 529//529 398//398 491//491
f 529//529 510//510 398//398
f 529//529 471//471 510//510
f 530//530 491//491 489//489
f 530//530 489//489 446//446
f 530//530 446//446 491//491
f 531//531 491//491 398//398
f 531//531 398//398 489//489
f 531//531 489//489 491//491
f 532//532 493//493 154//154
f 532//532 452//452 493//493
f 533//533 493//493 352//352
f 533//533 352//352 460//460
f 533//533 460//460 493//493
f 534//534 494//494 452//452
f 534//534 154//154 494//494
f 534//534 532//532 154//154
f 534//534 452//452 532//532
f 535//535 459//459 368//368
f 535//535 368//368 499//499
f 536//536 499//499 442//442
f 538//538 178//178 463//463
f 538//538 463//463 503//503
f 538//538 537//537 178//178
f 538//538 503//503 537//537
f 539//539 504//504 464//464
f 539//539 464//464 415//415
f 539//539 415//415 504//504
f 540//540 507//507 418//418
f 540//540 418//418 468//468
f 541//541 507//507 540//540
f 541//541 184//184 356//356
f 541//541 508//508 507//507
f 542//542 431//431 230//230
f 542//542 230//230 511//511
f 544//544 513//513 478//478
f 544//544 478//478 514//514
f 544//544 322//322 392//392
f 544//544 392//392 513//513
f 544//544 514//514 394//394
f 544//544 394//394 322//322
f 545//545 515//515 382//382
f 545//545 382//382 512//512
f 545//545 512//512 479//479
f 545//545 479//479 515//515
f 546//546 442//442 518//518
f 546//546 520//520 483//483
f 546//546 518//518 520//520
f 546//546 483//483 521//521
f 547//547 522//522 288//288
f 547//547 288//288 445//445
f 547//547 445//445 522//522
f 548//548 525//525 422//422
f 548//548 523//523 525//525
f 548//548 422//422 328//328
f 548//548 328//328 523//523
f 549//549 526//526 446//446
f 549//549 446//446 489//489
f 549//549 489//489 526//526
f 550//550 526//526 289//289
f 550//550 490//490 526//526
f 551//551 323//323 411//411
f 552//552 537//537 503//503
f 552//552 503//503 351//351
f 552//552 351//351 178//178
f 552//552 178//178 537//537
f 553//553 184//184 541//541
f 553//553 541//541 540//540
f 553//553 540//540 468//468
f 553//553 468//468 282//282
f 553//553 282//282 184//184
f 554//554 541//541 356//356
f 554//554 508//508 541//541
f 554//554 356//356 467//467
f 554//554 467//467 508//508
f 555//555 431//431 542//542
f 555//555 542//542 511//511
f 556//556 543//543 382//382
f 557//557 477//477 382//382
f 557//557 543//543 556//556
f 557//557 382//382 543//543
f 557//557 556//556 511//511
f 557//557 511//511 477//477
f 558//558 546//546 521//521
f 558//558 442//442 546//546
f 558//558 521//521 323//323
f 558//558 323//323 442//442
f 559//559 527//527 490//490
f 559//559 490//490 550//550
f 559//559 550//550 289//289
f 559//559 289//289 527//527
f 560//560 551//551 535//535
f 560//560 535//535 499//499
f 561//561 551//551 411//411
f 561//561 535//535 551//551
f 561//561 411//411 459//459
f 561//561 459//459 535//535
f 562//562 499//499 536//536
f 562//562 560//560 499//499
f 562//562 551//551 560//560
f 563//563 323//323 551//551
f 563//563 562//562 536//536
f 563//563 551//551 562//562
f 563//563 536//536 442//442
f 563//563 442//442 323//323
f 564//564 556//556 382//382
f 564//564 382//382 476//476
f 564//564 476//476 431//431
f 564//564 431//431 555//555
f 564//564 555//555 511//511
f 564//564 511//511 556//556
# 1124 faces, 0 coords texture

# End of File
