####
#
# OBJ File Generated by Meshlab
#
####
# Object astribot_gripper_R1_Link.obj
#
# Vertices: 638
# Faces: 1288
#
####
vn -1.291748 -3.444490 -2.823688
v -0.033348 0.008750 0.026584
vn -3.494518 2.010333 -4.315871
v -0.033381 0.014245 0.026599
vn -3.978209 -0.142785 -4.847926
v -0.032639 0.008750 0.026118
vn -4.414415 1.807316 -3.406952
v -0.032730 0.014796 0.026195
vn -4.707654 1.571087 -3.060040
v -0.032639 0.014908 0.026118
vn -0.375170 -3.442797 -3.082534
v -0.034292 0.008750 0.026850
vn 0.206164 -3.207477 -3.132930
v -0.035140 0.008750 0.026824
vn 0.283654 2.257631 -5.315487
v -0.035140 0.013739 0.026824
vn -0.300393 2.366328 -5.340940
v -0.034670 0.013797 0.026868
vn -1.381882 2.333029 -5.177125
v -0.034205 0.013899 0.026839
vn -2.355582 2.236328 -4.854153
v -0.033777 0.014045 0.026746
vn 0.467206 -2.259535 -5.226312
v -0.035140 -0.013739 0.026824
vn 0.213535 3.208775 -3.132397
v -0.035140 -0.008750 0.026824
vn 0.050075 -2.361652 -5.353416
v -0.035013 -0.013751 0.026843
vn -0.373552 3.432939 -3.083874
v -0.034292 -0.008750 0.026850
vn -1.313267 -2.389457 -5.169659
v -0.034146 -0.013916 0.026830
vn -2.504462 -2.249120 -4.742349
v -0.033716 -0.014072 0.026728
vn -1.291121 3.429020 -2.825727
v -0.033348 -0.008750 0.026584
vn -3.413789 -2.082097 -4.247500
v -0.033322 -0.014282 0.026571
vn -4.191922 -1.867829 -3.647316
v -0.032950 -0.014567 0.026359
vn -3.983283 0.134074 -4.844575
v -0.032639 -0.008750 0.026118
vn -4.657564 -1.624639 -3.136725
v -0.032639 -0.014908 0.026118
vn -0.986714 -2.804394 -2.621221
v -0.004709 0.014500 0.000724
vn 1.155693 -2.279267 -2.609621
v -0.003378 0.014500 0.000705
vn -1.813494 -5.495195 -0.980224
v -0.005055 0.014500 0.001887
vn 2.745811 -2.356195 -0.940617
v -0.000266 0.014500 0.004234
vn -1.544870 -5.447844 -1.463152
v -0.005808 0.014500 0.002856
vn 2.967963 -3.031702 0.664826
v -0.000416 0.014500 0.006634
vn -0.991161 -5.417962 -2.232406
v -0.027374 0.014500 0.021875
vn 2.091003 -5.417963 1.262438
v -0.023141 0.014500 0.026675
vn 1.504486 5.540274 -1.326833
v -0.003225 0.019500 0.002844
vn -1.651517 5.293461 -1.425923
v -0.026302 0.019500 0.020929
vn 0.882205 5.540279 -1.801569
v -0.001891 0.019500 0.003862
vn 1.208300 5.293462 1.816804
v -0.022069 0.019500 0.025729
vn 0.125621 5.540277 -2.002041
v -0.000269 0.019500 0.004292
vn -0.650092 5.540274 -1.897720
v 0.001394 0.019500 0.004068
vn 1.689025 5.260794 1.580700
v 0.003109 0.019500 0.003525
vn -1.326832 5.540275 -1.504485
v 0.002844 0.019500 0.003225
vn -1.801573 5.540276 -0.882206
v 0.003862 0.019500 0.001891
vn 2.113442 5.158564 1.103073
v 0.004167 0.019500 0.002175
vn -2.002041 5.540277 -0.125620
v 0.004292 0.019500 0.000269
vn 2.368510 5.158567 0.271222
v 0.004669 0.019500 0.000535
vn -1.897722 5.540274 0.650091
v 0.004068 0.019500 -0.001394
vn 2.308095 5.158562 -0.596754
v 0.004550 0.019500 -0.001176
vn -1.504486 5.540276 1.326832
v 0.003225 0.019500 -0.002844
vn 1.940232 5.158567 -1.385243
v 0.003825 0.019500 -0.002731
vn -0.882207 5.540275 1.801575
v 0.001891 0.019500 -0.003862
vn 1.313939 5.158560 -1.989219
v 0.002590 0.019500 -0.003922
vn -0.125621 5.540277 2.002040
v 0.000269 0.019500 -0.004292
vn 0.512616 5.158569 -2.328222
v 0.001011 0.019500 -0.004590
vn -0.356979 5.158565 -2.357111
v -0.000704 0.019500 -0.004647
vn 0.650089 5.540277 1.897718
v -0.001394 0.019500 -0.004068
vn -1.179027 5.158565 -2.072030
v -0.002324 0.019500 -0.004085
vn 1.326831 5.540275 1.504485
v -0.002844 0.019500 -0.003225
vn -1.844028 5.158564 -1.510951
v -0.003635 0.019500 -0.002979
vn 1.801574 5.540275 0.882207
v -0.003862 0.019500 -0.001891
vn -2.263402 5.158565 -0.748612
v -0.004462 0.019500 -0.001476
vn 2.002041 5.540277 0.125620
v -0.004292 0.019500 -0.000269
vn -2.197267 5.360523 -0.341731
v -0.004695 0.019500 0.000224
vn 1.897715 5.540279 -0.650089
v -0.004068 0.019500 0.001394
vn -1.817123 5.562476 -0.768759
v -0.004952 0.019500 0.001666
vn -1.555695 5.462757 -1.424329
v -0.005808 0.019500 0.002856
vn 1.504488 -5.540274 -1.326832
v -0.003225 -0.019500 0.002844
vn 0.882204 -5.540280 -1.801570
v -0.001891 -0.019500 0.003862
vn 1.208298 -5.293459 1.816803
v -0.022069 -0.019500 0.025729
vn -1.651517 -5.293461 -1.425924
v -0.026302 -0.019500 0.020929
vn -1.555696 -5.462758 -1.424329
v -0.005808 -0.019500 0.002856
vn 1.897714 -5.540279 -0.650090
v -0.004068 -0.019500 0.001394
vn -1.817123 -5.562476 -0.768760
v -0.004952 -0.019500 0.001666
vn 2.002041 -5.540277 0.125620
v -0.004292 -0.019500 -0.000269
vn -2.197268 -5.360523 -0.341731
v -0.004695 -0.019500 0.000224
vn 1.801574 -5.540274 0.882208
v -0.003862 -0.019500 -0.001891
vn 0.125620 -5.540277 -2.002040
v -0.000269 -0.019500 0.004292
vn -0.650091 -5.540274 -1.897720
v 0.001394 -0.019500 0.004068
vn 1.689029 -5.260799 1.580704
v 0.003109 -0.019500 0.003525
vn -1.326831 -5.540275 -1.504485
v 0.002844 -0.019500 0.003225
vn 2.113442 -5.158564 1.103073
v 0.004167 -0.019500 0.002175
vn -1.801573 -5.540277 -0.882206
v 0.003862 -0.019500 0.001891
vn 2.368509 -5.158567 0.271223
v 0.004669 -0.019500 0.000535
vn -2.002040 -5.540277 -0.125619
v 0.004292 -0.019500 0.000269
vn 2.308094 -5.158562 -0.596756
v 0.004550 -0.019500 -0.001176
vn -1.897721 -5.540274 0.650091
v 0.004068 -0.019500 -0.001394
vn 1.940233 -5.158567 -1.385241
v 0.003825 -0.019500 -0.002731
vn -1.504486 -5.540274 1.326832
v 0.003225 -0.019500 -0.002844
vn 1.313937 -5.158559 -1.989220
v 0.002590 -0.019500 -0.003922
vn -0.882207 -5.540274 1.801575
v 0.001891 -0.019500 -0.003862
vn 0.512618 -5.158568 -2.328222
v 0.001011 -0.019500 -0.004590
vn -0.125621 -5.540277 2.002041
v 0.000269 -0.019500 -0.004292
vn -0.356979 -5.158566 -2.357111
v -0.000704 -0.019500 -0.004647
vn 0.650090 -5.540277 1.897718
v -0.001394 -0.019500 -0.004068
vn -1.179027 -5.158565 -2.072029
v -0.002324 -0.019500 -0.004085
vn 1.326831 -5.540275 1.504485
v -0.002844 -0.019500 -0.003225
vn -1.844028 -5.158564 -1.510951
v -0.003635 -0.019500 -0.002979
vn -2.263401 -5.158565 -0.748612
v -0.004462 -0.019500 -0.001476
vn -0.991160 5.417960 -2.232405
v -0.027374 -0.014500 0.021875
vn 2.091002 5.417962 1.262437
v -0.023141 -0.014500 0.026675
vn -1.539886 5.441345 -1.479770
v -0.005808 -0.014500 0.002856
vn 2.967964 3.031703 0.664828
v -0.000416 -0.014500 0.006634
vn -1.795403 5.483845 -1.045779
v -0.005103 -0.014500 0.001978
vn 2.745811 2.356194 -0.940617
v -0.000266 -0.014500 0.004234
vn -1.991357 3.051444 -2.338640
v -0.004737 -0.014500 0.000928
vn 0.325454 1.719752 -2.358227
v -0.003746 -0.014500 0.000288
vn -2.389233 2.774570 -1.957679
v -0.003868 -0.015400 -0.003169
vn -2.932600 2.774570 -0.969948
v -0.004747 -0.015400 -0.001570
vn 0.325454 4.563434 -2.358227
v -0.003746 -0.015400 0.000288
vn -3.118065 3.113037 -0.381136
v -0.004994 -0.015400 0.000238
vn -5.385162 0.895465 -2.509072
v -0.005094 -0.015400 0.001159
vn 2.738304 2.774569 1.429209
v 0.004433 -0.015400 0.002314
vn 2.745810 3.926991 -0.940617
v -0.000266 -0.015400 0.004234
vn 2.275506 2.958081 2.146816
v 0.003307 -0.015400 0.003750
vn 4.684666 0.785397 3.632661
v -0.000443 -0.015400 0.007057
vn 2.007163 3.665192 2.275909
v -0.001323 -0.015400 -0.001500
vn -1.527618 2.774570 -2.684647
v -0.002473 -0.015400 -0.004346
vn 0.600300 3.665191 2.974577
v -0.000396 -0.015400 -0.001960
vn -2.275909 3.665191 2.007164
v 0.001500 -0.015400 -0.001323
vn 1.702415 2.774570 -2.577350
v 0.002756 -0.015400 -0.004172
vn -0.967413 3.665192 2.876209
v 0.000638 -0.015400 -0.001896
vn 0.664180 2.774568 -3.016589
v 0.001075 -0.015400 -0.004883
vn -0.462524 2.774570 -3.054017
v -0.000749 -0.015400 -0.004944
vn -0.600300 3.665191 -2.974576
v 0.000396 -0.015400 0.001960
vn 0.967413 3.665192 -2.876209
v -0.000638 -0.015400 0.001896
vn 2.275909 3.665191 -2.007163
v -0.001500 -0.015400 0.001323
vn 2.974576 3.665192 -0.600300
v -0.001960 -0.015400 0.000396
vn 2.876209 3.665191 0.967414
v -0.001896 -0.015400 -0.000638
vn -2.007163 3.665192 -2.275909
v 0.001323 -0.015400 0.001500
vn -2.876209 3.665191 -0.967414
v 0.001896 -0.015400 0.000638
vn 3.068787 2.774569 0.351412
v 0.004968 -0.015400 0.000569
vn -2.974576 3.665192 0.600300
v 0.001960 -0.015400 -0.000396
vn 2.990505 2.774570 -0.773192
v 0.004841 -0.015400 -0.001252
vn 2.513885 2.774568 -1.794805
v 0.004069 -0.015400 -0.002905
vn -2.974576 -3.665192 0.600300
v 0.001960 0.015400 -0.000396
vn -2.275909 -3.665191 2.007164
v 0.001500 0.015400 -0.001323
vn 2.513885 -2.774568 -1.794805
v 0.004069 0.015400 -0.002905
vn 4.684666 -0.785397 3.632661
v -0.000443 0.015400 0.007057
vn 2.745811 -3.926991 -0.940617
v -0.000266 0.015400 0.004234
vn 2.275506 -2.958081 2.146816
v 0.003307 0.015400 0.003750
vn 2.738304 -2.774569 1.429208
v 0.004433 0.015400 0.002314
vn -4.629097 -1.610672 -2.377953
v -0.005011 0.015400 0.000729
vn -3.123158 -3.101309 -0.314374
v -0.004994 0.015400 0.000238
vn 1.155693 -4.003919 -2.609621
v -0.003378 0.015400 0.000705
vn -2.932600 -2.774570 -0.969948
v -0.004747 0.015400 -0.001570
vn -2.389233 -2.774569 -1.957679
v -0.003868 0.015400 -0.003169
vn 1.702414 -2.774570 -2.577350
v 0.002756 0.015400 -0.004172
vn -0.967413 -3.665192 2.876209
v 0.000638 0.015400 -0.001896
vn 0.664180 -2.774568 -3.016589
v 0.001075 0.015400 -0.004883
vn -0.462524 -2.774569 -3.054017
v -0.000749 0.015400 -0.004944
vn 0.600300 -3.665191 2.974577
v -0.000396 0.015400 -0.001960
vn 2.007163 -3.665192 2.275909
v -0.001323 0.015400 -0.001500
vn -1.527618 -2.774569 -2.684647
v -0.002473 0.015400 -0.004346
vn 2.876209 -3.665191 0.967414
v -0.001896 0.015400 -0.000638
vn 2.974576 -3.665192 -0.600300
v -0.001960 0.015400 0.000396
vn 2.275909 -3.665191 -2.007163
v -0.001500 0.015400 0.001323
vn 0.967413 -3.665192 -2.876209
v -0.000638 0.015400 0.001896
vn -0.600300 -3.665191 -2.974577
v 0.000396 0.015400 0.001960
vn 2.990505 -2.774570 -0.773192
v 0.004841 0.015400 -0.001252
vn 3.068787 -2.774569 0.351412
v 0.004968 0.015400 0.000569
vn -2.876209 -3.665191 -0.967414
v 0.001896 0.015400 0.000638
vn -2.007163 -3.665192 -2.275909
v 0.001323 0.015400 0.001500
vn 3.819268 2.121280 3.613715
v 0.003307 0.019200 0.003750
vn 4.530052 2.021118 2.364379
v 0.004433 0.019200 0.002314
vn 5.076776 2.021120 0.581350
v 0.004968 0.019200 0.000569
vn 4.947277 2.021118 -1.279112
v 0.004841 0.019200 -0.001252
vn 4.158787 2.021120 -2.969195
v 0.004069 0.019200 -0.002905
vn 2.816354 2.021116 -4.263783
v 0.002756 0.019200 -0.004172
vn 1.098770 2.021121 -4.990423
v 0.001075 0.019200 -0.004883
vn -0.765166 2.021120 -5.052344
v -0.000749 0.019200 -0.004944
vn -2.527180 2.021118 -4.441285
v -0.002473 0.019200 -0.004346
vn -3.952575 2.021118 -3.238643
v -0.003868 0.019200 -0.003169
vn -4.851482 2.021119 -1.604611
v -0.004747 0.019200 -0.001570
vn -5.339461 2.217224 -0.844677
v -0.004994 0.019200 0.000238
vn 3.819267 -2.121278 3.613713
v 0.003307 -0.019200 0.003750
vn 3.408860 2.273985 4.064240
v -0.021870 0.019200 0.025954
vn 4.950332 -0.963414 3.090311
v -0.024437 0.013650 0.028218
vn 4.421381 -1.668720 3.556795
v -0.023805 0.014492 0.027661
vn 1.938844 -1.570797 4.573264
v -0.028568 0.008750 0.031861
vn 2.707922 2.094324 4.602296
v -0.025038 0.018232 0.028748
vn 3.078008 2.267745 4.275895
v -0.023495 0.018955 0.027388
vn 3.816675 -2.074158 3.937411
v -0.022943 0.014800 0.026900
vn 4.243505 -1.545930 2.474462
v -0.000443 0.014800 0.007057
vn 2.765788 1.699096 4.896464
v -0.028362 0.014541 0.031679
vn 2.397585 1.586649 5.048587
v -0.027574 0.015521 0.030985
vn 2.376226 1.815062 4.894813
v -0.026421 0.017068 0.029968
vn 3.357447 2.179613 4.127242
v -0.032693 0.013700 0.035499
vn 1.991866 -3.069359 2.426863
v -0.032693 0.008750 0.035499
vn 3.478503 2.144540 4.171314
v -0.030397 0.013700 0.033474
vn 3.159226 1.978846 4.530530
v -0.029331 0.013915 0.032535
vn 3.408864 -2.273991 4.064244
v -0.021870 -0.019200 0.025954
vn 4.243506 1.545931 2.474463
v -0.000443 -0.014800 0.007057
vn 3.816675 2.074159 3.937414
v -0.022943 -0.014800 0.026900
vn 1.991866 3.069359 2.426863
v -0.032693 -0.008750 0.035499
vn 3.357449 -2.179612 4.127243
v -0.032693 -0.013700 0.035499
vn 1.938844 1.570796 4.573265
v -0.028568 -0.008750 0.031861
vn 3.476297 -2.140604 4.177390
v -0.030397 -0.013700 0.033474
vn 4.421382 1.668719 3.556795
v -0.023805 -0.014492 0.027661
vn 4.950332 0.963413 3.090312
v -0.024437 -0.013650 0.028218
vn 5.178677 0.258152 2.736238
v -0.024668 -0.012500 0.028422
vn 5.178679 -0.258151 2.736237
v -0.024668 0.012500 0.028422
vn 3.181958 -1.967535 4.529444
v -0.029331 -0.013915 0.032535
vn 2.765787 -1.699099 4.896465
v -0.028362 -0.014541 0.031679
vn 2.397583 -1.586651 5.048588
v -0.027574 -0.015521 0.030985
vn 2.376226 -1.815062 4.894814
v -0.026421 -0.017068 0.029968
vn 2.707923 -2.094325 4.602294
v -0.025038 -0.018232 0.028748
vn 3.078007 -2.267744 4.275896
v -0.023495 -0.018955 0.027388
vn 4.530051 -2.021119 2.364378
v 0.004433 -0.019200 0.002314
vn 5.076776 -2.021120 0.581351
v 0.004968 -0.019200 0.000569
vn 4.947277 -2.021118 -1.279113
v 0.004841 -0.019200 -0.001252
vn 4.158788 -2.021119 -2.969194
v 0.004069 -0.019200 -0.002905
vn 2.816352 -2.021116 -4.263784
v 0.002756 -0.019200 -0.004172
vn 1.098771 -2.021121 -4.990422
v 0.001075 -0.019200 -0.004883
vn -0.765166 -2.021119 -5.052344
v -0.000749 -0.019200 -0.004944
vn -2.527181 -2.021119 -4.441285
v -0.002473 -0.019200 -0.004346
vn -3.952575 -2.021119 -3.238643
v -0.003868 -0.019200 -0.003169
vn -4.851481 -2.021119 -1.604611
v -0.004747 -0.019200 -0.001570
vn -5.342175 -2.194856 -0.828430
v -0.004994 -0.019200 0.000238
vn -0.083286 2.104387 -5.281616
v -0.036067 0.013700 0.026749
vn -0.035780 -2.913784 -3.119718
v -0.035834 0.008750 0.026752
vn -0.874629 2.133362 -5.204451
v -0.036865 0.013700 0.026824
vn -0.941714 -2.838503 -2.953779
v -0.037518 0.008750 0.026985
vn -1.663915 2.268156 -4.821511
v -0.037518 0.013700 0.026985
vn -2.538452 2.127316 -4.609877
v -0.038514 0.013700 0.027427
vn -1.876863 -2.836995 -2.467387
v -0.039026 0.008750 0.027769
vn -3.213033 2.262051 -3.970845
v -0.039026 0.013700 0.027769
vn -3.956341 2.127382 -3.470415
v -0.039853 0.013700 0.028563
vn -2.594913 -2.835122 -1.695804
v -0.040185 0.008750 0.029013
vn -4.382102 2.254485 -2.642245
v -0.040185 0.013700 0.029013
vn -4.901667 2.127474 -1.916260
v -0.040717 0.013700 0.030091
vn -3.012869 -2.832886 -0.728292
v -0.040860 0.008750 0.030573
vn -5.030816 2.245472 -0.992667
v -0.040860 0.013700 0.030573
vn -5.261475 2.127554 -0.133016
v -0.040999 0.013700 0.031824
vn -3.082454 -2.830297 0.323234
v -0.040973 0.008750 0.032269
vn -5.080256 2.235043 0.782475
v -0.040973 0.013700 0.032269
vn -4.992696 2.127670 1.666255
v -0.040665 0.013700 0.033548
vn -2.795692 -2.827334 1.337176
v -0.040512 0.008750 0.033905
vn -4.522317 2.223280 2.472136
v -0.040512 0.013700 0.033905
vn -4.127391 2.127790 3.266669
v -0.039756 0.013700 0.035050
vn -2.185831 -2.824019 2.196307
v -0.039529 0.008750 0.035291
vn -3.421125 2.210290 3.874746
v -0.039529 0.013700 0.035291
vn -2.768888 2.127928 4.476965
v -0.038383 0.013700 0.036145
vn -1.323463 -2.820328 2.801330
v -0.038138 0.008750 0.036269
vn -1.905580 2.196260 4.822018
v -0.038138 0.013700 0.036269
vn -1.079379 2.128073 5.152560
v -0.036716 0.013700 0.036697
vn -0.308368 -2.816282 3.082376
v -0.036500 0.008750 0.036724
vn -0.154434 2.181461 5.199213
v -0.036500 0.013700 0.036724
vn 0.739395 2.128217 5.212616
v -0.034961 0.013700 0.036640
vn 0.744995 -2.807672 3.005763
v -0.034805 0.008750 0.036604
vn 1.628020 2.161863 4.957576
v -0.034805 0.013700 0.036604
vn 1.584918 -2.899334 2.685928
v -0.033247 0.008750 0.035923
vn 2.600522 2.087456 4.517857
v -0.033334 0.013700 0.035979
vn -0.040102 2.920243 -3.120180
v -0.035834 -0.008750 0.026752
vn 2.603695 -2.092000 4.516519
v -0.033334 -0.013700 0.035979
vn 1.587856 2.903411 2.684635
v -0.033247 -0.008750 0.035923
vn 0.742032 2.811877 3.007051
v -0.034805 -0.008750 0.036604
vn -0.308368 2.816282 3.082376
v -0.036500 -0.008750 0.036724
vn 0.739395 -2.128217 5.212616
v -0.034961 -0.013700 0.036640
vn 1.624872 -2.166271 4.958922
v -0.034805 -0.013700 0.036604
vn -1.323463 2.820328 2.801330
v -0.038138 -0.008750 0.036269
vn -1.079379 -2.128073 5.152560
v -0.036716 -0.013700 0.036697
vn -0.154434 -2.181461 5.199213
v -0.036500 -0.013700 0.036724
vn -2.185831 2.824018 2.196307
v -0.039529 -0.008750 0.035291
vn -2.768888 -2.127928 4.476965
v -0.038383 -0.013700 0.036145
vn -1.905580 -2.196260 4.822019
v -0.038138 -0.013700 0.036269
vn -2.795692 2.827334 1.337176
v -0.040512 -0.008750 0.033905
vn -4.131983 -2.143868 3.229786
v -0.039756 -0.013700 0.035050
vn -3.421125 -2.210290 3.874746
v -0.039529 -0.013700 0.035291
vn -3.082454 2.830297 0.323235
v -0.040973 -0.008750 0.032269
vn -4.983094 -2.146159 1.624661
v -0.040665 -0.013700 0.033548
vn -4.457328 -2.263537 2.485692
v -0.040512 -0.013700 0.033905
vn -3.012869 2.832887 -0.728292
v -0.040860 -0.008750 0.030573
vn -5.235137 -2.148471 -0.173424
v -0.040999 -0.013700 0.031824
vn -5.009370 -2.285370 0.822140
v -0.040973 -0.013700 0.032269
vn -2.594913 2.835121 -1.695804
v -0.040185 -0.008750 0.029013
vn -4.858601 -2.150831 -1.948485
v -0.040717 -0.013700 0.030091
vn -4.964234 -2.306806 -0.921622
v -0.040860 -0.013700 0.030573
vn -1.876863 2.836995 -2.467387
v -0.039026 -0.008750 0.027769
vn -3.899483 -2.153195 -3.487484
v -0.039853 -0.013700 0.028563
vn -4.332993 -2.327690 -2.538532
v -0.040185 -0.013700 0.029013
vn -0.941714 2.838503 -2.953779
v -0.037518 -0.008750 0.026985
vn -2.473605 -2.155598 -4.606039
v -0.038514 -0.013700 0.027427
vn -3.195920 -2.347964 -3.838551
v -0.039026 -0.013700 0.027769
vn -0.066027 -2.121902 -5.267826
v -0.036067 -0.013700 0.026749
vn -0.874629 -2.133362 -5.204451
v -0.036865 -0.013700 0.026824
vn -1.692500 -2.367574 -4.670923
v -0.037518 -0.013700 0.026985
vn -0.059678 -5.277150 -2.310545
v -0.036063 -0.014000 0.027049
vn 0.146555 -5.521112 2.017177
v -0.036151 -0.014000 0.028703
vn -0.443156 -5.276398 -2.251749
v -0.036813 -0.014000 0.027120
vn 1.005986 -5.519844 1.755456
v -0.037458 -0.014000 0.029070
vn -2.030386 -5.489532 -0.382828
v -0.032997 -0.014000 0.032280
vn -1.995710 -5.487322 0.547743
v -0.033064 -0.014000 0.030924
vn 1.202717 -5.414552 1.978807
v -0.030595 -0.014000 0.033249
vn -1.476664 -5.524758 1.381858
v -0.033712 -0.014000 0.029732
vn -0.742921 -5.524274 1.877746
v -0.034814 -0.014000 0.028939
vn 1.918359 -5.541258 -0.555206
v -0.038936 -0.014000 0.032574
vn -2.331938 -5.223373 -0.033550
v -0.040699 -0.014000 0.031820
vn 1.986693 -5.528035 0.321350
v -0.039003 -0.014000 0.031218
vn -2.175945 -5.223478 -0.840049
v -0.040434 -0.014000 0.030191
vn 1.662617 -5.521591 1.148138
v -0.038476 -0.014000 0.029968
vn -1.751060 -5.222925 -1.542091
v -0.039622 -0.014000 0.028754
vn -1.110109 -5.221897 -2.053645
v -0.038363 -0.014000 0.027686
vn -0.066525 -5.514971 -2.030306
v -0.035849 -0.014000 0.034795
vn -0.363460 -5.233598 2.297094
v -0.036673 -0.014000 0.036401
vn 0.802533 -5.536583 -1.836200
v -0.037186 -0.014000 0.034559
vn -1.135632 -5.242017 2.022177
v -0.038240 -0.014000 0.035881
vn 1.479360 -5.562850 -1.304672
v -0.038287 -0.014000 0.033766
vn -1.801585 -5.225703 1.480159
v -0.039530 -0.014000 0.034852
vn -2.198863 -5.222485 0.778285
v -0.040385 -0.014000 0.033440
vn -1.653044 -5.493919 -1.228852
v -0.033524 -0.014000 0.033530
vn 1.425361 -5.321031 1.755871
v -0.032891 -0.014000 0.035274
vn -0.947498 -5.501717 -1.816695
v -0.034542 -0.014000 0.034428
vn 1.156664 -5.232722 2.027165
v -0.033494 -0.014000 0.035725
vn 0.461129 -5.222545 2.288333
v -0.035024 -0.014000 0.036346
vn 2.006067 5.514968 0.319796
v -0.039003 0.014000 0.031218
vn 1.684010 5.501714 1.167157
v -0.038476 0.014000 0.029968
vn -1.757941 5.262038 -1.490925
v -0.039622 0.014000 0.028754
vn -1.137572 5.263663 -2.003588
v -0.038363 0.014000 0.027686
vn 1.012583 5.493923 1.793683
v -0.037458 0.014000 0.029070
vn -0.426244 5.279760 -2.253792
v -0.036813 0.014000 0.027120
vn 0.126029 5.489532 2.062314
v -0.036151 0.014000 0.028703
vn -0.088983 5.293275 -2.296067
v -0.036063 0.014000 0.027049
vn -0.792914 5.487319 1.911593
v -0.034814 0.014000 0.028939
vn -1.555603 5.524758 1.292350
v -0.033712 0.014000 0.029732
vn 1.217496 5.412209 1.973894
v -0.030595 0.014000 0.033249
vn -2.165011 5.259887 -0.795255
v -0.040434 0.014000 0.030191
vn -2.308383 5.257025 -0.000452
v -0.040699 0.014000 0.031820
vn 1.922116 5.536582 -0.566718
v -0.038936 0.014000 0.032574
vn -2.169127 5.253305 0.797168
v -0.040385 0.014000 0.033440
vn 1.479358 5.562850 -1.304675
v -0.038287 0.014000 0.033766
vn -1.762371 5.248422 1.500295
v -0.039530 0.014000 0.034852
vn 0.790639 5.541259 -1.833913
v -0.037186 0.014000 0.034559
vn -1.955879 5.524278 0.502374
v -0.033064 0.014000 0.030924
vn -1.983038 5.521112 -0.397551
v -0.032997 0.014000 0.032280
vn 1.425361 5.321029 1.755872
v -0.032891 0.014000 0.035274
vn -1.615942 5.519840 -1.217529
v -0.033524 0.014000 0.033530
vn 1.156666 5.232721 2.027164
v -0.033494 0.014000 0.035725
vn -0.931299 5.521595 -1.793092
v -0.034542 0.014000 0.034428
vn 0.461129 5.222545 2.288333
v -0.035024 0.014000 0.036346
vn -0.070489 5.528039 -2.011276
v -0.035849 0.014000 0.034795
vn -0.363460 5.233598 2.297094
v -0.036673 0.014000 0.036401
vn -1.135632 5.242017 2.022177
v -0.038240 0.014000 0.035881
vn -2.217082 -4.712389 -0.139114
v -0.033198 0.008750 0.026611
vn -0.947498 -5.501717 -1.816695
v -0.034542 0.008750 0.034428
vn -1.653044 -5.493919 -1.228852
v -0.033524 0.008750 0.033530
vn -0.066525 -5.514971 -2.030306
v -0.035849 0.008750 0.034795
vn 0.802533 -5.536583 -1.836200
v -0.037186 0.008750 0.034559
vn 1.479360 -5.562850 -1.304672
v -0.038287 0.008750 0.033766
vn -0.742921 -5.524274 1.877746
v -0.034814 0.008750 0.028939
vn 0.146555 -5.521112 2.017177
v -0.036151 0.008750 0.028703
vn 1.005986 -5.519843 1.755456
v -0.037458 0.008750 0.029070
vn -1.476664 -5.524754 1.381858
v -0.033712 0.008750 0.029732
vn -1.995710 -5.487323 0.547743
v -0.033064 0.008750 0.030924
vn -2.030386 -5.489532 -0.382828
v -0.032997 0.008750 0.032280
vn 1.918359 -5.541258 -0.555206
v -0.038936 0.008750 0.032574
vn 1.986693 -5.528035 0.321350
v -0.039003 0.008750 0.031218
vn 1.662617 -5.521591 1.148138
v -0.038476 0.008750 0.029968
vn -2.217081 4.712389 -0.139113
v -0.033198 -0.008750 0.026611
vn -0.792914 5.487319 1.911593
v -0.034814 -0.008750 0.028939
vn -1.555603 5.524755 1.292350
v -0.033712 -0.008750 0.029732
vn -1.955879 5.524278 0.502374
v -0.033064 -0.008750 0.030924
vn -1.983038 5.521112 -0.397551
v -0.032997 -0.008750 0.032280
vn -1.615942 5.519840 -1.217529
v -0.033524 -0.008750 0.033530
vn -0.931299 5.521595 -1.793092
v -0.034542 -0.008750 0.034428
vn -0.070489 5.528039 -2.011276
v -0.035849 -0.008750 0.034795
vn 1.922116 5.536582 -0.566718
v -0.038936 -0.008750 0.032574
vn 1.479358 5.562850 -1.304675
v -0.038287 -0.008750 0.033766
vn 0.790639 5.541259 -1.833913
v -0.037186 -0.008750 0.034559
vn 0.126029 5.489532 2.062314
v -0.036151 -0.008750 0.028703
vn 1.012583 5.493923 1.793683
v -0.037458 -0.008750 0.029070
vn 1.684010 5.501714 1.167157
v -0.038476 -0.008750 0.029968
vn 2.006067 5.514968 0.319796
v -0.039003 -0.008750 0.031218
vn 5.604555 0.733231 -1.836224
v -0.024641 -0.012500 0.027998
vn 2.522392 0.733230 -5.331067
v -0.028874 -0.012500 0.023198
vn 5.604553 -0.733230 -1.836223
v -0.024641 0.012500 0.027998
vn 2.522393 -0.733232 -5.331069
v -0.028874 0.012500 0.023198
vn 2.275909 3.665191 -2.007163
v -0.001500 0.017400 0.001323
vn 0.967413 3.665192 -2.876209
v -0.000638 0.017400 0.001896
vn -0.600300 3.665191 -2.974577
v 0.000396 0.017400 0.001960
vn -2.007163 3.665191 -2.275909
v 0.001323 0.017400 0.001500
vn -2.876209 3.665191 -0.967414
v 0.001896 0.017400 0.000638
vn -2.974576 3.665192 0.600300
v 0.001960 0.017400 -0.000396
vn -2.275909 3.665191 2.007163
v 0.001500 0.017400 -0.001323
vn -0.967413 3.665192 2.876209
v 0.000638 0.017400 -0.001896
vn 0.600300 3.665191 2.974577
v -0.000396 0.017400 -0.001960
vn 2.007163 3.665192 2.275909
v -0.001323 0.017400 -0.001500
vn 2.876209 3.665191 0.967414
v -0.001896 0.017400 -0.000638
vn 2.974576 3.665192 -0.600300
v -0.001960 0.017400 0.000396
vn 3.075180 2.748894 0.192954
v -0.003992 0.017400 -0.000250
vn 2.914937 2.748894 -0.998552
v -0.003784 0.017400 0.001296
vn 2.310920 2.748892 -2.038040
v -0.003000 0.017400 0.002646
vn -0.192955 2.748894 3.075181
v 0.000250 0.017400 -0.003992
vn 0.998553 2.748893 2.914937
v -0.001296 0.017400 -0.003784
vn 2.038041 2.748894 2.310921
v -0.002646 0.017400 -0.003000
vn 2.767255 2.748893 1.355087
v -0.003592 0.017400 -0.001759
vn -3.075180 2.748894 -0.192956
v 0.003992 0.017400 0.000250
vn -2.914937 2.748894 0.998552
v 0.003784 0.017400 -0.001296
vn -2.310920 2.748892 2.038040
v 0.003000 0.017400 -0.002646
vn -1.355087 2.748894 2.767256
v 0.001759 0.017400 -0.003592
vn 1.355087 2.748894 -2.767256
v -0.001759 0.017400 0.003592
vn 0.192956 2.748894 -3.075180
v -0.000250 0.017400 0.003992
vn -0.998552 2.748893 -2.914937
v 0.001296 0.017400 0.003784
vn -2.038041 2.748894 -2.310921
v 0.002646 0.017400 0.003000
vn -2.767255 2.748894 -1.355088
v 0.003592 0.017400 0.001759
vn 4.106116 2.393596 -3.621256
v -0.003000 0.019200 0.002646
vn 2.407760 2.393603 -4.916942
v -0.001759 0.019200 0.003592
vn 0.342850 2.393600 -5.464073
v -0.000250 0.019200 0.003992
vn -1.774259 2.393597 -5.179352
v 0.001296 0.019200 0.003784
vn -3.621255 2.393597 -4.106116
v 0.002646 0.019200 0.003000
vn -4.916944 2.393599 -2.407763
v 0.003592 0.019200 0.001759
vn -5.464074 2.393600 -0.342850
v 0.003992 0.019200 0.000250
vn -5.179352 2.393596 1.774259
v 0.003784 0.019200 -0.001296
vn -4.106118 2.393597 3.621255
v 0.003000 0.019200 -0.002646
vn -2.407761 2.393596 4.916947
v 0.001759 0.019200 -0.003592
vn -0.342849 2.393600 5.464075
v 0.000250 0.019200 -0.003992
vn 1.774260 2.393600 5.179349
v -0.001296 0.019200 -0.003784
vn 3.621254 2.393598 4.106116
v -0.002646 0.019200 -0.003000
vn 4.916947 2.393597 2.407761
v -0.003592 0.019200 -0.001759
vn 5.464073 2.393600 0.342848
v -0.003992 0.019200 -0.000250
vn 5.179347 2.393603 -1.774256
v -0.003784 0.019200 0.001296
vn -2.275909 -3.665191 2.007164
v 0.001500 -0.017400 -0.001323
vn -2.974576 -3.665192 0.600300
v 0.001960 -0.017400 -0.000396
vn -2.876209 -3.665191 -0.967414
v 0.001896 -0.017400 0.000638
vn -2.007163 -3.665192 -2.275909
v 0.001323 -0.017400 0.001500
vn -0.600300 -3.665191 -2.974577
v 0.000396 -0.017400 0.001960
vn 0.967413 -3.665192 -2.876209
v -0.000638 -0.017400 0.001896
vn 2.275909 -3.665191 -2.007163
v -0.001500 -0.017400 0.001323
vn 2.974576 -3.665192 -0.600300
v -0.001960 -0.017400 0.000396
vn 2.876209 -3.665191 0.967414
v -0.001896 -0.017400 -0.000638
vn 2.007163 -3.665192 2.275909
v -0.001323 -0.017400 -0.001500
vn 0.600300 -3.665191 2.974577
v -0.000396 -0.017400 -0.001960
vn -0.967413 -3.665192 2.876209
v 0.000638 -0.017400 -0.001896
vn -0.192955 -2.748894 3.075181
v 0.000250 -0.017400 -0.003992
vn -1.355087 -2.748894 2.767256
v 0.001759 -0.017400 -0.003592
vn -2.310920 -2.748892 2.038040
v 0.003000 -0.017400 -0.002646
vn 3.075180 -2.748894 0.192955
v -0.003992 -0.017400 -0.000250
vn 2.767255 -2.748893 1.355087
v -0.003592 -0.017400 -0.001759
vn 2.038041 -2.748894 2.310921
v -0.002646 -0.017400 -0.003000
vn 0.998553 -2.748893 2.914937
v -0.001296 -0.017400 -0.003784
vn 0.192956 -2.748894 -3.075180
v -0.000250 -0.017400 0.003992
vn 1.355087 -2.748894 -2.767256
v -0.001759 -0.017400 0.003592
vn 2.310920 -2.748892 -2.038040
v -0.003000 -0.017400 0.002646
vn 2.914937 -2.748894 -0.998552
v -0.003784 -0.017400 0.001296
vn -2.914937 -2.748894 0.998552
v 0.003784 -0.017400 -0.001296
vn -3.075180 -2.748894 -0.192956
v 0.003992 -0.017400 0.000250
vn -2.767255 -2.748893 -1.355088
v 0.003592 -0.017400 0.001759
vn -2.038041 -2.748894 -2.310921
v 0.002646 -0.017400 0.003000
vn -0.998552 -2.748893 -2.914937
v 0.001296 -0.017400 0.003784
vn -4.106117 -2.393596 3.621255
v 0.003000 -0.019200 -0.002646
vn -5.179353 -2.393595 1.774258
v 0.003784 -0.019200 -0.001296
vn -5.464074 -2.393600 -0.342849
v 0.003992 -0.019200 0.000250
vn -4.916944 -2.393599 -2.407762
v 0.003592 -0.019200 0.001759
vn -3.621255 -2.393598 -4.106116
v 0.002646 -0.019200 0.003000
vn -1.774258 -2.393596 -5.179352
v 0.001296 -0.019200 0.003784
vn 0.342849 -2.393600 -5.464073
v -0.000250 -0.019200 0.003992
vn 2.407758 -2.393603 -4.916942
v -0.001759 -0.019200 0.003592
vn 4.106118 -2.393596 -3.621254
v -0.003000 -0.019200 0.002646
vn 5.179347 -2.393602 -1.774258
v -0.003784 -0.019200 0.001296
vn 5.464074 -2.393600 0.342848
v -0.003992 -0.019200 -0.000250
vn 4.916947 -2.393597 2.407762
v -0.003592 -0.019200 -0.001759
vn 3.621253 -2.393598 4.106117
v -0.002646 -0.019200 -0.003000
vn 1.774260 -2.393600 5.179349
v -0.001296 -0.019200 -0.003784
vn -0.342848 -2.393601 5.464074
v 0.000250 -0.019200 -0.003992
vn -2.407762 -2.393596 4.916946
v 0.001759 -0.019200 -0.003592
vn 5.069135 -2.326082 -2.025465
v -0.038647 -0.013700 0.032493
vn 5.069133 2.326084 -2.025461
v -0.038647 -0.009050 0.032493
vn 4.107378 -2.413646 -3.622354
v -0.038063 -0.013700 0.033568
vn 4.107373 2.413647 -3.622358
v -0.038063 -0.009050 0.033568
vn 2.643167 -2.326093 -4.776229
v -0.037069 -0.013700 0.034283
vn 2.643169 2.326092 -4.776230
v -0.037069 -0.009050 0.034283
vn 1.431430 -2.273202 -5.305876
v -0.036981 -0.013700 0.034318
vn 1.413389 2.256639 -5.324090
v -0.036981 -0.009050 0.034318
vn 0.212512 -2.328372 -5.452661
v -0.035864 -0.013700 0.034496
vn 0.231428 2.317499 -5.460268
v -0.035864 -0.009050 0.034496
vn -1.124797 -2.224198 -5.422580
v -0.035675 -0.013700 0.034480
vn -1.182214 2.176147 -5.447466
v -0.035675 -0.009050 0.034480
vn -2.261905 -2.330243 -4.964114
v -0.034686 -0.013700 0.034165
vn -2.234804 2.308738 -4.994249
v -0.034686 -0.009050 0.034165
vn -3.467007 -2.176488 -4.369324
v -0.034443 -0.013700 0.034016
vn -3.578546 2.076530 -4.372003
v -0.034443 -0.009050 0.034016
vn -4.251899 -2.331681 -3.415574
v -0.033768 -0.013700 0.033355
vn -4.235409 2.299780 -3.473700
v -0.033768 -0.009050 0.033355
vn -5.087224 -2.135709 -2.365977
v -0.033568 -0.013700 0.033032
vn -5.248099 1.958657 -2.303938
v -0.033568 -0.009050 0.033032
vn -5.332881 -2.332706 -1.138094
v -0.033292 -0.013700 0.032227
vn -5.347178 2.290634 -1.216880
v -0.033292 -0.009050 0.032227
vn -5.631281 -2.106213 0.159485
v -0.033250 -0.013700 0.031755
vn -5.806835 1.823191 0.329126
v -0.033250 -0.009050 0.031755
vn -5.274391 -2.333330 1.381866
v -0.033353 -0.013700 0.031005
vn -5.333444 2.281302 1.301795
v -0.033353 -0.009050 0.031005
vn -4.977574 -2.090789 2.663460
v -0.033562 -0.013700 0.030477
vn -5.102514 1.670473 2.963408
v -0.033562 -0.009050 0.030477
vn -4.048016 -2.271768 3.717618
v -0.033937 -0.013700 0.029930
vn -4.194461 2.271768 3.551565
v -0.033937 -0.009050 0.029930
vn -3.577987 -1.670468 4.692064
v -0.034433 -0.013700 0.029489
vn -3.264773 2.090785 4.605598
v -0.034433 -0.009050 0.029489
vn -1.958278 -2.281297 5.128889
v -0.034931 -0.013700 0.029215
vn -2.030340 2.333325 5.060292
v -0.034931 -0.009050 0.029215
vn -1.052386 -1.823190 5.720155
v -0.035662 -0.013700 0.029020
vn -0.862132 2.106211 5.567184
v -0.035662 -0.009050 0.029020
vn 0.538954 -2.290634 5.457345
v -0.036136 -0.013700 0.029002
vn 0.462572 2.332706 5.433310
v -0.036136 -0.009050 0.029002
vn 1.629860 -1.958657 5.494928
v -0.036969 -0.013700 0.029176
vn 1.711523 2.135712 5.343069
v -0.036969 -0.009050 0.029176
vn 2.917033 -2.299784 4.636394
v -0.037314 -0.013700 0.029333
vn 2.857301 2.331684 4.645489
v -0.037314 -0.009050 0.029333
vn 3.890375 -2.076524 4.096996
v -0.038054 -0.013700 0.029921
vn 3.901661 2.176485 3.985996
v -0.038054 -0.009050 0.029921
vn 4.675724 -2.308736 2.841582
v -0.038232 -0.013700 0.030143
vn 4.642439 2.330239 2.864701
v -0.038232 -0.009050 0.030143
vn 5.256942 -2.176139 1.853916
v -0.038669 -0.013700 0.031085
vn 5.239429 2.224185 1.793844
v -0.038669 -0.009050 0.031085
vn 5.446380 -2.317499 0.452977
v -0.038708 -0.013700 0.031271
vn 5.436468 2.328372 0.470793
v -0.038708 -0.009050 0.031271
vn 5.459003 -2.256646 -0.736863
v -0.038672 -0.013700 0.032401
vn 5.443189 2.273208 -0.757037
v -0.038672 -0.009050 0.032401
vn 5.069135 -2.326082 -2.025465
v -0.038647 0.009050 0.032493
vn 5.069133 2.326084 -2.025461
v -0.038647 0.013700 0.032493
vn 4.107378 -2.413646 -3.622354
v -0.038063 0.009050 0.033568
vn 4.107373 2.413647 -3.622358
v -0.038063 0.013700 0.033568
vn 2.643167 -2.326093 -4.776229
v -0.037069 0.009050 0.034283
vn 2.643169 2.326092 -4.776230
v -0.037069 0.013700 0.034283
vn 1.431430 -2.273202 -5.305876
v -0.036981 0.009050 0.034318
vn 1.413389 2.256639 -5.324090
v -0.036981 0.013700 0.034318
vn 0.212512 -2.328372 -5.452661
v -0.035864 0.009050 0.034496
vn 0.231428 2.317499 -5.460268
v -0.035864 0.013700 0.034496
vn -1.124797 -2.224198 -5.422580
v -0.035675 0.009050 0.034480
vn -1.182214 2.176147 -5.447466
v -0.035675 0.013700 0.034480
vn -2.261905 -2.330243 -4.964114
v -0.034686 0.009050 0.034165
vn -2.234804 2.308738 -4.994249
v -0.034686 0.013700 0.034165
vn -3.467007 -2.176488 -4.369324
v -0.034443 0.009050 0.034016
vn -3.578546 2.076530 -4.372003
v -0.034443 0.013700 0.034016
vn -4.251899 -2.331681 -3.415574
v -0.033768 0.009050 0.033355
vn -4.235409 2.299780 -3.473700
v -0.033768 0.013700 0.033355
vn -5.087224 -2.135709 -2.365977
v -0.033568 0.009050 0.033032
vn -5.248099 1.958657 -2.303938
v -0.033568 0.013700 0.033032
vn -5.332881 -2.332706 -1.138094
v -0.033292 0.009050 0.032227
vn -5.347178 2.290634 -1.216880
v -0.033292 0.013700 0.032227
vn -5.631281 -2.106213 0.159485
v -0.033250 0.009050 0.031755
vn -5.806835 1.823191 0.329126
v -0.033250 0.013700 0.031755
vn -5.274391 -2.333330 1.381866
v -0.033353 0.009050 0.031005
vn -5.333444 2.281302 1.301795
v -0.033353 0.013700 0.031005
vn -4.977574 -2.090789 2.663460
v -0.033562 0.009050 0.030477
vn -5.102514 1.670473 2.963408
v -0.033562 0.013700 0.030477
vn -4.048016 -2.271768 3.717618
v -0.033937 0.009050 0.029930
vn -4.194461 2.271768 3.551565
v -0.033937 0.013700 0.029930
vn -3.577987 -1.670468 4.692064
v -0.034433 0.009050 0.029489
vn -3.264773 2.090785 4.605598
v -0.034433 0.013700 0.029489
vn -1.958278 -2.281297 5.128889
v -0.034931 0.009050 0.029215
vn -2.030340 2.333325 5.060292
v -0.034931 0.013700 0.029215
vn -1.052386 -1.823190 5.720155
v -0.035662 0.009050 0.029020
vn -0.862132 2.106211 5.567184
v -0.035662 0.013700 0.029020
vn 0.538954 -2.290634 5.457345
v -0.036136 0.009050 0.029002
vn 0.462572 2.332706 5.433310
v -0.036136 0.013700 0.029002
vn 1.629860 -1.958657 5.494928
v -0.036969 0.009050 0.029176
vn 1.711523 2.135712 5.343069
v -0.036969 0.013700 0.029176
vn 2.917033 -2.299784 4.636394
v -0.037314 0.009050 0.029333
vn 2.857301 2.331684 4.645489
v -0.037314 0.013700 0.029333
vn 3.890375 -2.076524 4.096996
v -0.038054 0.009050 0.029921
vn 3.901661 2.176485 3.985996
v -0.038054 0.013700 0.029921
vn 4.675724 -2.308736 2.841582
v -0.038232 0.009050 0.030143
vn 4.642439 2.330239 2.864701
v -0.038232 0.013700 0.030143
vn 5.256942 -2.176139 1.853916
v -0.038669 0.009050 0.031085
vn 5.239429 2.224185 1.793844
v -0.038669 0.013700 0.031085
vn 5.446380 -2.317499 0.452977
v -0.038708 0.009050 0.031271
vn 5.436468 2.328372 0.470793
v -0.038708 0.013700 0.031271
vn 5.459003 -2.256646 -0.736863
v -0.038672 0.009050 0.032401
vn 5.443189 2.273208 -0.757037
v -0.038672 0.013700 0.032401
vn -2.067438 0.258153 -5.480092
v -0.029298 -0.012500 0.023172
vn -4.740443 -1.559703 -2.945848
v -0.032204 -0.015521 0.025735
vn -2.447266 0.963436 -5.297806
v -0.029067 -0.013650 0.022968
vn -4.559397 -1.815059 -2.969449
v -0.031051 -0.017068 0.024718
vn -2.976230 1.668721 -4.831302
v -0.028435 -0.014492 0.022411
vn -4.227705 -2.094327 -3.261964
v -0.029668 -0.018232 0.023498
vn -3.857612 -2.267741 -3.588359
v -0.028125 -0.018955 0.022138
vn -3.429447 2.074156 -4.278914
v -0.027573 -0.014800 0.021650
vn -3.606258 -2.273991 -3.890157
v -0.026500 -0.019200 0.020704
vn -3.937828 2.298062 -3.749351
v -0.006007 -0.014800 0.002631
vn -4.045440 -2.300992 -3.662030
v -0.006007 -0.019200 0.002631
vn -4.047134 2.305025 -3.659746
v -0.006007 0.019200 0.002631
vn -3.972306 -2.304053 -3.721084
v -0.006007 0.014800 0.002631
vn -3.606258 2.273991 -3.890157
v -0.026500 0.019200 0.020704
vn -3.429447 -2.074157 -4.278914
v -0.027573 0.014800 0.021650
vn -2.447268 -0.963435 -5.297806
v -0.029067 0.013650 0.022968
vn -4.559396 1.815061 -2.969450
v -0.031051 0.017068 0.024718
vn -2.976229 -1.668723 -4.831302
v -0.028435 0.014492 0.022411
vn -4.227706 2.094328 -3.261964
v -0.029668 0.018232 0.023498
vn -3.857611 2.267742 -3.588359
v -0.028125 0.018955 0.022138
vn -2.067440 -0.258153 -5.480089
v -0.029298 0.012500 0.023172
vn -4.740443 1.559700 -2.945849
v -0.032204 0.015521 0.025735
vn -5.048862 2.393187 -2.127271
v -0.005228 0.019200 0.001550
vn -4.644988 -2.324881 -2.853160
v -0.005322 0.014800 0.001750
vn -5.198773 -2.216439 -1.844082
v -0.005228 0.014800 0.001550
vn -2.775422 -1.227913 -3.076292
v -0.005011 0.014800 0.000729
vn -5.047591 -2.370430 -2.140277
v -0.005228 -0.019200 0.001550
vn -4.290279 1.486302 -2.909793
v -0.005094 -0.014800 0.001159
vn -5.138257 2.149507 -2.050950
v -0.005228 -0.014800 0.001550
vn -4.599691 2.327184 -2.923209
v -0.005366 -0.014800 0.001833
vn 3.665152 4.739661 0.018774
v -0.023891 -0.014232 0.027337
vn 0.439517 4.739663 -3.638750
v -0.028124 -0.014232 0.022537
vn 5.167563 2.736445 -1.306227
v -0.024440 -0.013500 0.027821
vn 1.941926 2.736448 -4.963753
v -0.028673 -0.013500 0.023021
vn 5.167562 -2.736447 -1.306225
v -0.024440 0.013500 0.027821
vn 1.941927 -2.736447 -4.963753
v -0.028673 0.013500 0.023021
vn 3.665152 -4.739661 0.018773
v -0.023891 0.014232 0.027337
vn 0.439516 -4.739663 -3.638750
v -0.028124 0.014232 0.022537
vn 0.515238 -5.091868 2.348530
v -0.023744 -0.019247 0.027207
vn -2.265708 -5.091863 -0.804768
v -0.027977 -0.019247 0.022407
vn -0.315746 -4.702488 3.081402
v -0.025335 -0.018502 0.028610
vn -3.096701 -4.702494 -0.071900
v -0.029568 -0.018502 0.023810
vn -1.060511 -4.075442 3.738214
v -0.026760 -0.017302 0.029867
vn -3.841459 -4.075438 0.584910
v -0.030994 -0.017302 0.025067
vn -1.348968 -3.867563 4.148241
v -0.027949 -0.015707 0.030915
vn -4.342090 -3.727406 0.891289
v -0.032182 -0.015707 0.026115
vn -2.265707 5.091863 -0.804768
v -0.027977 0.019247 0.022407
vn 0.515239 5.091869 2.348530
v -0.023744 0.019247 0.027207
vn -3.096703 4.702493 -0.071900
v -0.029568 0.018502 0.023810
vn -0.315748 4.702487 3.081403
v -0.025335 0.018502 0.028610
vn -3.841457 4.075439 0.584909
v -0.030994 0.017302 0.025067
vn -1.060510 4.075442 3.738215
v -0.026760 0.017302 0.029867
vn -4.347181 3.736692 0.872009
v -0.032182 0.015707 0.026115
vn -1.337443 3.872809 4.152904
v -0.027949 0.015707 0.030915
vn -3.979386 4.251338 0.520299
v -0.032684 0.015027 0.026554
vn -3.463398 4.866806 0.373203
v -0.032899 0.014824 0.026712
vn -0.755380 4.508102 3.811027
v -0.028687 0.014788 0.031566
vn 0.634211 5.318706 2.491260
v -0.029645 0.014182 0.032411
vn -1.467109 5.489661 -1.341990
v -0.034228 0.014186 0.027193
vn -0.751279 5.557144 -1.630833
v -0.034720 0.014091 0.027208
vn -0.157847 5.484226 -1.971223
v -0.035220 0.014036 0.027144
vn 0.054587 5.061069 3.037612
v -0.029596 0.014202 0.032368
vn -3.040030 5.010482 -0.327552
v -0.033361 0.014511 0.026964
vn -2.223778 5.306354 -0.890157
v -0.033776 0.014324 0.027108
vn -4.310872 3.930725 0.746868
v -0.032590 0.015132 0.026475
vn -4.242543 -4.027056 0.693288
v -0.032590 -0.015132 0.026475
vn -0.771998 -4.509439 3.795455
v -0.028687 -0.014788 0.031566
vn -3.677526 -4.541949 0.172292
v -0.032912 -0.014813 0.026721
vn -3.036739 -4.950397 -0.394320
v -0.033299 -0.014545 0.026936
vn 0.333240 -5.221417 2.822702
v -0.029596 -0.014202 0.032368
vn -2.331311 -5.238611 -0.879609
v -0.033712 -0.014348 0.027090
vn -0.039922 -5.426110 -2.026188
v -0.035220 -0.014036 0.027144
vn -0.469135 -5.523188 -1.756300
v -0.035085 -0.014048 0.027169
vn -1.429302 -5.507924 -1.319046
v -0.034165 -0.014202 0.027185
# 638 vertices, 0 vertices normals

f 1//1 2//2 3//3
f 3//3 2//2 4//4
f 3//3 4//4 5//5
f 6//6 7//7 8//8
f 8//8 9//9 6//6
f 6//6 9//9 10//10
f 6//6 10//10 1//1
f 1//1 10//10 11//11
f 1//1 11//11 2//2
f 12//12 13//13 14//14
f 14//14 13//13 15//15
f 14//14 15//15 16//16
f 16//16 15//15 17//17
f 17//17 15//15 18//18
f 17//17 18//18 19//19
f 19//19 18//18 20//20
f 20//20 18//18 21//21
f 20//20 21//21 22//22
f 23//23 24//24 25//25
f 25//25 24//24 26//26
f 25//25 26//26 27//27
f 27//27 26//26 28//28
f 27//27 28//28 29//29
f 29//29 28//28 30//30
f 31//31 32//32 33//33
f 33//33 32//32 34//34
f 33//33 34//34 35//35
f 35//35 34//34 36//36
f 36//36 34//34 37//37
f 36//36 37//37 38//38
f 38//38 37//37 39//39
f 39//39 37//37 40//40
f 39//39 40//40 41//41
f 41//41 40//40 42//42
f 41//41 42//42 43//43
f 43//43 42//42 44//44
f 43//43 44//44 45//45
f 45//45 44//44 46//46
f 45//45 46//46 47//47
f 47//47 46//46 48//48
f 47//47 48//48 49//49
f 48//48 50//50 49//49
f 49//49 50//50 51//51
f 49//49 51//51 52//52
f 52//52 51//51 53//53
f 52//52 53//53 54//54
f 54//54 53//53 55//55
f 54//54 55//55 56//56
f 56//56 55//55 57//57
f 56//56 57//57 58//58
f 58//58 57//57 59//59
f 58//58 59//59 60//60
f 60//60 59//59 61//61
f 60//60 61//61 31//31
f 31//31 61//61 62//62
f 31//31 62//62 32//32
f 63//63 64//64 65//65
f 65//65 66//66 63//63
f 63//63 66//66 67//67
f 63//63 67//67 68//68
f 68//68 67//67 69//69
f 68//68 69//69 70//70
f 70//70 69//69 71//71
f 70//70 71//71 72//72
f 64//64 73//73 65//65
f 65//65 73//73 74//74
f 65//65 74//74 75//75
f 75//75 74//74 76//76
f 75//75 76//76 77//77
f 77//77 76//76 78//78
f 77//77 78//78 79//79
f 79//79 78//78 80//80
f 79//79 80//80 81//81
f 81//81 80//80 82//82
f 81//81 82//82 83//83
f 83//83 82//82 84//84
f 83//83 84//84 85//85
f 85//85 84//84 86//86
f 85//85 86//86 87//87
f 87//87 86//86 88//88
f 87//87 88//88 89//89
f 89//89 88//88 90//90
f 89//89 90//90 91//91
f 91//91 90//90 92//92
f 91//91 92//92 93//93
f 93//93 92//92 72//72
f 93//93 72//72 94//94
f 94//94 72//72 71//71
f 95//95 96//96 97//97
f 97//97 96//96 98//98
f 97//97 98//98 99//99
f 99//99 98//98 100//100
f 99//99 100//100 101//101
f 101//101 100//100 102//102
f 103//103 104//104 105//105
f 105//105 104//104 106//106
f 105//105 106//106 107//107
f 108//108 109//109 110//110
f 110//110 109//109 111//111
f 103//103 112//112 113//113
f 113//113 112//112 114//114
f 115//115 116//116 117//117
f 117//117 116//116 118//118
f 117//117 118//118 114//114
f 114//114 118//118 119//119
f 114//114 119//119 113//113
f 120//120 121//121 109//109
f 109//109 121//121 122//122
f 109//109 122//122 105//105
f 105//105 122//122 123//123
f 105//105 123//123 103//103
f 103//103 123//123 124//124
f 103//103 124//124 112//112
f 120//120 109//109 125//125
f 125//125 109//109 108//108
f 125//125 108//108 126//126
f 126//126 108//108 127//127
f 126//126 127//127 128//128
f 128//128 127//127 129//129
f 128//128 129//129 115//115
f 115//115 129//129 130//130
f 115//115 130//130 116//116
f 131//131 132//132 133//133
f 134//134 135//135 136//136
f 136//136 135//135 137//137
f 138//138 139//139 140//140
f 140//140 139//139 141//141
f 140//140 141//141 142//142
f 133//133 132//132 143//143
f 143//143 132//132 144//144
f 143//143 144//144 145//145
f 145//145 144//144 146//146
f 146//146 144//144 147//147
f 146//146 147//147 148//148
f 142//142 149//149 140//140
f 140//140 149//149 146//146
f 140//140 146//146 150//150
f 150//150 146//146 148//148
f 150//150 151//151 140//140
f 140//140 151//151 152//152
f 140//140 152//152 135//135
f 152//152 153//153 135//135
f 135//135 153//153 154//154
f 135//135 154//154 137//137
f 133//133 155//155 131//131
f 131//131 155//155 156//156
f 131//131 156//156 157//157
f 157//157 156//156 137//137
f 157//157 137//137 158//158
f 158//158 137//137 154//154
f 159//159 136//136 137//137
f 159//159 137//137 160//160
f 160//160 137//137 156//156
f 160//160 156//156 161//161
f 161//161 156//156 155//155
f 161//161 155//155 162//162
f 162//162 155//155 133//133
f 162//162 133//133 163//163
f 163//163 133//133 143//143
f 163//163 143//143 164//164
f 164//164 143//143 145//145
f 164//164 145//145 165//165
f 165//165 145//145 146//146
f 165//165 146//146 166//166
f 166//166 146//146 149//149
f 166//166 149//149 167//167
f 167//167 149//149 142//142
f 167//167 142//142 168//168
f 168//168 142//142 141//141
f 168//168 141//141 169//169
f 169//169 141//141 139//139
f 169//169 139//139 170//170
f 171//171 110//110 111//111
f 136//136 159//159 134//134
f 134//134 159//159 172//172
f 173//173 174//174 175//175
f 176//176 174//174 177//177
f 177//177 174//174 178//178
f 177//177 178//178 172//172
f 172//172 178//178 179//179
f 172//172 179//179 134//134
f 180//180 175//175 181//181
f 181//181 175//175 174//174
f 181//181 174//174 182//182
f 182//182 174//174 176//176
f 183//183 184//184 185//185
f 185//185 184//184 175//175
f 185//185 175//175 186//186
f 186//186 175//175 180//180
f 171//171 111//111 187//187
f 187//187 111//111 188//188
f 187//187 188//188 189//189
f 190//190 191//191 192//192
f 192//192 191//191 193//193
f 194//194 195//195 192//192
f 192//192 195//195 196//196
f 192//192 196//196 175//175
f 175//175 196//196 197//197
f 175//175 197//197 173//173
f 193//193 198//198 192//192
f 192//192 198//198 199//199
f 192//192 199//199 194//194
f 194//194 199//199 200//200
f 200//200 201//201 194//194
f 194//194 201//201 202//202
f 194//194 202//202 189//189
f 189//189 202//202 203//203
f 189//189 203//203 187//187
f 110//110 171//171 204//204
f 110//110 204//204 108//108
f 108//108 204//204 205//205
f 108//108 205//205 127//127
f 127//127 205//205 206//206
f 127//127 206//206 129//129
f 129//129 206//206 207//207
f 129//129 207//207 130//130
f 130//130 207//207 208//208
f 130//130 208//208 116//116
f 116//116 208//208 209//209
f 116//116 209//209 118//118
f 118//118 209//209 210//210
f 118//118 210//210 119//119
f 119//119 210//210 211//211
f 119//119 211//211 113//113
f 113//113 211//211 212//212
f 113//113 212//212 103//103
f 103//103 212//212 213//213
f 103//103 213//213 104//104
f 104//104 213//213 214//214
f 104//104 214//214 106//106
f 8//8 7//7 215//215
f 215//215 7//7 216//216
f 215//215 216//216 217//217
f 217//217 216//216 218//218
f 217//217 218//218 219//219
f 219//219 218//218 220//220
f 220//220 218//218 221//221
f 220//220 221//221 222//222
f 222//222 221//221 223//223
f 223//223 221//221 224//224
f 223//223 224//224 225//225
f 225//225 224//224 226//226
f 226//226 224//224 227//227
f 226//226 227//227 228//228
f 228//228 227//227 229//229
f 229//229 227//227 230//230
f 229//229 230//230 231//231
f 231//231 230//230 232//232
f 232//232 230//230 233//233
f 232//232 233//233 234//234
f 234//234 233//233 235//235
f 235//235 233//233 236//236
f 235//235 236//236 237//237
f 237//237 236//236 238//238
f 238//238 236//236 239//239
f 238//238 239//239 240//240
f 240//240 239//239 241//241
f 241//241 239//239 242//242
f 241//241 242//242 243//243
f 243//243 242//242 244//244
f 244//244 242//242 245//245
f 244//244 245//245 246//246
f 246//246 245//245 247//247
f 246//246 247//247 248//248
f 248//248 247//247 184//184
f 248//248 184//184 183//183
f 249//249 13//13 12//12
f 191//191 190//190 250//250
f 250//250 190//190 251//251
f 250//250 251//251 252//252
f 253//253 254//254 252//252
f 252//252 254//254 255//255
f 252//252 255//255 250//250
f 256//256 257//257 253//253
f 253//253 257//257 258//258
f 253//253 258//258 254//254
f 259//259 260//260 256//256
f 256//256 260//260 261//261
f 256//256 261//261 257//257
f 262//262 263//263 259//259
f 259//259 263//263 264//264
f 259//259 264//264 260//260
f 265//265 266//266 262//262
f 262//262 266//266 267//267
f 262//262 267//267 263//263
f 268//268 269//269 265//265
f 265//265 269//269 270//270
f 265//265 270//270 266//266
f 271//271 272//272 268//268
f 268//268 272//272 273//273
f 268//268 273//273 269//269
f 274//274 275//275 271//271
f 271//271 275//275 276//276
f 271//271 276//276 272//272
f 277//277 278//278 274//274
f 274//274 278//278 279//279
f 274//274 279//279 275//275
f 12//12 280//280 249//249
f 249//249 280//280 281//281
f 249//249 281//281 277//277
f 277//277 281//281 282//282
f 277//277 282//282 278//278
f 283//283 284//284 285//285
f 285//285 284//284 286//286
f 287//287 288//288 289//289
f 289//289 288//288 290//290
f 289//289 290//290 283//283
f 283//283 290//290 291//291
f 283//283 291//291 284//284
f 292//292 293//293 294//294
f 294//294 293//293 295//295
f 294//294 295//295 296//296
f 296//296 295//295 297//297
f 296//296 297//297 286//286
f 286//286 297//297 298//298
f 286//286 298//298 285//285
f 299//299 300//300 301//301
f 301//301 300//300 302//302
f 301//301 302//302 303//303
f 303//303 302//302 304//304
f 303//303 304//304 292//292
f 292//292 304//304 305//305
f 292//292 305//305 293//293
f 287//287 289//289 306//306
f 306//306 289//289 307//307
f 306//306 307//307 308//308
f 308//308 307//307 309//309
f 308//308 309//309 299//299
f 299//299 309//309 310//310
f 299//299 310//310 300//300
f 311//311 312//312 313//313
f 313//313 312//312 314//314
f 314//314 312//312 315//315
f 314//314 315//315 316//316
f 316//316 315//315 317//317
f 316//316 317//317 318//318
f 317//317 319//319 318//318
f 318//318 319//319 320//320
f 318//318 320//320 321//321
f 313//313 322//322 311//311
f 311//311 322//322 323//323
f 311//311 323//323 324//324
f 324//324 323//323 325//325
f 324//324 325//325 326//326
f 326//326 325//325 327//327
f 326//326 327//327 328//328
f 320//320 329//329 321//321
f 321//321 329//329 330//330
f 321//321 330//330 331//331
f 331//331 330//330 332//332
f 331//331 332//332 333//333
f 333//333 332//332 334//334
f 333//333 334//334 335//335
f 335//335 334//334 336//336
f 335//335 336//336 337//337
f 337//337 336//336 328//328
f 337//337 328//328 338//338
f 338//338 328//328 327//327
f 1//1 3//3 339//339
f 340//340 341//341 184//184
f 184//184 341//341 175//175
f 184//184 247//247 340//340
f 340//340 247//247 245//245
f 340//340 245//245 342//342
f 342//342 245//245 242//242
f 342//342 242//242 343//343
f 343//343 242//242 239//239
f 343//343 239//239 344//344
f 7//7 345//345 216//216
f 216//216 345//345 346//346
f 216//216 346//346 218//218
f 218//218 346//346 347//347
f 7//7 6//6 345//345
f 345//345 6//6 1//1
f 345//345 1//1 348//348
f 348//348 1//1 339//339
f 348//348 339//339 349//349
f 349//349 339//339 175//175
f 349//349 175//175 350//350
f 350//350 175//175 341//341
f 239//239 236//236 344//344
f 344//344 236//236 233//233
f 344//344 233//233 351//351
f 351//351 233//233 230//230
f 351//351 230//230 352//352
f 352//352 230//230 227//227
f 352//352 227//227 353//353
f 353//353 227//227 224//224
f 353//353 224//224 347//347
f 347//347 224//224 221//221
f 347//347 221//221 218//218
f 354//354 192//192 339//339
f 339//339 192//192 175//175
f 355//355 356//356 354//354
f 354//354 356//356 192//192
f 356//356 357//357 192//192
f 192//192 357//357 358//358
f 192//192 358//358 190//190
f 190//190 358//358 359//359
f 190//190 359//359 251//251
f 251//251 359//359 360//360
f 251//251 360//360 252//252
f 252//252 360//360 361//361
f 362//362 262//262 363//363
f 363//363 262//262 259//259
f 363//363 259//259 364//364
f 364//364 259//259 256//256
f 364//364 256//256 361//361
f 361//361 256//256 253//253
f 361//361 253//253 252//252
f 365//365 277//277 366//366
f 366//366 277//277 274//274
f 366//366 274//274 367//367
f 367//367 274//274 271//271
f 367//367 271//271 368//368
f 368//368 271//271 268//268
f 368//368 268//268 362//362
f 362//362 268//268 265//265
f 362//362 265//265 262//262
f 21//21 18//18 354//354
f 354//354 18//18 15//15
f 354//354 15//15 355//355
f 355//355 15//15 13//13
f 355//355 13//13 365//365
f 365//365 13//13 249//249
f 365//365 249//249 277//277
f 369//369 370//370 371//371
f 371//371 370//370 372//372
f 109//109 105//105 100//100
f 100//100 105//105 102//102
f 26//26 24//24 135//135
f 135//135 24//24 140//140
f 152//152 373//373 153//153
f 153//153 373//373 374//374
f 153//153 374//374 154//154
f 154//154 374//374 375//375
f 154//154 375//375 158//158
f 158//158 375//375 376//376
f 158//158 376//376 157//157
f 157//157 376//376 377//377
f 157//157 377//377 131//131
f 131//131 377//377 378//378
f 131//131 378//378 132//132
f 132//132 378//378 379//379
f 132//132 379//379 144//144
f 144//144 379//379 380//380
f 144//144 380//380 147//147
f 147//147 380//380 381//381
f 147//147 381//381 148//148
f 148//148 381//381 382//382
f 148//148 382//382 150//150
f 150//150 382//382 383//383
f 150//150 383//383 151//151
f 151//151 383//383 384//384
f 151//151 384//384 152//152
f 152//152 384//384 373//373
f 383//383 385//385 384//384
f 384//384 385//385 386//386
f 384//384 386//386 373//373
f 373//373 386//386 387//387
f 373//373 387//387 374//374
f 380//380 388//388 381//381
f 381//381 388//388 389//389
f 381//381 389//389 382//382
f 382//382 389//389 390//390
f 382//382 390//390 383//383
f 383//383 390//390 391//391
f 383//383 391//391 385//385
f 377//377 392//392 378//378
f 378//378 392//392 393//393
f 378//378 393//393 379//379
f 379//379 393//393 394//394
f 379//379 394//394 380//380
f 380//380 394//394 395//395
f 380//380 395//395 388//388
f 387//387 396//396 374//374
f 374//374 396//396 397//397
f 374//374 397//397 375//375
f 375//375 397//397 398//398
f 375//375 398//398 376//376
f 376//376 398//398 399//399
f 376//376 399//399 377//377
f 377//377 399//399 400//400
f 377//377 400//400 392//392
f 387//387 401//401 396//396
f 396//396 401//401 402//402
f 396//396 402//402 397//397
f 397//397 402//402 403//403
f 397//397 403//403 398//398
f 398//398 403//403 404//404
f 398//398 404//404 399//399
f 399//399 404//404 405//405
f 399//399 405//405 400//400
f 400//400 405//405 406//406
f 400//400 406//406 392//392
f 392//392 406//406 407//407
f 392//392 407//407 393//393
f 393//393 407//407 408//408
f 393//393 408//408 394//394
f 394//394 408//408 409//409
f 394//394 409//409 395//395
f 395//395 409//409 410//410
f 395//395 410//410 388//388
f 388//388 410//410 411//411
f 388//388 411//411 389//389
f 389//389 411//411 412//412
f 389//389 412//412 390//390
f 390//390 412//412 413//413
f 390//390 413//413 391//391
f 391//391 413//413 414//414
f 391//391 414//414 385//385
f 385//385 414//414 415//415
f 385//385 415//415 386//386
f 386//386 415//415 416//416
f 386//386 416//416 387//387
f 387//387 416//416 401//401
f 115//115 417//417 128//128
f 128//128 417//417 418//418
f 128//128 418//418 126//126
f 126//126 418//418 419//419
f 126//126 419//419 125//125
f 125//125 419//419 420//420
f 125//125 420//420 120//120
f 120//120 420//420 421//421
f 120//120 421//421 121//121
f 121//121 421//421 422//422
f 121//121 422//422 122//122
f 122//122 422//422 423//423
f 122//122 423//423 123//123
f 123//123 423//423 424//424
f 123//123 424//424 124//124
f 124//124 424//424 425//425
f 124//124 425//425 112//112
f 112//112 425//425 426//426
f 112//112 426//426 114//114
f 114//114 426//426 427//427
f 114//114 427//427 117//117
f 117//117 427//427 428//428
f 117//117 428//428 115//115
f 115//115 428//428 417//417
f 427//427 429//429 428//428
f 428//428 429//429 430//430
f 428//428 430//430 417//417
f 417//417 430//430 431//431
f 417//417 431//431 418//418
f 424//424 432//432 425//425
f 425//425 432//432 433//433
f 425//425 433//433 426//426
f 426//426 433//433 434//434
f 426//426 434//434 427//427
f 427//427 434//434 435//435
f 427//427 435//435 429//429
f 421//421 436//436 422//422
f 422//422 436//436 437//437
f 422//422 437//437 423//423
f 423//423 437//437 438//438
f 423//423 438//438 424//424
f 424//424 438//438 439//439
f 424//424 439//439 432//432
f 431//431 440//440 418//418
f 418//418 440//440 441//441
f 418//418 441//441 419//419
f 419//419 441//441 442//442
f 419//419 442//442 420//420
f 420//420 442//442 443//443
f 420//420 443//443 421//421
f 421//421 443//443 444//444
f 421//421 444//444 436//436
f 431//431 445//445 440//440
f 440//440 445//445 446//446
f 440//440 446//446 441//441
f 441//441 446//446 447//447
f 441//441 447//447 442//442
f 442//442 447//447 448//448
f 442//442 448//448 443//443
f 443//443 448//448 449//449
f 443//443 449//449 444//444
f 444//444 449//449 450//450
f 444//444 450//450 436//436
f 436//436 450//450 451//451
f 436//436 451//451 437//437
f 437//437 451//451 452//452
f 437//437 452//452 438//438
f 438//438 452//452 453//453
f 438//438 453//453 439//439
f 439//439 453//453 454//454
f 439//439 454//454 432//432
f 432//432 454//454 455//455
f 432//432 455//455 433//433
f 433//433 455//455 456//456
f 433//433 456//456 434//434
f 434//434 456//456 457//457
f 434//434 457//457 435//435
f 435//435 457//457 458//458
f 435//435 458//458 429//429
f 429//429 458//458 459//459
f 429//429 459//459 430//430
f 430//430 459//459 460//460
f 430//430 460//460 431//431
f 431//431 460//460 445//445
f 461//461 462//462 463//463
f 463//463 462//462 464//464
f 463//463 464//464 465//465
f 465//465 464//464 466//466
f 465//465 466//466 467//467
f 467//467 466//466 468//468
f 467//467 468//468 469//469
f 469//469 468//468 470//470
f 469//469 470//470 471//471
f 471//471 470//470 472//472
f 471//471 472//472 473//473
f 473//473 472//472 474//474
f 473//473 474//474 475//475
f 475//475 474//474 476//476
f 475//475 476//476 477//477
f 477//477 476//476 478//478
f 477//477 478//478 479//479
f 479//479 478//478 480//480
f 479//479 480//480 481//481
f 481//481 480//480 482//482
f 481//481 482//482 483//483
f 483//483 482//482 484//484
f 483//483 484//484 485//485
f 485//485 484//484 486//486
f 485//485 486//486 487//487
f 487//487 486//486 488//488
f 487//487 488//488 489//489
f 489//489 488//488 490//490
f 489//489 490//490 491//491
f 491//491 490//490 492//492
f 491//491 492//492 493//493
f 493//493 492//492 494//494
f 493//493 494//494 495//495
f 495//495 494//494 496//496
f 495//495 496//496 497//497
f 497//497 496//496 498//498
f 497//497 498//498 499//499
f 499//499 498//498 500//500
f 499//499 500//500 501//501
f 501//501 500//500 502//502
f 501//501 502//502 503//503
f 503//503 502//502 504//504
f 503//503 504//504 505//505
f 505//505 504//504 506//506
f 505//505 506//506 507//507
f 507//507 506//506 508//508
f 507//507 508//508 509//509
f 509//509 508//508 510//510
f 509//509 510//510 511//511
f 511//511 510//510 512//512
f 511//511 512//512 461//461
f 461//461 512//512 462//462
f 513//513 514//514 515//515
f 515//515 514//514 516//516
f 515//515 516//516 517//517
f 517//517 516//516 518//518
f 517//517 518//518 519//519
f 519//519 518//518 520//520
f 519//519 520//520 521//521
f 521//521 520//520 522//522
f 521//521 522//522 523//523
f 523//523 522//522 524//524
f 523//523 524//524 525//525
f 525//525 524//524 526//526
f 525//525 526//526 527//527
f 527//527 526//526 528//528
f 527//527 528//528 529//529
f 529//529 528//528 530//530
f 529//529 530//530 531//531
f 531//531 530//530 532//532
f 531//531 532//532 533//533
f 533//533 532//532 534//534
f 533//533 534//534 535//535
f 535//535 534//534 536//536
f 535//535 536//536 537//537
f 537//537 536//536 538//538
f 537//537 538//538 539//539
f 539//539 538//538 540//540
f 539//539 540//540 541//541
f 541//541 540//540 542//542
f 541//541 542//542 543//543
f 543//543 542//542 544//544
f 543//543 544//544 545//545
f 545//545 544//544 546//546
f 545//545 546//546 547//547
f 547//547 546//546 548//548
f 547//547 548//548 549//549
f 549//549 548//548 550//550
f 549//549 550//550 551//551
f 551//551 550//550 552//552
f 551//551 552//552 553//553
f 553//553 552//552 554//554
f 553//553 554//554 555//555
f 555//555 554//554 556//556
f 555//555 556//556 557//557
f 557//557 556//556 558//558
f 557//557 558//558 559//559
f 559//559 558//558 560//560
f 559//559 560//560 561//561
f 561//561 560//560 562//562
f 561//561 562//562 563//563
f 563//563 562//562 564//564
f 563//563 564//564 513//513
f 513//513 564//564 514//514
f 22//22 565//565 566//566
f 566//566 565//565 567//567
f 566//566 567//567 568//568
f 568//568 567//567 569//569
f 568//568 569//569 570//570
f 354//354 339//339 21//21
f 21//21 339//339 3//3
f 570//570 569//569 571//571
f 571//571 569//569 572//572
f 571//571 572//572 573//573
f 573//573 572//572 574//574
f 573//573 574//574 575//575
f 576//576 577//577 578//578
f 578//578 577//577 579//579
f 580//580 581//581 582//582
f 582//582 581//581 583//583
f 582//582 583//583 579//579
f 579//579 583//583 584//584
f 579//579 584//584 578//578
f 22//22 21//21 565//565
f 565//565 21//21 3//3
f 565//565 3//3 585//585
f 585//585 3//3 5//5
f 585//585 5//5 580//580
f 580//580 5//5 586//586
f 580//580 586//586 581//581
f 170//170 139//139 587//587
f 587//587 139//139 138//138
f 577//577 576//576 588//588
f 588//588 576//576 587//587
f 588//588 587//587 589//589
f 589//589 587//587 138//138
f 589//589 138//138 590//590
f 106//106 214//214 107//107
f 107//107 214//214 591//591
f 592//592 107//107 593//593
f 593//593 107//107 591//591
f 593//593 591//591 594//594
f 594//594 591//591 575//575
f 594//594 575//575 574//574
f 96//96 95//95 595//595
f 595//595 95//95 596//596
f 595//595 596//596 597//597
f 597//597 596//596 598//598
f 597//597 598//598 369//369
f 369//369 598//598 370//370
f 371//371 372//372 599//599
f 599//599 372//372 600//600
f 599//599 600//600 601//601
f 601//601 600//600 602//602
f 601//601 602//602 30//30
f 30//30 602//602 29//29
f 66//66 65//65 603//603
f 66//66 603//603 604//604
f 604//604 603//603 605//605
f 604//604 605//605 606//606
f 606//606 605//605 607//607
f 606//606 607//607 608//608
f 608//608 607//607 609//609
f 608//608 609//609 610//610
f 34//34 32//32 611//611
f 34//34 611//611 612//612
f 612//612 611//611 613//613
f 612//612 613//613 614//614
f 614//614 613//613 615//615
f 614//614 615//615 616//616
f 616//616 615//615 617//617
f 616//616 617//617 618//618
f 619//619 620//620 621//621
f 321//321 622//622 623//623
f 623//623 624//624 321//321
f 321//321 624//624 625//625
f 321//321 625//625 318//318
f 621//621 620//620 626//626
f 626//626 620//620 627//627
f 626//626 627//627 622//622
f 622//622 627//627 628//628
f 622//622 628//628 623//623
f 618//618 617//617 621//621
f 621//621 617//617 629//629
f 621//621 629//629 619//619
f 610//610 609//609 630//630
f 630//630 609//609 631//631
f 630//630 631//631 632//632
f 632//632 631//631 633//633
f 633//633 631//631 634//634
f 633//633 634//634 635//635
f 283//283 636//636 289//289
f 289//289 636//636 637//637
f 289//289 637//637 634//634
f 634//634 637//637 638//638
f 634//634 638//638 635//635
f 26//26 135//135 28//28
f 28//28 135//135 134//134
f 28//28 134//134 179//179
f 590//590 138//138 23//23
f 23//23 138//138 140//140
f 23//23 140//140 24//24
f 188//188 111//111 98//98
f 98//98 111//111 109//109
f 98//98 109//109 100//100
f 107//107 592//592 105//105
f 105//105 592//592 101//101
f 105//105 101//101 102//102
f 346//346 345//345 545//545
f 545//545 547//547 346//346
f 346//346 547//547 549//549
f 346//346 549//549 347//347
f 549//549 551//551 347//347
f 347//347 551//551 553//553
f 347//347 553//553 353//353
f 553//553 555//555 353//353
f 353//353 555//555 557//557
f 353//353 557//557 352//352
f 557//557 559//559 352//352
f 352//352 559//559 561//561
f 352//352 561//561 351//351
f 561//561 563//563 351//351
f 351//351 563//563 513//513
f 351//351 513//513 344//344
f 344//344 513//513 515//515
f 344//344 515//515 343//343
f 515//515 517//517 343//343
f 343//343 517//517 519//519
f 343//343 519//519 342//342
f 519//519 521//521 342//342
f 342//342 521//521 523//523
f 342//342 523//523 340//340
f 523//523 525//525 340//340
f 340//340 525//525 527//527
f 340//340 527//527 341//341
f 527//527 529//529 341//341
f 341//341 529//529 531//531
f 341//341 531//531 350//350
f 531//531 533//533 350//350
f 350//350 533//533 535//535
f 350//350 535//535 349//349
f 535//535 537//537 349//349
f 349//349 537//537 539//539
f 349//349 539//539 348//348
f 348//348 539//539 541//541
f 348//348 541//541 345//345
f 345//345 541//541 543//543
f 345//345 543//543 545//545
f 368//368 362//362 512//512
f 512//512 510//510 368//368
f 368//368 510//510 508//508
f 368//368 508//508 367//367
f 508//508 506//506 367//367
f 367//367 506//506 504//504
f 367//367 504//504 366//366
f 504//504 502//502 366//366
f 366//366 502//502 500//500
f 366//366 500//500 365//365
f 500//500 498//498 365//365
f 365//365 498//498 496//496
f 365//365 496//496 355//355
f 496//496 494//494 355//355
f 355//355 494//494 492//492
f 355//355 492//492 356//356
f 356//356 492//492 490//490
f 356//356 490//490 357//357
f 490//490 488//488 357//357
f 357//357 488//488 486//486
f 357//357 486//486 358//358
f 486//486 484//484 358//358
f 358//358 484//484 482//482
f 358//358 482//482 359//359
f 482//482 480//480 359//359
f 359//359 480//480 478//478
f 359//359 478//478 360//360
f 478//478 476//476 360//360
f 360//360 476//476 474//474
f 360//360 474//474 361//361
f 474//474 472//472 361//361
f 361//361 472//472 470//470
f 361//361 470//470 364//364
f 470//470 468//468 364//364
f 364//364 468//468 466//466
f 364//364 466//466 363//363
f 363//363 466//466 464//464
f 363//363 464//464 362//362
f 362//362 464//464 462//462
f 362//362 462//462 512//512
f 402//402 33//33 403//403
f 403//403 33//33 35//35
f 403//403 35//35 404//404
f 404//404 35//35 36//36
f 404//404 36//36 405//405
f 405//405 36//36 38//38
f 405//405 38//38 406//406
f 406//406 38//38 39//39
f 406//406 39//39 407//407
f 407//407 39//39 41//41
f 407//407 41//41 408//408
f 408//408 41//41 43//43
f 408//408 43//43 409//409
f 409//409 43//43 45//45
f 409//409 45//45 410//410
f 410//410 45//45 47//47
f 410//410 47//47 411//411
f 411//411 47//47 49//49
f 411//411 49//49 412//412
f 412//412 49//49 52//52
f 412//412 52//52 413//413
f 413//413 52//52 54//54
f 413//413 54//54 414//414
f 414//414 54//54 56//56
f 414//414 56//56 415//415
f 415//415 56//56 58//58
f 415//415 58//58 416//416
f 416//416 58//58 60//60
f 416//416 60//60 401//401
f 401//401 60//60 31//31
f 401//401 31//31 402//402
f 402//402 31//31 33//33
f 311//311 324//324 564//564
f 564//564 562//562 311//311
f 311//311 562//562 560//560
f 311//311 560//560 312//312
f 560//560 558//558 312//312
f 312//312 558//558 556//556
f 312//312 556//556 315//315
f 556//556 554//554 315//315
f 315//315 554//554 552//552
f 315//315 552//552 317//317
f 552//552 550//550 317//317
f 317//317 550//550 548//548
f 317//317 548//548 319//319
f 548//548 546//546 319//319
f 319//319 546//546 544//544
f 319//319 544//544 320//320
f 320//320 544//544 542//542
f 320//320 542//542 329//329
f 542//542 540//540 329//329
f 329//329 540//540 538//538
f 329//329 538//538 330//330
f 538//538 536//536 330//330
f 330//330 536//536 534//534
f 330//330 534//534 332//332
f 534//534 532//532 332//332
f 332//332 532//532 530//530
f 332//332 530//530 334//334
f 530//530 528//528 334//334
f 334//334 528//528 526//526
f 334//334 526//526 336//336
f 526//526 524//524 336//336
f 336//336 524//524 522//522
f 336//336 522//522 328//328
f 522//522 520//520 328//328
f 328//328 520//520 518//518
f 328//328 518//518 326//326
f 326//326 518//518 516//516
f 326//326 516//516 324//324
f 324//324 516//516 514//514
f 324//324 514//514 564//564
f 446//446 82//82 447//447
f 447//447 82//82 80//80
f 447//447 80//80 448//448
f 448//448 80//80 78//78
f 448//448 78//78 449//449
f 449//449 78//78 76//76
f 449//449 76//76 450//450
f 450//450 76//76 74//74
f 450//450 74//74 451//451
f 451//451 74//74 73//73
f 451//451 73//73 452//452
f 452//452 73//73 64//64
f 452//452 64//64 453//453
f 453//453 64//64 63//63
f 453//453 63//63 454//454
f 454//454 63//63 68//68
f 454//454 68//68 455//455
f 455//455 68//68 70//70
f 455//455 70//70 456//456
f 456//456 70//70 72//72
f 456//456 72//72 457//457
f 457//457 72//72 92//92
f 457//457 92//92 458//458
f 458//458 92//92 90//90
f 458//458 90//90 459//459
f 459//459 90//90 88//88
f 459//459 88//88 460//460
f 460//460 88//88 86//86
f 460//460 86//86 445//445
f 445//445 86//86 84//84
f 445//445 84//84 446//446
f 446//446 84//84 82//82
f 284//284 291//291 493//493
f 493//493 495//495 284//284
f 284//284 495//495 497//497
f 284//284 497//497 286//286
f 497//497 499//499 286//286
f 286//286 499//499 501//501
f 286//286 501//501 296//296
f 501//501 503//503 296//296
f 296//296 503//503 505//505
f 296//296 505//505 294//294
f 505//505 507//507 294//294
f 294//294 507//507 509//509
f 294//294 509//509 292//292
f 509//509 511//511 292//292
f 292//292 511//511 461//461
f 292//292 461//461 303//303
f 303//303 461//461 463//463
f 303//303 463//463 301//301
f 463//463 465//465 301//301
f 301//301 465//465 467//467
f 301//301 467//467 299//299
f 467//467 469//469 299//299
f 299//299 469//469 471//471
f 299//299 471//471 308//308
f 471//471 473//473 308//308
f 308//308 473//473 475//475
f 308//308 475//475 306//306
f 475//475 477//477 306//306
f 306//306 477//477 479//479
f 306//306 479//479 287//287
f 479//479 481//481 287//287
f 287//287 481//481 483//483
f 287//287 483//483 288//288
f 483//483 485//485 288//288
f 288//288 485//485 487//487
f 288//288 487//487 290//290
f 290//290 487//487 489//489
f 290//290 489//489 291//291
f 291//291 489//489 491//491
f 291//291 491//491 493//493
f 66//66 573//573 67//67
f 67//67 573//573 575//575
f 573//573 66//66 604//604
f 573//573 604//604 571//571
f 571//571 604//604 606//606
f 571//571 606//606 570//570
f 570//570 606//606 608//608
f 570//570 608//608 568//568
f 568//568 608//608 610//610
f 568//568 610//610 566//566
f 214//214 71//71 591//591
f 591//591 71//71 69//69
f 591//591 69//69 575//575
f 575//575 69//69 67//67
f 630//630 22//22 610//610
f 610//610 22//22 566//566
f 71//71 214//214 213//213
f 71//71 213//213 94//94
f 94//94 213//213 212//212
f 94//94 212//212 93//93
f 93//93 212//212 211//211
f 93//93 211//211 91//91
f 91//91 211//211 210//210
f 91//91 210//210 89//89
f 89//89 210//210 209//209
f 89//89 209//209 87//87
f 87//87 209//209 208//208
f 87//87 208//208 85//85
f 85//85 208//208 207//207
f 85//85 207//207 83//83
f 83//83 207//207 206//206
f 83//83 206//206 81//81
f 81//81 206//206 205//205
f 81//81 205//205 79//79
f 79//79 205//205 204//204
f 79//79 204//204 77//77
f 77//77 204//204 171//171
f 77//77 171//171 75//75
f 22//22 630//630 20//20
f 20//20 630//630 632//632
f 20//20 632//632 19//19
f 19//19 632//632 633//633
f 19//19 633//633 17//17
f 17//17 633//633 635//635
f 17//17 635//635 16//16
f 16//16 635//635 638//638
f 16//16 638//638 14//14
f 14//14 638//638 637//637
f 14//14 637//637 12//12
f 12//12 637//637 636//636
f 187//187 65//65 171//171
f 171//171 65//65 75//75
f 12//12 636//636 280//280
f 280//280 636//636 283//283
f 200//200 609//609 607//607
f 200//200 607//607 201//201
f 201//201 607//607 605//605
f 201//201 605//605 202//202
f 202//202 605//605 603//603
f 202//202 603//603 203//203
f 203//203 603//603 65//65
f 203//203 65//65 187//187
f 307//307 191//191 250//250
f 281//281 280//280 285//285
f 285//285 280//280 283//283
f 307//307 250//250 309//309
f 309//309 250//250 255//255
f 309//309 255//255 310//310
f 255//255 254//254 310//310
f 310//310 254//254 258//258
f 310//310 258//258 300//300
f 258//258 257//257 300//300
f 300//300 257//257 261//261
f 300//300 261//261 302//302
f 261//261 260//260 302//302
f 302//302 260//260 264//264
f 302//302 264//264 304//304
f 304//304 264//264 263//263
f 304//304 263//263 305//305
f 263//263 267//267 305//305
f 305//305 267//267 266//266
f 305//305 266//266 293//293
f 266//266 270//270 293//293
f 293//293 270//270 269//269
f 293//293 269//269 295//295
f 269//269 273//273 295//295
f 295//295 273//273 272//272
f 295//295 272//272 297//297
f 272//272 276//276 297//297
f 297//297 276//276 275//275
f 297//297 275//275 298//298
f 275//275 279//279 298//298
f 298//298 279//279 278//278
f 298//298 278//278 285//285
f 285//285 278//278 282//282
f 285//285 282//282 281//281
f 609//609 200//200 631//631
f 631//631 200//200 199//199
f 631//631 199//199 634//634
f 634//634 199//199 198//198
f 634//634 198//198 289//289
f 289//289 198//198 193//193
f 289//289 193//193 307//307
f 307//307 193//193 191//191
f 62//62 576//576 32//32
f 32//32 576//576 578//578
f 576//576 62//62 587//587
f 587//587 62//62 61//61
f 587//587 61//61 170//170
f 170//170 61//61 59//59
f 586//586 617//617 615//615
f 586//586 615//615 581//581
f 581//581 615//615 613//613
f 581//581 613//613 583//583
f 583//583 613//613 611//611
f 583//583 611//611 584//584
f 584//584 611//611 32//32
f 584//584 32//32 578//578
f 37//37 159//159 160//160
f 37//37 160//160 40//40
f 40//40 160//160 161//161
f 40//40 161//161 42//42
f 42//42 161//161 162//162
f 42//42 162//162 44//44
f 44//44 162//162 163//163
f 44//44 163//163 46//46
f 46//46 163//163 164//164
f 46//46 164//164 48//48
f 48//48 164//164 165//165
f 48//48 165//165 50//50
f 50//50 165//165 166//166
f 50//50 166//166 51//51
f 51//51 166//166 167//167
f 51//51 167//167 53//53
f 53//53 167//167 168//168
f 53//53 168//168 55//55
f 55//55 168//168 169//169
f 55//55 169//169 57//57
f 57//57 169//169 170//170
f 57//57 170//170 59//59
f 617//617 586//586 629//629
f 629//629 586//586 5//5
f 34//34 172//172 37//37
f 37//37 172//172 159//159
f 4//4 619//619 5//5
f 5//5 619//619 629//629
f 8//8 625//625 9//9
f 9//9 625//625 624//624
f 9//9 624//624 10//10
f 10//10 624//624 623//623
f 10//10 623//623 11//11
f 11//11 623//623 628//628
f 11//11 628//628 2//2
f 2//2 628//628 627//627
f 2//2 627//627 4//4
f 4//4 627//627 620//620
f 4//4 620//620 619//619
f 172//172 34//34 612//612
f 172//172 612//612 177//177
f 177//177 612//612 614//614
f 177//177 614//614 176//176
f 176//176 614//614 616//616
f 176//176 616//616 182//182
f 182//182 616//616 618//618
f 182//182 618//618 181//181
f 215//215 318//318 8//8
f 8//8 318//318 625//625
f 181//181 618//618 180//180
f 180//180 618//618 621//621
f 180//180 621//621 186//186
f 321//321 185//185 622//622
f 622//622 185//185 186//186
f 622//622 186//186 626//626
f 626//626 186//186 621//621
f 318//318 215//215 217//217
f 183//183 331//331 333//333
f 318//318 217//217 316//316
f 316//316 217//217 219//219
f 316//316 219//219 314//314
f 219//219 220//220 314//314
f 314//314 220//220 222//222
f 314//314 222//222 313//313
f 222//222 223//223 313//313
f 313//313 223//223 225//225
f 313//313 225//225 322//322
f 225//225 226//226 322//322
f 322//322 226//226 228//228
f 322//322 228//228 323//323
f 228//228 229//229 323//323
f 323//323 229//229 231//231
f 323//323 231//231 325//325
f 231//231 232//232 325//325
f 325//325 232//232 234//234
f 325//325 234//234 327//327
f 234//234 235//235 327//327
f 327//327 235//235 237//237
f 327//327 237//237 338//338
f 237//237 238//238 338//338
f 338//338 238//238 240//240
f 338//338 240//240 337//337
f 240//240 241//241 337//337
f 337//337 241//241 243//243
f 337//337 243//243 335//335
f 243//243 244//244 335//335
f 335//335 244//244 246//246
f 335//335 246//246 333//333
f 333//333 246//246 248//248
f 333//333 248//248 183//183
f 331//331 183//183 321//321
f 321//321 183//183 185//185
f 178//178 30//30 179//179
f 179//179 30//30 28//28
f 30//30 178//178 601//601
f 601//601 178//178 174//174
f 601//601 174//174 599//599
f 599//599 174//174 173//173
f 599//599 173//173 371//371
f 371//371 173//173 197//197
f 196//196 369//369 197//197
f 197//197 369//369 371//371
f 369//369 196//196 597//597
f 597//597 196//196 195//195
f 597//597 195//195 595//595
f 595//595 195//195 194//194
f 595//595 194//194 96//96
f 96//96 194//194 189//189
f 96//96 189//189 98//98
f 98//98 189//189 188//188
f 590//590 23//23 589//589
f 589//589 23//23 25//25
f 27//27 577//577 25//25
f 25//25 577//577 588//588
f 25//25 588//588 589//589
f 29//29 579//579 27//27
f 27//27 579//579 577//577
f 372//372 585//585 600//600
f 600//600 585//585 580//580
f 600//600 580//580 602//602
f 602//602 580//580 582//582
f 602//602 582//582 29//29
f 29//29 582//582 579//579
f 370//370 565//565 372//372
f 372//372 565//565 585//585
f 95//95 572//572 596//596
f 596//596 572//572 569//569
f 596//596 569//569 598//598
f 598//598 569//569 567//567
f 598//598 567//567 370//370
f 370//370 567//567 565//565
f 97//97 574//574 95//95
f 95//95 574//574 572//572
f 99//99 101//101 592//592
f 574//574 97//97 594//594
f 594//594 97//97 99//99
f 594//594 99//99 593//593
f 593//593 99//99 592//592
# 1288 faces, 0 coords texture

# End of File
